<svg id="Capa_1" data-name="Capa 1" xmlns="http://www.w3.org/2000/svg" viewBox="0 0 12.52 14.31"><defs><style>.cls-1{fill:#30302f;}</style></defs><path id="Icon_metro-file-video" data-name="Icon metro-file-video" class="cls-1" d="M11.93,3.2a12.38,12.38,0,0,0-1.22-1.39A12.38,12.38,0,0,0,9.32.59,2.18,2.18,0,0,0,8.05,0H1.12A1.12,1.12,0,0,0,0,1.12V13.2a1.12,1.12,0,0,0,1.12,1.11H11.4a1.12,1.12,0,0,0,1.12-1.11V4.47a2.27,2.27,0,0,0-.59-1.27Zm-1.85-.76a13.82,13.82,0,0,1,1,1.14H8.94V1.43A12.1,12.1,0,0,1,10.08,2.44ZM11.63,13.2a.22.22,0,0,1-.23.22H1.12a.22.22,0,0,1-.23-.22V1.12A.24.24,0,0,1,1.12.89H8.05V4a.45.45,0,0,0,.45.44h3.13Zm-9-6H7.16v4.47H2.68ZM7.16,9,9.84,7.16v4.47L7.16,9.84Z"/></svg>