<svg id="Capa_1" data-name="Capa 1" xmlns="http://www.w3.org/2000/svg" viewBox="0 0 31.5 31.49"><defs><style>.cls-1{fill:#313230;}</style></defs><path id="Icon_awesome-instagram" data-name="Icon awesome-instagram" class="cls-1" d="M15.75,7.67a8.08,8.08,0,1,0,8.08,8.08,8.08,8.08,0,0,0-8.08-8.08Zm0,13.32A5.25,5.25,0,1,1,21,15.75,5.25,5.25,0,0,1,15.75,21ZM26,7.34a1.88,1.88,0,1,1-3.76,0,1.86,1.86,0,0,1,1.87-1.88h0A1.88,1.88,0,0,1,26,7.34Zm5.35,1.91a9.35,9.35,0,0,0-2.54-6.6A9.41,9.41,0,0,0,22.25.11C19.64,0,11.85,0,9.25.11a9.37,9.37,0,0,0-6.6,2.54A9.33,9.33,0,0,0,.11,9.25c-.15,2.6-.15,10.39,0,13a9.33,9.33,0,0,0,2.54,6.6,9.41,9.41,0,0,0,6.6,2.54c2.6.15,10.39.15,13,0a9.37,9.37,0,0,0,6.6-2.54,9.44,9.44,0,0,0,2.54-6.6C31.54,19.64,31.54,11.85,31.39,9.25ZM28,25a5.3,5.3,0,0,1-3,3c-2.08.82-7,.63-9.29.63s-7.21.18-9.28-.63a5.3,5.3,0,0,1-3-3c-.82-2.08-.63-7-.63-9.28s-.18-7.22.63-9.29a5.33,5.33,0,0,1,3-3c2.08-.82,7-.63,9.29-.63S23,2.66,25,3.47a5.33,5.33,0,0,1,3,3c.82,2.08.63,7,.63,9.29S28.85,23,28,25Z"/></svg>