<svg id="Capa_1" data-name="Capa 1" xmlns="http://www.w3.org/2000/svg" viewBox="0 0 718.4 425.51"><defs><style>.cls-1{fill:#06519e;}.cls-2{fill:#db2f2e;}</style></defs><g id="Group_267" data-name="Group 267"><path id="Path_324" data-name="Path 324" class="cls-1" d="M33.4,346.8a15.44,15.44,0,0,1-6.4,1.1,11.37,11.37,0,0,1-12-10.6h0v-1.6A12.07,12.07,0,0,1,26.4,323h1.3a13,13,0,0,1,5.8,1.1l-.8,2.5a11.62,11.62,0,0,0-4.9-1,9,9,0,0,0-9.5,8.5h0v1.5a8.85,8.85,0,0,0,7.8,9.7h1.5a12.55,12.55,0,0,0,5.1-1Z"/><path id="Path_325" data-name="Path 325" class="cls-1" d="M53.3,338.7a8.51,8.51,0,0,1-7.7,9.2h-.9a8.28,8.28,0,0,1-8.4-8.2v-.8a8.52,8.52,0,0,1,7.8-9.2H45a8.26,8.26,0,0,1,8.4,8.1h0a2.77,2.77,0,0,0-.1.9m-13.8.2c0,3.8,2.2,6.7,5.3,6.7s5.3-2.8,5.3-6.8c0-3-1.5-6.7-5.2-6.7s-5.5,3.5-5.4,6.8"/><path id="Path_326" data-name="Path 326" class="cls-1" d="M73.7,338.7a8.51,8.51,0,0,1-7.7,9.2h-.9a8.34,8.34,0,0,1-8.4-8.2h0v-.8a8.52,8.52,0,0,1,7.8-9.2h.9a8.26,8.26,0,0,1,8.4,8.1h0a2.77,2.77,0,0,1-.1.9m-13.8.2c0,3.8,2.2,6.7,5.3,6.7s5.3-2.8,5.3-6.8c0-3-1.5-6.7-5.2-6.7s-5.4,3.5-5.4,6.8"/><path id="Path_327" data-name="Path 327" class="cls-1" d="M78.4,335.8c0-2.2-.1-4-.1-5.7h2.8l.1,3h.1a6.91,6.91,0,0,1,6.2-3.4,7.79,7.79,0,0,1,7.4,8.3h0a1.27,1.27,0,0,1-.1.6,8.29,8.29,0,0,1-7,9.3c-.3,0-.6.1-.9.1a6.17,6.17,0,0,1-5.4-2.7h-.1v9.5H78.3Zm3.2,4.7c0,.4.1.9.1,1.3a4.84,4.84,0,0,0,4.8,3.7c3.4,0,5.3-2.7,5.3-6.7,0-3.5-1.8-6.5-5.2-6.5a5.49,5.49,0,0,0-5,5.2v3Z"/><path id="Path_328" data-name="Path 328" class="cls-1" d="M101.4,339.4a5.59,5.59,0,0,0,5.1,6h.9a9.81,9.81,0,0,0,4.8-.9l.5,2.3a14.26,14.26,0,0,1-5.8,1.1,8.07,8.07,0,0,1-8.6-7.5h0v-1.2a8.42,8.42,0,0,1,7.4-9.3h.7a7.3,7.3,0,0,1,7.2,7.5h0v.7a7.57,7.57,0,0,1-.1,1.5Zm9.3-2.2a4.44,4.44,0,0,0-3.8-5.1h-.6a5.3,5.3,0,0,0-4.9,5.1Z"/><path id="Path_329" data-name="Path 329" class="cls-1" d="M118.4,335.6c0-2,0-3.8-.1-5.4h2.8l.1,3.4h.1a5.23,5.23,0,0,1,4.8-3.8,2.77,2.77,0,0,1,.9.1v3a4.1,4.1,0,0,0-1.1-.1,4.35,4.35,0,0,0-4.2,4.1,7.57,7.57,0,0,0-.1,1.5v9.3h-3.1Z"/><path id="Path_330" data-name="Path 330" class="cls-1" d="M140.3,347.6l-.2-2.2H140a6.15,6.15,0,0,1-5.3,2.6,5,5,0,0,1-5.3-4.6V343c0-4.2,3.7-6.5,10.5-6.5v-.3a3.59,3.59,0,0,0-3.1-4H136a8.74,8.74,0,0,0-4.5,1.3l-.7-2.1a10.37,10.37,0,0,1,5.7-1.5c5.3,0,6.6,3.6,6.6,7.1v6.5a29.66,29.66,0,0,0,.3,4.2Zm-.5-8.9c-3.5-.1-7.4.5-7.4,3.9a2.8,2.8,0,0,0,2.6,3h.4a4.2,4.2,0,0,0,4.2-2.9,3.55,3.55,0,0,0,.2-1Z"/><path id="Path_331" data-name="Path 331" class="cls-1" d="M161.1,346.9a12.41,12.41,0,0,1-5,1,8.34,8.34,0,0,1-8.7-7.8v-1a8.83,8.83,0,0,1,8.4-9.2h.9a11.17,11.17,0,0,1,4.4.9l-.7,2.4a6.71,6.71,0,0,0-3.7-.8,6.43,6.43,0,0,0-6.8,6.2,6.5,6.5,0,0,0,6.2,6.8h.5a8.91,8.91,0,0,0,3.9-.9Z"/><path id="Path_332" data-name="Path 332" class="cls-1" d="M169,325.3a2,2,0,1,1-4,.8,1.1,1.1,0,0,1,0-.8,1.91,1.91,0,0,1,1.8-2h.1a1.89,1.89,0,0,1,2,1.8h0c.2,0,.2.1.1.2m-3.4,4.8h3.2v17.4h-3.2Z"/><path id="Path_333" data-name="Path 333" class="cls-1" d="M190.4,338.7a8.44,8.44,0,0,1-7.7,9.2h-.9a8.28,8.28,0,0,1-8.4-8.2v-.8a8.51,8.51,0,0,1,7.7-9.2h.9a8.26,8.26,0,0,1,8.4,8.1h0v.9m-13.8.2c0,3.8,2.2,6.7,5.3,6.7s5.3-2.8,5.3-6.8c0-2.9-1.5-6.7-5.2-6.7s-5.4,3.5-5.4,6.8m10-16.3-4.4,5.1h-2.3l3.2-5.1Z"/><path id="Path_334" data-name="Path 334" class="cls-1" d="M195.1,334.9c0-1.8,0-3.3-.1-4.7h2.8l.2,2.9h.1a6.59,6.59,0,0,1,5.8-3.3c2.4,0,6.1,1.4,6.1,7.4v10.4h-3.2v-10c0-2.8-1-5.1-4-5.1a4.72,4.72,0,0,0-4.5,4.7v10.5h-3.2Z"/><path id="Path_335" data-name="Path 335" class="cls-1" d="M244,346.8a15.44,15.44,0,0,1-6.4,1.1,11.37,11.37,0,0,1-12-10.6h0v-1.6A12,12,0,0,1,237,323h1.3a13,13,0,0,1,5.8,1.1l-.8,2.5a11.62,11.62,0,0,0-4.9-1,9,9,0,0,0-9.5,8.5h0v1.5a8.85,8.85,0,0,0,7.8,9.7h1.5a12.55,12.55,0,0,0,5.1-1Z"/><path id="Path_336" data-name="Path 336" class="cls-1" d="M248.6,322h3.2v10.9h.1a5.44,5.44,0,0,1,2.3-2.2,6.2,6.2,0,0,1,3.2-.9c2.3,0,6.1,1.4,6.1,7.5v10.4h-3.2v-10c0-2.8-1-5.2-4-5.2a4.47,4.47,0,0,0-4.2,3.2,3.89,3.89,0,0,0-.2,1.5v10.5h-3.2Z"/><path id="Path_337" data-name="Path 337" class="cls-1" d="M272.8,325.3a2,2,0,0,1-2.3,1.6,2.17,2.17,0,0,1-1.6-1.6,1.92,1.92,0,0,1,1.9-2h.1a1.89,1.89,0,0,1,2,1.8h0c-.1,0-.1.1-.1.2m-3.5,4.8h3.2v17.4h-3.2Z"/><rect id="Rectangle_175" data-name="Rectangle 175" class="cls-1" x="278.4" y="322" width="3.2" height="25.5"/><path id="Path_338" data-name="Path 338" class="cls-1" d="M289.3,339.4a5.59,5.59,0,0,0,5.1,6h.9a10,10,0,0,0,4.8-.9l.5,2.3a14.26,14.26,0,0,1-5.8,1.1,8.07,8.07,0,0,1-8.6-7.5v-1.2a8.42,8.42,0,0,1,7.4-9.3h.7a7.3,7.3,0,0,1,7.2,7.5h0v.7a7.57,7.57,0,0,1-.1,1.5Zm9.3-2.2a4.51,4.51,0,0,0-3.8-5.1h-.6a5.3,5.3,0,0,0-4.9,5.1Z"/><path id="Path_339" data-name="Path 339" class="cls-1" d="M306.3,334.9c0-1.8,0-3.3-.1-4.7H309l.2,2.9h.1a6.59,6.59,0,0,1,5.8-3.3c2.4,0,6.1,1.4,6.1,7.4v10.4H318v-10c0-2.8-1-5.1-4-5.1a4.72,4.72,0,0,0-4.5,4.7v10.5h-3.2Z"/><path id="Path_340" data-name="Path 340" class="cls-1" d="M336.6,347.6l-.2-2.2h-.1A6.15,6.15,0,0,1,331,348a5,5,0,0,1-5.3-4.6V343c0-4.2,3.7-6.5,10.5-6.5v-.3a3.59,3.59,0,0,0-3.1-4h-.8a8.74,8.74,0,0,0-4.5,1.3l-.7-2.1a10.37,10.37,0,0,1,5.7-1.5c5.3,0,6.6,3.6,6.6,7.1v6.5a29.66,29.66,0,0,0,.3,4.2Zm-.5-8.9c-3.5-.1-7.4.5-7.4,3.9a2.8,2.8,0,0,0,2.6,3h.4a4.2,4.2,0,0,0,4.2-2.9,3.55,3.55,0,0,0,.2-1Z"/><path id="Path_341" data-name="Path 341" class="cls-1" d="M353.4,335.8c0-2.2-.1-4-.1-5.7h2.8l.1,3h.1a6.91,6.91,0,0,1,6.2-3.4,7.79,7.79,0,0,1,7.4,8.3h0a1.27,1.27,0,0,1-.1.6,8.24,8.24,0,0,1-7,9.3h0c-.3,0-.6.1-.9.1a6.17,6.17,0,0,1-5.4-2.7h-.1v9.5h-3.1Zm3.1,4.7c0,.4.1.9.1,1.3a4.81,4.81,0,0,0,4.7,3.7c3.4,0,5.3-2.7,5.3-6.7,0-3.5-1.8-6.5-5.2-6.5a5,5,0,0,0-4.8,3.9,5.85,5.85,0,0,0-.2,1.3v3Z"/><path id="Path_342" data-name="Path 342" class="cls-1" d="M384.2,347.6l-.2-2.2h-.1a6.15,6.15,0,0,1-5.3,2.6,5,5,0,0,1-5.3-4.6V343c0-4.2,3.7-6.5,10.5-6.5v-.3a3.54,3.54,0,0,0-3.1-4h-.8a8.74,8.74,0,0,0-4.5,1.3l-.7-2.1a10.37,10.37,0,0,1,5.7-1.5c5.3,0,6.6,3.6,6.6,7.1v6.5a29.66,29.66,0,0,0,.3,4.2Zm-.5-8.9c-3.5-.1-7.4.5-7.4,3.9a2.8,2.8,0,0,0,2.6,3h.4a4.2,4.2,0,0,0,4.2-2.9,3.55,3.55,0,0,0,.2-1Z"/><path id="Path_343" data-name="Path 343" class="cls-1" d="M392.6,335.6c0-2,0-3.8-.1-5.4h2.8l.1,3.4h.1a5.23,5.23,0,0,1,4.8-3.8,2.77,2.77,0,0,1,.9.1v3a4.1,4.1,0,0,0-1.1-.1,4.35,4.35,0,0,0-4.2,4.1,7.57,7.57,0,0,0-.1,1.5v9.3h-3.1Z"/><path id="Path_344" data-name="Path 344" class="cls-1" d="M414.5,347.6l-.2-2.2h-.1a6.15,6.15,0,0,1-5.3,2.6,5,5,0,0,1-5.3-4.6V343c0-4.2,3.7-6.5,10.5-6.5v-.3a3.59,3.59,0,0,0-3.1-4h-.8a8.74,8.74,0,0,0-4.5,1.3l-.7-2.1a10.37,10.37,0,0,1,5.7-1.5c5.3,0,6.6,3.6,6.6,7.1v6.5a29.66,29.66,0,0,0,.3,4.2Zm-.4-8.9c-3.5-.1-7.4.5-7.4,3.9a2.8,2.8,0,0,0,2.6,3h.4a4.2,4.2,0,0,0,4.2-2.9,3.55,3.55,0,0,0,.2-1Z"/><path id="Path_345" data-name="Path 345" class="cls-1" d="M433,339.4a5.65,5.65,0,0,0,5.1,6h.9a9.81,9.81,0,0,0,4.8-.9l.5,2.3a14.26,14.26,0,0,1-5.8,1.1,8.07,8.07,0,0,1-8.6-7.5v-1.2a8.43,8.43,0,0,1,7.5-9.3h.7a7.3,7.3,0,0,1,7.2,7.5h0v.7a7.57,7.57,0,0,1-.1,1.5Zm9.3-2.2a4.58,4.58,0,0,0-3.8-5.1h-.6a5.3,5.3,0,0,0-4.9,5.1Z"/><rect id="Rectangle_176" data-name="Rectangle 176" class="cls-1" x="450" y="322" width="3.2" height="25.5"/><path id="Path_346" data-name="Path 346" class="cls-1" d="M467.7,323.6a49.13,49.13,0,0,1,6.7-.5,13.83,13.83,0,0,1,9.8,3,11,11,0,0,1,3.4,8.7,12.56,12.56,0,0,1-3.5,9.4,14.92,14.92,0,0,1-10.7,3.5,54.41,54.41,0,0,1-5.7-.3V323.6Zm3.1,21.5c1.1.1,2.1.2,3.2.2a9.32,9.32,0,0,0,10.3-8.2,7.39,7.39,0,0,0,0-2.1,8.65,8.65,0,0,0-7.8-9.4h0a13.35,13.35,0,0,0-2,0,23.08,23.08,0,0,0-3.7.3Z"/><path id="Path_347" data-name="Path 347" class="cls-1" d="M494.1,339.4a5.59,5.59,0,0,0,5.1,6h.9a9.81,9.81,0,0,0,4.8-.9l.5,2.3a14.26,14.26,0,0,1-5.8,1.1,8.13,8.13,0,0,1-8.6-7.5v-1.3a8.43,8.43,0,0,1,7.5-9.3h.7a7.45,7.45,0,0,1,7.3,7.5h0v.7a7.57,7.57,0,0,1-.1,1.5Zm9.3-2.2a4.51,4.51,0,0,0-3.8-5.1H499a5.3,5.3,0,0,0-4.9,5.1Z"/><path id="Path_348" data-name="Path 348" class="cls-1" d="M510.7,344.3a9,9,0,0,0,4.2,1.3c2.3,0,3.4-1.1,3.4-2.6s-.9-2.3-3.2-3.2c-3.1-1.1-4.6-2.8-4.6-4.9a5.24,5.24,0,0,1,5.6-5.1h.4a9.16,9.16,0,0,1,4.3,1.1l-.8,2.3a6.53,6.53,0,0,0-3.6-1c-1.9,0-2.9,1.1-2.9,2.4s1,2.1,3.3,2.9c3,1.2,4.6,2.7,4.6,5.2,0,3.1-2.4,5.2-6.5,5.2a10.44,10.44,0,0,1-4.9-1.2Z"/><path id="Path_349" data-name="Path 349" class="cls-1" d="M535.7,347.6l-.2-2.2h-.1a6.15,6.15,0,0,1-5.3,2.6,5,5,0,0,1-5.3-4.6V343c0-4.2,3.7-6.5,10.5-6.5v-.3a3.59,3.59,0,0,0-3.1-4h-.8a8.74,8.74,0,0,0-4.5,1.3l-.7-2.1a10.37,10.37,0,0,1,5.7-1.5c5.3,0,6.6,3.6,6.6,7.1v6.5a29.66,29.66,0,0,0,.3,4.2Zm-.5-8.9c-3.5-.1-7.4.5-7.4,3.9a2.8,2.8,0,0,0,2.6,3h.4a4.33,4.33,0,0,0,4.2-2.9,3.55,3.55,0,0,0,.2-1v-3Z"/><path id="Path_350" data-name="Path 350" class="cls-1" d="M544.1,335.6c0-2,0-3.8-.1-5.4h2.8l.1,3.4h.1a5.23,5.23,0,0,1,4.8-3.8,2.77,2.77,0,0,1,.9.1v3a4.1,4.1,0,0,0-1.1-.1,4.35,4.35,0,0,0-4.2,4.1,7.57,7.57,0,0,0-.1,1.5v9.3h-3.1Z"/><path id="Path_351" data-name="Path 351" class="cls-1" d="M556.7,335.6c0-2,0-3.8-.1-5.4h2.8l.1,3.4h.1a5.23,5.23,0,0,1,4.8-3.8,2.77,2.77,0,0,1,.9.1v3a4.1,4.1,0,0,0-1.1-.1,4.35,4.35,0,0,0-4.2,4.1,7.57,7.57,0,0,0-.1,1.5v9.3h-3.1Z"/><path id="Path_352" data-name="Path 352" class="cls-1" d="M584.6,338.7a8.51,8.51,0,0,1-7.7,9.2H576a8.28,8.28,0,0,1-8.4-8.2v-.8a8.52,8.52,0,0,1,7.8-9.2h.9a8.26,8.26,0,0,1,8.4,8.1h0a2.77,2.77,0,0,0-.1.9m-13.8.2c0,3.8,2.2,6.7,5.3,6.7s5.3-2.8,5.3-6.8c0-3-1.5-6.7-5.2-6.7s-5.5,3.5-5.4,6.8"/><rect id="Rectangle_177" data-name="Rectangle 177" class="cls-1" x="589.3" y="322" width="3.2" height="25.5"/><rect id="Rectangle_178" data-name="Rectangle 178" class="cls-1" x="598.5" y="322" width="3.2" height="25.5"/><path id="Path_353" data-name="Path 353" class="cls-1" d="M623.4,338.7a8.51,8.51,0,0,1-7.7,9.2h-.9a8.34,8.34,0,0,1-8.4-8.2h0v-.8a8.52,8.52,0,0,1,7.8-9.2h.9a8.26,8.26,0,0,1,8.4,8.1h0a2.77,2.77,0,0,1-.1.9m-13.8.2c0,3.8,2.2,6.7,5.3,6.7s5.3-2.8,5.3-6.8c0-3-1.5-6.7-5.2-6.7s-5.4,3.5-5.4,6.8"/><path id="Path_354" data-name="Path 354" class="cls-1" d="M49.2,425.1l-.4-15.9h-.1a34.91,34.91,0,0,1-.9,4.5L45.1,425H39.7l-2.6-11.3c-.2-1.1-.6-2.5-.9-4.5h-.1l-.2,15.9H32.6l.7-18.8h6.2s2.1,9.5,3.1,15.5h.1c1.2-6,3.7-15.5,3.7-15.5h6.1l.7,18.8Z"/><rect id="Rectangle_179" data-name="Rectangle 179" class="cls-1" x="59.3" y="406.3" width="3.6" height="18.8"/><path id="Path_355" data-name="Path 355" class="cls-1" d="M78.2,425.1l-5.9-14.8h-.1l.2,14.8H69.1V406.3h5.7l5.9,15.1h.1l-.2-15.1H84v18.8Z"/><rect id="Rectangle_180" data-name="Rectangle 180" class="cls-1" x="90.3" y="406.3" width="3.6" height="18.8"/><path id="Path_356" data-name="Path 356" class="cls-1" d="M105.7,425.3a10.36,10.36,0,0,1-6.1-2l1.4-2.9a8.34,8.34,0,0,0,4.8,1.8,2.66,2.66,0,0,0,2.9-2.3v-.1c0-4-8.7-2-8.7-8.6,0-2.8,2.2-5.2,6.6-5.2a12.12,12.12,0,0,1,5.6,1.3l-1.2,2.9a9.76,9.76,0,0,0-4.4-1c-1.7,0-2.8.6-2.8,2,0,3.4,8.7,2,8.7,8.5a6.13,6.13,0,0,1-6.4,5.8c-.2-.1-.3-.1-.4-.2"/><path id="Path_357" data-name="Path 357" class="cls-1" d="M123.9,409.4v15.7h-3.8V409.4h-4.5v-3.1h13v3.1Z"/><path id="Path_358" data-name="Path 358" class="cls-1" d="M133.1,425.1V406.3h11.5v3.1h-7.9V414h6l-.3,3.2h-5.8V422h7.9v3Z"/><path id="Path_359" data-name="Path 359" class="cls-1" d="M153.4,425.1h-3.6V406.3h6c3.7,0,6.7,1.7,6.7,5.6a5.77,5.77,0,0,1-3.6,5.4c1.3,2.6,2.7,5.1,4,7.7h-4.3l-3.1-7.1h-2.2Zm1.9-16h-1.8v6h1.8c2.4,0,3.4-1.1,3.4-3.2s-1.3-2.8-3.4-2.8"/><rect id="Rectangle_181" data-name="Rectangle 181" class="cls-1" x="168.1" y="406.3" width="3.6" height="18.8"/><path id="Path_360" data-name="Path 360" class="cls-1" d="M185.5,425.3c-6.2,0-8-4.7-8-9.8,0-4.9,1.7-9.5,8-9.5s8,4.5,8,9.5-1.8,9.8-8,9.8m0-16.1c-3.3,0-4.1,3-4.1,6.3,0,3.7.8,6.8,4.1,6.8s4.2-3,4.2-6.8c0-3.4-.9-6.3-4.2-6.3"/><path id="Path_361" data-name="Path 361" class="cls-1" d="M217.7,425.3a21.77,21.77,0,0,1-6.7-1V406.2h6.3c5.5,0,8.9,2.2,8.9,9.2-.1,6.2-2.7,9.9-8.5,9.9m-.6-16.1h-2.5v12.6a11.7,11.7,0,0,0,3.2.4c2.4,0,4.4-1.4,4.4-6.8.1-4.5-1.4-6.2-5.1-6.2"/><path id="Path_362" data-name="Path 362" class="cls-1" d="M231.7,425.1V406.3h11.5v3.1h-7.9V414h6l-.3,3.2h-5.8V422h7.9v3Z"/><path id="Path_363" data-name="Path 363" class="cls-1" d="M262.6,425.1H259V406.3h6c3.7,0,6.7,1.7,6.7,5.6a5.77,5.77,0,0,1-3.6,5.4c1.3,2.6,2.7,5.1,4,7.7h-4.3l-3.1-7.1h-2.2Zm1.8-16h-1.8v6h1.8c2.4,0,3.4-1.1,3.4-3.2s-1.2-2.8-3.4-2.8"/><path id="Path_364" data-name="Path 364" class="cls-1" d="M276.9,425.1V406.3h11.5v3.1h-7.9V414h6l-.3,3.2h-5.8V422h7.9v3Z"/><path id="Path_365" data-name="Path 365" class="cls-1" d="M293.7,425.1V406.3h3.6V422h7.9v3H293.7Z"/><path id="Path_366" data-name="Path 366" class="cls-1" d="M311.7,425.1h-3.6l5.1-18.8h6.1l4.9,18.8h-4.1l-1-4.2h-6.5Zm3.7-15.6-2.1,8.4h5.1l-1.9-8.4Z"/><path id="Path_367" data-name="Path 367" class="cls-1" d="M335.6,425.3c-5.3,0-8.1-3.5-8.1-9.8,0-5.8,2.8-9.6,8.1-9.6a12,12,0,0,1,6.4,1.6l-1.4,3a7.68,7.68,0,0,0-4.6-1.3c-3.1,0-4.7,2.2-4.7,6.3,0,4.3,1.6,6.5,4.6,6.5a10,10,0,0,0,5-1.7l1.2,2.9a9.76,9.76,0,0,1-6.5,2.1"/><rect id="Rectangle_182" data-name="Rectangle 182" class="cls-1" x="347.3" y="406.3" width="3.6" height="18.8"/><path id="Path_368" data-name="Path 368" class="cls-1" d="M364.7,425.3c-6.2,0-8-4.7-8-9.8,0-4.9,1.7-9.5,8-9.5s8,4.5,8,9.5-1.9,9.8-8,9.8m0-16.1c-3.3,0-4.1,3-4.1,6.3,0,3.7.8,6.8,4.1,6.8s4.2-3,4.2-6.8c-.1-3.4-1-6.3-4.2-6.3"/><path id="Path_369" data-name="Path 369" class="cls-1" d="M387,425.1l-5.9-14.7H381l.2,14.8h-3.3V406.4h5.6l5.9,15.1h.1l-.2-15.1h3.4v18.8Z"/><path id="Path_370" data-name="Path 370" class="cls-1" d="M398.7,425.1V406.3h11.5v3.1h-7.9V414h6l-.3,3.2h-5.8V422h7.9v3Z"/><path id="Path_371" data-name="Path 371" class="cls-1" d="M420,425.3a10.36,10.36,0,0,1-6.1-2l1.4-2.9a8.34,8.34,0,0,0,4.8,1.8,2.66,2.66,0,0,0,2.9-2.3v-.1c0-4-8.7-2-8.7-8.6,0-2.8,2.2-5.2,6.6-5.2a12.12,12.12,0,0,1,5.6,1.3l-1.2,2.9a9.76,9.76,0,0,0-4.4-1c-1.7,0-2.8.6-2.8,2,0,3.4,8.7,2,8.7,8.5a6.13,6.13,0,0,1-6.4,5.8h-.3"/><path id="Path_372" data-name="Path 372" class="cls-1" d="M443.1,425.1V406.3h11.5v3.1h-7.9V414h6l-.3,3.2h-5.8V422h7.9v3Z"/><path id="Path_373" data-name="Path 373" class="cls-1" d="M463.3,406.3l3.3,6.1,3.3-6.1h4.4l-6,9.2,5.8,9.5h-4.5l-3.6-6.2-3.5,6.2h-4.4l6.1-9.4-5.6-9.4Z"/><path id="Path_374" data-name="Path 374" class="cls-1" d="M485.6,409.4v15.7h-3.8V409.4h-4.5v-3.1h13v3.1Z"/><path id="Path_375" data-name="Path 375" class="cls-1" d="M494.7,425.1V406.3h11.5v3.1h-7.9V414h6l-.3,3.2h-5.8V422h7.9v3Z"/><path id="Path_376" data-name="Path 376" class="cls-1" d="M515,425.1h-3.6V406.3h6c3.7,0,6.7,1.7,6.7,5.6a5.77,5.77,0,0,1-3.6,5.4c1.3,2.6,2.7,5.1,4,7.7h-4.3l-3.1-7.1h-2.2Zm1.9-16h-1.8v6H517c2.4,0,3.4-1.1,3.4-3.2s-1.3-2.8-3.5-2.8"/><rect id="Rectangle_183" data-name="Rectangle 183" class="cls-1" x="529.8" y="406.3" width="3.6" height="18.8"/><path id="Path_377" data-name="Path 377" class="cls-1" d="M547.1,425.3c-6.2,0-8-4.7-8-9.8,0-4.9,1.7-9.5,8-9.5s8,4.5,8,9.5-1.8,9.8-8,9.8m0-16.1c-3.3,0-4.1,3-4.1,6.3,0,3.7.8,6.8,4.1,6.8s4.2-3,4.2-6.8c0-3.4-.9-6.3-4.2-6.3"/><path id="Path_378" data-name="Path 378" class="cls-1" d="M564,425.1h-3.6V406.3h6c3.7,0,6.7,1.7,6.7,5.6a5.77,5.77,0,0,1-3.6,5.4c1.3,2.6,2.7,5.1,4,7.7h-4.3l-3.1-7.1h-2.2Zm1.8-16H564v6h1.9c2.4,0,3.4-1.1,3.4-3.2s-1.2-2.8-3.5-2.8"/><path id="Path_379" data-name="Path 379" class="cls-1" d="M578.3,425.1V406.3h11.5v3.1h-7.9V414h6l-.3,3.2h-5.8V422h7.9v3Z"/><path id="Path_380" data-name="Path 380" class="cls-1" d="M599.7,425.3a10.36,10.36,0,0,1-6.1-2l1.4-2.9a8.34,8.34,0,0,0,4.8,1.8,2.66,2.66,0,0,0,2.9-2.3v-.1c0-4-8.7-2-8.7-8.6,0-2.8,2.2-5.2,6.6-5.2a12.12,12.12,0,0,1,5.6,1.3l-1.2,2.9a9.76,9.76,0,0,0-4.4-1c-1.7,0-2.8.6-2.8,2,0,3.4,8.7,2,8.7,8.5a6.13,6.13,0,0,1-6.4,5.8l-.4-.2"/><path id="Path_381" data-name="Path 381" class="cls-2" d="M291.4,266.1a27.61,27.61,0,0,1-21,10.3c-17.3,0-29.4-12.8-29.4-38.2,0-22.2,11-37.9,30.6-37.9a30.59,30.59,0,0,1,19.5,6.3,118.53,118.53,0,0,1-.6-11.9V172h11.3V274.9h-8.5Zm-.9-51.9a31.16,31.16,0,0,0-17.8-5.2c-13.8,0-20.3,10.7-20.3,29.2,0,18,5.8,29.7,19.5,29.7a24.7,24.7,0,0,0,18.5-9.2Z"/><path id="Path_382" data-name="Path 382" class="cls-2" d="M270.4,278.7c-19.8,0-31.7-15.1-31.7-40.5,0-24.4,12.9-40.2,32.9-40.2a35.38,35.38,0,0,1,16.9,4c-.1-2.3-.2-4.7-.2-7.4V169.7h15.9V277.2H291.6l-1.4-6.3a30.41,30.41,0,0,1-19.8,7.8m1.2-76c-17.5,0-28.3,13.6-28.3,35.6,0,22.8,9.9,35.9,27.1,35.9a25.51,25.51,0,0,0,19.2-9.4l3-3.9,2.6,11.8h4.4V174.3h-6.8v20.4a114.6,114.6,0,0,0,.6,11.7l.6,5.4-4.3-3.4a28.34,28.34,0,0,0-18.1-5.7m.5,67.5c-10,0-21.8-5.5-21.8-32,0-11.8,2.9-31.5,22.6-31.5a33.57,33.57,0,0,1,19,5.6l1,.7v46.5l-.6.7a27.5,27.5,0,0,1-20.2,10m.7-59c-12,0-18,9.1-18,26.9,0,18.2,5.8,27.4,17.3,27.4a21.68,21.68,0,0,0,16.2-7.9V215.3a31,31,0,0,0-15.5-4.1"/><path id="Path_383" data-name="Path 383" class="cls-2" d="M131.7,201.4v65.8c0,23.4-7.5,38.3-33.1,38.3-7.5,0-19-2.3-23.4-9.1l4.9-5.4a29.25,29.25,0,0,0,18.8,5.2c16.4,0,22.3-9.8,22.1-24.9v-5.1a25.86,25.86,0,0,1-20.9,9.8c-23.2,0-29.5-18.3-29.5-38.2s6.3-38.2,29.5-38.2a25.73,25.73,0,0,1,20.9,9.8v-8Zm-29.8,65a25.78,25.78,0,0,0,19.2-10.3V219.5a25.61,25.61,0,0,0-19.2-10.3c-18,0-20.6,13.8-20.6,28.6s2.7,28.6,20.6,28.6"/><path id="Path_384" data-name="Path 384" class="cls-2" d="M98.6,307.9c-8.7,0-20.5-2.6-25.3-10.1l-1-1.5,7.5-8.3,1.7,1.4a28,28,0,0,0,17.3,4.7,19.59,19.59,0,0,0,14.6-4.9,24.25,24.25,0,0,0,5.3-17.2,31.25,31.25,0,0,1-18.6,6.2c-20.8,0-31.7-14-31.7-40.5s11-40.4,31.7-40.4a31,31,0,0,1,18.6,6.2v-4.4h15.2v68.1c.1,36.5-20.1,40.6-35.3,40.7M78.2,296.7a30.09,30.09,0,0,0,20.4,6.7c21.6,0,30.8-10.8,30.8-36V203.8h-6.1v13.5l-4.2-6.5a23.65,23.65,0,0,0-19-8.7c-18,0-27.2,12.1-27.2,35.9s9.2,35.9,27.2,35.9a24.09,24.09,0,0,0,19-8.7l4.2-6.5v13a28.14,28.14,0,0,1-6.6,21,23.81,23.81,0,0,1-17.8,6.2,34.94,34.94,0,0,1-18.5-4.4Zm23.7-28C79,268.7,79,247.1,79,237.8s0-30.9,22.9-30.9a28.09,28.09,0,0,1,21,11.1l.5.7v38.2l-.5.7a27.47,27.47,0,0,1-21,11.1m0-57.1c-15.2,0-18.3,10.5-18.3,26.3s3.1,26.3,18.3,26.3a23.38,23.38,0,0,0,16.9-8.8v-35a22.7,22.7,0,0,0-16.9-8.8"/><path id="Path_385" data-name="Path 385" class="cls-2" d="M50.5,274.7l-2-9.4a28.82,28.82,0,0,1-22.6,11A22,22,0,0,1,2.3,256.2a17.7,17.7,0,0,1-.1-2.3c0-12.7,9.3-21,25.9-21h19v-5.8c0-12.7-5.5-18.1-16.6-18.1a53.45,53.45,0,0,0-22.2,4.8l-3-8.2a64.39,64.39,0,0,1,26.6-5.5c17.4,0,26.2,9,26.2,26.5v48.3Zm-3.2-34.2H30.1c-12.4,0-16.6,5.4-16.6,12.7a13.54,13.54,0,0,0,12.2,14.7,11.45,11.45,0,0,0,3.2-.1,26.17,26.17,0,0,0,18.4-9.1Z"/><path id="Path_386" data-name="Path 386" class="cls-2" d="M26,278.4A24.33,24.33,0,0,1,.1,256h0c0-.8-.1-1.5-.1-2.3,0-14.3,10.8-23.2,28.2-23.2H44.9V227c0-11.1-4.3-15.8-14.3-15.8a51.5,51.5,0,0,0-21.2,4.6l-2.2,1L2.7,204.3l2-.9a67.12,67.12,0,0,1,27.5-5.7c18.6,0,28.5,9.9,28.5,28.8v50.6H48.8l-1.4-6.9A31.48,31.48,0,0,1,26,278.4m2.3-43.3c-15,0-23.6,6.8-23.6,18.7A19.6,19.6,0,0,0,23.8,274h0a16.2,16.2,0,0,0,2.2-.1,26.75,26.75,0,0,0,20.8-10l3-3.9,2.6,12.4H56v-46c0-16.3-7.8-24.2-23.9-24.2a62,62,0,0,0-23.7,4.5l1.4,3.9a57,57,0,0,1,20.8-4c12.7,0,18.9,6.7,18.9,20.4v8.1Zm.6,35.1a15.75,15.75,0,0,1-17.6-13.7,18.21,18.21,0,0,1-.1-3.3c0-6.8,3.3-15,18.9-15H49.6v21.4l-.6.7a28.27,28.27,0,0,1-20.1,9.9m1.2-27.4c-12.9,0-14.3,6-14.3,10.4,0,8.2,4.4,12.4,13.1,12.4A23.49,23.49,0,0,0,45,257.9v-15Z"/><path id="Path_387" data-name="Path 387" class="cls-2" d="M200.8,269.7a52.22,52.22,0,0,1-24.4,6.4c-18.6,0-32-10.9-32-38.1,0-24.8,13.6-38.2,32-38.2a47.26,47.26,0,0,1,23.9,5.8l-3.3,8.1a40,40,0,0,0-20-4.8c-13.2,0-21.2,10.5-21.2,29,0,20.6,8.1,29.3,21.2,29.3a41.39,41.39,0,0,0,21.1-6.1Z"/><path id="Path_388" data-name="Path 388" class="cls-2" d="M176.4,278.4c-12.8,0-34.3-5.2-34.3-40.4,0-24.6,13.5-40.4,34.3-40.4a49,49,0,0,1,25.1,6.2l1.6,1-5,12.3-2.3-1.3a37.69,37.69,0,0,0-18.9-4.5c-12,0-19,9.7-19,26.7,0,18.2,6.2,27,19,27a39,39,0,0,0,19.9-5.8l2.5-1.5,4.1,13.1-1.6.9a53.49,53.49,0,0,1-25.4,6.7m0-76.3c-18.3,0-29.7,13.8-29.7,35.9,0,23.5,10.3,35.9,29.7,35.9a50.5,50.5,0,0,0,21.6-5.2l-1.3-4a44,44,0,0,1-19.8,5c-10.7,0-23.5-5.5-23.5-31.6,0-19.6,8.8-31.3,23.5-31.3a43.89,43.89,0,0,1,18.9,3.9l1.6-3.9a45.4,45.4,0,0,0-21-4.7"/><path id="Path_389" data-name="Path 389" class="cls-2" d="M214.7,201.5h11.1v73.3H214.7Zm-1-28.8h12.1v12H213.7Z"/><path id="Path_390" data-name="Path 390" class="cls-2" d="M228.1,277.2H212.5V199.3h15.6ZM217,272.6h6.5V203.8H217ZM228.1,187H211.4V170.4h16.7ZM216,182.4h7.5V175H216Z"/><path id="Path_391" data-name="Path 391" class="cls-1" d="M559.9,0a148.37,148.37,0,0,1,33.5,15.7L605.3,2.1l8.9,27.1a209.36,209.36,0,0,1,30.6,25.7l-26.6-1.8,2.4,43.4L598.9,53.9l-35.4,3.5L584.4,31A125.14,125.14,0,0,0,559.9,0"/><path id="Path_392" data-name="Path 392" class="cls-1" d="M669.7,133.6l-16.6,4-13.4-23.1a155.56,155.56,0,0,1,1.1,26.4l-18.9,6.9,18.5,10.8-2.5,26.6,13.9-19.3,15.3,13.2-8.4-25.9Z"/><path id="Path_393" data-name="Path 393" class="cls-1" d="M668.1,86.8l-11.3,3.3,14.1,6.2,5.2,17,2.1-10,9.3,8.1-7.6-17.2,2.9-11.5-9.7,2.6L661.4,72.7Z"/><path id="Path_394" data-name="Path 394" class="cls-1" d="M707,191.9l11.4-16.2-11.9-7.2a136.84,136.84,0,0,0-7-39.1,225,225,0,0,1-3.2,34.7,55.36,55.36,0,0,0-20.4-6A70.05,70.05,0,0,1,691.2,185a97,97,0,0,1-13.1,31.5l19.4-14.2a143,143,0,0,1,5.1,25.9,134.7,134.7,0,0,0,4.4-36.3"/><path id="Path_395" data-name="Path 395" class="cls-1" d="M683,252.7a38.2,38.2,0,0,1-11.8,10.5,23.88,23.88,0,0,1,9.6-.5,84.08,84.08,0,0,1-4,15.7l9.2-16.1,7.8-1.4-2.7-10.4,7.3-16.8a66.36,66.36,0,0,1-9.2,11.9l-4.8-8.6Z"/><path id="Path_396" data-name="Path 396" class="cls-1" d="M595.4,110.8l6.4,17,3.3-10.5a104.2,104.2,0,0,1,15,10.6l-13.4-16.3,1.6-8.9h-9.6L583.4,88.9l8.3,13.7-12.6.5Z"/><path id="Path_397" data-name="Path 397" class="cls-1" d="M368.9,278.8c-30.4,0-49.8-21.9-49.8-53.1s19.3-53.1,49.8-53.1c19.2,0,31.9,6.8,40,19.3l-15.6,8.5A26.4,26.4,0,0,0,368.9,188c-20.5,0-31.6,14.6-31.6,37.6s11.1,37.6,31.6,37.6a29.09,29.09,0,0,0,25.9-12.8l14.6,8.5a46.53,46.53,0,0,1-40.5,19.9"/><path id="Path_398" data-name="Path 398" class="cls-1" d="M473.5,277.2V233.5c0-15.6-6.7-21.2-18.1-21.2-11.6,0-18.1,7.2-18.1,19.7v45.2H419.9V177.9l17.3-7.9v37.3a28.5,28.5,0,0,1,22.2-9c20.5,0,31.4,11.8,31.4,34.5v44.3Z"/><path id="Path_399" data-name="Path 399" class="cls-1" d="M536.2,277.2V177.9l17.3-7.9V277.2Z"/><path id="Path_400" data-name="Path 400" class="cls-1" d="M505.1,200.4v-7.6l17.3-8v15.5Z"/><path id="Path_401" data-name="Path 401" class="cls-1" d="M601.7,212c-11.6,0-18.6,7-20.2,19.4h41a19.16,19.16,0,0,0-18.7-19.5h0c-.7,0-1.4.1-2.1.1m37.8,31.9H581.2a21.64,21.64,0,0,0,22,21.2h.1a33.47,33.47,0,0,0,19.1-6.2l10.3,9.7a44.34,44.34,0,0,1-30.4,10.2c-20.7,0-38.2-14.6-38.2-40.1,0-26.1,15.8-40.3,38.6-40.3,25,0,37.1,17.8,37.1,38.7a52.34,52.34,0,0,1-.3,6.8"/><rect id="Rectangle_184" data-name="Rectangle 184" class="cls-1" x="505.1" y="205.9" width="17.3" height="71.3"/><rect id="Rectangle_185" data-name="Rectangle 185" class="cls-1" x="3.5" y="374.9" width="259.1" height="8"/><rect id="Rectangle_186" data-name="Rectangle 186" class="cls-2" x="262.7" y="374.9" width="373.4" height="8"/></g></svg>