<svg id="Capa_1" data-name="Capa 1" xmlns="http://www.w3.org/2000/svg" viewBox="0 0 654.85 223.29"><defs><style>.cls-1{fill:#228562;}.cls-2{fill:#13382c;}</style></defs><path id="Path_487" data-name="Path 487" class="cls-1" d="M21.11,157.8c12.1-16.4,35.2-13.6,42.2-.1a4.64,4.64,0,0,0,1.8-1.6,30.16,30.16,0,0,1,31-8.4,20.67,20.67,0,0,1,15,15.8,35.86,35.86,0,0,1,1.2,10.3v45.7c0,2,0,2-2.1,2H93.31c-2,0-2,0-2-2.1V179.5a18.68,18.68,0,0,0-1.1-6.6A11.2,11.2,0,0,0,77,165.6a11.26,11.26,0,0,0-9.9,9.9,27.82,27.82,0,0,0-.5,5.8v38.5c-.1,1.6-.1,1.7-1.7,1.7H46.81c-.8,0-1.1-.3-1.1-1.1V181.7a29.71,29.71,0,0,0-.8-7.3,11.12,11.12,0,0,0-13.2-8.7h0l-.4.1a11.63,11.63,0,0,0-10.2,11.4c-.1,1.1-.1,2.2-.1,3.2v39.4c-.1,1.7-.1,1.7-1.7,1.7H1.51c-1.1,0-1.6-.3-1.5-1.4V149.7c0-1.7,0-1.8,1.8-1.8h17.4c1.8,0,1.8,0,1.8,1.8l.1,8.1"/><path id="Path_488" data-name="Path 488" class="cls-2" d="M21.11,40c12.3-15.9,35.1-13.3,42.3.5,1.1-1.1,2.2-2.2,3.3-3.2a30.1,30.1,0,0,1,30.8-6.5,20.43,20.43,0,0,1,13.7,15.4,42.92,42.92,0,0,1,1.2,10.1v45.9c0,1.8,0,1.8-2,1.8H93.21c-1.9,0-1.9,0-1.9-1.9V62.7a19.4,19.4,0,0,0-1.4-7.9,10.43,10.43,0,0,0-9.3-6.6,14.5,14.5,0,0,0-6.2.7,11.29,11.29,0,0,0-7.2,9.2,25.6,25.6,0,0,0-.5,5.5v37.5a8.55,8.55,0,0,0,0,1.6c.1,1-.4,1.2-1.2,1.2H47.91c-2,0-2,0-2-2V64.1a25.64,25.64,0,0,0-.9-7.8,10.66,10.66,0,0,0-10-8.2A11.38,11.38,0,0,0,22.61,55a19.22,19.22,0,0,0-1.4,7.5v39.9c.2,1.3-.4,1.6-1.6,1.5H1.71c-1.2,0-1.8-.3-1.6-1.6V32.1c0-1.8,0-1.8,1.8-1.8h17.4c1.8,0,1.8,0,1.9,2l-.1,7.7"/><path id="Path_489" data-name="Path 489" class="cls-1" d="M633,36.9V2c0-1.9,0-1.9,1.9-2h18.3c1.1,0,1.8.3,1.6,1.5v99.6c0,3.1.4,2.8-2.9,2.8H635c-2,0-2,0-2-2V93.8c-1,.2-1.3.9-1.7,1.4a27.41,27.41,0,0,1-23.6,10.1A33.47,33.47,0,0,1,577,82a47,47,0,0,1,1.4-35.9A32.23,32.23,0,0,1,606,26.3a29.18,29.18,0,0,1,25.5,9.4c.4.4.6.9,1.5,1m.2,28.3a20.73,20.73,0,0,0-3.8-12.5,17.55,17.55,0,0,0-24.3-5,18.1,18.1,0,0,0-3,2.5,19.89,19.89,0,0,0-5.7,12.4,24.27,24.27,0,0,0,3.2,16,17.57,17.57,0,0,0,24.2,5.9,15.23,15.23,0,0,0,3.7-3,21.45,21.45,0,0,0,5.7-16.3"/><path id="Path_490" data-name="Path 490" class="cls-1" d="M347.71,15.8c-3.5,5.1-7.1,10.2-10.6,15.4-.7,1.1-1.3.7-2.1.2a56.06,56.06,0,0,0-14.9-7.4,29.75,29.75,0,0,0-14.2-1.2,11.49,11.49,0,0,0-3.7,1.2,8.07,8.07,0,0,0-3.8,10.9,7.46,7.46,0,0,0,3.3,3.5,37.59,37.59,0,0,0,8.6,3.4c4.9,1.4,9.8,2.7,14.7,4.2a53.08,53.08,0,0,1,15.5,7.1,23.13,23.13,0,0,1,10.1,18.1,32.34,32.34,0,0,1-3,17.3,28.65,28.65,0,0,1-17.4,14.4,53,53,0,0,1-21.3,2.3A61.76,61.76,0,0,1,273,90.7c-.3-.3-.7-.6-1-.9-.1-.2-.2-.3-.2-.5l12.8-15.4,2.2,1.7a49.27,49.27,0,0,0,17.6,9.1,33.85,33.85,0,0,0,15.8.7,16.42,16.42,0,0,0,3.9-1.4,8.32,8.32,0,0,0,3.8-11.1,8.06,8.06,0,0,0-3.2-3.4,50.78,50.78,0,0,0-11.4-4.4c-5.6-1.6-11.2-2.8-16.7-4.7a44.39,44.39,0,0,1-11.5-5.8,22.38,22.38,0,0,1-8.9-14.6,32.88,32.88,0,0,1,1.3-17.3A28.55,28.55,0,0,1,296,5.5a45.45,45.45,0,0,1,18.3-2.2,57.4,57.4,0,0,1,31.6,11.2,2.69,2.69,0,0,1,1.8,1.3"/><path id="Path_491" data-name="Path 491" class="cls-2" d="M325,123.8a52.34,52.34,0,0,1,26.8,6.7,54,54,0,0,1,9.4,7.1c.6.6,1,1,.2,1.9l-12,13.8c-.6.7-1,.7-1.7.1a52.07,52.07,0,0,0-6.6-5,30,30,0,0,0-20.8-4.8,25.65,25.65,0,0,0-19.8,13.6,31.62,31.62,0,0,0,1.3,34.2,26.21,26.21,0,0,0,26,11.8,32.74,32.74,0,0,0,19.3-9.2c2.2-1.9,2.2-1.9,4.2.1,3.4,3.5,6.9,6.9,10.3,10.4,1.2,1.3,1.2,1.3.1,2.5a46.68,46.68,0,0,1-23.4,14.2,52.85,52.85,0,0,1-39.7-4.7,46.31,46.31,0,0,1-23.1-31.5,49.82,49.82,0,0,1,6.5-38.9,47.48,47.48,0,0,1,35.4-22c2.4-.2,5-.3,7.6-.3"/><path id="Path_492" data-name="Path 492" class="cls-1" d="M538,94.3c-1.6,1.5-3.1,2.8-4.5,4.3a27.16,27.16,0,0,1-30,4.3,22.77,22.77,0,0,1-12.2-15.2A38.35,38.35,0,0,1,490,77.6v-48c0-2,0-2,2.1-2h17.6c2.1,0,2.2,0,2.2,2.2V70.5a25.05,25.05,0,0,0,.6,5.5,12,12,0,0,0,14,9.6h.2a12.22,12.22,0,0,0,11.4-11.7,29.54,29.54,0,0,0,.2-4.2V30.1c0-2.8,0-2.5,2.5-2.5h16.7c2.7,0,2.7-.4,2.7,2.6v72.3c-.1,1.6-.1,1.6-1.7,1.6h-18.8c-1,.1-1.4-.4-1.4-1.4.1-2.2,0-4.3,0-6.5a12.5,12.5,0,0,0-.3-1.9"/><path id="Path_493" data-name="Path 493" class="cls-1" d="M410.71,60.2a12.15,12.15,0,0,0-9.2-13.9,41.12,41.12,0,0,0-13.1-.6A47.84,47.84,0,0,0,375,49a5.41,5.41,0,0,1-1.5.4c-.6-1.6-1.1-3.2-1.6-4.8-1.1-3.4-2.2-6.9-3.4-10.3-.4-1-.2-1.5.8-1.9A67.57,67.57,0,0,1,409,28a26.27,26.27,0,0,1,22.3,23.9,60.73,60.73,0,0,1,.6,8.5v41.5c0,2.1,0,2.2-2.1,2.2h-17.6c-1,0-1.3-.4-1.3-1.4V96.6a.65.65,0,0,0-.9.2h0v.1a33,33,0,0,1-36.8,5.2,21.25,21.25,0,0,1-11.5-17.4,23.94,23.94,0,0,1,2.6-14.6A22.69,22.69,0,0,1,379.61,59a53.42,53.42,0,0,1,28.6.6l2.2.6h.4m-13.1,10.3a15,15,0,0,0-3,0,18,18,0,0,0-8.1,2.6,9.17,9.17,0,0,0-3.9,9.3,8.37,8.37,0,0,0,6,7,17.68,17.68,0,0,0,3.1.8,21.17,21.17,0,0,0,12.6-2.1,12.29,12.29,0,0,0,6.8-12c0-2.9,0-2.9-2.8-3.8a28,28,0,0,0-10.7-1.8"/><path id="Path_494" data-name="Path 494" class="cls-2" d="M634.31,179.3a11.61,11.61,0,0,0-9.2-13.6h0l-.8-.1a43.66,43.66,0,0,0-19,1.2c-1.9.5-3.8,1.2-5.7,1.9-.7.3-1.1.1-1.4-.7-1.5-4.6-3-9.2-4.6-13.8-.3-1,0-1.3.9-1.7a67.3,67.3,0,0,1,15.3-4.5,66.56,66.56,0,0,1,18.9-.5,29.56,29.56,0,0,1,18.2,8.1,27,27,0,0,1,6.9,14.4,48.62,48.62,0,0,1,.8,10.1c.1,13,0,26,0,38.9v.7c0,1.7,0,1.8-1.8,1.8h-16.7c-1.8,0-1.8,0-1.8-1.8v-5.3c-.8-.4-1,.2-1.4.6a27.31,27.31,0,0,1-17.9,7.7,30.63,30.63,0,0,1-16.6-3,20,20,0,0,1-11.4-18,24,24,0,0,1,1.6-10.9A20.24,20.24,0,0,1,600,179.6a42.72,42.72,0,0,1,18.4-3,50.81,50.81,0,0,1,15,2.6,1.41,1.41,0,0,1,.9.1m-15.7,28.9a18.53,18.53,0,0,0,10-2.4,11.46,11.46,0,0,0,5.7-7.2,23.25,23.25,0,0,0,.4-5.3,1.9,1.9,0,0,0-1.6-2.2,33.72,33.72,0,0,0-15.1-1.9,14.64,14.64,0,0,0-7.3,2.6,8.79,8.79,0,0,0-3.6,8.5,8.06,8.06,0,0,0,5.2,6.8,15.54,15.54,0,0,0,6.3,1.1"/><path id="Path_495" data-name="Path 495" class="cls-1" d="M172,214.3a2.44,2.44,0,0,0-1.7,1.1,27.28,27.28,0,0,1-16.4,7.2,32.34,32.34,0,0,1-15.7-1.9,20.63,20.63,0,0,1-13.6-19.7,22,22,0,0,1,5.6-16.4,24.44,24.44,0,0,1,13.4-6.9,52.83,52.83,0,0,1,25.9,1l2.2.6a11.17,11.17,0,0,0-6.7-12.8,18.57,18.57,0,0,0-6.6-1.4,51.31,51.31,0,0,0-19.8,3l-1.5.6c-.9.4-1.2,0-1.5-.8-1.2-3.7-2.4-7.3-3.6-11-.3-.8-.5-1.6-.8-2.4-.4-1.1-.1-1.6,1-2.1a60.91,60.91,0,0,1,14.4-4.2,66,66,0,0,1,22.6-.2,26.54,26.54,0,0,1,16.4,8.9,30,30,0,0,1,6.3,15.9,85.08,85.08,0,0,1,.4,8.8v38c0,2,0,2-2,2h-16.5c-1.8,0-1.8,0-1.8-1.8s-.1-3.6,0-5.5m-12.9-25.2a18.18,18.18,0,0,0-8.9,1.7,8.88,8.88,0,0,0-5.4,9.1,8.31,8.31,0,0,0,6.8,7.8,19.62,19.62,0,0,0,13.3-1.2,15.87,15.87,0,0,0,3.5-2.2,12.27,12.27,0,0,0,3.9-10.2c-.1-2.2,0-2.3-2-3a30.06,30.06,0,0,0-11.2-2"/><path id="Path_496" data-name="Path 496" class="cls-2" d="M172,96.9c-.7-.2-.9.3-1.1.5a32,32,0,0,1-35.4,4.7,20,20,0,0,1-10.9-16.9A26,26,0,0,1,126,73.8a20.67,20.67,0,0,1,11.6-11.6,39.36,39.36,0,0,1,14-2.9,52.18,52.18,0,0,1,20,2.8,11.15,11.15,0,0,0-5.4-12.2,19.42,19.42,0,0,0-9.2-2.1,49.17,49.17,0,0,0-18.6,3.1l-1.5.6c-.7.3-1,.1-1.2-.6-1.5-4.7-3-9.3-4.6-14.1-.4-1.1.3-1.3,1.1-1.6a68.42,68.42,0,0,1,34.9-4.9,28.5,28.5,0,0,1,17.7,8.3,26.59,26.59,0,0,1,6.6,13.8,52.26,52.26,0,0,1,.9,9.7v39.8c0,2.2.3,2.3-2.2,2.3h-16c-2.1,0-2.1,0-2.1-2.2V96.9m-13.4-25.2a21.48,21.48,0,0,0-7.8,1.4,9.12,9.12,0,0,0-6,9.4,8.62,8.62,0,0,0,7.3,7.9,19.71,19.71,0,0,0,13.5-1.6,11.54,11.54,0,0,0,6.7-9.1c.2-1.3,0-2.6.1-3.9a1.68,1.68,0,0,0-1.3-1.9,33.64,33.64,0,0,0-12.5-2.2"/><path id="Path_497" data-name="Path 497" class="cls-2" d="M393.41,192a16.45,16.45,0,0,0,13.5,13.9,23.73,23.73,0,0,0,19.5-5.1l1.6-1.3a1,1,0,0,1,1.5-.2c.1.1.2.1.2.2,3.6,3.2,7.1,6.4,10.7,9.5.1.2.2.3.2.5a33.33,33.33,0,0,1-14.2,10.7,41.45,41.45,0,0,1-35.4-1.9,34.32,34.32,0,0,1-18.2-26.2,40,40,0,0,1,4-26.3,34.83,34.83,0,0,1,32.3-19.3,35.27,35.27,0,0,1,13.6,2.5,31.93,31.93,0,0,1,17.7,17.1,48.28,48.28,0,0,1,3.9,24.6c-.1,1-.4,1.4-1.4,1.3h-49.5Zm15.2-13.2h8.3c2,0,3.9-.1,5.8,0,1.2.1,1.4-.5,1.2-1.5a22.48,22.48,0,0,0-1.9-5.7,14.66,14.66,0,0,0-19.7-6.9h0c-.3.2-.7.3-1,.5a17.47,17.47,0,0,0-8,11.9c-.4,1.6-.3,1.7,1.4,1.7h13.9"/><path id="Path_498" data-name="Path 498" class="cls-2" d="M234.51,105.4a51.22,51.22,0,0,1-30.2-10.1c-1.4-1-1.4-1-.4-2.5,2.4-3.7,4.8-7.4,7.1-11.1.7-1,1.1-1.2,2.1-.4a45.74,45.74,0,0,0,14.8,7,30,30,0,0,0,9.4.8,10.21,10.21,0,0,0,3.8-1,4.66,4.66,0,0,0,2.3-6.1,4.31,4.31,0,0,0-1.6-1.9,15,15,0,0,0-4.6-2.2c-3.9-1.2-7.8-2.4-11.7-3.7a37.84,37.84,0,0,1-11.4-5.6,18.14,18.14,0,0,1-7.4-14.5,22,22,0,0,1,5.8-16.8A25,25,0,0,1,226,30.2,45.82,45.82,0,0,1,254,34a66.27,66.27,0,0,1,5.9,3.1c.9.5,1.2,1,.6,2-2.3,4-4.5,8-6.7,12.1-.6,1-1,1-2,.5a52.7,52.7,0,0,0-13.7-5.6,18,18,0,0,0-8-.3,6.6,6.6,0,0,0-2.7,1.2,4,4,0,0,0-1.2,5.6h0a2.7,2.7,0,0,0,.7.8,11.35,11.35,0,0,0,3.9,2.5,99.74,99.74,0,0,0,10.4,3.8,49.34,49.34,0,0,1,12,5.3,18.18,18.18,0,0,1,9.1,12.3,22,22,0,0,1-16.1,26.5,42.85,42.85,0,0,1-11.7,1.6"/><path id="Path_499" data-name="Path 499" class="cls-1" d="M212.11,198a63.23,63.23,0,0,0,7.9,4.7,37.89,37.89,0,0,0,13.3,3.9,18.93,18.93,0,0,0,5.8-.4,7.26,7.26,0,0,0,3.3-1.6,4.44,4.44,0,0,0,.3-6.3l-.3-.3a12.28,12.28,0,0,0-4-2.3c-3.4-1.3-6.9-2.3-10.4-3.3a51.67,51.67,0,0,1-9.5-3.6,23.35,23.35,0,0,1-7.5-5.7,17.89,17.89,0,0,1-4.2-11,22.16,22.16,0,0,1,5.9-17.5,25.26,25.26,0,0,1,14-7.2,47.62,47.62,0,0,1,30.9,5.6c1,.5,1.9,1.1,2.8,1.6a1,1,0,0,1,.4,1.5c-2.5,4.4-4.9,8.9-7.5,13.5-1.7-.9-3.4-1.8-5-2.5a37.41,37.41,0,0,0-13.9-4.2,10.7,10.7,0,0,0-6.1,1,4.16,4.16,0,0,0-2.3,5.4h0a3.75,3.75,0,0,0,1.6,1.9,17.12,17.12,0,0,0,5.5,2.9c4.1,1.5,8.2,2.8,12.2,4.2a43.35,43.35,0,0,1,8.9,4.4,18.79,18.79,0,0,1,8.6,18.3,21.93,21.93,0,0,1-19.9,20.8,49.21,49.21,0,0,1-38.5-9.4c-1.3-.9-1.3-1-.4-2.3l7.2-11.1c0-.3.4-.7.9-1"/><path id="Path_500" data-name="Path 500" class="cls-2" d="M579,158.9l-12.8,13.7c-1.5-1.3-2.8-2.5-4.2-3.6a18.62,18.62,0,0,0-11-4.3,17.1,17.1,0,0,0-17.2,10.1,22.45,22.45,0,0,0,0,19.9,18.27,18.27,0,0,0,23.3,9.1,26.09,26.09,0,0,0,8.9-5.7c.8-.8,1.3-.8,2,0,3.4,3.5,6.9,7.1,10.4,10.5.9.9.6,1.4-.1,2.1a36.3,36.3,0,0,1-20.4,11.6,40.83,40.83,0,0,1-23.2-1.9,35.83,35.83,0,0,1-23.3-29.1,37.78,37.78,0,0,1,9.7-33,35.73,35.73,0,0,1,18.4-10.6,44.76,44.76,0,0,1,23.8.8A34.75,34.75,0,0,1,579,158.9"/><path id="Path_501" data-name="Path 501" class="cls-1" d="M471.71,52v50.3c0,1.7,0,1.7-1.6,1.7h-18.6c-1.2,0-1.7-.4-1.6-1.6V2.8c0-3-.4-2.8,2.7-2.8h16.9c2.1,0,2.1,0,2.1,2.2l.1,49.8"/><path id="Path_502" data-name="Path 502" class="cls-2" d="M479.81,161.4c.8-1.5,1.6-2.9,2.5-4.4a21.5,21.5,0,0,1,12.7-9.8,25.7,25.7,0,0,1,6.2-.8c1.6,0,1.7,0,1.7,1.6v19c.1.9-.3,1.2-1.2,1.2a28.56,28.56,0,0,0-5.8.6,19,19,0,0,0-15.1,14.3,37.43,37.43,0,0,0-1.4,10.5v26.6c0,.7-.3,1-1,1h-18.1c-1.9,0-1.9,0-1.9-1.9V149.1c-.2-1.3.5-1.5,1.6-1.5h17.9c1.3,0,1.6.5,1.5,1.6V161l.4.4"/><path id="Path_504" data-name="Path 504" class="cls-1" d="M184,123.7l-10.8,10.1-5.2,4.9a4,4,0,0,1-3.1,1.3c-4.1-.1-8.2,0-12.3,0-.5,0-1.1.2-1.5-.2-.3-.7.2-1,.5-1.5,4.5-7.1,9-14.2,13.6-21.2,1.1-1.8,1-1.6,2.7-.8,4.9,2.2,9.9,4.3,14.8,6.5a1.6,1.6,0,0,1,1.3.9"/></svg>