<svg id="Capa_1" data-name="Capa 1" xmlns="http://www.w3.org/2000/svg" viewBox="0 0 416.34 251.36"><defs><style>.cls-1{fill:#1d2734;}.cls-2{fill:#bbbab9;}</style></defs><path class="cls-1" d="M257.72,80.4l-2.4,15.9c-3.5,23.9-7,47.9-10.5,71.8-2.2,14.7-4.4,29.4-6.4,44-.3,2-1.1,2-2.6,2-9.6,0-19.3-.1-28.9,0-2.3,0-2.3-.9-2.1-2.6,2.3-15.7,4.6-31.5,6.9-47.2,3.3-23.1,6.7-46.1,10.1-69.2q6.75-46.35,13.5-92.5c.3-2,.9-2.6,2.9-2.6,9.4.1,18.7.1,28.1,0,2.3,0,3.2.7,3.7,2.9,7.9,28.6,15.9,57.1,23.9,85.7,5.3,18.9,10.6,37.7,15.8,56.6a4.52,4.52,0,0,0,1.4,2.4c.9-3.1,1.8-6.1,2.7-9.2q19.2-68.1,38.3-136c.4-1.6,1-2.3,2.8-2.3,9.7.1,19.4.1,29.2,0,1.6,0,2.2.4,2.5,2.1q7,49.8,14.1,99.7c3.5,24.5,6.8,49,10.3,73.5,1.7,12.1,3.4,24.1,5.2,36.2.3,1.8.2,2.7-2.1,2.6-9.6-.2-19.1-.1-28.7,0-1.8,0-2.4-.6-2.6-2.3q-6.45-45.6-12.9-91c-1.9-13.4-3.9-26.8-6.3-40.3-.4,1.5-.8,2.9-1.2,4.4q-18,63.3-35.8,126.6c-.6,2.1-1.4,2.7-3.6,2.7q-12.45-.15-24.9,0c-2,0-2.8-.6-3.4-2.6q-18.15-64.95-36.4-129.8A1,1,0,0,0,257.72,80.4Z"/><path class="cls-1" d="M99.62,150.1c1.6-4.2,3-8,4.4-11.6s2.8-7.4,4.4-11.4a69.15,69.15,0,0,0,18.5,20.7,66,66,0,0,0,12.3,7.2c1.4.6,1.8,1.1,1.2,2.7q-10,26-19.9,52a2.28,2.28,0,0,1-2.5,1.7H80.62a2.5,2.5,0,0,1-2.7-1.9L37.72,102.7Q19.12,53.2.42,3.6C-.48,1.2,0,.9,2.32.9c12.6.1,25.3.1,37.9,0,2.5,0,3.4.8,4.3,3q25.5,68,51.1,135.8C96.82,142.9,98.12,146.2,99.62,150.1Z"/><path class="cls-2" d="M120.42,95.5c-.4-15.2,5.7-27.1,17.7-35.8a47.12,47.12,0,0,1,14.6-7.1,54.78,54.78,0,0,1,20.1-2.5,52.68,52.68,0,0,1,34.3,15.5c1.2,1.2,1.2,1.9,0,3-3,2.6-6,5.2-8.8,8-1.4,1.4-2.3,1.2-3.7-.1-8.2-7.5-17.8-11.3-29-10.5-16.9,1.2-30.9,16.1-27.3,34.7,2.5,13.2,13.3,21.3,26,23,11.4,1.6,21-2.3,29.4-9.6,2.7-2.4,2.7-2.4,5.2.1s5.3,5.2,8,7.8c1.1,1,1.2,1.6,0,2.7-7.7,6.8-16.1,12.5-26.5,14.1-18.7,2.9-35.8.2-49.3-14.5A40.1,40.1,0,0,1,120.42,95.5Z"/><path class="cls-1" d="M145.22,30.5c3.7-9.8,7.3-19.1,10.8-28.4a2.09,2.09,0,0,1,2.2-1.4h40.3c1.4,0,1.9.2,1.3,1.8-3.5,8.9-6.9,17.9-10.3,26.9-.3.9-.5,1.5-1.8,1.1A68.58,68.58,0,0,0,145.22,30.5Z"/><path class="cls-1" d="M164.82,249.2c.9-4.3,1.9-8.7,2.8-13,.7-3.1,1.4-6.2,2-9.3a1.87,1.87,0,0,1,2.2-1.9c4.2,0,4.2-.1,5.1,4.1,1.3,6.6,2.6,13.1,3.9,19.7.1.7,1.2,2.2-.7,2.1-1.4-.1-3.5,1.4-4.1-1.3-.1-.4-.1-.7-.2-1-.4-1.7,0-3.6-3-3.6s-3.2,2.5-3.2,3.7c0,2.6-1.4,2.3-3,2.3-4.1,0-8.3-.1-12.4,0-1.4,0-1.8-.4-1.8-1.8q.15-11.25,0-22.5c0-2.4,1.5-1.6,2.7-1.7s2.7-.6,2.6,1.7c-.1,5.9,0,11.9-.1,17.8,0,1.8.6,2.4,2.2,2.1a5.65,5.65,0,0,1,1.3,0C163,246.5,164.72,246.5,164.82,249.2Zm7.8-17.2c-.5,2.8-.9,5.2-1.3,7.6-.1.4-.6,1.1.2,1.3a9.64,9.64,0,0,0,2.4,0c.7-.1.6-.8.5-1.3C173.82,237.2,174,234.6,172.62,232Z"/><path class="cls-1" d="M344.82,242.5c1.1-5.3,2.2-10,3.2-14.7a4,4,0,0,1,4.9-2.8c.2.1.4.1.6.2.8.4.5,1.2.6,1.9l1.5,22.2c.1,1.1.1,2.1-1.4,1.8-1.2-.2-3.2,1-3.3-1.6-.1-3.5-.3-7.1-.5-10.6a1.58,1.58,0,0,0-.7-1.7c-.4,1.8-.9,3.5-1.3,5.2-.5,2.1-1.1,4.1-1.5,6.2-.3,1.4-.6,2.2-2.3,2.1s-2.1-.6-2.4-2.1c-.8-4-1.8-7.9-2.8-11.9-1,.5-.7,1.5-.7,2.1-.2,3.3-.5,6.5-.4,9.8.1,2.3-1,2.5-2.9,2.5-2.4,0-1.7-1.5-1.6-2.7.5-7,1-14.1,1.6-21.1.1-1.1-.2-2.6,1.7-2.2,1.5.3,3.7-1.2,4.3,1.9C342.32,232,343.62,236.9,344.82,242.5Z"/><path class="cls-1" d="M282.32,236.2c0,4.2-.1,8.5,0,12.7.1,2.1-.9,2.1-2.5,2.2-1.9.1-2.1-.7-2.1-2.3.1-7.1,0-14.3,0-21.5,0-.8-.6-2.3,1-2.2s3.4-1.1,4.3,1.3c1.5,4.1,3.2,8.2,4.8,12.3.2.4.1,1.1.8,1.2,0-4.1.1-8.2,0-12.2-.1-2.3.7-2.8,2.8-2.8,1.7.1,1.8.8,1.8,2.1v21.7c0,.8.6,2.3-1,2.2s-3.4,1.1-4.3-1.3c-1.6-4.2-3.2-8.4-4.9-12.6a3.55,3.55,0,0,0-.4-.9Z"/><path class="cls-1" d="M233.92,240c-.5-4.2-.3-8.4-.4-12.6-.1-1.9.5-2.4,2.3-2.4s2.2.5,2.2,2.2c-.1,7.2,0,14.5-.1,21.7,0,.9.5,2.2-1.2,2.1-1.4-.1-3.2,1-4-1.3-1.7-4.7-3.7-9.3-5.7-14.3,0,4.6-.1,8.9,0,13.1.1,1.9-.4,2.6-2.4,2.6s-2.2-.9-2.2-2.5c.1-7.1,0-14.1.1-21.2,0-.9-.7-2.5,1.1-2.4,1.5.1,3.3-1,4.2,1.5,1.5,4.2,3.2,8.4,4.9,12.6a3.55,3.55,0,0,0,.4.9Z"/><path class="cls-1" d="M112.62,240.9a127.31,127.31,0,0,1-.5-13.7c0-1.7.4-2.3,2.2-2.2s2.5.2,2.5,2.3c-.1,7.2,0,14.3-.1,21.5,0,.9.5,2.3-1,2.3s-3.4,1.1-4.3-1.2c-1.5-4-3.1-8-4.7-12.1-.2-.6-.2-1.7-1.2-1.3-.7.2-.4,1.1-.3,1.7,1,3.9.3,7.9.4,11.8.1,2-1.6,1-2.6,1.2s-1.9.1-1.9-1.4V226.7c0-.9.1-1.7,1.2-1.5,1.4.2,3.2-.9,4,1.4,1.6,4.4,3.3,8.7,5,13.1C111.72,240,111.72,240.6,112.62,240.9Z"/><path class="cls-1" d="M372.32,237.9c0-3.5.1-7.1,0-10.6,0-1.4.3-2,1.8-2.3,8.6-1.5,13.5,2.4,13.9,11a26.73,26.73,0,0,1-.1,4c-.7,8.5-5.8,12.4-14.3,11-1.5-.2-1.3-1.1-1.3-2.1Zm5.1.1v6.9c0,.6-.4,1.5.4,1.9a2.33,2.33,0,0,0,2.4-.6,4.82,4.82,0,0,0,1.5-2.2,20.46,20.46,0,0,0,.2-12,3.87,3.87,0,0,0-2.6-2.8c-1.3-.4-2-.3-2,1.3.1,2.6.1,5.1.1,7.5Z"/><path class="cls-1" d="M275.82,237.7c-.2,3.3-.3,6.5-1.9,9.5a6.81,6.81,0,0,1-6.3,4c-3,0-5.2-1.1-6.4-3.7a21,21,0,0,1,0-18.6,6.72,6.72,0,0,1,7.1-4c3,.2,4.8,2,5.9,4.6S275.52,234.9,275.82,237.7Zm-11.5.4a18.79,18.79,0,0,0,1,6.7c.4,1,.9,2,2.2,1.9s1.7-1,1.9-1.9a25.76,25.76,0,0,0,.1-13.5c-.3-1-.8-2-2.1-2s-1.7,1-2.1,2A20.4,20.4,0,0,0,264.32,238.1Z"/><path class="cls-1" d="M220.52,238.8a20,20,0,0,1-1.2,6.9c-1.4,3.7-3.5,5.4-7,5.4-3.7,0-6-1.4-7.3-5.3a22.62,22.62,0,0,1,.1-15.6c1.5-3.9,4.2-5.7,7.8-5.5,3.2.2,5.5,2.4,6.6,6.3A23.26,23.26,0,0,1,220.52,238.8Zm-5.4-1a19.08,19.08,0,0,0-.7-6.3c-.3-1-.8-2.1-2-2.2s-1.9.9-2.2,1.9a24.2,24.2,0,0,0,0,13.6c.3,1,1,2,2.2,1.9s1.7-1.2,2-2.2a21.23,21.23,0,0,0,.7-6.7Z"/><path class="cls-1" d="M134.12,235.6v-7.5c0-1.6-.6-3.2,2.3-3.2,2.6,0,2.8,1,2.8,3.1-.1,4.6-.2,9.2,0,13.8.1,2-.4,5,2.6,4.9,2.7-.1,2.2-3,2.2-4.9.1-4.9.2-9.7,0-14.6-.1-2.5,1.4-2,2.8-2.2,1.7-.1,2.5.2,2.4,2.2-.2,4.7,0,9.4,0,14a17.13,17.13,0,0,1-.9,5.5c-1.3,3.5-3.4,4.7-7.7,4.5-3.1-.2-5-1.8-5.9-5.1C133.72,242.4,134.32,238.7,134.12,235.6Z"/><path class="cls-1" d="M414,237.5a22.52,22.52,0,0,1-2.1,10.2c-2.3,4.5-10.1,4.9-12.4-.1-3-6.4-3.1-12.8.1-19.1a7,7,0,0,1,7-3.8c3,.2,4.8,2.1,5.9,4.6A17.07,17.07,0,0,1,414,237.5Zm-5.3.6c-.1-2.3,0-4.6-.8-6.8-.3-.9-.7-1.9-1.9-1.9a2.14,2.14,0,0,0-2.1,1.7,23.07,23.07,0,0,0-.1,14,2.34,2.34,0,0,0,2.1,1.8c1.2,0,1.6-1,1.9-1.9A20.49,20.49,0,0,0,408.72,238.1Z"/><path class="cls-1" d="M83.22,242.4c.6-3.7,1.2-7.3,1.8-11l.6-4.2c.2-1.4.7-2.3,2.5-2.2,3.6.1,3.6,0,2.8,3.5-1.6,6.9-3.3,13.7-4.7,20.6-.4,2-1.5,2.1-3,1.9s-3.2.8-3.7-2c-1.4-7.4-3.2-14.8-5-22.2-.4-1.6.1-1.8,1.6-1.9,2.7-.2,4.1.3,4.4,3.5.4,4.7,1.4,9.3,2.2,13.9Z"/><path class="cls-1" d="M301.72,238.1c0-3.7.1-7.4,0-11.1,0-1.5.4-2,1.9-2,2.6.1,5.1.1,7.7,0,2-.1,1.8,1,1.8,2.3.1,1.5-.1,2.5-1.9,2.2-.5-.1-1.1.1-1.6,0-2.4-.5-2.9.6-2.9,2.9,0,2.6.7,3.5,3.2,3.1,1.4-.2,2.9-.5,2.9,2s-1.2,2.1-2.8,2.2c-1.1,0-2.8-.7-3.1.6a10,10,0,0,0,.2,5.7c.5,1.2,2.8.5,4.2.5,1.9-.1,2.3.6,2.3,2.4s-.5,2.3-2.3,2.2c-2.6-.1-5.1-.1-7.7,0-1.7.1-2.1-.5-2-2.1a99.32,99.32,0,0,0,.1-10.9Z"/><path class="cls-1" d="M358.22,238.1c0-3.7.1-7.4,0-11.1,0-1.5.4-2,1.9-2,2.6.1,5.1.1,7.7,0,1.8-.1,1.8.8,1.7,2.1s.4,2.7-1.7,2.4H367c-3.7,0-4.7,1.3-3.7,4.9.5,1.9,2.3,1,3.3.9,2.1-.1,2.8.5,2.6,2.7-.1,1.5-.6,1.9-1.9,1.7-.7-.1-1.4.1-2.1,0-1.7-.2-2.3.5-2,2.1v.5c0,4.2,0,4.3,4.1,4.2,1.8,0,2.6.2,2.7,2.4,0,2.4-1.2,2.3-2.8,2.2q-3.45-.15-6.9,0c-1.7.1-2.3-.4-2.2-2.2C358.32,245.3,358.22,241.7,358.22,238.1Z"/><path class="cls-1" d="M250.72,237.8a17,17,0,0,0,.8,5.5c1,2.4,2.7,3.8,5.3,3.3,2.2-.5,1.7,1.1,2,2.1.3,1.3.2,2.1-1.5,2.4-5.8.9-9.9-1.6-11.4-7.3-1.2-4.7-1.1-9.5,1.3-13.9a9.39,9.39,0,0,1,10-5c1,.1,2.4.1,1.8,1.8-.4,1.1.5,3.3-2.2,2.7-2.3-.5-3.9.8-4.9,2.8A15.63,15.63,0,0,0,250.72,237.8Z"/><path class="cls-1" d="M190.92,251.1c-4.2,0-7.1-1.8-8.6-5.8a19.34,19.34,0,0,1,.1-14.2,9.74,9.74,0,0,1,10.8-6.2c1.1.2,2.2.4,1.6,1.9-.4,1.1.4,3.1-2.2,2.5a4.39,4.39,0,0,0-5.1,2.9,14.55,14.55,0,0,0-.1,11.4,4.14,4.14,0,0,0,4.8,2.9c2.6-.6,2.1,1.2,2.4,2.5.4,2-1,1.9-2.3,2C192,251.2,191.42,251.1,190.92,251.1Z"/><path class="cls-1" d="M124.22,238.2a12.37,12.37,0,0,0,1,5.4c1,2.2,2.7,3.5,5,3s1.9.9,2.1,2.2c.3,1.6-.1,2.2-1.8,2.4-6.4.6-10.3-2.3-11.5-9a20.45,20.45,0,0,1,.8-10.7,9.9,9.9,0,0,1,10.6-6.6c1.1.1,2.6,0,2,1.9-.4,1.1.4,3.2-2.4,2.7-3.1-.5-5,1.6-5.7,5.6C124.32,236.1,124.22,237.2,124.22,238.2Z"/><path class="cls-1" d="M321.12,236c0,2.9.1,5.8,0,8.7-.1,1.5.3,2.1,1.9,1.9.7-.1,1.4.1,2.1,0,1.8-.2,2.7.1,2.7,2.3s-1,2.2-2.6,2.1c-2.5-.1-4.9-.1-7.4,0-1.3,0-1.9-.3-1.8-1.8q.15-11.25,0-22.5c0-2.3,1.4-1.8,2.6-1.8s2.8-.6,2.6,1.7c-.2,3.3-.1,6.4-.1,9.4Z"/><path class="cls-1" d="M92.72,237.8c0-3.6.1-7.3,0-10.9-.1-1.9.9-2.1,2.3-1.9,1.2.2,3-.9,2.9,1.7q-.15,11.25,0,22.5c0,2.3-1.4,1.7-2.7,1.8s-2.6.3-2.6-1.9C92.82,245.4,92.72,241.6,92.72,237.8Z"/><path class="cls-1" d="M196.52,238c0-3.7.1-7.4,0-11.1-.1-2.5,1.5-1.8,2.8-1.9s2.6-.4,2.5,1.9q-.15,11.1,0,22.2c0,2.2-1.2,1.9-2.5,1.9s-2.9.6-2.8-1.9C196.62,245.5,196.52,241.8,196.52,238Z"/><path class="cls-1" d="M390.22,238.1c0-3.7.1-7.4,0-11.1-.1-2.4,1.5-1.9,2.8-1.9s2.6-.3,2.5,1.9c-.2,7.4-.1,14.8,0,22.2,0,2.4-1.4,1.9-2.8,1.9s-2.6.2-2.5-1.9c.1-3.7-.1-7.4,0-11.1Z"/><path class="cls-1" d="M210.42,223.5c1.4-3.4,3.6-5.1,7.6-3.9C215.72,221.7,214.22,224.6,210.42,223.5Z"/></svg>