<svg id="Capa_1" data-name="Capa 1" xmlns="http://www.w3.org/2000/svg" xmlns:xlink="http://www.w3.org/1999/xlink" viewBox="0 0 173.64 72.16"><defs><style>.cls-1{fill:none;}.cls-2{clip-path:url(#clip-path);}.cls-3{fill:#313230;}.cls-4{fill:#e981ae;}.cls-5{fill:#1f3d7b;}.cls-6{fill:#1b9176;}.cls-7{fill:#010001;}</style><clipPath id="clip-path"><rect class="cls-1" width="173.64" height="72.16"/></clipPath></defs><g id="Group_239" data-name="Group 239"><g class="cls-2"><g id="Group_10" data-name="Group 10"><path id="Path_1" data-name="Path 1" class="cls-3" d="M22.57,18.21c0,3.94,0,6.24.07,7.55H14.33a19.33,19.33,0,0,1-.24-2.62c-1.56,2.3-3.56,3.1-6.63,3.1C2.38,26.24,0,23.13,0,17.74V1.31H8.52v15.1c0,2.1.66,3.36,2.53,3.36s3-1.25,3-4.44v-14h8.56Z"/><path id="Path_2" data-name="Path 2" class="cls-3" d="M27.68,9c0-5.06,0-6.55-.07-7.65H36A22.65,22.65,0,0,1,36.17,4,7.54,7.54,0,0,1,42.84.79c5,0,7.55,3.4,7.55,8.72V25.76H41.85V10.92c0-2.31-.51-3.7-2.65-3.7-2,0-3,1.06-3,4.46V25.76H27.68Z"/><rect id="Rectangle_7" data-name="Rectangle 7" class="cls-3" x="109.74" y="21.7" width="8.53" height="33.66"/><path id="Path_3" data-name="Path 3" class="cls-3" d="M145.55,47.8c0,4,0,6.25.07,7.55h-8.31a19,19,0,0,1-.24-2.62c-1.56,2.3-3.56,3.11-6.63,3.11-5.08,0-7.46-3.11-7.46-8.5V30.9h8.53V46c0,2.1.65,3.35,2.52,3.35s3-1.25,3-4.44v-14h8.55Z"/><path id="Path_4" data-name="Path 4" class="cls-3" d="M173.57,21.7V48.14c0,3.28,0,5.88.07,7.21h-8.26a20.14,20.14,0,0,1-.25-2.45c-1.24,1.87-3,3-6.6,3-6.34,0-9.13-5.64-9.13-12.64,0-7.56,3.85-12.84,10.38-12.84,3,0,4.64.93,5.27,1.92V21.7ZM158.11,42.87c0,4.54,1,6.85,3.65,6.85,3.06,0,3.63-2.11,3.63-6.83s-.56-6.38-3.46-6.38c-2.35,0-3.82,1.91-3.82,6.36"/><path id="Path_5" data-name="Path 5" class="cls-3" d="M34.75,47.62c.2,1.75,1.42,2.72,3.38,2.72,1.74,0,2.68-.62,2.68-1.82S39.57,46.8,36.54,46c-7.31-1.83-8.88-4.2-8.88-7.8,0-3.77,2.7-7.79,10.18-7.79s10.22,3.78,10.46,7.69H40.58a2.56,2.56,0,0,0-2.69-2.44l-.21,0c-1.38,0-2.16.56-2.16,1.64s.86,1.46,4.43,2.35c6.57,1.66,8.91,4,8.91,8.12,0,5-4,8.07-10.86,8.07s-10.6-3.13-11-8.21Z"/><path id="Path_6" data-name="Path 6" class="cls-4" d="M2.15,62.28v3.65a2.05,2.05,0,0,1,1.93-1c1.24,0,2.19.69,2.19,2.52V72H4.47V67.76c0-.75-.24-1.3-1.09-1.3s-1.23.6-1.23,1.71V72H.33V62.28Z"/><path id="Path_7" data-name="Path 7" class="cls-4" d="M13.74,70c0,1,0,1.69,0,2.05H12a5.79,5.79,0,0,1-.06-.83,2,2,0,0,1-1.91,1c-1.39,0-2.15-.87-2.15-2.43V65.1H9.68v4.33c0,.73.26,1.23,1,1.23s1.22-.47,1.22-1.69V65.1h1.83Z"/><path id="Path_8" data-name="Path 8" class="cls-4" d="M15.46,67.25c0-1.37,0-1.83,0-2.15H17.2c0,.27.05.54.06.82a2.16,2.16,0,0,1,1.92-1A1.72,1.72,0,0,1,20.92,66,2.37,2.37,0,0,1,23,65c1.17,0,2.21.62,2.21,2.42V72H23.42V67.68c0-.62-.22-1.23-1-1.23s-1.18.6-1.18,1.64v4H19.45V67.62c0-.62-.29-1.16-1-1.16s-1.19.49-1.19,1.71V72h-1.8Z"/><path id="Path_9" data-name="Path 9" class="cls-4" d="M32.33,70.24c0,.6,0,1.2.1,1.8h-1.6a6,6,0,0,1-.1-.84,2,2,0,0,1-1.95,1,2,2,0,0,1-2.31-1.75,2.29,2.29,0,0,1,0-.37c0-1.25.86-2.28,3.27-2.28h.82v-.5c0-.56-.18-1-1-1A.91.91,0,0,0,28.5,67a1,1,0,0,0,0,.17H26.72c.08-1.1.73-2.21,2.86-2.21,1.64,0,2.75.56,2.75,2.28Zm-1.72-1.31h-.85c-1.24,0-1.48.5-1.48,1a.86.86,0,0,0,.82.89h.16c1.09,0,1.35-.73,1.35-1.71Z"/><path id="Path_10" data-name="Path 10" class="cls-4" d="M34.05,67.26c0-1.43,0-1.86,0-2.16H35.8a6.8,6.8,0,0,1,.06.9,2.1,2.1,0,0,1,1.94-1c1.45,0,2.19.93,2.19,2.52V72H38.16v-4.2c0-.78-.19-1.37-1.06-1.37s-1.23.48-1.23,1.7v3.88H34.05Z"/><path id="Path_11" data-name="Path 11" class="cls-4" d="M47.11,70.24c0,.6,0,1.2.1,1.8h-1.6a6,6,0,0,1-.1-.84,2,2,0,0,1-1.95,1,2,2,0,0,1-2.3-1.75,1.53,1.53,0,0,1,0-.37c0-1.25.86-2.28,3.27-2.28h.82v-.5c0-.56-.18-1-1-1a.92.92,0,0,0-1.06.75,1,1,0,0,0,0,.17H41.5c.08-1.1.74-2.21,2.86-2.21,1.64,0,2.75.56,2.75,2.28Zm-1.72-1.31h-.85c-1.24,0-1.47.5-1.47,1a.85.85,0,0,0,.81.89H44c1.09,0,1.35-.73,1.35-1.71Z"/><path id="Path_12" data-name="Path 12" class="cls-5" d="M67.25,70.24a15.51,15.51,0,0,0,.1,1.8h-1.6a6,6,0,0,1-.11-.84,2.42,2.42,0,0,1-4.25-.79,2.3,2.3,0,0,1,0-.37c0-1.25.87-2.28,3.28-2.28h.81v-.5c0-.56-.17-1-1-1a.9.9,0,0,0-1,.75,1,1,0,0,0,0,.17H61.64c.07-1.1.73-2.21,2.86-2.21,1.64,0,2.75.56,2.75,2.28Zm-1.73-1.31h-.84c-1.25,0-1.48.5-1.48,1a.86.86,0,0,0,.82.89h.16c1.08,0,1.34-.73,1.34-1.71Z"/><path id="Path_13" data-name="Path 13" class="cls-5" d="M69,67.26c0-1.43,0-1.86,0-2.16h1.77a5.46,5.46,0,0,1,.07.9,2.08,2.08,0,0,1,1.93-1c1.46,0,2.19.93,2.19,2.52V72H73.08v-4.2c0-.78-.19-1.37-1.06-1.37s-1.23.48-1.23,1.7v3.88H69Z"/><path id="Path_14" data-name="Path 14" class="cls-5" d="M76.62,62.28h1.83V64H76.62Zm0,2.82h1.83V72H76.62Z"/><path id="Path_15" data-name="Path 15" class="cls-5" d="M80.16,67.25c0-1.37,0-1.83,0-2.15H81.9a5.55,5.55,0,0,1,.06.82,2.18,2.18,0,0,1,1.93-1A1.71,1.71,0,0,1,85.62,66,2.38,2.38,0,0,1,87.7,65a2.1,2.1,0,0,1,2.22,2.42V72H88.13V67.68c0-.62-.23-1.23-1-1.23s-1.19.6-1.19,1.64v4H84.15V67.62c0-.62-.29-1.16-1-1.16S82,67,82,68.17V72h-1.8Z"/><path id="Path_16" data-name="Path 16" class="cls-5" d="M97,70.24a15.51,15.51,0,0,0,.1,1.8h-1.6a6,6,0,0,1-.11-.84,2.37,2.37,0,0,1-3.32.5,2.41,2.41,0,0,1-1-1.66c0-1.25.87-2.28,3.27-2.28h.82v-.5c0-.57-.18-1-1-1a.92.92,0,0,0-1.05.76.88.88,0,0,0,0,.17H91.43c.07-1.1.73-2.21,2.86-2.21,1.64,0,2.75.56,2.75,2.28Zm-1.73-1.31h-.84c-1.25,0-1.48.5-1.48,1a.86.86,0,0,0,.82.89H94c1.09,0,1.34-.73,1.34-1.71Z"/><rect id="Rectangle_8" data-name="Rectangle 8" class="cls-5" x="98.75" y="62.28" width="1.82" height="9.76"/><path id="Path_17" data-name="Path 17" class="cls-6" d="M120.91,70.24c0,.6,0,1.2.1,1.8h-1.6a6,6,0,0,1-.1-.84,2.42,2.42,0,0,1-4.26-.79,2.29,2.29,0,0,1,0-.37c0-1.25.86-2.28,3.27-2.28h.82v-.5c0-.56-.18-1-1-1a.92.92,0,0,0-1.06.75,1,1,0,0,0,0,.17h-1.76c.07-1.1.73-2.21,2.86-2.21,1.64,0,2.75.56,2.75,2.28Zm-1.72-1.31h-.85c-1.24,0-1.48.5-1.48,1a.87.87,0,0,0,.82.89h.16c1.09,0,1.35-.73,1.35-1.71Z"/><path id="Path_18" data-name="Path 18" class="cls-6" d="M122.63,67.25c0-1.37,0-1.83,0-2.15h1.77a5.55,5.55,0,0,1,.06.82,2.18,2.18,0,0,1,1.93-1A1.73,1.73,0,0,1,128.1,66,2.36,2.36,0,0,1,130.17,65a2.1,2.1,0,0,1,2.22,2.42V72H130.6V67.68c0-.62-.22-1.23-1-1.23s-1.18.6-1.18,1.64v4h-1.79V67.62c0-.62-.29-1.16-1-1.16s-1.2.49-1.2,1.71V72h-1.8Z"/><path id="Path_19" data-name="Path 19" class="cls-6" d="M134.1,62.28h1.82v3.57a2.12,2.12,0,0,1,1.92-.89c1.79,0,2.68,1.54,2.68,3.38,0,2.23-1,3.82-2.94,3.82a1.79,1.79,0,0,1-1.68-.79c0,.22,0,.44-.05.67h-1.78c0-.46,0-1.41,0-2.12Zm4.58,6.14c0-1.14-.42-2-1.43-2s-1.43.73-1.43,2.07.37,2.18,1.43,2.18,1.43-.88,1.43-2.28"/><path id="Path_20" data-name="Path 20" class="cls-6" d="M141.84,62.28h1.82V64h-1.82Zm0,2.82h1.82V72h-1.82Z"/><path id="Path_21" data-name="Path 21" class="cls-6" d="M146.82,69c0,.85.32,1.76,1.35,1.76a1.15,1.15,0,0,0,1.19-.83h1.79a2.89,2.89,0,0,1-3,2.25c-2.22,0-3.14-1.51-3.14-3.58,0-1.72.86-3.62,3.22-3.62s3,1.67,3,3.45c0,.1,0,.46,0,.57Zm2.63-1.19c0-.78-.34-1.46-1.28-1.46s-1.29.84-1.33,1.46Z"/><path id="Path_22" data-name="Path 22" class="cls-6" d="M152.53,67.26c0-1.43,0-1.86,0-2.16h1.78a6.8,6.8,0,0,1,.06.9,2.1,2.1,0,0,1,1.94-1c1.45,0,2.19.93,2.19,2.52V72h-1.83v-4.2c0-.78-.19-1.37-1-1.37s-1.24.48-1.24,1.7v3.88h-1.82Z"/><path id="Path_23" data-name="Path 23" class="cls-6" d="M159.39,65.1h1V63.21h1.81V65.1h1.24v1.41h-1.24v3.57c0,.47.11.67.68.67a2.73,2.73,0,0,0,.41,0V72a3.79,3.79,0,0,1-1.11.13c-1.34,0-1.79-.54-1.79-1.83V66.51h-1Z"/><path id="Path_24" data-name="Path 24" class="cls-6" d="M169.94,70.24c0,.6,0,1.2.1,1.8h-1.6a6,6,0,0,1-.1-.84,2.38,2.38,0,0,1-3.33.5,2.44,2.44,0,0,1-.95-1.66c0-1.25.87-2.28,3.28-2.28h.81v-.5c0-.57-.17-1-1-1a.91.91,0,0,0-1.06.93h-1.77c.08-1.1.73-2.21,2.86-2.21,1.64,0,2.75.56,2.75,2.28Zm-1.73-1.31h-.84c-1.25,0-1.48.5-1.48,1a.86.86,0,0,0,.82.89h.16c1.09,0,1.35-.73,1.35-1.71Z"/><rect id="Rectangle_9" data-name="Rectangle 9" class="cls-6" x="171.66" y="62.28" width="1.82" height="9.76"/><path id="Path_25" data-name="Path 25" class="cls-7" d="M56.29,68.16a1.61,1.61,0,1,1-1.61-1.61,1.61,1.61,0,0,1,1.61,1.61h0"/><path id="Path_26" data-name="Path 26" class="cls-7" d="M109.46,68.16a1.61,1.61,0,1,1-1.61-1.61h0a1.61,1.61,0,0,1,1.61,1.61"/><path id="Path_27" data-name="Path 27" class="cls-4" d="M85.23,18.23c.23,0,.47-.08.71-.1-.28,0-.8,0-.91,0-11.13.28-24.8,4.25-29.43,12.2a16.44,16.44,0,0,0,5.65,22.56c7.75,4.52,19.82,1.65,24.45-6.3,0-.08.42-.92.5-1.07a22.34,22.34,0,0,1-2.45.13c-14.85-.25-17.19-23.13,1.48-27.44"/><path id="Path_28" data-name="Path 28" class="cls-6" d="M104.72,55.32H85.92l-.08-37.46h18.88Z"/><path id="Path_29" data-name="Path 29" class="cls-5" d="M85.84,18.13c0-3.93-1.3-6.32-5.74-6.32-4.83,0-5.91,2.65-6.26,6.2H55.65C56.18,9.2,61.77,0,80.54,0c16.54,0,24.15,5,24.15,18Z"/></g></g></g></svg>