<svg id="Capa_1" data-name="Capa 1" xmlns="http://www.w3.org/2000/svg" viewBox="0 0 585.63 111.04"><defs><style>.cls-1{fill:#00306a;}.cls-2{fill:#2e8bc2;}</style></defs><path id="Path_479" data-name="Path 479" class="cls-1" d="M22.12,43.18c1.3-1.4,2.6-2.7,3.9-4.1a27,27,0,0,1,30.1-4.9,19.07,19.07,0,0,1,8.4,7.5l1,1.6c.8,0,1-.7,1.4-1.1a30.22,30.22,0,0,1,18.7-10.1,33.76,33.76,0,0,1,14.5.9,21.56,21.56,0,0,1,14.5,14.1,37.63,37.63,0,0,1,2,12.5c.1,15.9,0,31.9,0,47.8v1.1c0,.8-.4,1-1.1,1h-18c-3.1,0-2.7.4-2.7-2.6V67.18a27.46,27.46,0,0,0-.5-5.7,12.49,12.49,0,0,0-14.5-10.1,11.83,11.83,0,0,0-4.9,2,10.87,10.87,0,0,0-4.3,5.4,20.57,20.57,0,0,0-1.4,7.7v40.7c0,2.6.3,2.4-2.3,2.4H49.82c-2.6,0-2.4.2-2.4-2.3V67.18a24.45,24.45,0,0,0-1-7.6,11.09,11.09,0,0,0-11.1-8,15.33,15.33,0,0,0-3.7.2,11.32,11.32,0,0,0-8.5,7.2,19.14,19.14,0,0,0-1.3,7.5v41.6c.1,1-.2,1.4-1.3,1.4H1.42c-1,0-1.5-.3-1.4-1.4V35.78c0-2.9-.4-2.6,2.5-2.6h17.3c1.9,0,2,0,2,1.9v6.6c0,.5-.2,1,.3,1.5"/><path id="Path_480" data-name="Path 480" class="cls-2" d="M280.42,109.28c-.2-.7.3-1.2.5-1.8q20.55-48.15,41-96.3a2.62,2.62,0,0,1,2.9-1.9q8.1.15,16.2,0a2.59,2.59,0,0,1,2.8,1.8c7.4,17.5,14.9,35.1,22.4,52.6l18.3,42.9a8.25,8.25,0,0,1,1,2.6c-.4.5-1,.3-1.4.3h-19.5a2.24,2.24,0,0,1-2.5-1.8c-2.5-6.3-5.1-12.6-7.6-18.9A2.46,2.46,0,0,0,352,87q-19.2.15-38.4,0a2.24,2.24,0,0,0-2.5,1.8c-2.5,6.3-5.1,12.6-7.6,18.9a2.24,2.24,0,0,1-2.5,1.8c-6.3-.1-12.6,0-18.9,0a2.31,2.31,0,0,1-1.7-.2m65.3-41.6-13.1-31.9-13.1,31.9Z"/><path id="Path_481" data-name="Path 481" class="cls-1" d="M178.32,65.78a12.24,12.24,0,0,0-10.1-14.1,38.39,38.39,0,0,0-13.1-.2,50.37,50.37,0,0,0-12.7,3.2c-1,.4-1.5.4-1.9-.8-1.4-4.7-3-9.3-4.6-13.9-.4-1.1-.1-1.5.9-1.9a70.37,70.37,0,0,1,19-5.1,66.35,66.35,0,0,1,19.4.4,27.88,27.88,0,0,1,17.3,9.4,28.49,28.49,0,0,1,6,13.9,51,51,0,0,1,.7,8.7v42.5c0,1.6,0,1.6-1.7,1.7h-17.8c-1.5,0-1.6,0-1.6-1.6v-5.6c-.6-.4-.9.1-1.2.4a33,33,0,0,1-36.9,4.6,20.68,20.68,0,0,1-10.9-16.5,25.59,25.59,0,0,1,1.6-13.1,21,21,0,0,1,11.7-11.5,40.71,40.71,0,0,1,15.4-3.1,53,53,0,0,1,19.4,2.7c.4-.1.8,0,1.1-.1m-12.5,10.3a22.27,22.27,0,0,0-10.2,1.8,9.27,9.27,0,0,0-5.5,9.6,8.82,8.82,0,0,0,7.3,8,20.41,20.41,0,0,0,15.1-2,12,12,0,0,0,5.9-7.5,24.57,24.57,0,0,0,.4-5.4,1.91,1.91,0,0,0-1.5-2.2,33.18,33.18,0,0,0-11.5-2.3"/><path id="Path_482" data-name="Path 482" class="cls-2" d="M523.32,99.38a10.3,10.3,0,0,0-2.5,2.6,25.17,25.17,0,0,1-15.4,8.6,27,27,0,0,1-20.1-4.2,24,24,0,0,1-9.4-15.8,48.9,48.9,0,0,1-.8-8.5V35.38c0-2.1,0-2.1,2.1-2.1h17.3c2.4,0,2.3-.2,2.3,2.2v40.3a24.37,24.37,0,0,0,1,7.1,11,11,0,0,0,9.4,8.1,16,16,0,0,0,7.2-.5,11.81,11.81,0,0,0,8.2-9.4,19.78,19.78,0,0,0,.5-5.4V35.38c0-2.1,0-2.1,2.1-2.1h17.5c2.1,0,2.1,0,2.1,2v72.3c0,2,0,2-1.9,2h-18.2c-1.7,0-1.7,0-1.7-1.7v-8.5"/><path id="Path_483" data-name="Path 483" class="cls-2" d="M433.42,50.78h-35.6c-1.8,0-1.8,0-1.8-1.8V35.38c0-2.3,0-2.1,2.2-2.1h57.2c1.4,0,2.8.1,4.2,0,1,0,1.5.3,1.4,1.4v12.9a3,3,0,0,1-1.2,2.2c-3.2,3.6-6.5,7.1-9.7,10.7l-26.9,29.7A3.6,3.6,0,0,0,422,92h37.5c1-.1,1.4.3,1.4,1.4v14.7c0,1.2-.5,1.5-1.6,1.4h-63.6c-.8,0-1.2-.3-1.2-1.1V95.08a3,3,0,0,1,1-1.9l20.4-22.6c5.5-6.1,11.1-12.2,16.6-18.4a2.16,2.16,0,0,0,.9-1.4"/><path id="Path_484" data-name="Path 484" class="cls-1" d="M262.52,55.88c-2.1-1.1-4.1-2.1-6.2-3.1a37,37,0,0,0-13.8-3.9,11.15,11.15,0,0,0-5.4.8,4.41,4.41,0,0,0-3.2,5.4,4.54,4.54,0,0,0,2,2.7,21.86,21.86,0,0,0,5,2.7c3.7,1.5,7.6,2.6,11.4,3.9a39.61,39.61,0,0,1,14.1,7.7,17.88,17.88,0,0,1,5.9,13.2,25.58,25.58,0,0,1-2.8,13.3,22.13,22.13,0,0,1-11.2,9.7,40.15,40.15,0,0,1-16.1,2.7,52.82,52.82,0,0,1-30.4-10.4c-1.7-1.2-1.5-1.1-.5-2.7,2.5-3.8,5.1-7.7,7.5-11.6.6-1,1.1-1,2-.4a45.14,45.14,0,0,0,16.8,7.7,23.11,23.11,0,0,0,9.8.3,14.26,14.26,0,0,0,2.7-.9,4.6,4.6,0,0,0,2.2-6.3,4.94,4.94,0,0,0-1.8-2,13.51,13.51,0,0,0-4.7-2.2c-3.7-1.2-7.4-2.3-11.1-3.5a46.87,46.87,0,0,1-10.1-4.2,20.13,20.13,0,0,1-10.5-20.4,22.87,22.87,0,0,1,18.4-21,43.77,43.77,0,0,1,23.8,1,53.61,53.61,0,0,1,12.9,5.8c1.3.8,1.3.9.7,2.1-2.4,4.5-4.9,9-7.4,13.6"/><path id="Path_485" data-name="Path 485" class="cls-2" d="M564,57.58V7.18c0-1.6,0-1.6,1.6-1.6h18.6c1,0,1.5.2,1.4,1.3v99.9c0,3.1.3,2.7-2.7,2.7h-16.2c-3,0-2.7.4-2.7-2.6V57.58"/><path id="Path_486" data-name="Path 486" class="cls-1" d="M156.42,24.68l6.8-10.6,8.2-12.9c.9-1.4,1-1.4,2.6-.8l16,7a9,9,0,0,1,.9.5c-.5.6-1,1.1-1.5,1.6L173.92,24a2.81,2.81,0,0,1-2.1,1h-14.9a.68.68,0,0,1-.5-.3"/></svg>