<svg id="Capa_1" data-name="Capa 1" xmlns="http://www.w3.org/2000/svg" viewBox="0 0 976.8 161.21"><defs><style>.cls-1,.cls-2{fill:#2a2922;}.cls-1{fill-rule:evenodd;}</style></defs><path id="Path_511" data-name="Path 511" class="cls-1" d="M34.8,106.32a5.4,5.4,0,0,1,0-6.4c.8-1.2.2-3.3.5-5,.4-2.3,1.1-4.6,1.7-6.9.1-.3.4-.5.4-.8.2-3.2,2.4-5.9,2.2-9.3a23.56,23.56,0,0,1,1.2-7.5,103.55,103.55,0,0,0,1.5-20.8c.2-2.2,1.2-4.3,1.3-6.5.4-5.8.8-11.6.7-17.4a5.57,5.57,0,0,0-5.5-5.6,9.85,9.85,0,0,0-1.7.2,57.23,57.23,0,0,0-13.9,4.8c-4.7,2.1-8.8,5-13.3,7.3A8.67,8.67,0,0,1,0,30.92c1.5-1.5,3.1-2.9,4.8-4.3,6.4-4.7,12.7-9.4,19.2-13.8,6-4,12.1-7.8,18.3-11.5A12.53,12.53,0,0,1,48,0c3.1-.1,6.2.2,9.2.4.5,0,1.3.2,1.4.5,1.4,3.8,5.2,6.3,5.1,10.8a24.35,24.35,0,0,1-1.5,9.2,28,28,0,0,0-.6,7.1c-.3,3.1-.8,6.3-1,9.4a54.58,54.58,0,0,1-.7,9c-1,4.5-2.7,8.8-4,13.2-.2.6.5,1.4.4,2-.1,1.9-.4,3.7-.6,5.5-.1,1.3,0,2.7,0,4.4-2.6.8-1.7,3.6-2.1,5.8s-.7,4.7-1.1,7.1c-.8,5.3-1.2,10.8-2.4,16a69.43,69.43,0,0,0,.2,26.1,16.6,16.6,0,0,0,10.4,13.6,16.32,16.32,0,0,0,5.4.1c1.3,0,2.6,0,3.9-.1a3.36,3.36,0,0,0,1.4-.5,45.11,45.11,0,0,0,16-18.6,14.59,14.59,0,0,1,1.7-3,108.21,108.21,0,0,0,10.6-21.6c2.6-5.7,6.1-10.9,9-16.5a15.93,15.93,0,0,0,2.1-6,43.05,43.05,0,0,1,6.2-15.4,181,181,0,0,0,7.8-25c-1.5-4.8,2.1-8.4,3-12.7s1.9-8.6,2.8-12.9c.3-1.6,1.2-1.9,2.7-2.2,3.6-.6,7-1.8,10.5-2.6,2.8-.6,5.6-1.2,9-1.9-.3,4.3-.6,8.2-.9,12.1a18.1,18.1,0,0,0-.3,2.3c0,3.7,0,7.4-.1,11.1a50.34,50.34,0,0,0,.7,19.7,8.63,8.63,0,0,1,.2,2.8c-.2,5.1-.7,10.1-.7,15.2,0,4.3.3,8.5.5,12.8,0,.2.1.5.1.7-.2,2.6-1.3,4.9.1,7.7a33.18,33.18,0,0,1,1.5,8.9,96.49,96.49,0,0,0,1.3,10.8c1.1,4.5.5,9.4,3.6,13.5,5.3,7,7.1,15.9,11.9,23.2a15.51,15.51,0,0,0,16.7,6c1.6-.5,3.5-1.2,4.8,1.2a10.83,10.83,0,0,1-6.2,5.3c-3.8.9-7.5,2.6-11.3,3.2a18.68,18.68,0,0,1-8.1-1,18.09,18.09,0,0,1-8.7-5.4,39.49,39.49,0,0,0-9-5.5,4.71,4.71,0,0,1-2.1-2.3,51.89,51.89,0,0,0-10.3-15.1,18.29,18.29,0,0,1-1.8-3.4c-.1-.2-.1-.5-.2-.6-2.6-5.9-4-12.2-6.2-18.2a19.39,19.39,0,0,1,.2-7.2,7.72,7.72,0,0,0,.2-1.5c-1-7.6-2.1-15.3-3.2-22.9l-.1-.6c-3.2,4.9-6.5,9.9-9.8,14.9a9,9,0,0,0-.6,2.2c-.1.5-.3,1.3-.5,1.4-2.3.6-1.9,2.4-1.9,4.1a4.55,4.55,0,0,1-.5,2c-1.7,3-3.5,6-5.1,9.1a65.89,65.89,0,0,0-3.4,7.1,63.37,63.37,0,0,1-10.3,17.1c-4.1,5.4-9.1,10.2-13.6,15.2l-.3.3c-6.6,3.5-12.2,9.2-20.4,9.2a7,7,0,0,0-2.5.5,3.71,3.71,0,0,1-4.2-.9,4.65,4.65,0,0,0-2.1-.5,8.75,8.75,0,0,1-1.6-.2c-2.8-1-5.6-2-8.2-3.2a8.84,8.84,0,0,1-5.3-6.4,3.61,3.61,0,0,0-.7-1.9c-3.6-2.5-3-6.5-3.8-10.1-.4-1.7-.3-3.6-.8-5.2a17.56,17.56,0,0,1,.3-11.1c.1-.2.1-.5.2-.6,2.3-1.9,1.2-4.1.7-6.3a2.42,2.42,0,0,1,.6-2,20.41,20.41,0,0,1,2.7-2.3"/><path id="Path_512" data-name="Path 512" class="cls-1" d="M219.9,105.92a21.76,21.76,0,0,1-.9-43.5h1a22.09,22.09,0,0,1,22.1,21.7,21.79,21.79,0,0,1-21.9,21.7h0l-.3.1"/><path id="Path_513" data-name="Path 513" class="cls-2" d="M314.3,53.12V26.92h5.1v25.8c0,9.7,5.1,15.2,13.8,15.2,8.3,0,13.6-5,13.6-14.9V26.82h5.1v25.8a18.79,18.79,0,0,1-37.5,2.3,10.28,10.28,0,0,1-.1-1.8"/><path id="Path_514" data-name="Path 514" class="cls-2" d="M363,38.72h4.9v5.8A12.77,12.77,0,0,1,379.3,38a12.1,12.1,0,0,1,12.8,11.4v22.5h-5V52.52a8.82,8.82,0,0,0-7.6-10h0a8.08,8.08,0,0,0-1.6-.1,9.73,9.73,0,0,0-10,9.5h0v19.8h-5l.1-33Z"/><path id="Path_515" data-name="Path 515" class="cls-2" d="M402.6,26h5.6v5.5h-5.6Zm.3,12.7h4.9v33.2h-4.9Z"/><path id="Path_516" data-name="Path 516" class="cls-2" d="M416.1,38.72h5.5l11.2,27.6,11.3-27.6h5.3L435,72.12h-4.4Z"/><path id="Path_517" data-name="Path 517" class="cls-2" d="M471.7,68.42a14.11,14.11,0,0,0,10.5-4.7l3.1,2.8a16.92,16.92,0,0,1-13.7,6.2,17.29,17.29,0,0,1-16.4-18.3A17.48,17.48,0,0,1,471,38a15.86,15.86,0,0,1,15.6,16.1v.1a7.57,7.57,0,0,1-.1,1.5,9.15,9.15,0,0,1-.1,1.7H460a11.44,11.44,0,0,0,11.7,11m9.7-15a10.87,10.87,0,0,0-10.6-11.2h0A11.37,11.37,0,0,0,460,53.42Z"/><path id="Path_518" data-name="Path 518" class="cls-2" d="M495.1,38.72h5v8.7a14.21,14.21,0,0,1,13.6-9.2v5.3h-.4A13.4,13.4,0,0,0,500,57a10.87,10.87,0,0,0,.1,1.8V72h-5V38.72Z"/><path id="Path_519" data-name="Path 519" class="cls-2" d="M518.4,67.72l2.5-3.5a19.3,19.3,0,0,0,11.5,4.2c4,0,6.9-2.1,6.9-5.2v-.1c0-3.3-3.9-4.6-8.3-5.9-5.2-1.5-11-3.3-11-9.4v-.1a10.19,10.19,0,0,1,10.5-9.6l.8.1a22.31,22.31,0,0,1,12,3.7l-2.2,3.7a18.15,18.15,0,0,0-9.8-3.2c-3.9,0-6.4,2-6.4,4.8v.1c0,3.2,4.1,4.4,8.5,5.7,5.1,1.5,10.7,3.5,10.7,9.5v.1a10.49,10.49,0,0,1-10.9,10,2.77,2.77,0,0,1-.9-.1,22.32,22.32,0,0,1-13.9-4.8"/><path id="Path_520" data-name="Path 520" class="cls-2" d="M553.2,26h5.7v5.5h-5.7Zm.3,12.7h4.9v33.2h-4.9Z"/><path id="Path_521" data-name="Path 521" class="cls-2" d="M568.1,55.52v-.1a16.4,16.4,0,0,1,15.3-17.3h.6a14.89,14.89,0,0,1,12.7,7.1V25.12h5V72h-5v-6.7a15.18,15.18,0,0,1-12.7,7.4,16.2,16.2,0,0,1-15.9-16.5v-.7m28.8-.1v-.2A12.45,12.45,0,0,0,585,42.42h-.1a11.8,11.8,0,0,0-11.8,11.7v1.3a11.9,11.9,0,0,0,11,12.8h.7a12.41,12.41,0,0,0,12-12.8v-.1"/><path id="Path_522" data-name="Path 522" class="cls-2" d="M610.1,62.32v-.1c0-7.1,5.8-10.9,14.2-10.9a35.37,35.37,0,0,1,10.2,1.4v-1c0-5.9-3.6-9-9.8-9a22.09,22.09,0,0,0-10.1,2.4l-1.5-4a26.85,26.85,0,0,1,12.1-2.8A14.5,14.5,0,0,1,635.9,42a13.08,13.08,0,0,1,3.5,9.8v20.3h-4.9v-5a14.41,14.41,0,0,1-12,5.6,11.2,11.2,0,0,1-12.4-9.8v-.6m24.4-2.5v-3.1a35.54,35.54,0,0,0-9.7-1.4c-6.2,0-9.7,2.7-9.7,6.7v.1c0,4.2,3.9,6.6,8.4,6.6a10,10,0,0,0,11-8.7v-.2"/><path id="Path_523" data-name="Path 523" class="cls-2" d="M647.9,55.52v-.1a16.33,16.33,0,0,1,15.3-17.3h.6a14.89,14.89,0,0,1,12.7,7.1V25.12h4.9V72h-4.9v-6.7a15.18,15.18,0,0,1-12.7,7.4,16.2,16.2,0,0,1-15.9-16.5v-.7m28.8-.1v-.2a12.45,12.45,0,0,0-11.9-12.8h-.1A11.71,11.71,0,0,0,653,54.12v1.2a12,12,0,0,0,11.1,12.8h.7a12.24,12.24,0,0,0,11.9-12.7h0"/><path id="Path_524" data-name="Path 524" class="cls-2" d="M712.5,27h4.8l28.3,36.1V27h5V72h-4.1l-29.1-36.9V72h-4.9V27Z"/><path id="Path_525" data-name="Path 525" class="cls-2" d="M760,62.32v-.1c0-7.1,5.8-10.9,14.2-10.9a35.37,35.37,0,0,1,10.2,1.4v-1c0-5.9-3.6-9-9.8-9a22.09,22.09,0,0,0-10.1,2.4l-1.5-4a26.85,26.85,0,0,1,12.1-2.8A14.5,14.5,0,0,1,785.8,42a13.08,13.08,0,0,1,3.5,9.8v20.3h-4.9v-5a14.41,14.41,0,0,1-12,5.6A11.2,11.2,0,0,1,760,63h0c0-.3-.1-.5,0-.7m24.3-2.5v-3.1a35.54,35.54,0,0,0-9.7-1.4c-6.2,0-9.7,2.7-9.7,6.7v.1c0,4.2,3.9,6.6,8.4,6.6a10,10,0,0,0,11-8.7v-.2"/><path id="Path_526" data-name="Path 526" class="cls-2" d="M797.6,55.52v-.1A17.36,17.36,0,0,1,828,43.92l-3.3,3.5a13.41,13.41,0,0,0-10.1-5A12.21,12.21,0,0,0,802.7,55h0v.4a12.36,12.36,0,0,0,12,12.9h.3a13.78,13.78,0,0,0,10.2-5l3.1,3a17.17,17.17,0,0,1-24.2,2.6,17.37,17.37,0,0,1-6.5-13.4"/><path id="Path_527" data-name="Path 527" class="cls-2" d="M836.5,26h5.6v5.5h-5.7Zm.3,12.7h4.9v33.2h-4.9Z"/><path id="Path_528" data-name="Path 528" class="cls-2" d="M851.2,55.52v-.1a17.35,17.35,0,0,1,34.7-.1v.1a17.29,17.29,0,0,1-17.1,17.4h-.3A17,17,0,0,1,851.3,56h0a.9.9,0,0,1-.1-.5m29.5,0v-.1a12.6,12.6,0,0,0-12.1-13h-.2a12.36,12.36,0,0,0-12.2,12.4h0v.6a12.49,12.49,0,0,0,12,12.9h.3A12.21,12.21,0,0,0,880.7,56v-.5"/><path id="Path_529" data-name="Path 529" class="cls-2" d="M894.7,38.72h5v5.8A12.77,12.77,0,0,1,911.1,38a12.18,12.18,0,0,1,12.8,11.5v22.4H919V52.52a8.82,8.82,0,0,0-7.6-10h0a8.08,8.08,0,0,0-1.6-.1,9.73,9.73,0,0,0-10,9.5h0v19.8h-5Z"/><path id="Path_530" data-name="Path 530" class="cls-2" d="M931.8,62.32v-.1c0-7.1,5.8-10.9,14.2-10.9a34.23,34.23,0,0,1,10.1,1.4v-1c0-5.9-3.6-9-9.8-9a22.09,22.09,0,0,0-10.1,2.4l-1.5-4a26.85,26.85,0,0,1,12.1-2.8A14.5,14.5,0,0,1,957.5,42a13.48,13.48,0,0,1,3.5,9.8v20.3h-4.9v-5a14.41,14.41,0,0,1-12,5.6A11.2,11.2,0,0,1,931.7,63a2,2,0,0,0,.1-.7m24.3-2.5v-3.1a35,35,0,0,0-9.7-1.4c-6.2,0-9.7,2.7-9.7,6.7v.1c0,4.2,3.9,6.6,8.3,6.6A10,10,0,0,0,956,60a.31.31,0,0,0,.1-.2"/><rect id="Rectangle_195" data-name="Rectangle 195" class="cls-2" x="971.9" y="25.02" width="4.9" height="46.9"/><path id="Path_531" data-name="Path 531" class="cls-2" d="M312.3,134v-.1a16.4,16.4,0,0,1,15.3-17.3h.6a14.89,14.89,0,0,1,12.7,7.1v-20.1h4.9v46.9h-4.9v-6.7a15.18,15.18,0,0,1-12.7,7.4,16.22,16.22,0,0,1-15.9-16.6Zm28.8,0v-.1a12.45,12.45,0,0,0-11.9-12.8h-.1a11.65,11.65,0,0,0-11.7,11.7,4.1,4.1,0,0,0,.1,1.1v.1a11.9,11.9,0,0,0,11,12.8h.7a12.38,12.38,0,0,0,12-12.7l-.1-.1"/><path id="Path_532" data-name="Path 532" class="cls-2" d="M371.5,147a14.11,14.11,0,0,0,10.5-4.7l3.1,2.8a16.92,16.92,0,0,1-13.7,6.2,17.4,17.4,0,0,1-.6-34.7,15.86,15.86,0,0,1,15.6,16.1h0a7.57,7.57,0,0,1-.1,1.5c-.1.5,0,1-.1,1.7H359.8A11.53,11.53,0,0,0,371.5,147m9.7-15a10.93,10.93,0,0,0-10.6-11.2A11.45,11.45,0,0,0,359.8,132Z"/><path id="Path_533" data-name="Path 533" class="cls-2" d="M414,105.62h20.6a18.06,18.06,0,0,1,13.1,4.6,14.58,14.58,0,0,1,3.9,10.3v.1a13.94,13.94,0,0,1-9.6,13.9l11,16.1H441.4l-9.6-14.4H424v14.4h-9.9Zm19.9,21.8c4.8,0,7.6-2.6,7.6-6.4v-.1c0-4.2-2.9-6.4-7.8-6.4h-9.8v12.9Z"/><path id="Path_534" data-name="Path 534" class="cls-2" d="M459.8,116.12h9.8v34.4h-9.8Zm8.2-15.2,8.4,3.7-8.3,7.7h-7.2Z"/><path id="Path_535" data-name="Path 535" class="cls-2" d="M477.1,133.52v-.1a18.16,18.16,0,0,1,18.2-18h.5a17.89,17.89,0,0,1,18.6,17.2v.7a18.16,18.16,0,0,1-18.2,18h-.5a17.81,17.81,0,0,1-18.5-17.2,1.27,1.27,0,0,1-.1-.6m27.6,0v-.1a9.16,9.16,0,0,0-8.8-9.5h-.2a8.69,8.69,0,0,0-8.9,8.7v.8a9.16,9.16,0,0,0,8.8,9.5h.2a8.82,8.82,0,0,0,9-8.6h0a2.2,2.2,0,0,0-.1-.8Z"/><path id="Path_536" data-name="Path 536" class="cls-2" d="M541.7,105.62h9.2l21.1,27.7v-27.7h9.8v45h-8.4L551.6,122v28.6h-9.8l-.1-45Z"/><path id="Path_537" data-name="Path 537" class="cls-2" d="M589.8,133.52v-.1a17.12,17.12,0,0,1,16.3-17.9h.7a16.77,16.77,0,0,1,16.9,16.7h0a13.4,13.4,0,0,1-.1,2c0,.8-.1,1.7-.1,2.6h-24a8.06,8.06,0,0,0,8.4,6.8,11.48,11.48,0,0,0,8.4-3.5l5.6,4.9a18.2,18.2,0,0,1-32.1-11.5Zm24.3-2.9a7.34,7.34,0,0,0-7.3-7.3,7.73,7.73,0,0,0-7.5,7.3Z"/><path id="Path_538" data-name="Path 538" class="cls-2" d="M631,157.32l3.3-7.3a22.51,22.51,0,0,0,11.6,3.2c6.7,0,9.8-3.2,9.8-9.4v-1.7a13.47,13.47,0,0,1-11.2,5.6,15.09,15.09,0,0,1-15.3-14.9h0v-1.2a15,15,0,0,1,14.2-16h1.1a13.94,13.94,0,0,1,11.1,5.1v-4.5h9.8v26.7a18.8,18.8,0,0,1-4.4,13.6,20.06,20.06,0,0,1-14.9,4.6A33.45,33.45,0,0,1,631,157.32Zm24.8-25.7v-.1a8.41,8.41,0,0,0-16.8,0v.1a7.9,7.9,0,0,0,7.7,8h.6a8,8,0,0,0,8.4-7.5.75.75,0,0,0,.1-.5"/><path id="Path_539" data-name="Path 539" class="cls-2" d="M674.2,116.12H684V123a10.61,10.61,0,0,1,11-7.6v10.2h-.5c-6.5,0-10.5,3.9-10.5,12.2v12.7h-9.8Z"/><path id="Path_540" data-name="Path 540" class="cls-2" d="M699.3,133.52v-.1a18.22,18.22,0,0,1,18.2-18h.5a17.89,17.89,0,0,1,18.6,17.2v.7a18.67,18.67,0,0,1-37.3.2m27.7,0v-.1a9.16,9.16,0,0,0-8.8-9.5H718a8.69,8.69,0,0,0-8.9,8.7h0v.8a9.1,9.1,0,0,0,8.8,9.5h.3a8.69,8.69,0,0,0,8.9-8.7h0a2,2,0,0,1-.1-.7"/></svg>