<?xml version="1.0" encoding="utf-8"?>
<!-- Generator: Adobe Illustrator 26.0.2, SVG Export Plug-In . SVG Version: 6.00 Build 0)  -->
<svg version="1.1" id="Layer_1" xmlns="http://www.w3.org/2000/svg" xmlns:xlink="http://www.w3.org/1999/xlink" x="0px" y="0px"
	 viewBox="0 0 950.6 285.6" style="enable-background:new 0 0 950.6 285.6;" xml:space="preserve">
<style type="text/css">
	.st0{fill:#283341;}
	.st1{fill:#1A232F;}
	.st2{fill:#FFFFFF;}
</style>
<g>
	<path class="st0" d="M488.6,196.8c0.2,3.1,1.1,6.1,2.6,8.9c1.2,2,2.9,3.9,4.8,5.3c1.8,1.1,3.6,2,5.6,2.5c1.6,0.4,3.2,0.6,4.9,0.6
		c1.5,0,3-0.3,4.5-0.6c1.4-0.4,2.8-1,3.9-1.9c2.4-1.8,3.8-4.5,3.8-7.5c0-2.3-0.8-4.4-2.4-6.1c-1.8-1.9-3.8-3.5-5.9-4.9
		c-2.4-1.5-5-3-7.6-4.4s-5.3-3-7.6-4.8c-2.2-1.6-4.2-3.6-5.9-5.9c-1.6-2.4-2.4-5.1-2.4-7.9c0-2.2,0.5-4.4,1.4-6.4
		c0.9-1.9,2.2-3.6,3.8-5.1s3.5-2.6,5.6-3.4s4.4-1.3,6.8-1.3c1.5,0,3.1,0.1,4.5,0.5c1.2,0.4,2.5,0.8,3.8,1.3c0.6,0.4,1.4,0.8,1.9,1.2
		c0.8,0.6,1.6,1.1,2.4,1.5c0.9,0.5,1.9,0.8,2.8,0.9c1.1,0.1,2.2-0.3,3.1-0.9l-0.2,16.6h-1.6c-0.1-2.4-0.6-4.6-1.5-6.8
		c-0.8-2-2-3.9-3.4-5.5c-1.5-1.6-3.3-2.9-5.3-3.8c-2.1-1-4.5-1.4-6.8-1.4c-1.4,0-2.6,0.2-3.9,0.8c-1.3,0.4-2.4,1.1-3.4,2
		s-1.8,1.9-2.4,3c-0.6,1.1-0.9,2.5-0.9,3.8c0,2.1,0.9,4.3,2.5,5.6c1.9,1.8,4,3.3,6.3,4.6c2.5,1.4,5.1,2.9,8.1,4.3
		c2.9,1.4,5.5,2.9,8.1,4.8c2.4,1.6,4.5,3.6,6.3,5.9c1.6,2.2,2.5,5,2.5,7.8c0,2.4-0.5,4.6-1.4,6.8c-1,2.1-2.4,4-4,5.6
		c-1.8,1.6-3.9,3-6.3,3.8c-2.6,0.9-5.3,1.4-8,1.4c-1.9,0-3.6-0.1-5.5-0.5c-1.4-0.4-2.8-0.8-4.1-1.2c-0.6-0.3-1.2-0.6-1.8-1
		c-0.6-0.5-1.2-0.9-2-1.1c-0.9-0.4-1.9-0.8-2.9-1c-1.4-0.3-2.9-0.4-4.4-0.4v-15.6L488.6,196.8L488.6,196.8z"/>
	<path class="st0" d="M549.4,182.9h16.9c1.1,0,2.2-0.1,3.4-0.4c0.8-0.1,1.5-0.6,2-1.1c0.5-0.8,0.8-1.6,0.6-2.5h1.6v12.6h-1.6
		c0.1-1.1-0.1-2.2-0.6-3.4c-0.4-0.8-1.1-1.4-1.9-1.6c-1.1-0.2-2.3-0.4-3.4-0.4h-17v16.3c0,0.9,0,2,0.1,3.3c0.1,1.2,0.5,2.4,1.1,3.5
		c0.8,1.3,1.9,2.1,3.1,2.8c1.9,0.9,4,1.2,6.1,1.1h7c1.8,0,3.4-0.1,5.1-0.6c1.4-0.4,2.5-1.1,3.5-2.1c1-1.1,1.9-2.4,2.5-3.8
		c0.8-1.8,1.4-3.6,1.9-5.5h2.6l-3.2,15.3h-38.4v-49c0-1.9,0-3.5-0.1-4.8c0-1.1-0.4-2.1-1-3.1c-0.6-0.9-1.5-1.4-2.6-1.6
		c-1.6-0.4-3.3-0.5-5-0.5v-1.6h46.5l0.9,13.3h-1.9c-0.3-1.9-0.8-3.8-1.5-5.5c-0.5-1.1-1.2-2.3-2.4-3c-1.1-0.8-2.4-1.1-3.6-1.3
		c-1.8-0.2-3.6-0.2-5.4-0.2h-15.5L549.4,182.9z"/>
	<path class="st0" d="M596.8,167.1c0-1.9,0-3.5-0.1-4.8c0-1.1-0.4-2.1-1-3.1c-0.6-0.9-1.5-1.4-2.6-1.6c-1.6-0.4-3.3-0.5-5-0.5v-1.6
		h28c3.6-0.1,7.4,0.4,10.9,1.4c2.6,0.8,5.1,2,7.3,3.6c1.8,1.4,3.1,3.1,4.1,5.3c0.9,1.9,1.2,4,1.2,6.1c0.1,3.1-1,6.1-3.1,8.5
		c-2,2.2-4.6,4-7.6,4.8v0.1c1.8,0.3,3.5,0.8,5.1,1.5c1.6,0.8,3,1.8,4.3,2.9c1.2,1.2,2.2,2.6,3,4.3c0.8,1.6,1.1,3.5,1.1,5.4
		c0,1.6-0.3,3.3-0.8,4.9c-0.6,2.1-1.8,4-3.2,5.6c-2,2-4.5,3.5-7.1,4.5c-3.9,1.4-8,2-12.3,1.9h-22.5L596.8,167.1z M605.4,211.8
		c3.4,0.8,6.9,1.3,10.4,1.1c2,0,4-0.3,5.9-0.8c1.9-0.4,3.6-1.1,5.4-2.2c1.6-1,2.9-2.4,3.9-3.9c1-1.8,1.6-3.8,1.5-5.8
		c0.1-2.4-0.5-4.8-1.8-6.8c-1.1-1.8-2.6-3.3-4.5-4.4s-4-1.9-6.1-2.2c-2.2-0.4-4.5-0.6-6.9-0.5l-7.8,0.3L605.4,211.8z M623.4,182.1
		c1.8-0.8,3.2-1.9,4.5-3.3c1-1.1,1.8-2.5,2.1-4c0.2-1.1,0.4-2.2,0.5-3.5c0.1-2.1-0.5-4.1-1.5-6c-1-1.6-2.4-3-4-4
		c-1.8-1.1-3.6-1.9-5.5-2.2c-2-0.5-4-0.8-6.1-0.8c-1.4,0-2.8,0.4-4,1.3c-1.2,1.1-2.1,2.5-2.8,4.1c-1,2.8-1.4,5.6-1.2,8.6v10.9
		l10.1,0.1C618.1,183.6,620.9,183.1,623.4,182.1L623.4,182.1z"/>
	<path class="st0" d="M706.5,196.8c0.1,3.1,1.1,6.1,2.6,8.9c1.2,2,2.9,3.9,4.8,5.3c1.8,1.1,3.6,2,5.6,2.5c1.6,0.4,3.2,0.6,4.9,0.6
		c1.5,0,3-0.3,4.5-0.6c1.4-0.4,2.8-1,3.9-1.9c1.1-0.9,2-1.9,2.8-3.1c0.8-1.4,1-2.9,1-4.4c0-2.3-0.8-4.4-2.4-6.1
		c-1.8-1.9-3.8-3.5-5.9-4.9c-2.4-1.5-5-3-7.6-4.4s-5.3-3-7.6-4.8c-2.2-1.6-4.3-3.6-5.9-5.9c-1.6-2.4-2.4-5.1-2.4-7.9
		c0-2.2,0.5-4.4,1.4-6.4c0.9-1.9,2.2-3.6,3.8-5.1s3.5-2.6,5.6-3.4s4.5-1.3,6.8-1.3c1.5,0,3,0.1,4.5,0.5c1.3,0.4,2.5,0.8,3.8,1.3
		c0.6,0.4,1.4,0.8,1.9,1.2c0.8,0.6,1.6,1.1,2.4,1.5c0.9,0.5,1.9,0.8,2.9,0.9c1.1,0.1,2.3-0.3,3.1-0.9l-0.2,16.6h-1.6
		c-0.1-2.4-0.8-4.6-1.5-6.8c-0.7-2-1.9-3.9-3.4-5.5s-3.2-2.9-5.3-3.8c-2.1-1-4.5-1.4-6.8-1.4c-1.3,0-2.6,0.2-3.9,0.8
		c-1.2,0.4-2.4,1.1-3.4,2s-1.8,1.9-2.4,3c-0.6,1.1-0.9,2.5-0.9,3.8c0,2.1,0.9,4.3,2.5,5.6c1.9,1.8,4,3.3,6.3,4.6
		c2.5,1.4,5.1,2.9,8.1,4.3c2.9,1.4,5.5,2.9,8.1,4.8c2.4,1.6,4.5,3.6,6.3,5.9c1.6,2.2,2.6,5,2.5,7.8c0,2.4-0.5,4.6-1.4,6.8
		c-1,2.1-2.4,4-4,5.6c-1.9,1.6-3.9,3-6.3,3.8c-2.6,0.9-5.3,1.4-8,1.4c-1.9,0-3.8-0.1-5.5-0.5c-1.5-0.4-2.9-0.8-4.1-1.2
		c-0.6-0.3-1.2-0.6-1.8-1c-0.6-0.5-1.3-0.9-2-1.1c-0.9-0.4-1.9-0.8-2.9-1c-1.4-0.3-2.9-0.4-4.4-0.4v-15.6L706.5,196.8L706.5,196.8z"
		/>
	<path class="st0" d="M771.4,159.4h-5.1c-5,0-8.5,0.8-10.4,2.3c-1.8,1.2-3.1,4.5-4.1,9.5h-2.2l0.5-15.6h51.8l0.5,15.6h-2.2
		c-1.1-5-2.5-8.1-4.1-9.5c-1.6-1.5-5.1-2.1-10.5-2.3h-5v56.9h-9.1L771.4,159.4z"/>
	<path class="st0" d="M814.1,155.5h8.6v60.6h-8.6V155.5z"/>
	<path class="st0" d="M406.5,117.3c0,2.5-0.2,5-0.9,7.4c-1.1,5.1-4.6,9.4-9.5,11.5c-3.3,1.4-6.8,2-10.4,1.9
		c-3.6,0.1-7.1-0.5-10.5-1.8c-2.5-1-4.6-2.5-6.4-4.6c-1.5-1.9-2.6-4.1-3.1-6.5c-0.6-2.5-0.9-5.1-0.9-7.6V93.3c0-1.6,0-3.1-0.1-4.3
		c0-1-0.4-1.9-0.9-2.8c-0.5-0.8-1.4-1.3-2.2-1.5c-1.5-0.4-2.9-0.5-4.4-0.4v-1.5h15.3v31.8c0,0.9,0,1.8,0,2.8s0.1,2.1,0.1,3.3
		c0.1,1.1,0.3,2.3,0.4,3.3c0.1,0.9,0.3,1.8,0.6,2.6c0.5,1.3,1.1,2.5,2,3.5s1.9,1.8,3,2.4s2.4,1.1,3.6,1.4c1.3,0.3,2.6,0.5,4,0.5
		c2.8,0,5.4-0.5,7.9-1.6c2.5-1,4.8-2.8,6.3-5c0.6-1,1.1-2.1,1.5-3.3c0.4-1.3,0.6-2.5,0.8-3.9c0.1-1.3,0.3-2.6,0.3-3.9
		c0-1.3,0-2.5,0-3.6V82.7l3.5,0.1L406.5,117.3z"/>
	<path class="st0" d="M477.3,83h7.6v53.8h-7.6V83z"/>
	<path class="st0" d="M523.8,138h-1.5l-19.2-44.9c-0.4-1-0.9-2-1.4-3s-1-1.9-1.6-2.6s-1.4-1.5-2.2-2c-1-0.6-2-0.9-3.1-1V83h12.6
		l17.8,42.8L542.3,83h3.9L523.8,138z"/>
	<path class="st0" d="M564.4,107.1h15c1,0,2-0.1,3-0.3c0.8-0.1,1.4-0.5,1.8-1.1c0.4-0.6,0.6-1.5,0.5-2.3h1.5v11.3h-1.5
		c0-1-0.1-2-0.5-3c-0.4-0.6-1-1.1-1.8-1.4c-1-0.3-2-0.4-3-0.4h-15v14.4c0,0.9,0,1.8,0.1,2.9c0.1,1.1,0.4,2.1,1,3.1s1.6,1.9,2.8,2.4
		c1.8,0.8,3.5,1.1,5.4,1h6.1c1.5,0,3-0.1,4.5-0.6c1.1-0.4,2.2-1,3.1-1.9c0.9-1,1.6-2.1,2.2-3.3c0.6-1.6,1.2-3.1,1.8-4.9h2.3
		l-2.9,13.5h-34V93.1c0-1.6,0-3.1-0.1-4.3c0-1-0.4-1.9-0.9-2.8c-0.5-0.8-1.4-1.3-2.3-1.5c-1.4-0.4-2.9-0.5-4.4-0.4v-1.5h41.3
		l0.8,11.8h-1.6c-0.2-1.6-0.8-3.3-1.4-4.9c-0.4-1-1.1-2-2.1-2.6s-2-1-3.3-1.1c-1.6-0.2-3.1-0.2-4.8-0.2h-13.8L564.4,107.1z"/>
	<path class="st0" d="M605.1,93.3c0-1.6,0-3.1-0.1-4.3c0-1-0.4-1.9-0.9-2.8c-0.5-0.8-1.4-1.3-2.2-1.5c-1.4-0.4-2.9-0.5-4.4-0.4v-1.5
		h23.3c3.3-0.1,6.5,0.4,9.6,1.5c2.1,0.8,4.1,2,5.6,3.6c1.3,1.3,2.1,2.9,2.8,4.6c0.4,1.4,0.6,2.8,0.8,4.3c0,1.8-0.4,3.6-1.1,5.3
		c-0.8,1.5-1.8,2.9-2.9,4c-1.2,1.1-2.6,2.1-4.3,2.9c-1.6,0.8-3.4,1.3-5.1,1.6l10.5,14.6c1,1.4,1.9,2.8,2.9,3.9c0.9,1.1,1.9,2.1,3,3
		s2.4,1.6,3.6,2.1c1.5,0.6,3.1,1,4.8,1v1.5h-14.4l-19.8-27.6c1.6,0,3.4-0.1,5-0.5s3-1,4.4-2c1.3-1,2.4-2.3,3-3.6
		c0.9-1.8,1.3-3.8,1.1-5.8c0-1.5-0.2-3-0.8-4.5c-0.5-1.4-1.2-2.6-2.2-3.6s-2.1-1.9-3.5-2.4c-1.4-0.6-2.9-0.9-4.5-0.9
		c-0.6,0-1.4,0-2,0.1c-1.8,0.1-3.3,1.2-3.9,3c-0.5,1.4-0.8,2.9-0.8,4.3v43.5H605L605.1,93.3z"/>
	<path class="st0" d="M655.8,119.5c0.1,2.8,1,5.5,2.4,7.9c1.1,1.9,2.5,3.4,4.3,4.6c1.5,1,3.1,1.8,5,2.3c1.4,0.4,2.9,0.5,4.4,0.6
		c1.4,0,2.8-0.1,4-0.5c1.2-0.4,2.4-0.9,3.5-1.6c1-0.8,1.9-1.6,2.4-2.8c0.6-1.3,0.9-2.5,0.9-3.9c0-2-0.7-3.9-2.1-5.4
		c-1.5-1.6-3.3-3.1-5.3-4.3c-2.1-1.4-4.4-2.6-6.8-3.9c-2.4-1.3-4.6-2.6-6.8-4.3c-2-1.5-3.8-3.3-5.3-5.3c-1.4-2-2.1-4.5-2.1-7
		c0-2,0.4-3.9,1.2-5.8c0.8-1.8,2-3.3,3.4-4.5c1.5-1.3,3.1-2.3,5-3c1.9-0.8,3.9-1,6-1c1.4,0,2.8,0.1,4,0.5c1.2,0.4,2.2,0.8,3.2,1
		c0.6,0.2,1.1,0.6,1.8,1c0.6,0.5,1.4,1,2.1,1.4c0.8,0.4,1.6,0.6,2.5,0.8c1,0.1,2-0.2,2.8-0.8l-0.3,14.8h-1.5c-0.1-2.1-0.6-4.1-1.4-6
		s-1.8-3.5-3-4.9c-1.4-1.4-2.9-2.5-4.6-3.3c-1.9-0.9-4-1.3-6-1.3c-1.1,0-2.4,0.2-3.4,0.6c-1.1,0.4-2.1,1-3,1.8s-1.6,1.6-2.1,2.8
		c-0.5,1-0.9,2.1-0.9,3.4c0,1.9,0.9,3.8,2.2,5c1.6,1.6,3.5,2.9,5.5,4c2.2,1.3,4.6,2.5,7.3,3.8c2.5,1.3,4.9,2.6,7.3,4.1
		c2.1,1.5,4,3.3,5.5,5.3s2.2,4.4,2.2,6.9c0,2-0.4,4.1-1.2,6c-0.9,1.9-2.1,3.6-3.6,5c-1.6,1.5-3.5,2.6-5.5,3.4
		c-2.2,0.9-4.6,1.3-7.1,1.3c-1.6,0-3.2-0.1-4.9-0.5c-1.2-0.3-2.5-0.6-3.6-1c-0.5-0.3-1.1-0.5-1.5-0.9c-0.5-0.4-1.1-0.8-1.8-1
		c-0.7-0.4-1.6-0.6-2.5-0.9c-1.2-0.3-2.6-0.4-3.9-0.4v-13.8h1.3L655.8,119.5L655.8,119.5z"/>
	<path class="st0" d="M702.5,83h7.6v53.8h-7.6V83z"/>
	<path class="st0" d="M729,93.3c0-1.6,0-3.1-0.1-4.3c0-1-0.4-1.9-0.9-2.8c-0.5-0.8-1.4-1.3-2.2-1.5c-1.5-0.4-2.9-0.5-4.4-0.4v-1.5
		h20.7c1.9,0,3.8,0,5.8,0.1s4,0.2,5.9,0.5c2,0.2,3.9,0.8,5.8,1.4c1.9,0.6,3.5,1.5,5.1,2.5c1.8,1.3,3.4,2.6,4.8,4.4
		c1.4,1.6,2.5,3.4,3.4,5.4c0.9,1.9,1.6,4,2,6c0.4,2.1,0.6,4.3,0.6,6.4c0,3.5-0.6,7.1-1.8,10.5c-1.1,3.3-3,6.3-5.5,8.6
		c-2.6,2.6-5.6,4.6-9.1,5.9c-4.1,1.5-8.4,2.2-12.8,2.1h-17.2L729,93.3L729,93.3z M736.6,132.8c1.4,0.4,2.9,0.6,4.3,0.8
		c1.4,0.1,2.8,0.3,4.3,0.3c3.1,0,6.3-0.6,9.3-1.9c2.6-1.3,4.9-3,6.6-5.3c1.9-2.2,3.2-4.9,4-7.6c1-3,1.4-6.1,1.4-9.3
		s-0.5-6.4-1.4-9.4c-0.9-2.8-2.2-5.4-4.1-7.6c-1.9-2.2-4.1-4-6.8-5.1c-3-1.2-6.1-1.9-9.4-1.9c-1.4,0.1-2.9,0.6-4,1.4
		c-1.3,0.9-2.1,2-2.9,3.4c-1,2.1-1.4,4.4-1.2,6.6L736.6,132.8z"/>
	<path class="st0" d="M833.9,93.3c0-1.6,0-3.1-0.1-4.3c0-1-0.4-1.9-0.9-2.8c-0.5-0.8-1.4-1.3-2.2-1.5c-1.5-0.4-2.9-0.5-4.4-0.4v-1.5
		h20.8c1.9,0,3.8,0,5.8,0.1s4,0.2,5.9,0.5c2,0.2,3.9,0.8,5.8,1.4c1.9,0.6,3.5,1.4,5.1,2.5c1.8,1.3,3.4,2.6,4.8,4.4
		c1.4,1.6,2.5,3.4,3.4,5.4c0.9,1.9,1.5,4,2,6c0.5,2.1,0.6,4.3,0.6,6.4c0,3.5-0.6,7.1-1.8,10.5c-1.1,3.3-3,6.3-5.5,8.6
		c-2.6,2.6-5.6,4.6-9.1,5.9c-4.1,1.5-8.4,2.2-12.8,2.1h-17.4L833.9,93.3z M841.5,132.8c1.4,0.4,2.8,0.6,4.3,0.8
		c1.4,0.1,2.9,0.3,4.3,0.3c3.1,0,6.3-0.6,9.1-1.9c2.6-1.3,4.9-3,6.6-5.3c1.9-2.2,3.2-4.9,4-7.6c0.9-3,1.4-6.1,1.4-9.3
		s-0.5-6.4-1.4-9.4c-0.9-2.8-2.2-5.4-4.1-7.6c-1.9-2.2-4.1-4-6.8-5.1c-3-1.2-6.1-1.9-9.4-1.9c-1.5,0.1-2.9,0.6-4.1,1.4
		c-1.2,0.9-2.1,2-2.8,3.4c-1,2.1-1.4,4.4-1.2,6.6L841.5,132.8L841.5,132.8L841.5,132.8z"/>
	<path class="st0" d="M942.4,155.5L942.4,155.5h-4v45.4h-0.1l-0.4-0.5l0,0l-36.5-44.9l0,0l0,0h-4.5v60.6h4v-47.8h0.1l39.8,48.8h2.8
		v-51.4c0-1.6,0-3.1,0.1-4.3c0-1,0.4-1.9,0.9-2.8c0.5-0.8,1.4-1.2,2.2-1.5c1.2-0.4,2.5-0.5,3.8-0.4v-1.5L942.4,155.5z"/>
	<path class="st0" d="M459.1,82.9L459.1,82.9h-3.5v40.2h-0.1l-0.4-0.4l0,0l-32.4-39.8l0,0l0,0h-4v53.9h3l0,0h0.5V95.4v-0.1v-1h0.1
		l35.3,43.3h1l0,0h1.5V92c0-1.5,0-2.8,0.1-3.8c0-0.9,0.2-1.8,0.8-2.5c0.5-0.6,1.3-1.1,2-1.3c1.1-0.2,2.1-0.4,3.2-0.4v-1.3
		L459.1,82.9L459.1,82.9z"/>
	<path class="st0" d="M804.3,81.8h-1.5l-24.3,55h13.4v-1.5c-0.8,0-1.5-0.1-2.3-0.3c-0.6-0.1-1.4-0.3-2-0.5c-0.6-0.3-1.1-0.5-1.5-1
		s-0.6-1.1-0.5-1.8c0-1,0.2-1.9,0.7-2.8c0.4-0.9,0.6-1.5,0.9-2.1l0,0l0.2-0.8l3.1-7.4h20.9l7.3,18h7.1L804.3,81.8z M791.9,115.8
		l9.4-21.6l9.1,21.6H791.9z"/>
	<path class="st0" d="M367.4,154.1h-1.6l-27.3,62h15.1v-1.6c-0.9,0-1.8-0.1-2.5-0.3c-0.8-0.1-1.5-0.2-2.2-0.6
		c-0.6-0.2-1.3-0.6-1.6-1.1c-0.5-0.6-0.8-1.2-0.6-2c0-1.1,0.4-2.1,0.8-3.1c0.4-0.9,0.8-1.8,1-2.4l0,0l0.4-0.8l3.5-8.4h23.5l8.1,20.4
		h8.1L367.4,154.1z M353.4,192.6l10.6-24.5l10.4,24.5H353.4z"/>
	<path class="st0" d="M448,155.5h-4v45.4h-0.1l-0.4-0.5l0,0L407,155.5l0,0l0,0h-4.5v60.6h4v-47.8h0.2l39.8,48.8h2.8v-51.4
		c0-1.6,0-3.1,0.1-4.3c0-1,0.4-1.9,0.9-2.8c0.5-0.8,1.4-1.2,2.2-1.5c1.3-0.4,2.5-0.5,3.8-0.4v-1.5L448,155.5z"/>
	<path class="st0" d="M676.4,154h-1.6l-27.3,62h15.1v-1.6c-0.9-0.1-1.8-0.1-2.5-0.3c-0.8-0.1-1.5-0.3-2.3-0.6
		c-0.6-0.3-1.2-0.6-1.6-1.1c-0.5-0.6-0.6-1.3-0.6-2c0-1.1,0.4-2.1,0.8-3.1c0.4-0.9,0.8-1.8,1-2.4l0,0l0.4-0.8l3.5-8.4h23.5l8.1,20.4
		h8L676.4,154z M662.5,192.4l10.6-24.5l10.4,24.5H662.5z"/>
	<path class="st0" d="M296.5,196.8c0.2,3.1,1.1,6.1,2.6,8.9c1.3,2,2.9,3.9,4.8,5.3c1.8,1.1,3.6,2,5.6,2.5c1.6,0.4,3.3,0.6,4.9,0.6
		c1.5,0,3-0.3,4.5-0.6c1.4-0.4,2.8-1,3.9-1.9s2-1.9,2.8-3.1c0.8-1.4,1-2.9,1-4.4c0-2.3-0.8-4.4-2.4-6.1c-1.8-1.9-3.8-3.5-5.9-4.9
		c-2.4-1.5-4.9-3-7.6-4.4c-2.6-1.4-5.3-3-7.6-4.8c-2.3-1.6-4.3-3.6-5.9-5.9c-1.6-2.4-2.4-5.1-2.4-7.9c0-2.2,0.5-4.4,1.4-6.4
		c0.9-1.9,2.3-3.6,3.8-5.1c1.6-1.5,3.5-2.6,5.6-3.4s4.4-1.3,6.8-1.3c1.5,0,3,0.1,4.5,0.5c1.2,0.4,2.5,0.8,3.8,1.3
		c0.8,0.4,1.4,0.8,2,1.2c0.8,0.6,1.6,1.1,2.4,1.5c0.9,0.5,1.9,0.8,2.8,0.9c1.1,0.1,2.2-0.3,3.1-0.9l-0.3,16.6h-1.6
		c-0.1-2.4-0.6-4.6-1.5-6.8c-0.8-2-2-3.9-3.5-5.5c-3.1-3.4-7.5-5.1-12-5.1c-1.4,0-2.6,0.2-3.9,0.8c-2.5,0.9-4.5,2.6-5.8,5
		c-0.6,1.1-0.9,2.5-0.9,3.8c0,2.1,0.9,4.3,2.5,5.6c1.9,1.8,4,3.3,6.3,4.6c2.5,1.4,5.1,2.9,8.1,4.3c2.9,1.4,5.5,2.9,8.1,4.8
		c2.4,1.6,4.5,3.6,6.3,5.9c1.6,2.2,2.6,5,2.5,7.8c0,2.4-0.5,4.6-1.4,6.8c-1,2.1-2.4,4-4,5.6c-1.9,1.6-3.9,3-6.3,3.8
		c-2.6,0.9-5.3,1.4-8,1.4c-1.9,0-3.8-0.1-5.5-0.5c-1.4-0.4-2.8-0.8-4.1-1.2c-0.6-0.3-1.2-0.5-1.8-1c-0.6-0.5-1.2-0.9-2-1.1
		c-0.9-0.4-1.9-0.8-2.9-1c-1.4-0.3-2.9-0.4-4.4-0.4V197L296.5,196.8L296.5,196.8z"/>
	<path class="st0" d="M862.8,154h-1.7l-27.3,62h15.1v-1.6c-0.9,0-1.8-0.1-2.5-0.3c-0.7-0.1-1.5-0.4-2.2-0.6
		c-0.6-0.3-1.2-0.6-1.6-1.1c-0.5-0.6-0.6-1.3-0.6-2c0-1.1,0.4-2.1,0.8-3.1c0.4-0.9,0.7-1.8,1-2.4l0,0l0.4-0.8l3.5-8.4h23.5l8.1,20.4
		h8L862.8,154z M848.9,192.4l10.5-24.5l10.4,24.5H848.9z"/>
	<path class="st1" d="M142.6,0.1C63.8,0.2,0,64.1,0,143s64,142.8,142.9,142.6c78.8-0.1,142.6-64,142.6-142.8
		C285.5,63.9,221.6,0,142.6,0.1C142.8,0.1,142.8,0.1,142.6,0.1z M142.6,284.1c-78-0.1-141.1-63.4-141-141.4C1.6,64.7,65,1.6,143,1.6
		s141.1,63.3,141.1,141.3C284,220.9,220.8,284.1,142.6,284.1C142.8,284.1,142.8,284.1,142.6,284.1z"/>
	<polygon class="st0" points="108.5,198.5 115.5,198.5 112,209.3 	"/>
	<polygon class="st0" points="115.5,220 108.5,220 112,209.3 	"/>
	<polygon class="st0" points="101.3,212.9 101.3,205.9 112,209.4 	"/>
	<polygon class="st0" points="122.8,205.9 122.8,212.9 112,209.4 	"/>
	<polygon class="st0" points="139.5,198.1 146.5,198.1 143,208.9 	"/>
	<polygon class="st0" points="146.5,219.6 139.5,219.6 143,208.9 	"/>
	<polygon class="st0" points="132.3,212.5 132.3,205.5 143,209 	"/>
	<polygon class="st0" points="153.8,205.5 153.8,212.5 143,209 	"/>
	<polygon class="st0" points="170.4,198.6 177.3,198.6 173.9,209.4 	"/>
	<polygon class="st0" points="177.3,220.1 170.4,220.1 173.9,209.4 	"/>
	<polygon class="st0" points="163.1,213 163.1,206.1 173.9,209.5 	"/>
	<polygon class="st0" points="184.5,206.1 184.5,213 173.9,209.5 	"/>
	<path class="st0" d="M142.1,69c0.2,0.1,0.4,0.5,0.4,0.9c0.1,0.2,0.4,0.4,0.2,0.8l-0.1,0.1c0,0.1,0.1,0.2,0.1,0.5s-0.1,0.4-0.2,0.5
		c0,0.2,0.1,0.5,0.1,0.8c-0.1,0.2-0.4,0.4-0.5,0.5c0,0.4-0.2,0.8-0.5,0.9c-0.1,0.5-0.4,1-0.9,1s-0.9-0.1-1.2-0.4
		c-0.2,0-0.4-0.1-0.6-0.2c-0.6-0.2-1.1-0.8-1.4-1.5c-0.1-0.2-0.2-0.6-0.4-1c0-0.2,0.2-0.5,0.5-0.5c0.1-0.4,0.2-0.8,0.8-0.8
		c0.2-0.4,0.2-1,1-0.9c0.1-0.2,0.2-0.5,0.5-0.6c0.2,0,0.4,0,0.6,0s0.2-0.2,0.5-0.2c0.1,0,0.2,0.1,0.4,0.2C141.8,69,142,69,142.1,69z
		"/>
	<path class="st0" d="M136.8,72.8L136.8,72.8c0.8,1.5,2.1,2.5,3.6,2.6c0,0.1-0.2,0.2-0.4,0.2c-0.5,0.2-1.1,0.5-1.6,0.6
		c-0.2,0-0.4,0.2-0.6,0.2s-0.6-0.2-0.9-0.4c-0.1-0.1-0.1-0.1-0.2-0.1c-0.2-0.4-0.2-0.8-0.2-1.1c0.1,0,0.1,0.1,0.2,0.1
		c0.1,0.2,0.2,0.5,0.5,0.6c0-0.4-0.5-0.8-0.6-1.3C136.6,73.9,136.6,73.4,136.8,72.8L136.8,72.8z"/>
	<path class="st0" d="M162.4,86.8c0.4,0,0.6,0.1,0.6,0.5c0.4,0.2,0.8,0.4,0.6,0.9c0,0.2-0.4,0.5-0.5,0.6s-0.2,0.4-0.4,0.6
		c-0.1,0.1-0.1,0.3-0.2,0.3c-0.1,0.1-0.1,0.3-0.2,0.3s-0.1,0.1-0.2,0.1s-0.1,0.1-0.2,0.3c-0.2,0.3-0.5,0.4-0.8,0.6
		c-0.1,0-0.4,0.1-0.5,0.3c-0.2,0-0.5,0.1-0.6,0.3c-0.2-0.1-0.5-0.3-0.5-0.6c-0.1-0.1-0.4-0.3-0.4-0.4c0-0.1,0-0.3-0.1-0.4
		c-0.1-0.3-0.4-0.4-0.4-0.6c0-0.1,0-0.1,0-0.3c-0.1-0.2-0.4-0.2-0.4-0.5s0.1-0.4,0.2-0.5c-0.1-0.2,0-0.6,0.2-0.8
		c0-0.2,0.1-0.4,0.1-0.6c0.1,0,0.1-0.1,0.2-0.1c0,0,0.1,0,0.2,0l0.1-0.1c0.1,0,0.1,0,0.2,0c0.2-0.1,0.4-0.2,0.5-0.2s0.1,0,0.2,0.1
		c0.2,0,0.4-0.1,0.5-0.1s0.2,0.1,0.4,0.1c0.2,0,0.4,0,0.6,0C162.1,86.4,162.3,86.5,162.4,86.8z"/>
	<path class="st0" d="M98.8,113.8c0.1,0.3,0.2,0.6,0.4,1c0.1,0.8-0.4,1-1,1.3c-0.4,0.1-0.6,0.3-0.9,0.4c-0.6,0.3-1.4,0.5-2,0.6
		c-0.8,0-1.6,0-2.4-0.3c-0.1-0.3-0.4-0.4-0.4-0.8c0-0.1,0.1-0.3,0.1-0.5c0-0.3-0.2-0.5-0.2-0.6c0-0.3,0.1-0.5,0.1-0.8
		s-0.1-0.6-0.1-0.9c0-0.1,0-0.1,0.1-0.3c0-0.1,0.1-0.3,0.1-0.4c0-0.3-0.2-0.6-0.2-0.9c0-0.4,0.6-0.5,0.8-0.8c0-0.4,0-0.6,0.2-0.6
		c0.1,0,0.2,0,0.2-0.1c0.1-0.1,0.2-0.5,0.5-0.6c0.4-0.3,1,0,1.3,0.3c0.2,0,0.5,0,0.8,0c0.1,0,0.2,0.4,0.4,0.5s0.4,0.1,0.5,0.3
		c0.1,0.1,0.1,0.3,0.2,0.4c0.4,0.4,0.9,0.5,0.9,1.1c0,0.3-0.1,0.4,0,0.6c0,0.1,0.2,0.3,0.4,0.4C98.9,113.1,99,113.5,98.8,113.8z"/>
	<path class="st0" d="M190.3,135.3c0.2,0,0.5,0,0.9,0.1c0.1,0.1,0.1,0.1,0.2,0.3c0.1,0.1,0.1,0.1,0.2,0.3c0.1,0.1,0.4,0,0.5,0.1
		s0.4,0.1,0.5,0.3c0.1,0.1,0.1,0.3,0.2,0.4c0.2,0.1,0.8,0.1,1,0.4c0.1,0.3,0,0.5,0.1,0.9c0.1,0.3,0.4,0.3,0.5,0.5
		c0.1,0.3-0.1,0.5-0.1,0.6c0.1,0.3,0.2,0.5,0.2,0.9c0,0.3-0.1,0.4-0.2,0.5c-0.2,0.3-0.4,0.4-0.8,0.5c-0.1,0.4-0.4,0.9-1,0.9
		c-0.2,0.1-0.4,0.4-0.6,0.5c-0.4,0-0.6,0.1-1,0.3c-0.2,0.1-0.4,0.4-0.6,0.4c-0.1,0-0.4,0-0.5-0.1c-0.1,0-0.2-0.2-0.4-0.2
		c-0.1,0-0.2,0.1-0.4,0.1c-0.2,0.1-0.5,0.1-0.8-0.1c-0.1-0.1-0.1-0.3-0.2-0.3s-0.2,0-0.4,0c-0.5,0-0.9-0.2-1.1-0.6
		c0.1-1.4,0.4-2.8,0.8-4c0.2-0.9,0.8-1.6,1.2-2.2c0.1-0.3,0.4-0.5,0.5-0.6c0.2-0.1,0.5-0.1,0.8,0C190,135,190.1,135.1,190.3,135.3z"
		/>
	<path class="st0" d="M163.5,91.8C163.5,91.8,163.6,91.8,163.5,91.8C163.5,91.8,163.4,91.8,163.5,91.8z"/>
	<path class="st0" d="M163.1,92c0.1,0,0.1,0,0.1-0.1C163.3,91.9,163.1,92,163.1,92z"/>
	<path class="st0" d="M96.1,120.4h0.2C96.3,120.4,96.3,120.3,96.1,120.4z"/>
	<path class="st0" d="M208.6,123.6c0.2-0.1,0.5-0.3,0.9-0.3c0.4-0.1,0.6-0.1,0.9-0.3c0.2,0.1,0.5,0.4,0.6,0.5
		c0.2,0.1,0.5,0.1,0.8,0.3c1.1,0.1,2.1-0.8,2.3-1.9c0-0.3,0-0.6-0.1-0.9c0-0.1-0.1-0.3-0.1-0.4c-0.2-0.4-0.6-0.6-1.1-0.8
		c-0.1,0-0.2-0.1-0.4-0.1c-0.2,0-0.6,0-0.9,0.1c-0.1,0-0.2,0.1-0.4,0.3c-0.4,0.3-0.6,0.5-0.8,0.9c-0.1,0.1-0.1,0.4-0.2,0.6
		c0,0.3,0.1,0.5,0,0.8c-0.8,0.1-1.6,0.3-2.5,0.5c-0.2,0.1-0.5,0.1-0.8,0.3c-0.4-0.1-0.6-0.3-0.9-0.5c0-0.3,0.1-0.5,0.2-0.8
		c0.1-0.5,0.2-1,0.5-1.5c0.1-0.3,0.1-0.6,0.2-0.6s0.4,0.1,0.5,0.1s0.2,0,0.4,0l0.1-0.1c0.1,0,0.1,0,0.2,0c1-0.5,1.4-1.8,0.9-2.8
		c0-0.1-0.1-0.1-0.1-0.3c-0.5-0.5-1.1-0.8-1.9-0.6c-0.1,0-0.2,0.1-0.4,0.1c-0.1,0-0.1,0.1-0.2,0.3c-0.2,0.1-0.5,0.4-0.6,0.8
		c-0.1,0.5-0.1,1.1,0,1.6c0.1,0.3,0.2,0.4,0.4,0.6c0,0.4,0,0.8-0.1,1c-0.1,0.3-0.1,0.5-0.2,0.5c-0.2-0.1-0.5-0.4-0.6-0.6
		c-0.2-0.3-0.4-0.5-0.6-0.8s-0.4-0.5-0.5-0.8c-0.2-0.3-0.4-0.6-0.4-0.9c-0.1-0.5,0.1-1,0.4-1.5c0.1-0.3,0.4-0.3,0.6-0.5
		c0.5-0.6,0.4-1.6,0-2.3c-0.1-0.3-0.4-0.4-0.6-0.5c-0.5-0.3-1.1-0.3-1.6-0.1c-0.4,0.1-0.8,0.4-1,0.6c-0.1,0.1-0.2,0.4-0.4,0.5
		c-0.4,1,0,2,0.9,2.5c0.2,0.1,0.5,0.1,0.6,0.3c0,0.6,0.1,1.1,0.2,1.6c0.4,1.1,1,2.1,1.6,3c0.1,0.3,0.4,0.4,0.2,0.6
		c-0.5-0.1-1-0.4-1.5-0.5c-0.1,0-0.4-0.1-0.5-0.3s-0.1-0.4-0.1-0.5c-0.1-0.1-0.1-0.4-0.1-0.5c-0.1-0.3-0.5-0.6-0.5-0.9
		c0-0.1,0.1-0.4,0.2-0.5c0.1-0.4,0-0.8-0.1-1.1c-0.5-0.6-1.4-0.9-2-0.4l0,0c-0.1,0.1-0.4,0.4-0.4,0.6c-0.2,0.8,0,1.5,0.8,1.8
		c0.1,0.1,0.4,0.1,0.5,0.1c0.2,0,0.5-0.1,0.9-0.3c0.1,0.1,0.2,0.4,0.2,0.5c0.1,0.3,0.1,0.4,0.1,0.6c-0.4,0-0.8-0.1-1.1-0.3
		c-1-0.3-2-0.3-3-0.4c-0.2,0-0.4,0-0.6,0c0-0.3,0-0.5,0.1-0.6c0.4-0.6,0.9-1,1-1.8c0-0.5-0.2-0.9-0.5-1.1c-0.1-0.1-0.2-0.1-0.4-0.3
		c-0.2-0.1-0.6-0.1-1-0.1s-0.6,0.3-0.9,0.4c-0.5,0.4-0.8,1-0.9,1.6c0,0.8,0.8,1.3,1.2,1.5c0.1,0.3,0.6,0.3,0.8,0.5
		c-0.2,0-0.5,0.1-0.8,0.1c-0.8,0.1-1.5,0.3-2.3,0.5c-1,0.3-1.9,0.6-2.8,1c-0.2,0.1-0.6,0.3-0.9,0.4c-0.2,0.1-0.6,0.3-0.9,0.4
		c-0.1-0.3,0-0.4,0.1-0.6c0.1-0.5,0.1-0.9,0.1-1.4c0-0.3,0.1-0.4,0-0.6c-0.2,0-0.5,0-0.6,0.1c-0.2,0-0.5,0.1-0.8,0.3
		c-0.5,3.3-1.9,6.4-4.1,8.8c-0.4,0.4-0.6,0.8-1,1.1c-0.1,0.1-0.4,0.4-0.6,0.5c-0.1,0.1-0.1,0.3-0.2,0.3c-0.1,0.1-0.2,0.1-0.4,0.3
		c-0.1,0.1-0.2,0.3-0.2,0.3s-0.2,0.1-0.4,0.3c-0.2,0.1-0.5,0.4-0.8,0.5c-0.1,0.1-0.2,0.1-0.4,0.3c-0.4,0.3-0.8,0.5-1.2,0.6
		c-0.2,0.1-0.4,0.3-0.6,0.4c-0.1,0-0.1,0-0.2,0.1s-0.2,0.1-0.4,0.3c-0.1,0.1-0.4,0.1-0.5,0.3v0.1h-0.1c-0.4,0.1-0.8,0.4-1.1,0.5
		c-0.1,0.1-0.2,0.1-0.4,0.3c-0.1,0-0.2,0-0.2,0c-0.1,0-0.1,0-0.2,0.1c-0.4,0.1-0.8,0.4-1.1,0.5c-0.1,0-0.1,0.1-0.2,0.1
		c-0.6,0.3-1.4,0.4-2.1,0.5c-1.1,0.3-2.3,0.5-3.4,0.6c-0.1,0-0.1,0-0.2,0s-0.2,0-0.2,0.1c-0.2,0-0.4,0-0.6,0c-0.1,0-0.5,0-0.8,0.1
		c-0.2,0-0.5,0.1-0.6,0c-0.1,0-0.2-0.5-0.2-0.6s0-0.4-0.1-0.5c-0.1-0.3-0.1-0.6-0.1-1c0-0.1-0.1-0.3-0.1-0.4c0-0.1,0-0.3,0-0.4
		c0-0.3-0.1-0.6-0.1-1c0-0.5,0-1-0.1-1.5c0-0.1,0-0.4,0-0.5c0-0.5,0-1,0.1-1.6c0-0.4,0-0.8,0.1-1c0-0.4,0.1-0.8,0.2-1.1
		c0.1-0.5,0.2-1.1,0.2-1.5c0.1-0.3,0.1-0.4,0.1-0.6c0.1-0.5,0.2-1,0.4-1.4c0.1-0.3,0.1-0.4,0.2-0.5s0.1-0.3,0.2-0.4
		c0.2-0.4,0.4-0.9,0.6-1.3c0.1-0.3,0.2-0.5,0.5-0.8c0.1-0.1,0.2-0.3,0.2-0.4c0.1-0.3,0.2-0.4,0.2-0.4c0.2-0.1,0.4,0.1,0.5,0.1
		s0.1,0,0.2,0.1c0.1,0,0.1,0.1,0.2,0.1c0.2,0.1,0.6,0.3,0.8,0.5c0.1,0.3,0.2,0.6,0.2,0.9c0,0.1,0,0.3,0,0.4c0,0.4-0.1,0.8-0.4,1
		c-0.1,0.4-0.2,0.6-0.5,1c0,0.1-0.1,0.3-0.1,0.3c-0.1,0.1-0.2,0.3-0.4,0.4c0,0,0,0.1-0.1,0.1c-0.1,0.1-0.4,0.3-0.5,0.4
		c-0.1,0.1-0.2,0.3-0.4,0.4c0,0-0.1,0-0.1,0.1c-0.2,0.4-0.5,0.6-0.9,1c-0.1,0.1-0.1,0.4-0.2,0.5c-0.1,0.3-0.1,0.4-0.2,0.6
		c0,0.4,0.1,0.8,0.2,1.1c0,0.1,0.1,0.3,0.2,0.3c0.1,0.1,0.1,0.3,0.1,0.3c0.1,0.1,0.4,0.1,0.5,0.3c0.1,0.1,0.2,0.3,0.4,0.4
		c0.6,0.4,1.4,0.5,2.1,0.1c0.1,0,0.2-0.1,0.4-0.3c0.1-0.1,0.2-0.1,0.4-0.3c0.5-0.4,0.8-0.9,0.9-1.4c0-0.3,0-0.6,0-0.9
		c0-0.1-0.2-0.4-0.2-0.6c-0.1-0.3-0.1-0.5-0.2-0.8c-0.1-0.1-0.2-0.3-0.2-0.4c-0.1-0.1-0.1-0.3-0.2-0.4c-0.1-0.1-0.4-0.3-0.4-0.5
		c0-0.1,0-0.4,0.1-0.5c0.1-0.4,0.2-0.6,0.2-1c0-0.1,0-0.4,0.1-0.5c0.4,0.1,0.8,0.3,1.1,0.5c0.4,0.1,0.6,0.4,1,0.6
		c0.1,0.3,0.4,0.5,0.4,0.8c0.2,0.3,0.4,0.6,0.4,1c0,0.1-0.1,0.3-0.1,0.4c0,0.1,0,0.3-0.1,0.5c0,0.1,0,0.4,0,0.5s0.1,0.3,0.1,0.4
		c0,0.3,0,0.4,0.1,0.6c0.1,0.4,0.4,0.8,0.6,1.1s0.6,0.4,1,0.4c0.2,0,0.4,0.1,0.6,0.1s0.5,0,0.9-0.1c0.8-0.1,1.4-0.5,1.6-1.3
		c0.2-0.5,0.4-1,0.2-1.6c-0.1-0.5-0.4-1-0.8-1.4c-0.4-0.3-0.8-0.5-1.1-0.5c-0.5-0.1-0.9-0.3-1.4-0.3c-0.2,0-0.6,0-0.9,0
		c-0.2-0.1-0.4-0.4-0.5-0.6c0.1-0.3,0.5-0.3,0.8-0.4c0.4-0.1,0.6-0.3,1-0.3c0.2,0,0.5-0.1,0.8-0.3c0.1,0,0.2,0,0.5,0
		c0.2-0.1,0.5-0.1,0.9-0.1c0.1,0,0.2-0.1,0.4-0.1c0.5-0.1,1.1-0.1,1.6,0c0.2,0,0.5,0.1,0.6,0.4c0.2,0.3,0.4,0.4,0.6,0.6
		s0.6,0.5,1,0.8c0.1,0.1,0.2,0.1,0.4,0.1c0.5,0.3,1,0.3,1.4,0.1c0.4-0.3,0.6-0.5,0.9-0.9c0.2-0.4,0.4-0.9,0.5-1.3
		c0.1-0.3,0.1-0.5,0.2-0.8c0-0.4,0-0.9-0.2-1.3c-0.5-0.8-1.4-1.1-2.3-0.9c-0.1,0-0.2,0.1-0.4,0.1c-0.1,0-0.4,0.1-0.5,0.1
		c-0.2,0.1-0.6,0.3-0.9,0.4c-0.2,0.1-0.6,0.3-0.9,0.4c-0.2,0.3-0.5,0.4-0.8,0.5c-0.4,0.1-0.6,0.1-1,0.3c-0.1,0-0.4,0-0.5,0
		s-0.2,0.1-0.5,0.1c-0.1,0-0.2,0-0.2,0c-0.1,0-0.2,0.1-0.4,0.1c-0.1,0-0.4,0-0.5,0s-0.2,0.1-0.2,0.1c-0.1,0-0.2,0-0.4,0
		c-0.2,0-0.5,0.1-0.6,0.3c-0.2,0.1-0.5,0.1-0.8,0.1c-0.2,0-0.5,0.1-0.6,0.1c-0.2,0.1-0.5,0.3-0.6,0.3c-0.2,0-0.4,0-0.6-0.1
		c-0.1,0-0.4-0.1-0.5-0.1c-0.2-0.1-0.5-0.5-0.6-0.8c0-0.3,0-0.4,0-0.6c0-0.1-0.1-0.4-0.2-0.5s-0.1-0.3-0.2-0.3
		c-0.1-0.1-0.1-0.3-0.2-0.4c-0.4-0.5-0.8-1-1.4-1.4c-0.1-0.1-0.2-0.1-0.4-0.3c0-0.1,0-0.3,0.1-0.3c0.1-0.1,0.1-0.1,0.2-0.1
		c0.1-0.1,0.2-0.4,0.4-0.5c0.2-0.4,0.6-0.6,0.9-1c0.1-0.1,0.4-0.4,0.5-0.4s0.2,0.1,0.4,0.1c1,0.3,2,0.9,2.6,1.8
		c0.2,0.5,0.2,1.1,0.6,1.6c0.1,0.3,0.4,0.5,0.8,0.8c0.5,0.1,1.1,0.3,1.6,0.1c0.1,0,0.2,0,0.4,0c0.1,0,0.4-0.1,0.5-0.3
		c1-0.4,1.6-1.4,1.6-2.4c0-0.1,0-0.3-0.1-0.5c-0.1-0.4-0.2-0.8-0.4-1c-0.1-0.4-0.5-0.5-0.8-0.6c-0.5-0.3-1-0.3-1.5-0.3
		c-0.6,0-1.1,0.3-1.6,0.5c-0.1,0.1-0.4,0.3-0.5,0.5c-0.1,0.1-0.2,0.4-0.5,0.5c-0.2,0-0.5-0.1-0.6-0.3c-0.4-0.3-0.6-0.5-1-0.8
		c-0.1-0.1-0.5-0.3-0.5-0.5c0-0.1,0.2-0.3,0.5-0.4c0.1-0.1,0.4-0.3,0.5-0.4c0.1-0.1,0.4-0.3,0.5-0.4c0.2-0.1,0.5-0.3,0.8-0.5
		c0.1,0,0.1-0.1,0.2-0.1c0.2-0.1,0.6-0.3,0.9-0.4c0.2-0.1,0.4-0.3,0.5-0.3s0.1,0.1,0.2,0.1s0.1,0.1,0.2,0.1c0.6,0.4,1.2,0.8,1.9,1
		c0.5,0.3,1.1,0.4,1.6,0.5c0.1,0,0.4,0,0.5,0.1c0,0.3-0.1,0.4-0.1,0.5c-0.1,0.5,0,1.1,0.2,1.6c0,0.1,0.1,0.3,0.1,0.4
		c0.5,0.6,1.1,1,1.8,1.1c0.2,0,0.4,0.1,0.6,0.1s0.4,0,0.5-0.1c0.1,0,0.4,0,0.5-0.1c0.8-0.3,1.4-0.8,1.6-1.5c0.5-1.3,0.1-2.6-1-3.5
		c-0.2-0.1-0.5-0.3-0.8-0.3c-0.2-0.1-0.5-0.1-0.9-0.1s-0.8,0.1-1.3,0.3c-0.1,0-0.2,0.1-0.4,0.1c-0.2,0.1-0.4,0.4-0.6,0.5
		c-0.1,0-0.4,0-0.5-0.1c-0.4-0.1-0.6-0.1-1-0.3c-0.1,0-0.2-0.1-0.5-0.1c-0.1,0-0.2,0-0.4,0c-0.4-0.1-0.8-0.3-1-0.4
		c-0.1-0.1-0.6-0.3-0.6-0.5c0-0.3,0.4-0.3,0.6-0.3c0.1,0,0.2-0.1,0.2-0.1c0.1,0,0.2-0.1,0.4-0.1c0.2-0.1,0.4-0.1,0.6-0.3
		c0.2-0.1,0.6-0.1,0.8-0.1c0.4-0.1,0.8-0.3,1-0.3c0.1,0,0.1,0.1,0.2,0.1s0.2,0,0.4,0c0.2,0.1,0.4,0.1,0.6,0.1c0.6,0.1,1.1,0.1,1.8,0
		c0.2,0,0.5-0.1,0.8-0.4c0.4-0.3,0.6-0.6,0.6-1c0-0.3,0-0.6-0.1-0.9c-0.1-0.4-0.2-0.8-0.6-1.1c-0.2-0.4-0.6-0.5-1-0.6
		c-0.5,0-1.1,0.1-1.5,0.5c-0.2,0.1-0.4,0.4-0.5,0.5s-0.2,0.1-0.4,0.1c-0.1,0.1-0.1,0.1-0.1,0.3c-0.1,0.1-0.1,0.1-0.2,0.3
		s-0.2,0.4-0.4,0.5c-0.1,0.1-0.4,0.1-0.5,0.1s-0.4,0.1-0.5,0.1c-0.4,0.1-0.6,0.3-1,0.4c-0.1-0.4,0-0.6,0.1-1
		c0.1-0.3,0.2-0.6,0.4-0.9s0.2-0.5,0.4-0.9c0.1-0.3,0.2-0.6,0.5-0.8c0.1,0,0.2,0,0.4,0c0.1,0,0.2-0.1,0.4-0.1c0.4-0.1,0.8-0.4,1-0.6
		c0.1-0.3,0.2-0.4,0.4-0.6c0.4-0.9,0.4-1.9-0.1-2.6c-0.1-0.4-0.4-0.6-0.8-0.8c-0.1-0.1-0.2-0.1-0.4-0.3c-0.5-0.1-1.1-0.3-1.8-0.1
		c-0.4,0.1-0.8,0.3-1,0.5c-0.2,0.3-0.4,0.5-0.5,0.8c-0.2,0.5-0.4,1.1-0.4,1.8c0,0.6,0.2,1.1,0.6,1.5c0.2,0.1,0.4,0.3,0.5,0.4h0.1
		c0.4,0.3,0.1,0.4,0,0.6c-0.4,0.5-0.5,1-0.8,1.5c-0.2,0.4-0.4,0.6-0.5,1s-0.2,0.8-0.4,1.1c-0.1,0.1-0.4,0.3-0.5,0.3
		c-0.2,0.1-0.4,0.3-0.5,0.3s-0.1-0.1-0.2-0.3c-0.1-0.1-0.2-0.3-0.2-0.3c-0.1-0.3-0.4-0.4-0.5-0.6c-0.4-0.6-0.8-1.1-1.1-1.6l-0.1-0.1
		c-0.2-0.3,0.1-0.5,0.4-0.8c0.5-0.5,0.8-1.3,0.8-2c0-0.6-0.4-1.1-0.8-1.6c-0.6-0.5-1.5-0.6-2.4-0.5c-0.1,0-0.2,0.1-0.5,0.3
		c-0.2,0-0.4,0.1-0.6,0.3c-0.1,0.1-0.2,0.3-0.4,0.4c-0.4,0.5-0.5,1.3-0.4,1.9c0,0.3,0.1,0.5,0.2,0.8c0.1,0.1,0.1,0.4,0.2,0.5
		s0.2,0.1,0.2,0.3c0.1,0.1,0.1,0.3,0.2,0.3c0.2,0.1,0.5,0.3,0.9,0.4c0.2,0.1,0.6,0.1,0.9,0.3c0.4,0.1,0.6,0.4,0.9,0.8
		c0.1,0.1,0.6,0.6,0.4,0.9c-0.1,0.1-0.1,0.1-0.4,0.1c-0.5,0-1.1,0.1-1.4,0.1c-0.6,0-1.3,0-1.9-0.1c-0.2,0-0.6,0-0.9-0.1
		c-0.5-0.1-0.9-0.5-1.3-0.9c-0.2-0.1-0.5-0.3-0.6-0.5c0-0.1,0-0.1,0-0.3c0-0.1,0-0.3,0-0.4c0-0.6-0.2-1.2-0.5-1.8
		c-0.1-0.1-0.2-0.3-0.5-0.4c-0.1-0.1-0.2-0.3-0.4-0.3c-0.2-0.1-0.5-0.3-0.8-0.3c-0.5,0-0.9,0-1.3,0.3c-0.6,0.3-1.1,0.6-1.2,1.3
		c-0.1,0.1-0.1,0.4-0.2,0.5c0,0.3-0.1,0.6,0,0.9c0,0.8,0.4,1.4,0.9,1.9c0.4,0.4,1,0.5,1.5,0.5c0.2,0,0.6,0,0.9,0
		c0.2-0.1,0.4-0.1,0.5-0.3c0.2-0.1,0.4-0.4,0.5-0.4s0.2,0.1,0.2,0.3c0.4,0.3,0.9,0.5,1.5,0.6c0.4,0.1,0.9,0.1,1.2,0.3
		c0.4,0,0.8,0,1.1,0c0.4,0,0.8,0,1.1,0c0.2,0,0.6-0.1,0.9-0.1c0.1,0,0.2,0,0.4,0s0.5-0.3,0.6,0s0.2,0.6,0.4,1c0,0.1-0.1,0.3-0.4,0.3
		c-0.2,0.1-0.6,0.3-0.9,0.5c-0.1,0.1-0.2,0.3-0.4,0.3c-0.1,0-0.2,0-0.4,0.1c-0.1,0-0.2,0.1-0.4,0.3c-0.1,0.1-0.2,0.1-0.4,0.3
		c-0.1,0.1-0.1,0.1-0.1,0.1c-0.1,0-0.1,0.1-0.2,0.1c-0.1,0.1-0.2,0.3-0.4,0.4c-0.2,0.1-0.5,0.4-0.8,0.6c-0.1,0.1-0.5,0.6-0.8,0.6
		c-0.4,0-0.8-0.9-0.8-1.3c-0.1-0.4-0.1-0.9-0.4-1c-0.5-0.5-1.1-0.5-1.8-0.3c-0.2,0.1-0.5,0.3-0.6,0.4c-0.2,0.3-0.4,0.5-0.4,0.8
		s0,0.6,0.1,0.9c0,0.1,0,0.3,0,0.4c0,0.1,0.1,0.1,0.1,0.3c0.2,0.4,0.4,0.6,1,0.8c0.5,0,1-0.1,1.4-0.5c0.1-0.1,0.2-0.3,0.4-0.3
		c0.2,0,0.6,0.3,0.6,0.4c0,0.1-0.2,0.3-0.4,0.4c-0.4,0.4-0.8,0.9-1,1.1s-0.5,0.5-0.6,0.8c-0.1,0.1-0.2,0.3-0.2,0.4
		c-0.1,0.1-0.1,0.4-0.4,0.4c-0.2-0.4-0.5-0.8-0.6-1.1c-0.1-0.6-0.4-1.1-0.6-1.6c-0.1-0.1-0.4-0.6-0.6-0.6c-0.8-0.3-1.5-0.1-2.3,0.1
		c-0.1,0.1-0.4,0.3-0.5,0.4c-0.2,0.4-0.5,0.8-0.5,1.1s0,0.8,0.1,1.1c0,0.3,0.1,0.6,0.2,0.9c0.1,0.1,0.1,0.3,0.1,0.4
		c0.2,0.4,0.8,0.6,1.2,0.6c0.2,0,0.6,0,0.9-0.1c0.1,0,0.2-0.1,0.4-0.3c0.1-0.1,0.2-0.1,0.4-0.1c0.2-0.1,0.4-0.5,0.6-0.5
		c0.1,0,0.2,0.1,0.4,0.1c0.1,0.1,0.2,0.1,0.2,0.3s-0.4,0.5-0.4,0.6c-0.2,0.4-0.5,0.9-0.8,1.3c-0.1,0.4-0.4,0.6-0.6,0.9
		c-0.1,0.1-0.1,0.3-0.1,0.4c-0.1,0.3-0.2,0.5-0.4,0.8s-0.2,0.5-0.2,0.8c-0.1,0.3-0.2,0.5-0.4,0.8c-0.2,0.5-0.4,1-0.6,1.5
		c-0.4,0.8-0.5,1.5-0.8,2.3c-0.1,0.6-0.4,1-0.5,1.6c0,0.3-0.1,0.5-0.2,0.9c-0.1,0.3-0.8,0.1-1,0.1c-0.2-0.1-0.5-0.1-0.6-0.4
		c-0.4-0.3-0.6-0.6-0.8-1.1c0-0.3,0.1-0.4,0.1-0.6s0.1-0.5,0.1-0.8s0.1-0.5,0.1-0.6c0-1.1-0.1-2.5-0.1-3.6c0-0.4,0-0.9,0-1.3
		c0.1-0.4,0.2-0.6,0.4-0.9c0.1-0.4,0.2-0.9,0.4-1.3c0-0.3,0.1-0.5,0.1-0.8c0-0.5,0-1.1-0.2-1.6c-0.1-0.3-0.2-0.4-0.4-0.5
		c-0.1,0-0.2,0-0.4-0.1c-0.1,0-0.2-0.1-0.2-0.1c-0.1,0-0.2,0-0.2,0c-0.1,0-0.2,0-0.2,0c-0.2,0-0.6,0.1-0.9,0.3c-0.1,0-0.4,0-0.5,0.1
		c-0.2,0.1-0.4,0.3-0.6,0.4c-0.1,0-0.1,0.1-0.2,0.1c-0.2,0.1-0.5,0.4-0.8,0.6c-0.2,0.3-0.4,0.5-0.5,0.8c-0.1,0.6,0.1,1.4,0.6,1.9
		c0.1,0.3,0.4,0.4,0.6,0.6c0.5,0.3,1,0.6,1.5,1c0.1,0.1,0.2,0.4,0.2,0.6c0.2,0.6,0.2,1.3,0.4,1.9c0,0.1,0,0.3,0,0.4s0,0.3,0,0.4
		s0,0.4,0,0.5s0,0.1,0,0.3c0,0.5,0,1.1-0.1,1.6c0,0.3,0,0.4-0.1,0.5c-0.5,0.1-0.8-0.3-0.9-0.6c-0.1-0.6-0.2-1.1-0.6-1.8
		c-0.1-0.3-0.4-0.5-0.6-0.8c-0.4-0.5-1-0.8-1.6-0.9c-0.8,0-1.5,0.3-2,0.8c-0.1,0.1-0.4,0.4-0.5,0.6c-0.1,0.1-0.2,0.3-0.2,0.4
		c-0.1,0.5-0.2,1-0.1,1.5c0,0.1,0,0.3,0,0.4c0.1,0.3,0.2,0.4,0.4,0.6c0.1,0.1,0.1,0.3,0.2,0.4c0.5,0.4,1.1,0.6,1.8,0.6
		s1.4-0.1,2-0.3c0.1,0,0.2-0.1,0.4-0.3c0.2,0,0.5,0,0.8,0.1c0.2,0,0.5,0,0.8,0.1c0.2,0.1,0.5,0.3,0.6,0.4c0.2,0.1,0.4,0.4,0.5,0.5
		c0.4,0.4,0.6,0.8,0.9,1.1c-0.2,0.4-0.9,0.5-1.4,0.9c-0.1,0.1-0.2,0.3-0.5,0.3c-0.1,0-0.2-0.1-0.5-0.3c-0.1-0.1-0.4-0.1-0.5-0.3
		c-0.6-0.3-1.4-0.5-2.1-0.5c-0.6,0-1.2,0.4-1.8,0.9c-0.4,0.4-0.6,0.8-0.8,1.3c-0.1,0.8,0.1,1.6,0.8,2.1c0.2,0.3,0.4,0.4,0.6,0.5
		s0.5,0.3,0.8,0.4c0.4,0.1,0.6,0,0.9,0l0,0c0.2,0,0.4-0.1,0.6-0.3c0.5-0.4,1-0.8,1.4-1.3c0.2-0.4,0.4-0.8,0.6-1
		c0.1-0.1,0.2-0.4,0.4-0.5c0.1-0.1,0.2-0.4,0.4-0.5c0.1,0,0.2-0.1,0.2-0.3c0.1-0.1,0.1-0.1,0.2-0.3c0.1-0.1,0.4-0.3,0.5-0.4
		c0.4-0.4,0.8-0.5,1.3-0.6c0,0.4,0,0.8-0.1,1.1c-0.1,1-0.2,1.9-0.4,2.9c0,0.3,0,0.5-0.1,0.6s-0.8,0.3-1.1,0.3
		c-0.5,0.1-0.8,0.1-1.1,0.3c-1.5,0.4-3,0.9-4.4,1.4c-0.2,0.1-0.5,0.1-0.8,0.3c-0.4,0.1-0.6,0.3-1,0.4c-0.2,0-0.5,0.1-0.6,0.3
		c-0.5,0.2-0.9,0.4-1.2,0.6c-0.1,0-0.2,0.1-0.4,0.1c-0.1,0-0.1,0.3-0.2,0.1c-0.4-3.3-0.4-6.9-0.6-10.4c-0.1-1.4-0.1-2.9-0.1-4.3
		c0-0.8,0-1.4,0-2.1s0-1.4-0.1-2c0-0.5,0-1.1-0.1-1.8c-0.1-0.9-0.1-2-0.1-3c0-0.4,0-0.6,0-1c0.1-0.1,0.1-0.4,0.2-0.5
		s0.2-0.4,0.4-0.5c0.8-1,1.6-1.9,2.3-2.8c0.5-0.6,1-1.3,1.5-1.9c0.5-0.6,1-1.3,1.6-1.8c1.1-1.1,2.4-2.1,3.8-3
		c0.6-0.4,1.2-0.9,1.9-1.4c0.2-0.3,0.6-0.5,0.9-0.8c0.4-0.4,0.6-0.9,1.3-0.9c0.5,0,1,0,1.5,0c0.2,0,0.5-0.1,0.8-0.1
		c0.2,0,0.5,0,0.8,0s0.5-0.1,0.9-0.3c0.2-0.1,0.6-0.1,0.9-0.1c3.1-0.8,6-2.1,8.6-4c0.2-0.3,0.6-0.4,0.9-0.6c0.1-0.1,0.1-0.3,0.2-0.3
		c0,0.6-0.5,1.1-0.5,1.9c0,0.4,0.1,0.8,0.2,1.1c0.5,0.4,1.1,0.6,1.8,0.6c0.1,0,0.2,0,0.4,0c1-0.3,1.5-1.2,1.2-2.2
		c0-0.1-0.1-0.4-0.2-0.5c-0.1-0.3-0.4-0.4-0.6-0.5c-0.6-0.3-1.5-0.3-2-0.8c0.6-0.6,1.1-1.3,1.8-1.8c0.2-0.3,0.5-0.6,0.9-1
		c0.2-0.4,0.5-0.8,0.8-1c0.1,0.1,0.2,0.4,0.4,0.6c0.1,0.3,0.2,0.5,0.2,0.8c-0.1,0.1-0.4,0.1-0.6,0.3c-0.5,0.3-0.8,0.8-0.8,1.4
		c0.1,0.6,0.6,1.3,1.2,1.4c0.8,0.1,1.5-0.5,1.6-1.3v-0.1c0-0.5-0.2-0.9-0.6-1.1c-0.1-0.1-0.4-0.1-0.5-0.3c0-0.1-0.1-0.3-0.1-0.4
		c-0.1-0.5-0.2-1.1-0.5-1.6c0.4-0.8,0.9-1.5,1.2-2.1c0.2,0,0.5,0.1,0.8,0.3c0,0.6-0.1,1.3-0.1,1.9c0,0.9,0.1,1.9,0.4,2.8
		c0.1,0.4,0.4,0.9,0.8,1.3c-0.4,0.5-0.6,1-0.5,1.6c0.1,0.8,0.8,1.4,1.5,1.6c0.5,0.1,1,0.1,1.5-0.1c0.6-0.3,1.1-0.9,1.2-1.6
		c0.1-0.6-0.1-1.3-0.6-1.6c-0.2-0.3-0.6-0.5-1.1-0.6c-0.2,0-0.5,0-0.8,0c-0.1,0-0.2-0.1-0.4-0.1c-0.4-0.1-0.6-0.5-0.9-0.8
		c-0.2-0.6-0.4-1.2-0.4-1.9c0-0.4,0-0.8,0-1c0-0.4,0-0.6,0-1c0.2,0.1,0.6,0.3,0.9,0.4c0.2,0.1,0.5,0.4,0.6,0.6c0,0.1,0,0.3,0,0.4
		c0.1,1,1,1.9,2.1,1.8c0.1,0,0.1-0.1,0.2-0.1s0.2,0,0.2,0c0.5-0.3,0.9-0.6,1.1-1.1c0.5-1,0-2.1-1-2.6c-0.2-0.1-0.6-0.3-1-0.1
		c-0.4,0-0.8,0.3-1.1,0.5c-0.1,0.1-0.2,0.4-0.5,0.5c-0.8-0.5-1.5-1-2.4-1.5c-0.1-0.1-0.2-0.1-0.4-0.3c0.1-0.4,0.2-0.6,0.5-0.9
		c0.2-0.1,0.5-0.3,0.8-0.4c0.5-0.3,1-0.5,1.5-0.9c0.2-0.1,0.5-0.4,0.8-0.4c0.1,0.1,0.2,0.2,0.2,0.4c0.8,0.8,1.9,1,2.9,0.4
		c0.1,0,0.1-0.1,0.2-0.3c0.1-0.1,0.1-0.1,0.2-0.3c0.2-0.4,0.5-0.9,0.5-1.5c-0.1-1-1-1.9-2.1-1.9c-0.5,0-0.9,0.1-1.3,0.5
		c-0.5,0.4-0.9,1-0.9,1.8c-0.5,0.4-1.1,0.8-1.8,1c-0.2,0.1-0.5,0.1-0.8,0.1c0.1-0.4,0.1-0.6,0.2-1s0.1-0.8,0.2-1
		c0.2-0.2,0.4-0.5,0.6-0.8c0.5-0.5,0.8-1.1,0.8-1.8c-0.1-0.9-0.9-1.5-1.8-1.4l0,0l0,0c-0.2,0-0.5,0.1-0.6,0.1
		c-0.9,0.5-0.8,2.1-0.4,3c0.1,0.1,0.1,0.4,0.2,0.5c0,0.4,0,0.6-0.1,1c-0.1,0.8-0.2,1.5-0.5,2.1c0,0.1-0.1,0.3-0.2,0.4
		c-0.1,0-0.2-0.1-0.2-0.3c-0.6-0.9-1-1.9-1.1-3c0.4-0.5,0.6-1.1,0.6-1.9c-0.1-0.9-0.8-1.6-1.5-2c-0.8-0.1-1.5,0-2,0.4
		c-0.2,0.2-0.5,0.5-0.6,0.9c-0.5,1.1,0,2.5,1.1,3.1c0.4,0.1,0.8,0.2,1.2,0.2c0.2,0.2,0.4,0.6,0.5,1c0.4,0.8,0.9,1.5,1.5,2.1
		c0.1,0.1,0.4,0.3,0.4,0.4c0,0.1-0.1,0.3-0.1,0.4c-0.2,0.6-0.6,1.4-1,1.9c-0.1,0.1-0.4,0.6-0.5,0.8c-0.1,0.1-0.6-0.5-0.8-0.6
		c-0.2-0.3-0.4-0.5-0.5-0.8c-0.2-0.6,0.2-0.8,0.5-1.1c0.2-0.4,0.4-0.8,0.4-1.1c0-0.5-0.1-1-0.2-1.5c-0.1-0.1-0.1-0.1-0.2-0.3
		c-0.6-0.6-1.6-0.8-2.4-0.4c-0.6,0.4-1,1-1,1.8c0,0.4,0,0.8,0,1.1c0.2,0.5,0.8,0.9,1.4,1c0.2,0,0.4,0.1,0.6,0.1
		c0.5,0.3,0.9,0.6,1.1,1.1c0.2,0.4,0.5,0.9,0.5,1.4c-0.4,0.4-0.8,0.9-1.1,1.3c-0.1,0.1-0.2,0.3-0.4,0.4c-0.2-0.1-0.4-0.4-0.5-0.5
		c-0.4-0.3-0.6-0.4-1-0.5s-0.8-0.3-1.1-0.4c-0.4-0.1-1-0.8-1-1.1s0.1-0.4,0.2-0.6c0.5-1.4,0.8-2.8,0.8-4.3c0-0.3,0-0.5,0.1-0.8
		c0.1-0.2,0.2-0.4,0.4-0.6c0.1-0.2,0.2-0.4,0.2-0.6c0.2-0.4,0.4-0.9,0.5-1.4s-0.1-1.1-0.5-1.5c-0.9-0.6-2.3,0-3.1,0.5
		c-0.4,0.4-0.5,0.9-0.4,1.4c0.1,0.4,0.4,0.8,0.6,1.1c0.1,0.2,0.4,0.4,0.5,0.6c0.4,0.5,0.6,1,0.8,1.6c0.1,1,0,2-0.4,3
		c0,0.1-0.2,0.8-0.4,0.8c-0.2,0-0.5-0.3-0.6-0.4c0-0.3,0-0.5,0-0.6c0-0.5-0.1-0.9-0.4-1.3c-0.1-0.1-0.1-0.3-0.1-0.4l-0.1-0.1
		c0,0,0-0.1-0.1-0.1c-0.5-0.6-1.4-0.8-2.1-0.5c-0.5,0.3-0.9,0.5-1.1,1c-0.1,0.4-0.2,0.8-0.2,1.1c0,0.9,0.6,1.5,1.4,1.8
		c0.4,0.1,0.9,0.3,1.2,0.3c0.2-0.1,0.5-0.1,0.8-0.1c0.1,0,0.4,0.1,0.5,0.1c0.2,0.1,0.4,0.1,0.5,0.1c0.2,0.3,0.5,0.5,0.8,0.8
		c0.2,0.4,0.4,0.8,0.4,1.1c-0.2,0.1-0.5,0.3-0.8,0.3c-0.1,0.1-0.5,0.3-0.8,0.3c-0.1,0-0.2-0.3-0.5-0.4c-0.1-0.1-0.4-0.3-0.5-0.4
		c-0.5-0.4-1.1-0.5-1.8-0.4c-0.8,0.3-1.2,0.9-1.5,1.5c0,0.3,0,0.4,0,0.6c0.1,0.4,0.2,0.9,0.6,1.1c0.4,0.4,0.9,0.6,1.4,0.8
		c0.4,0,0.6-0.1,1-0.3c0.2-0.3,0.6-0.5,0.8-0.8c0.5-0.6,1-1.1,1.6-1.5c0.4-0.3,0.8-0.4,1.1-0.5c0.8-0.3,1.5,0,1.8,0.8
		c0,0.1,0.1,0.3,0.1,0.3c-0.2,0.3-0.6,0.5-0.9,0.8c-2.3,1.6-5,2.6-7.8,2.9c-0.8,0-1.4,0-2.1,0c-0.1,0-0.2,0-0.4-0.1
		c0-0.1,0.1-0.3,0.2-0.5c0.2-0.6,0.5-1.3,0.8-2c0.2-0.5,0.4-1,0.5-1.6c0.2-0.8,0.4-1.5,0.5-2.3c0.1-0.9,0.1-1.8,0-2.6
		c0-0.1,0-0.3-0.1-0.4c0-0.1,0-0.3-0.1-0.5c-0.1-0.6-0.2-1.3-0.5-1.9c0-0.1-0.1-0.3-0.1-0.4c-0.1,0-0.2,0.1-0.2,0.3
		c-0.2,0.3-0.4,0.4-0.6,0.6c-0.1,0.1-0.2,0.3-0.2,0.4c0,0.1,0.1,0.4,0.1,0.5c0.2,0.5,0.2,1,0.4,1.5c-0.2-0.1-0.4-0.3-0.5-0.4
		c-0.1-0.1-0.5-0.3-0.5-0.5c0-0.3,0-0.4,0-0.6s0-0.5,0-0.6c0-0.4-0.1-0.9-0.2-1.1c-0.1,0.5-0.5,1-0.8,1.4c-0.1,0.1-0.2,0.3-0.4,0.4
		c-0.1,0-0.1,0.1-0.2,0.1c0,0.1-0.1,0.1-0.1,0.1c-0.4,0.4-0.8,0.5-1.1,0.9c-0.1,0-0.2,0-0.4,0.1c-0.1,0-0.2,0.1-0.4,0.1
		c0.2,0.1,0.5,0.3,0.9,0.3s0.8,0.1,1,0.1s0.4-0.3,0.6-0.3c0,0.3-0.4,0.3-0.4,0.5c0.1,0,0.4,0,0.5,0c0.2,0.1,0.5,0.3,0.9,0.4
		c0.2,0.1,0.6,0.3,0.9,0.5c0,0.1,0.1,0.4,0.2,0.5c0,0.3,0.2,0.3,0.2,0.4c0,0.3-0.1,0.4-0.1,0.5c-0.4,1.3-0.9,2.5-1.6,3.5
		c-0.1,0.1-0.1,0.3-0.2,0.5c-0.9,1.1-1.8,2.1-2.8,3.1c-0.2,0.3-0.5,0.5-0.8,0.8c-0.1,0.1-0.2,0.3-0.2,0.3h-0.1
		c-0.2,0.3-0.5,0.5-0.8,0.8c-0.9,0.6-1.6,1.4-2.5,1.9c-0.2,0.3-0.6,0.4-0.9,0.6s-0.5,0.5-0.9,0.6c-0.2,0.1-0.5,0.3-0.8,0.4
		c-0.5,0.3-0.9,0.5-1.3,0.8c-0.2,0.1-0.4,0.3-0.6,0.4c-0.6-2-0.6-4.3,0-6.3c0.1-0.3,0.1-0.5,0.2-0.8s0.2-0.5,0.5-0.8
		c0.1-0.3,0.2-0.5,0.5-0.8c0.1-0.1,0.4-0.6,0.6-0.6c0.1,0,0.4,0,0.5,0.1c0.5,0.1,0.9,0.4,1.3,0.8c0.2,0.5,0.4,1,0.9,1.3
		c0.4,0.1,0.8,0,1.1,0c0.4-0.1,0.8-0.5,1-0.9c0.1-0.6-0.1-1.3-0.6-1.6c-0.6-0.3-1.2-0.1-1.8,0.3c-0.1,0.1-0.4,0.6-0.6,0.6
		c-0.4,0.1-0.9-0.4-1-0.5s-0.2-0.1-0.2-0.3c0.5-0.6,1.1-1.1,1.9-1.5c0.4,0.3,0.8,0.5,1.1,0.6c0.5,0.1,1,0.1,1.5,0.3
		c0,0.5,0.1,1,0.4,1.4c0.2,0.4,0.8,0.6,1.2,0.6c0.4,0,0.9-0.3,1.1-0.5c0.4-0.4,0.5-0.9,0.4-1.4c-0.1-0.4-0.4-0.6-0.6-0.9
		c-0.4-0.3-0.9-0.3-1.4-0.1c-0.2,0-0.4,0.1-0.5,0.3c-0.1,0.1-0.1,0.3-0.4,0.3s-0.4,0-0.6-0.1c-0.2,0-0.4-0.1-0.6-0.1
		c-0.4-0.1-0.9-0.1-1-0.5c0.1-0.1,0.4-0.3,0.5-0.3c0.5-0.3,1.1-0.5,1.8-0.6c0.8,0.4,2.3,0.1,2.4-0.6c0-0.4-0.1-0.8-0.4-1.1
		c-0.1-0.1-0.2-0.3-0.5-0.3c-0.9-0.3-1.5,0.9-2,1.3c-0.2,0.1-0.5,0.1-0.8,0.3c-0.2,0.1-0.4,0.4-0.6,0.3c0.1-0.6,0.2-1.3,0.6-1.8
		c0.8-0.1,1.4-0.9,1.2-1.6l0,0c0-0.1-0.1-0.4-0.1-0.5c-0.4-0.6-1.3-0.9-1.9-0.5c-0.5,0.3-0.8,0.8-0.8,1.4c0,0.4,0.2,0.8,0.5,1.1
		c0.1,0.1,0.4,0.1,0.5,0.3c-0.2,0.5-0.5,1.1-0.6,1.6c0,0.3-0.1,0.4-0.2,0.6c-0.1,0.1-0.4,0.4-0.5,0.4s-0.2-0.3-0.4-0.4
		c-0.4-0.4-0.8-0.8-1-1.2c0.1-0.1,0.2-0.4,0.4-0.5c0-0.1,0-0.3,0.1-0.4c0.1-0.8-0.4-1.5-1.1-1.6c-0.2,0-0.6,0-0.9,0.1
		c-0.5,0.3-0.8,0.8-0.8,1.4c0.1,0.5,0.4,1,0.9,1.1c0.2,0,0.5,0.1,0.8,0.1c0.2,0.1,0.5,0.3,0.8,0.5c0.1,0.1,0.1,0.3,0.1,0.4
		c-0.8,0.3-1.6,0.4-2.5,0.3c-0.2-0.1-0.5-0.1-0.6-0.4c-0.1-0.1-0.4-0.1-0.4-0.3c0.1-0.8-0.4-1.5-1.3-1.6c-0.1,0-0.2,0-0.4,0
		c-0.5,0.1-1,0.5-1.1,1c-0.2,0.8,0.2,1.6,1,1.8c0.2,0.1,0.6,0.1,0.9,0c0.2-0.1,0.5-0.3,0.6-0.5c0.9,0.8,2.9,0.4,4,0.1
		c0.1,0.1,0.2,0.3,0.2,0.5c0,0.1-0.2,0.1-0.4,0.3c-0.2,0.3-0.4,0.4-0.6,0.5c-0.1,0.1-0.2,0.3-0.4,0.3s-0.2,0-0.4-0.1
		c-0.4-0.1-0.8-0.1-1.1-0.1c-0.1-0.1-0.2-0.4-0.4-0.5c-0.5-0.3-1.1-0.1-1.4,0.4c0,0.1-0.1,0.3-0.1,0.4c-0.1,0.5,0.1,0.9,0.6,1.1
		c0.5,0.1,1,0,1.2-0.4c0.1-0.1,0-0.4,0.2-0.5s0.6,0,0.9,0.1c-0.5,0.5-1.1,1.1-1.6,1.8c-0.1,0.3-0.2,0.6-0.5,0.6s-0.4-0.1-0.5-0.3
		c-0.1-0.3-0.1-0.5-0.2-0.6c-0.5-0.9-1.8-0.6-2,0s-0.1,1.3,0.4,1.8c0.4,0.4,1,0.4,1.4,0c0.1-0.1,0.2-0.3,0.4-0.3
		c-0.9,1.9-1.4,3.8-1.8,5.8c-0.1,0.8-0.1,1.5-0.1,2.4c0,0.3,0,0.5,0.1,0.6c-0.2,0.3-0.6,0.5-0.9,0.8c-0.1,0.1-0.1,0.3-0.2,0.1
		c-0.1-3.6-0.5-7.3-0.6-10.8c0-0.9-0.1-1.8-0.1-2.6c0-0.3,0-0.6-0.1-0.9c-0.1-1-0.1-2-0.2-3c-0.1-1.5-0.1-3-0.1-4.4
		c0-0.4-0.1-0.8-0.1-1c0-0.8,0-1.5,0-2.3s0-1.4,0-2.1c0-0.2-0.1-0.6-0.1-0.9c0-0.5,0.1-1,0.2-1.5c0-0.1,0.1-0.2,0.1-0.5
		c0.1-0.6,0.4-1.1,0.6-1.8c0.6-1,1.3-1.9,2.1-2.8c0.8,0.1,1.1,0.8,1.1,1.5c-0.1,0.4-0.2,0.8-0.5,1.1c-0.4,0.6-1,1.1-1.6,1.5
		c-0.8,0.5-1.9,1.4-1.2,2.6c0.2,0.6,0.8,1.1,1.4,1.4c1.1,0.2,2.1-0.5,2.4-1.6v-0.1c0-0.6-0.1-1.3-0.5-1.8c-0.1-0.2-0.2-0.5-0.4-0.6
		c0.1-0.2,0.2-0.4,0.4-0.6c0.1-0.2,0.2-0.5,0.4-0.6c0.6,0.2,1.5,0.8,1.6,1.4c0,0.1,0.1,0.4,0.1,0.5s0.1,0.4,0.1,0.5
		s-0.1,0.4-0.1,0.5c-0.1,0.6-0.1,1.3,0.1,1.8c0.1,0.4,0.4,0.6,0.6,0.9c1,0.6,2.3,0.4,2.9-0.6l0,0c0.6-0.9,0.4-2.1-0.5-2.6
		c-0.1-0.1-0.4-0.1-0.5-0.2c-0.5-0.2-1-0.4-1.6-0.4c-0.2-0.1-0.2-0.4-0.2-0.6c1.2-0.5,2.8-0.6,4.1-0.2c0.5,0.2,1,0.5,1.5,1
		c0.4,0.5,0.9,0.9,1.4,1.1c0.5,0.1,1,0,1.4-0.4c0.4-0.5,0.8-1.1,0.9-1.8c0.1-0.5-0.1-1.1-0.5-1.4c-0.8-0.5-2.2-0.1-3,0.2
		c-0.2,0.1-0.4,0.2-0.6,0.2c-0.5,0.1-1,0.1-1.6,0c-1.1-0.1-2.3,0-3.3,0.4c-0.1,0.1-0.4,0.1-0.6,0.2c-0.2,0-0.4-0.2-0.6-0.4
		c-0.4-0.4-0.5-0.9-0.6-1.5c0-0.2-0.1-0.6-0.1-0.9c-0.1-0.4-0.4-0.9-0.8-1.1c0.4-0.4,0.9-0.8,1.4-1c0.1-0.1,0.4-0.2,0.5-0.2
		c0.2,0,0.4,0.1,0.6,0.2c0.6,0.2,1.1,0.6,1.4,1.1c0.1,0.2,0.1,0.6,0.2,1c0,0.5,0.2,0.9,0.6,1.1c1,0.6,2.3,0.4,3-0.4
		c0.4-0.6,0.5-1.4,0.1-2.1c0-0.1,0-0.1-0.1-0.2c-0.5-0.5-1.1-0.9-1.9-0.8c-0.5,0-1,0.2-1.4,0.5c-0.1,0.1-0.2,0.2-0.4,0.2
		c-0.4,0-0.8-0.4-0.9-0.5s-0.2-0.2-0.4-0.4c-0.1-0.1-0.2-0.2-0.2-0.5c1-0.5,2.1-1,3.1-1.4c0.9,1,1.9,1.9,3,2.6
		c-0.2,1.1,0.4,2.3,1.5,2.6c1.2,0.4,2.5-0.4,2.8-1.6l0,0c0.2-1.3-0.5-2.4-1.8-2.6c-0.4-0.1-0.9,0-1.2,0.1c-0.1,0-0.4,0.2-0.5,0.2
		c-0.2,0-0.6-0.1-0.9-0.2c-0.8-0.2-1.5-0.8-2.1-1.3c0.4-0.1,0.9-0.2,1.4-0.2c0.5-0.1,1-0.1,1.4-0.1c0.2,0,0.5,0.1,0.6,0.2
		c0.2,0.1,0.4,0.1,0.6,0.2c0.5,0.1,1,0.2,1.5,0.2c0.2,0,0.5-0.2,0.8-0.4c0.2-0.5,0.2-1.1,0.1-1.6c0-0.1-0.1-0.4-0.2-0.5
		c-0.1-0.2-0.5-0.5-0.8-0.6c-0.4,0-0.8,0-1,0.2c-0.4,0.1-0.8,0.4-1.1,0.8c-0.1,0.1-0.2,0.4-0.5,0.4h-0.1c-0.5,0.1-0.9,0.1-1.4,0.2
		c0.2-0.6,0.5-1.3,1-1.8c0.1-0.1,0.2-0.4,0.4-0.5c0.1,0,0.2,0,0.2,0c0.8,0,1.4-0.4,1.8-1c0.2-0.5,0.4-1.1,0.1-1.6
		c-0.2-0.8-0.9-1.3-1.6-1.4c-0.9,0-1.8,0.5-2.1,1.4c-0.1,0.5-0.1,1.1,0.1,1.6c0.1,0.2,0.2,0.5,0.5,0.6c0.1,0.1,0.2,0.1,0.2,0.2
		c-0.1,0.2-0.4,0.5-0.5,0.6c-0.5,0.6-1,1.4-1.4,2.1c-0.2,0.1-0.6,0.2-0.9,0.2c-0.1-0.2-0.2-0.4-0.4-0.6c-0.4-0.8-0.6-1.4-1-2
		c0.6-0.2,1.1-0.9,1.1-1.5c0.1-1-0.6-2-1.6-2.1c-0.1,0-0.2,0-0.4,0c-0.6,0-1.2,0.4-1.6,1c-0.2,0.5-0.2,1.1,0,1.6s0.6,0.8,1.1,1
		c0.1,0,0.4,0,0.5,0.1c0.2,0.1,0.4,0.4,0.5,0.6c0.1,0.2,0.2,0.6,0.2,0.9c-0.6,0-1.4-0.1-2-0.2c-1.1-0.1-2-0.5-2.4-1.4
		c0-0.1-0.1-0.2-0.1-0.5s0.1-0.2,0.1-0.5c0-0.2,0-0.5-0.1-0.8c-0.2-0.8-1-1.2-1.8-1.2s-1.5,0.5-1.9,1.1c-0.1,0.4-0.2,0.8-0.2,1.1
		c0.1,1.1,1,1.9,2.1,1.8l0,0c0.4,0,0.8-0.1,1-0.4c1.5,1.3,3.5,1.8,5.5,1.5c0,0.2,0,0.5,0.1,0.6c-1.4,0.5-2.6,1.1-3.8,1.8
		c-1.1,0.8-2.1,1.6-3.1,2.5c-0.5-0.4-0.4-1.1-0.5-1.8c-0.1-0.9-0.9-1.5-1.8-1.4l0,0c-0.1,0-0.2,0-0.2,0.1c-0.1,0-0.2,0.1-0.4,0.1
		c-0.2,0.2-0.5,0.5-0.8,0.9c-0.1,0.8,0,1.5,0.4,2.1c0.1,0.1,0.2,0.2,0.4,0.2c0.5,0.1,1.1,0.2,1.6,0c0.4-0.1,0.6-0.1,1-0.1
		c-0.1,0.2-0.4,0.5-0.6,0.8c-0.2,0.2-0.4,0.5-0.5,0.8c-0.4,0.5-0.8,1-1.1,1.4c-0.4,0.4-0.8,0.6-1.2,0.8c-0.5,0.2-0.9,0.4-1.4,0.4
		s-1-0.1-1.5-0.2h0.4c-0.2-0.1-0.6-0.2-0.9-0.4c-0.9-0.5-1.8-1-2.5-1.5c-0.2-0.1-0.4-0.2-0.5-0.4s0-0.6,0.1-0.9
		c-0.1,0-0.4,0-0.5-0.1c-0.2-0.1-0.4-0.2-0.5-0.4c-0.1,0.1,0,0.4-0.1,0.5c-0.5-0.4-1-0.8-1.5-1c-0.5-0.4-1.1-0.6-1.6-0.9
		c-1.3-0.5-2.5-0.9-3.8-1.3c0-0.2,0-0.4,0-0.6c1.8-0.1,3.4-0.6,4.8-1.6c0.1-0.1,0.2-0.4,0.5-0.5c0.4,0.1,0.8,0.2,1.1,0.2
		c0.8-0.1,1.2-0.5,1.6-1.1c0.5-1,0-2.3-1.1-2.8h-0.1c-0.9-0.4-2,0.1-2.4,1v0.1c-0.1,0.6-0.1,1.3,0.1,1.9c-0.4,0.2-0.5,0.6-0.8,1
		c-0.5,0.4-1.1,0.6-1.6,0.8c-0.2,0.1-0.6,0.1-1,0.2s-0.6,0.1-1,0.1c0-0.5,0.2-1,0.6-1.4s0.9-0.5,1.2-0.8c0.4-0.5,0.6-1.1,0.5-1.9
		c-0.2-1-1.4-1.6-2.4-1.4c-0.8,0.2-1.2,0.9-1.4,1.6c-0.1,0.5,0.1,1.1,0.4,1.5c0.2,0.2,0.6,0.5,1,0.6c-0.2,0.8-0.5,1.4-0.8,2.1
		c-0.1,0.2-0.1,0.5-0.2,0.8c-0.2-0.1-0.5-0.1-0.9-0.1c-0.6-0.6-1.1-1.4-1.8-2c-0.2-0.2-0.5-0.4-0.6-0.6c0.1-0.1,0.2-0.2,0.5-0.5
		c0.4-0.6,0.4-1.4,0.1-2.1c-0.2-0.5-0.8-0.9-1.4-1.1c-1.1-0.2-2.1,0.5-2.4,1.6c-0.2,1.1,0.5,2.1,1.6,2.4l0,0c0.1,0,0.1,0,0.2,0
		c0.2,0,0.6-0.1,0.8,0c0.1,0,0.4,0.2,0.5,0.5c0.2,0.4,0.6,0.6,0.9,1c0.1,0.1,0.2,0.4,0.2,0.6c-0.2,0-0.5,0-0.8,0s-0.6,0-0.9,0
		c-0.1-0.1-0.4-0.2-0.5-0.4c-0.5-0.4-1.1-0.6-1.8-0.6c-0.4,0-0.8,0.2-1,0.6c0,0.1-0.1,0.1-0.1,0.2c-0.4,0.8-0.1,2,0.6,2.3
		c0.6,0.1,1.3,0,1.8-0.2c0.4-0.1,0.8-0.4,1.1-0.5c0.5-0.1,0.9-0.1,1.4-0.1c0.2,0,0.5,0,0.8,0s0.5,0,0.8,0.1
		c-0.2,0.5-0.8,0.9-1.3,1.1c-0.2,0.1-0.5,0.2-0.8,0.4c-0.2,0.1-0.5,0.2-0.8,0.4c-0.1,0-0.1-0.1-0.2-0.1c-0.8-0.2-1.6-0.1-2.3,0.2
		c-0.6,0.5-0.9,1.3-0.9,2c0.1,1.1,1.2,2,2.4,1.9c0.8-0.1,1.4-0.5,1.8-1.2c0.2-0.8,0.1-1.5-0.1-2.3c1-0.5,2-1.1,2.8-2
		c0.1-0.1,0.1-0.4,0.2-0.4c1.1,0.1,2.3,0.5,3.3,1c-0.1,0.4-0.4,0.6-0.5,0.9s-0.5,0.6-0.9,0.6c-0.1,0-0.2-0.1-0.5-0.2
		c-0.5-0.4-1.1-0.5-1.6-0.4c-0.2,0-0.4,0.1-0.5,0.2s-0.4,0.1-0.5,0.2c-0.4,0.5-0.6,1-0.5,1.6c0.1,1.4,1.6,2,2.9,1.5
		c0.5-0.1,0.9-0.5,1.1-1c0.1-0.5,0-0.9,0.1-1.4c0.2-0.6,0.8-1.1,1.3-1.5c0.1-0.1,0.4-0.2,0.6-0.4c0.1,0,0.4,0.1,0.5,0.2
		c0.5,0.2,1,0.5,1.4,0.9c-0.5,0.6-0.6,1.4-0.6,2.1c0,0.1,0,0.4,0,0.5c0,0.6-0.5,1.5-1,1.5c-0.2,0-0.4-0.1-0.8-0.2
		c-0.5-0.1-0.9-0.1-1.4-0.1c-1.1,0-2.3,0.4-3.1,0.4c-0.2,0-0.5-0.1-0.8-0.2c-0.2,0-0.5-0.1-0.8-0.1c-1.2-0.2-2.6-0.1-2.8,1.1
		c0,0.4,0.1,0.9,0.4,1.3c0.4,0.6,0.8,1.4,1.6,1.4c0.5,0,1-0.2,1.3-0.8c0.6-0.6,1-1.4,1.9-1.9c1-0.4,2.1-0.5,3.3-0.4
		c0.4,0,0.8,0.1,1.1,0.2c0.8,0.1,1.4-0.2,1.8-0.9c0.1-0.1,0.1-0.2,0.2-0.4c0.2,0.4,0.6,0.9,0.9,1.3c-0.4,0.8-0.6,1.5-0.6,2.3
		c0.1,0.8,0.6,1.4,1.4,1.6c0.6,0.2,1.4,0,1.9-0.5c0.4-0.4,0.6-0.9,0.8-1.4c0-0.5-0.1-1-0.6-1.4c-0.6-0.5-1.4-0.9-2-1.3
		c-0.6-0.4-1.1-1-1.5-1.8c-0.2-0.6,0.1-1.4,0.8-1.6l0,0l0,0c0.8,0.6,1.5,1.4,2.1,2.1c0.2,0.4,0.6,0.9,0.9,1.4
		c0.1,0.2,0.2,0.5,0.4,0.8c0.1,0.2,0.2,0.5,0.2,0.8c0,0.4,0,0.8,0,1.1c-0.1,2.4-0.1,4.5-0.4,6.8c0,0.6,0,1.1,0,1.8
		c0,0.6-0.1,1.4-0.1,2.1c0,0.6,0,1.3-0.1,1.9c0,0.1-0.1,0.3-0.1,0.4c-0.1,0.5,0,1,0,1.5c-0.1,1.5-0.1,3.1-0.2,4.6
		c-0.1,1.8-0.1,3.6-0.2,5.4c0,0.3,0,0.5-0.1,0.8c-0.4-0.3-0.6-0.5-1-0.8c0.1,0,0.1-0.1,0.1-0.1c0-0.3,0-0.6,0-0.9
		c-0.1-0.8-0.2-1.6-0.4-2.4c-0.1-0.4-0.1-0.8-0.2-1c-0.2-1-0.6-1.9-1.1-2.9c-0.1-0.3-0.2-0.6-0.4-0.9c0.4,0.3,0.9,0.6,1.4,0.4
		c0.4-0.3,0.8-0.8,0.8-1.3c0-0.6-0.5-1.1-1.1-1.2c-0.4,0-0.8,0.1-0.9,0.4c-0.2,0.4-0.2,1.1-0.8,1.1c-0.2,0-0.4-0.4-0.5-0.5
		c-0.4-0.4-0.6-0.8-1-1.1c-0.2-0.1-0.5-0.3-0.5-0.5c0.2-0.1,0.5-0.3,0.8-0.3c0.1,0.1,0.1,0.4,0.2,0.5c0.2,0.4,0.6,0.5,1,0.5
		c0.4-0.1,0.6-0.3,0.8-0.6c0.1-0.5-0.1-1-0.6-1.3c-0.4-0.1-0.8,0-1,0.3c-0.1,0.1-0.1,0.3-0.2,0.4c-0.1,0-0.2,0-0.4,0
		c-0.4,0-0.6,0.1-1,0.3c-0.2-0.1-0.4-0.4-0.6-0.5c-0.1-0.3-0.6-0.3-0.6-0.5c0-0.1,0.1-0.4,0.2-0.4c0.2,0,0.5,0.1,0.8,0.1
		s0.5,0.1,0.8,0.1c0.8,0.1,1.5-0.1,2.1-0.5c0.1,0.1,0.4,0.3,0.6,0.4c0.6,0.3,1.4-0.1,1.6-0.8l0,0c0-0.1,0.1-0.3,0.1-0.5
		c0-0.8-0.6-1.4-1.4-1.5h-0.1c-0.9,0-1.2,0.8-1.2,1.8c-0.2,0.3-0.5,0.4-0.9,0.5c0,0,0,0-0.1,0c-0.6,0.1-1.2,0.1-1.9,0
		c-0.1,0-0.4,0-0.5-0.1c0.1-0.4,0.5-0.8,0.9-0.9c0.2,0,0.5-0.1,0.8-0.1c0.6-0.4,0.9-1.1,0.5-1.8c-0.1-0.3-0.4-0.4-0.6-0.5
		c-0.6-0.3-1.4,0-1.6,0.8l0,0c0,0.1-0.1,0.4-0.1,0.5c0,0.6,0.2,0.8,0.5,1.1c-0.1,0.3-0.4,0.5-0.6,0.8c-0.1,0.1-0.5,0.8-0.6,0.8
		c-0.2,0-0.4-0.1-0.5-0.4c-0.1-0.1-0.1-0.4-0.2-0.5c-0.2-0.5-0.4-1-0.8-1.5c0.1-0.1,0.4-0.3,0.5-0.4c0.5-0.6,0.5-1.5,0-2
		c-0.4-0.3-0.9-0.4-1.2-0.3c-0.6,0.3-1,0.8-0.9,1.4c0,0.8,0.6,1.3,1.3,1.4c0.2,0.5,0.5,1,0.5,1.6c-0.5-0.1-0.8-0.4-1.2-0.5
		c-0.4-0.4-0.9-1.1-1.6-1.1c-0.6,0.1-1,0.6-1,1.2c0,0.1,0,0.1,0,0.1c0.1,0.4,0.6,0.6,1,0.6s0.9,0,1.3-0.3c0.2,0,0.5,0,0.6,0.1
		c0.4,0.1,0.8,0.3,1.1,0.4c0.1,0.1,0.4,0.1,0.5,0.3c-0.6,0.4-1.4,0.6-2.1,0.8c-0.4-0.5-1.1-0.6-1.8-0.5c-0.5,0.3-0.8,0.6-1,1.1
		c-0.1,0.8,0.4,1.5,1.1,1.8c1.1,0.3,1.9-0.6,1.8-1.9c0.6-0.1,1.2-0.3,1.9-0.5c0.2-0.1,0.4-0.4,0.6-0.5c0.6,0.4,1.3,0.9,1.9,1.4
		c-0.1,0.1-0.4,0.3-0.5,0.5c-0.1,0.1-0.5,0.4-0.8,0.3c-0.1,0-0.2-0.3-0.4-0.4c-0.4-0.5-1.1-0.6-1.6-0.4c-0.6,0.4-0.9,1.1-0.6,1.8
		c0.4,0.6,1.2,0.9,2,0.8c0.5-0.1,0.5-0.8,0.8-1.1c0.2-0.5,0.9-0.8,1.8-0.9c0.4,0.3,0.6,0.6,0.9,1c0,0.1,0.1,0.3,0.1,0.3
		c0,0.1,0.1,0.1,0.2,0.3c0.2,0.4,0.4,0.6,0.5,1c0.2,0.8,0.5,1.6,0.6,2.4c0.1,0.9,0.1,1.8,0,2.8c0,0.3,0,0.6-0.2,0.9
		c-0.8-0.4-1.5-0.8-2.1-1.1c-0.1,0-0.2,0-0.4-0.1c-0.1-0.1-0.2-0.3-0.4-0.3c-0.5-0.3-1-0.6-1.4-0.9c-0.6-0.4-1.2-0.9-1.9-1.3
		c-0.6-0.4-1.2-0.9-1.8-1.3c-0.5-0.5-1.1-0.9-1.6-1.5c-1.1-1-2-2.1-2.8-3.4c-0.4-0.6-0.8-1.4-1-2.1c-0.2-0.9-0.4-1.8-0.4-2.8
		c0-0.5,0.1-0.9,0.2-1.4c0-0.1,0.1-0.4,0.1-0.5s-0.1-0.3-0.2-0.3c-0.2-0.3-0.4-0.4-0.6-0.6c-0.1-0.1-0.2-0.3-0.4-0.3
		c-0.6,2-0.8,4.1-0.4,6.1c0.4,1.5,1,3.1,1.8,4.5c0.1,0.1,0.2,0.4,0.4,0.6c-0.5,0.1-1.1,0.3-1.6,0.3s-1.1,0-1.6-0.1
		c-0.6,0-1.1-0.1-1.8-0.3c-1.8-0.4-3.4-1.1-4.9-2c-0.2-0.1-0.8-0.4-0.8-0.6c0-0.1,0-0.1,0.1-0.3c0.2-0.6,1-1,1.6-0.8
		c0.6,0.1,1.3,0.4,1.8,0.9c0.6,0.5,1.1,1.3,1.8,1.6c0.4,0.1,0.6,0.3,1,0.1c0.6-0.3,1.3-0.8,1.5-1.4c0.1-0.4,0.1-0.9,0-1.3
		c-0.2-0.5-0.8-0.9-1.4-1.1c-0.1,0-0.1,0-0.2,0c0,0-0.1,0-0.2,0c-0.5,0.1-0.9,0.3-1.2,0.5c-0.4,0.3-0.6,0.5-1,0.8
		c-0.2-0.1-0.4-0.1-0.6-0.3c-0.2-0.1-0.5-0.1-0.6-0.3c0.1-0.4,0.2-0.8,0.4-1.1c0-0.1,0.1-0.3,0.2-0.4c0.4-0.4,0.9-0.4,1.4-0.8
		c0.4,0.1,0.9,0.1,1.3,0.1c0.1,0,0.2-0.1,0.4-0.1c0.1,0,0.2-0.1,0.5-0.1c0.5-0.3,0.8-0.6,0.9-1.1c0.1-1-0.4-2-1.4-2.4
		c-0.4-0.1-0.9-0.1-1.2,0c-1,0.4-1.5,1.6-1.4,3.1c-0.1,0.3-0.4,0.4-0.6,0.4c-0.2-0.4-0.5-0.9-0.6-1.3c-0.4-1-0.5-2-0.2-3
		c0.2-0.5,0.5-0.9,0.8-1.3c0.4-0.4,0.6-0.9,0.8-1.4c0.1-0.5-0.1-1-0.6-1.2c-0.8-0.5-1.8-0.6-2.6-0.2c-0.5,0.5-0.6,1.3-0.4,1.9
		c0.1,0.5,0.4,1,0.8,1.5c0.1,0.3,0.2,0.4,0.4,0.6c0.1,0.5,0.1,0.9,0.2,1.4c0.1,1.1,0.4,2.1,0.9,3.1c0.1,0.1,0.2,0.4,0.2,0.6
		c0,0.4-0.5,0.9-0.9,1.1c-0.4,0.1-0.8,0.3-1.1,0.4c-0.2,0.1-0.6,0.3-0.9,0.4c-0.2,0.3-0.4,0.4-0.5,0.6c-0.2-0.1-0.6-0.4-0.9-0.6
		c-0.1-0.1-0.8-0.5-0.8-0.8s0.1-0.5,0.2-0.8c0.1-0.6,0.6-1.3,1.1-1.6c0.1-0.1,0.4-0.1,0.5-0.1c0.5-0.1,0.9-0.4,1.1-0.8
		c0.1-0.4,0.2-0.8,0.1-1.1c0-0.6-0.4-1.1-0.8-1.5c-0.2-0.3-0.5-0.4-0.9-0.4c-0.6,0-1.3,0.3-1.8,0.6c-0.4,0.5-0.5,1.1-0.4,1.8
		c0.1,0.4,0.2,0.6,0.4,0.9c0.1,0.3,0.6,0.4,0.6,0.8c0,0.3-0.1,0.4-0.1,0.5c-0.1,0.1-0.2,0.3-0.2,0.4c-0.1,0.1-0.6,0.8-0.8,0.8
		s-0.4-0.5-0.5-0.6c-0.5-0.6-0.9-1.4-1.3-2.1c0.2-0.3,0.5-0.5,0.6-0.8c0.2-0.3,0.4-0.5,0.6-0.9c0.1-0.3,0.4-0.6,0.5-1
		s0.2-0.6,0.5-0.9c0.9,0,1.8-0.5,2.1-1.4c0.2-0.6,0.1-1.4-0.2-2c-0.5-0.9-1.6-1.2-2.5-0.9c-1.1,0.5-1.6,1.8-1.1,2.9
		c0,0.1,0,0.1,0.1,0.1c0.1,0.1,0.4,0.4,0.4,0.6c0,0-0.1,0.4-0.1,0.5c-0.1,0.9-0.4,1.6-0.9,2.4c-0.1,0.1-0.1,0.3-0.2,0.3
		c-0.4-0.8-0.6-1.5-0.8-2.4c-0.1-0.3-0.1-0.6-0.1-0.9c0-0.1,0.1-0.4,0.2-0.5c0.2-0.8,0.2-1.6-0.1-2.3c-0.2-0.4-0.8-0.6-1.3-0.5
		c-0.8,0-1.4,0.6-1.4,1.4l0,0c0,0.1,0,0.4,0.1,0.5c0.1,0.4,0.4,0.6,0.6,1c0.1,0.1,0.2,0.3,0.4,0.4c0.1,0.1,0.4,0.3,0.4,0.4
		c0.1,0.1,0.1,0.4,0.1,0.5s0.1,0.4,0.1,0.5c0.1,0.3,0.2,0.6,0.2,0.9c-0.5-0.1-1-0.3-1.5-0.5c-0.2-0.1-0.8-0.3-0.8-0.5
		c-0.1-0.1,0-0.4-0.1-0.6c-0.4-1-1.4-1.5-2.4-1.1c-1,0.3-1.6,1.3-1.4,2.2c0.1,0.4,0.2,0.8,0.6,1c0.1,0.1,0.1,0.1,0.2,0.3
		c0.8,0.4,1.6,0.4,2.4-0.1c0.2-0.3,0.4-0.5,0.6-0.8c0.6,0.4,1.5,0.8,2.3,1.1c0.2,0.1,0.5,0.3,0.8,0.4c0.1,0.1,0.1,0.3,0.2,0.4
		c0.1,0.1,0.1,0.3,0.1,0.4c-0.8,0.6-1.6,1.1-2.4,1.8c-0.2-0.3-0.2-0.4-0.5-0.5c-0.9-0.6-2-0.4-2.6,0.4c-0.6,0.9-0.4,2,0.4,2.6
		c0.2,0.3,0.6,0.4,1,0.4c0.5,0,1-0.1,1.2-0.5c0.1-0.1,0.2-0.4,0.4-0.6c0.1-0.4,0.2-0.8,0.2-1.1s0.4-0.5,0.6-0.6
		c0.2-0.3,0.5-0.4,0.8-0.4c0.1,0.6,0.1,1.3,0.1,1.9c0,0.6,0,1.2-0.2,1.9c-0.2,0.4-0.6,0.8-1.1,0.9c-0.1,0-0.2,0-0.2,0
		c-0.8,0-1.4,0.5-1.8,1.1c-0.4,1,0.1,2.1,1.1,2.5s2.1-0.1,2.5-1.1l0,0c0.1-0.1,0.1-0.4,0.1-0.5c0-0.8-0.2-1-0.6-1.5
		c0.9-1.6,1.1-3.5,0.6-5.4c0.2-0.1,0.4-0.3,0.6-0.3c0.4,0.5,0.6,1,1,1.5c0.2,0.3,0.4,0.6,0.2,0.9c0,0,0,0,0,0.1
		c-0.1,0.5-0.2,1-0.2,1.5c-0.6,0.3-1,0.8-1,1.4c0,0.8,0.6,1.4,1.4,1.4c0.8,0,1.3-0.6,1.4-1.3c0-0.5-0.2-1-0.8-1.3
		c-0.2-0.1-0.4,0-0.5-0.3c0-0.5,0.2-0.9,0.5-1.3c0.2,0.3,0.5,0.6,0.8,0.9c0.2,0.3,0.5,0.6,0.8,0.9c0.6,0.5,1.3,1,1.8,1.6
		c-0.8,0.6-2,0.5-2.5,1.3c-0.1,0.3-0.2,0.6-0.2,0.9c0,0.8,0.6,1.4,1.4,1.5c0.5,0.1,1,0,1.5-0.4c0.4-0.3,0.6-0.5,0.8-1
		c0-0.5-0.1-1-0.2-1.4c-0.1-0.3-0.2-0.5-0.2-0.8c1.9,1.4,4,2.4,6.1,3.1c1.3,0.4,2.4,0.8,3.6,0.9c1,0.1,2.1,0.3,3.1,0.3
		c0.4,0,0.8-0.1,1,0c0.4,0,0.8,0.4,1.1,0.6c0.9,0.6,1.8,1.2,2.6,1.9c1.2,0.8,2.4,1.6,3.5,2.5s2.1,1.9,3,3c0.6,0.8,1.4,1.6,2.1,2.4
		c0.2,0.3,0.6,0.6,0.8,0.9c0,0.3,0,0.5,0,0.6c0,1.3-0.1,2.4-0.1,3.4c0,0.5,0,1,0,1.5c-0.1,1.1-0.1,2.5-0.2,3.6c0,0.8,0,1.5,0,2.4
		c-0.1,2.2-0.2,4.6-0.4,6.9c-0.1,1.5-0.1,3-0.2,4.5c-0.1,1.1-0.1,2.4-0.2,3.4c0,0.4,0,0.9-0.1,1.1c-0.8-0.3-1.4-0.6-2.1-0.9
		c-2-0.8-4-1.4-6-1.9c-0.2,0-0.6-0.1-0.9-0.2c-0.1-1-0.2-2-0.4-3c0-0.3-0.2-0.6,0-0.9c0.4,0.1,0.8,0.3,1.1,0.6
		c0.4,0.3,0.6,0.5,0.9,0.8s0.5,0.6,0.8,0.9c0.2,0.4,0.4,0.8,0.6,1.1c0.1,0.1,0.1,0.1,0.2,0.3c0.2,0.4,0.6,0.8,1.1,1
		c0.1,0,0.2,0.1,0.4,0.1c0.9,0.1,1.8-0.1,2.5-0.8c0.2-0.4,0.8-0.6,0.8-1.2c0-0.5,0-0.9-0.2-1.3c-0.2-0.4-0.6-0.8-0.9-1
		c-0.2-0.3-0.6-0.4-1-0.4c-0.5,0-1,0-1.6,0.3c-0.4,0.1-0.6,0.3-1,0.4c-0.2,0.1-0.5,0.4-0.8,0.4s-0.2-0.1-0.4-0.3
		c-0.5-0.4-1-0.4-1.2-0.9c0.2-0.4,0.5-0.8,0.9-1c0.1-0.1,0.2-0.4,0.5-0.5c0.1-0.1,0.4-0.3,0.6-0.4c0.2,0,0.5,0,0.8,0
		s0.5-0.1,0.8-0.1c0.1,0,0.2,0.1,0.4,0.3c1.2,0.5,2.6,0.4,3.6-0.4c0.1-0.1,0.1-0.3,0.2-0.4c0,0,0.1,0,0.1-0.1
		c0.1-0.1,0.2-0.4,0.2-0.5s0-0.3,0-0.4c0-0.1,0-0.1,0-0.3c0-0.4,0-0.6-0.1-1c-0.1-0.1-0.1-0.3-0.2-0.5c-0.1-0.3-0.2-0.4-0.5-0.6
		s-0.5-0.4-0.8-0.5c-0.2-0.1-0.4-0.1-0.6-0.3c-0.6-0.1-1.1,0-1.6,0.4c-0.2,0.1-0.4,0.4-0.6,0.5c-0.1,0.1-0.2,0.3-0.4,0.5
		c-0.1,0.3-0.2,0.4-0.4,0.6c-0.1,0.3-0.1,0.5-0.2,0.8c0,0.3-0.1,0.5-0.2,0.8c-0.2,0.1-0.4,0.1-0.6,0.1c-0.1-0.1-0.1-0.4-0.1-0.6
		c0-0.6,0-1.1,0-1.8c0-1,0.1-2.1,0.4-3.1c0.1-0.3,0.2-0.5,0.5-0.8c0.1,0,0.2-0.1,0.2-0.3c0.2-0.1,0.4-0.3,0.6-0.4
		c0.2-0.1,0.5-0.4,0.6-0.6c0.2-0.3,0.4-0.5,0.5-0.8c0.1-0.1,0.2-0.4,0.2-0.6c0-0.3,0-0.5-0.1-0.8c-0.1-0.4-0.4-0.8-0.8-1
		c-0.1-0.1-0.2-0.1-0.4-0.3c-0.2-0.1-0.5-0.4-0.8-0.5c-0.2-0.1-0.5-0.1-0.8-0.1c-0.2-0.1-0.5-0.1-0.8-0.1c-0.5,0-0.9,0.1-1.2,0.4
		c-0.2,0.4-0.5,0.8-0.5,1.1c0,0.5,0,1,0.1,1.5c0,0.3,0.1,0.4,0.1,0.6c0.1,0.5,0.4,0.9,0.5,1.5s0.1,1.2,0,1.9
		c-0.1,1.3-0.1,2.5-0.1,3.8c0,0.1,0,0.3,0.1,0.5c0.1,0.3,0.2,0.4,0.2,0.6c-0.1,0.5-0.4,0.9-0.9,1.1c-0.4,0.3-0.8,0.4-1.1,0.4
		c-0.5-0.1-0.4-0.8-0.5-1.3c-0.2-0.8-0.5-1.4-0.8-2.1c-0.1-0.4-0.2-0.8-0.4-1c-0.2-0.6-0.5-1.3-0.8-1.8c0-0.1-0.1-0.1-0.1-0.3
		c-0.1-0.4-0.2-0.8-0.4-1c-0.1-0.1-0.2-0.3-0.2-0.4c0-0.1-0.1-0.4-0.2-0.5c0-0.1-0.1-0.3-0.2-0.3c0-0.1-0.1-0.3-0.2-0.4
		c-0.2-0.4-0.4-0.8-0.6-1.1c-0.1-0.1-0.1-0.3-0.1-0.4c-0.1-0.3-0.4-0.4-0.5-0.6c0.1-0.1,0.4-0.4,0.6-0.4c0.2,0,0.5,0.4,0.6,0.5
		s0.2,0.1,0.4,0.1c0.6,0.3,1.3,0.4,1.9,0.1c0.4-0.3,0.6-0.5,0.8-0.9s0.2-0.9,0.4-1.3c0.1-0.8-0.2-1.5-0.9-2
		c-0.8-0.4-1.5-0.4-2.3-0.1c-0.2,0.1-0.4,0.4-0.5,0.6c-0.1,0.1-0.1,0.3-0.2,0.4c0,0.1-0.1,0.3-0.1,0.5c0,0.3-0.1,0.4-0.1,0.6
		c0,0.1-0.1,0.1-0.1,0.3c-0.1,0.3-0.4,1-0.6,1c-0.1,0-0.2-0.4-0.2-0.4c-0.1-0.3-0.4-0.5-0.6-0.8c-0.2-0.3-0.5-0.5-0.6-0.8
		c-0.1-0.1-0.1-0.3-0.2-0.4c0,0-0.1-0.1-0.2-0.1c0-0.1-0.1-0.1-0.1-0.3c-0.1-0.1-0.4-0.3-0.4-0.4c0-0.1,0.5-0.4,0.6-0.3
		c0.2,0,0.4,0.3,0.6,0.4c0.4,0.3,1,0.4,1.4,0.1c0.2-0.3,0.5-0.5,0.6-0.8c0.2-0.5,0.2-1,0-1.5c-0.1-0.4-0.4-0.4-0.8-0.6
		c-0.2-0.1-0.6-0.3-1-0.3s-0.8,0.3-1,0.5c-0.1,0.3-0.2,0.6-0.2,0.9c0,0.1-0.1,0.3-0.1,0.4c-0.1,0.4-0.4,0.9-0.8,0.9
		c-0.1,0-0.2-0.3-0.4-0.3c-0.1-0.1-0.2-0.3-0.4-0.4c-0.2-0.3-0.5-0.5-0.8-0.6c-0.2-0.3-0.5-0.4-0.8-0.6c-0.2-0.1-0.4-0.3-0.6-0.4
		c-0.1,0-0.2,0-0.2,0s-0.2-0.1-0.4-0.3c-0.1-0.1-0.2-0.1-0.4-0.3c-0.2-0.1-0.6-0.3-0.8-0.5c0-0.3,0.1-0.6,0.2-0.9
		c0.2-0.1,0.5,0,0.8,0c0.1,0,0.4,0,0.5,0c0.9,0.1,1.8,0.1,2.5,0c0.5,0,1-0.1,1.4-0.3s0.8-0.1,1.1-0.4c0.2-0.1,0.4-0.4,0.6-0.4
		s0.4,0.3,0.5,0.4c0.1,0.1,0.2,0.1,0.4,0.3c0.5,0.1,1.1,0,1.6-0.1c0.2-0.1,0.5-0.4,0.8-0.4c0.4-0.5,0.6-1,0.9-1.5
		c0.1-0.6,0-1.3-0.4-1.8c-0.1-0.4-0.5-0.6-0.8-0.8c-0.6-0.4-1.4-0.5-2.1-0.3c-0.1,0.1-0.2,0.1-0.5,0.3c-0.2,0.3-0.5,0.3-0.6,0.5
		c-0.4,0.6-0.5,1.5-0.4,2.3c-0.1,0.1-0.1,0.1-0.2,0.3c-0.2,0.3-0.6,0.5-0.9,0.8c-0.4,0.1-0.9,0.3-1.4,0.3c-0.9,0.1-1.8,0.1-2.5,0
		c-0.4,0-0.9,0-0.9-0.1c-0.1-0.3,0.1-0.4,0.2-0.5c0.1-0.1,0.2-0.4,0.4-0.5c0.2-0.3,0.6-0.5,1.1-0.5c0.9-0.1,1.6-0.6,2-1.4
		c0.1-0.4,0.2-0.8,0.2-1.1c0-0.5-0.2-1-0.5-1.5c-0.2-0.3-0.5-0.5-0.8-0.6c-0.1-0.1-0.4-0.1-0.5-0.3c-0.5-0.1-1.1-0.1-1.6,0.1
		c-0.5,0.3-0.9,0.6-1.1,1.1c-0.4,0.9-0.2,1.8,0.2,2.5c0.1,0.1,0.6,0.5,0.6,0.6c0,0.3-0.4,0.4-0.5,0.5s-0.1,0.3-0.2,0.4
		c-0.2,0.4-0.4,0.6-0.6,1c-0.1,0.3-0.2,0.4-0.5,0.6c0,0.1-0.1,0.1-0.2,0.3s-0.1,0.3-0.2,0.3s-0.2-0.1-0.4-0.3
		c-0.1-0.1-0.4-0.1-0.5-0.3c-0.1-0.3-0.2-0.6-0.4-0.9c-0.2-0.5-0.4-0.9-0.5-1.1c-0.2-0.5-0.5-0.9-0.8-1.4c-0.1-0.1-0.2-0.3-0.2-0.5
		c0.1-0.1,0.2-0.1,0.4-0.3c0.1-0.1,0.2-0.1,0.4-0.3c0.2-0.1,0.4-0.4,0.6-0.6c0.2-0.5,0.2-1.1,0.1-1.8c0-0.3-0.1-0.4-0.2-0.6
		c-0.1-0.4-0.5-0.8-0.9-1c-0.2-0.1-0.5-0.3-0.8-0.3c-0.6-0.1-1.1-0.1-1.8,0.1c-0.2,0.1-0.5,0.4-0.8,0.6c-0.9,1-0.9,2.5,0,3.5
		c0.2,0.1,0.4,0.3,0.6,0.4c0.4,0.3,0.8,0.4,1.1,0.4c0.2,0.3,0.4,0.5,0.5,0.8c0.4,0.5,0.6,1.1,0.8,1.6c0,0.3,0.2,0.9,0,0.9
		c-0.1,0-0.4-0.1-0.5-0.1c-0.2-0.1-0.6-0.3-0.9-0.4c-0.2,0-0.4-0.1-0.5-0.3c-0.2-0.3-0.4-0.6-0.6-0.9c-0.4-0.3-0.6-0.5-1-0.8
		s-0.9-0.4-1.3-0.4c-0.5,0.1-0.9,0.4-1.1,0.8c-0.4,0.5-0.5,1.1-0.5,1.8c0,0.3,0,0.4,0.1,0.6c0.2,0.3,0.5,0.4,0.8,0.6
		c1,0.3,2,0.3,3-0.1c0.5-0.3,1-0.1,1.4,0c0.2,0,0.6,0.1,0.9,0.3c0.2,0.1,0.4,0.3,0.8,0.4c0.2,0.1,0.8,0.3,0.8,0.4
		c0,0.3-0.4,0.4-0.5,0.5c-0.2,0.1-0.4,0.3-0.6,0.4c-0.1,0-0.2,0-0.4,0c-0.4,0.1-0.6,0.1-0.9,0.3c-0.1,0-0.2,0.1-0.5,0.1
		c-0.2,0.1-0.6,0.1-0.9,0.1s-0.5-0.4-0.8-0.5c-0.5-0.1-1-0.3-1.6-0.3c-0.5,0-1,0.1-1.4,0.4c-0.4,0.3-0.6,0.5-0.8,0.9
		c-0.1,0.3-0.4,0.5-0.4,0.9c-0.1,0.8,0,1.5,0.4,2.1c0.2,0.4,0.5,0.6,1,0.8c0.2,0.1,0.6,0.3,1,0.3c0.1,0,0.2,0.1,0.5,0.1
		c0.4,0,0.8-0.1,1-0.3c0.5-0.3,1-0.6,1.4-1c0.1-0.3,0.2-0.6,0.2-0.9c0-0.1,0-0.3,0-0.3c0-0.4,0-0.8-0.1-1.1c0.4-0.1,0.8-0.3,1.1-0.3
		c0.1,0,0.2,0,0.2,0c0.2-0.1,0.5-0.1,0.8-0.3c0.1,0,0.2,0,0.4-0.1c0.4-0.3,0.9-0.4,1.2-0.8c0.2-0.1,0.5-0.4,0.6-0.4s0.4,0.3,0.5,0.3
		c0.2,0,0.5,0.1,0.8,0.3c0.1,0,0.2,0.1,0.2,0.3c0.1,0,0.2,0.1,0.2,0.3c0.2,0.1,0.4,0.3,0.6,0.4c0.1,0.1,0.1,0.1,0.2,0.3
		c0.1,0.1,0.2,0.1,0.4,0.1c0,0,0.1,0.1,0.2,0.3c0.1,0.1,0.2,0.1,0.2,0.3c0,0.3-0.2,0.4-0.5,0.5c-0.2,0.1-0.2,0.3-0.5,0.4
		c-0.2,0.3-0.5,0.4-0.8,0.5c-0.5,0.1-0.6-0.3-0.8-0.4c-0.2-0.4-0.6-0.6-1.1-0.6c-0.2-0.1-0.5-0.1-0.8-0.3c-0.4,0-0.9,0-1.3,0.1
		c-0.4,0-0.8,0.3-0.9,0.6c-0.2,0.3-0.4,0.6-0.4,0.9c0,0.1-0.1,0.4-0.1,0.5c0,0.5,0.1,1,0.4,1.4c0.2,0.5,0.8,0.8,1.3,1
		c0.1,0.1,0.2,0.1,0.4,0.3c0.1,0,0.2,0,0.4,0c0.1,0,0.4,0,0.5,0c0.6,0.1,1.3-0.1,1.6-0.8c0.1-0.1,0.2-0.3,0.2-0.5
		c0.1-0.4,0.1-0.8,0.2-1c0.1-0.1,0.2-0.3,0.2-0.4c0.4-0.5,1-0.9,1.5-1.1c0.2-0.1,0.4-0.3,0.6-0.3c0.1,0,0.2,0,0.4,0s0.2-0.1,0.2-0.1
		c0.1,0,0.4,0.3,0.5,0.4s0.4,0.4,0.4,0.5c0.1,0.1,0.4,0.3,0.5,0.5c0.1,0.1,0.2,0.4,0.4,0.5c0.1,0.1,0.5,0.3,0.4,0.5
		c-0.1,0.1-0.2,0.1-0.5,0.3c-0.4,0.3-0.6,0.5-0.9,0.8c-0.2,0.4-0.5,0.6-0.8,0.9c0,0.3-0.1,0.4-0.2,0.5c0,0.3,0,0.5,0,0.6
		c-0.1,0.3-0.2,0.5-0.5,0.8c-0.1,0-0.2,0-0.4,0.1c-0.1,0-0.2,0.1-0.4,0.1c-0.5,0.1-0.8-0.1-1.3-0.3c-0.5-0.1-1-0.3-1.4-0.4
		c-0.2-0.1-0.6-0.1-0.9-0.3c-0.1,0-0.4,0-0.5,0s-0.2-0.1-0.4-0.1c-0.1,0-0.2,0-0.4,0s-0.2-0.1-0.4-0.1c-0.1,0-0.2,0-0.4,0
		s-0.2,0-0.4-0.1s-0.5-0.1-0.8-0.1c-0.2-0.1-0.5-0.3-0.8-0.5c-0.2-0.1-0.5-0.3-0.9-0.4c-0.4-0.1-0.9-0.4-1.3-0.5
		c-0.1-0.1-0.2-0.1-0.4-0.1c-0.8-0.3-1.6,0.1-2.1,0.9s0,1.8,0.1,2.5c0.1,0.4,0.2,0.8,0.5,1.1c0.1,0.1,0.4,0.4,0.6,0.5
		c0.6,0.1,1.1,0,1.6-0.3s0.9-0.6,1.4-1.1c0.2-0.4,0.6-0.6,1.1-0.6s0.9,0,1.4,0c0.6,0.1,1.3,0.3,1.9,0.4c0.4,0.1,0.8,0.3,1.1,0.3
		c0.2,0,0.4,0.1,0.5,0.1c0.2,0.1,0.5,0.1,0.6,0.3c0,0.3-0.4,0.6-0.5,0.6c-0.2,0-0.5,0-0.8,0c-0.5,0-1.1,0.1-1.6,0.3
		c-0.1,0-0.4,0.1-0.5,0.1c-0.5,0.3-0.9,0.6-1,1.1c-0.1,0.4-0.2,0.9-0.1,1.3c0,0.3,0.1,0.5,0.2,0.8c0.2,0.4,0.5,0.8,0.9,1
		c0.2,0.1,0.6,0.3,1,0.3c0.4,0.1,0.6,0.1,1,0c0.2,0,0.4-0.1,0.6-0.1c0.4-0.1,0.8-0.5,0.9-0.9c0.1-0.3,0.2-0.5,0.2-0.8
		c0-0.1,0-0.3,0-0.4c0-0.1,0.1-0.3,0.1-0.4c0-0.3,0-0.4,0-0.6s-0.1-0.5-0.1-0.8s0.1-0.5,0.2-0.8c0.1-0.4,0.4-0.8,0.6-1
		c0.5-0.5,1.3-0.8,1.9-1c0.1,0.4,0.4,0.9,0.5,1.3c0,0.1,0.1,0.4,0.1,0.5s-0.2,0.3-0.4,0.5c-0.1,0.1-0.1,0.3-0.2,0.5
		c-0.1,0.1-0.2,0.4-0.2,0.5c-0.1,0.1-0.1,0.4-0.2,0.6c-0.1,0.1-0.2,0.4-0.2,0.5s0,0.3,0,0.4c0,0.8,0.4,1.4,0.9,1.9
		c0.2,0.3,0.5,0.4,0.9,0.5c0.6,0.1,1.1,0,1.6-0.3c0.2-0.1,0.5-0.4,0.8-0.6c0-0.3,0.2-0.3,0.4-0.5c0.1-0.3,0.1-0.4,0.2-0.6
		c0.1-0.6-0.1-1.2-0.5-1.8c-0.2-0.4-0.5-0.6-0.8-0.9c-0.5-0.4-0.9-0.8-1.2-1.1c-0.2-0.4-0.5-0.8-0.6-1.3c-0.2-0.5-0.4-1-0.4-1.6
		c0-0.3,0.1-0.5,0.2-0.8c0.1-0.1,0.2-0.3,0.5-0.4c0.2-0.1,0.5-0.3,0.8-0.4c0.1,0,0.4-0.1,0.5-0.1s0.1,0.3,0.2,0.4
		c0.1,0.1,0.2,0.3,0.4,0.4c0.1,0.3,0.2,0.5,0.4,0.8c0.1,0.3,0.2,0.5,0.4,0.8s0.2,0.5,0.4,0.8c0.1,0.3,0.2,0.6,0.4,0.9
		c0.2,0.9,0.5,1.9,0.8,2.8c0.1,0.4,0.1,0.6,0.1,1c0.1,1,0.1,1.9,0.1,2.9c0,0.6,0,1.3-0.1,1.9c0,0.1-0.1,0.4-0.1,0.5s0,0.3,0,0.4
		c0,0.1-0.1,0.3-0.1,0.4s0,0.3,0,0.4c0,0.1,0,0.3-0.1,0.4c0,0.3-0.1,0.5-0.1,0.8c-0.4,0-0.9,0-1.3-0.1l-1-0.1c-0.4,0-0.6,0-0.9,0
		s-0.4-0.1-0.6-0.1c-0.8-0.1-1.5-0.3-2.3-0.4c-0.4-0.1-0.8-0.1-1.1-0.3c-0.8-0.1-1.5-0.4-2.1-0.5c-0.6-0.3-1.3-0.6-2-0.8
		c-0.5-0.4-1.1-0.5-1.8-0.9c-0.5-0.3-1.1-0.5-1.8-0.9c-0.6-0.4-1.4-0.8-2-1.3c-0.1-0.1-0.2-0.1-0.4-0.3c-0.1-0.1-0.4-0.3-0.5-0.4
		c-0.1-0.1-0.4-0.3-0.5-0.4c-0.1-0.1-0.1-0.1-0.2-0.3c-2.8-2.5-4.6-5.9-5.3-9.5c0-0.1,0-0.3,0-0.5c-0.1-0.1-0.2-0.3-0.4-0.4
		c0-0.1,0-0.1-0.1-0.3c-0.1-0.5-0.4-1.1-0.5-1.6c0.1-0.1,0.2-0.4,0.2-0.6c0.2-0.4,0.5-0.9,0.6-1.4c0.2-0.5,0.4-1,0.5-1.5
		c-0.1,0-0.2,0.1-0.4,0.3c-0.1,0.1-0.2,0.3-0.4,0.4c-0.6,0.4-1.3,0.6-2,0.8c-0.9,0.3-1.8,0.3-2.6,0.1c-0.2,0-0.4-0.1-0.8-0.1
		c0,0.3,0.2,0.4,0.4,0.6c0.1,0.1,0.2,0.3,0.5,0.5c0.4,0.5,1,0.8,1.5,0.9c0.1,0,0.4,0,0.5,0.1c-0.1,0.3-0.6,0-0.8,0.3
		c0,0.3,0.4,0.3,0.6,0.4c0,0.1,0,0.3,0.1,0.4c0.5,0.6,0.9,1.4,1.3,2.1c0,0.4,0.1,0.9-0.1,1c-0.2-0.1-0.5-0.1-0.8-0.4
		c-0.6-0.3-1.4-0.5-2-0.8c-0.4-0.1-0.9-0.3-1.3-0.4c-0.8-0.3-1.5-0.4-2.3-0.5c-0.1,0-0.4,0-0.5-0.1c0-0.3,0.2-0.3,0.5-0.4
		c0.1-0.1,0.4-0.3,0.5-0.3c0.4-0.3,0.6-0.5,0.9-0.8c0.5-1-0.5-2.1-1.2-2.5c-0.5-0.3-1.1-0.1-1.6,0.3c-0.4,0.3-0.6,0.8-0.6,1.1
		c0,1,1,1.5,1.1,2.5c-0.1,0-0.4,0.1-0.5,0c-0.6,0-1.3,0.1-1.9,0.1c-0.4,0-0.8,0.1-1.1,0.1c-0.4,0.1-0.8,0.1-1.1,0.3
		c0-0.3,0-0.5,0.1-0.6c0-0.1,0.1-0.5,0.2-0.5s0.2,0,0.4,0.1c0.1,0.1,0.2,0.1,0.5,0.1c0.8,0,1.4-0.6,1.4-1.4l0,0c0-0.6-0.5-1.1-1-1.3
		c-0.8-0.1-1.5,0.3-1.8,1c0,0.1,0,0.3,0,0.4c0,0.3,0.1,0.5,0.2,0.8c-0.4,0.6-0.6,1.1-0.9,1.8c-0.4,0.1-0.6,0.3-1,0.4
		c-0.1,0.1-0.4,0.1-0.5,0.1c-0.1,0.1-0.4,0.3-0.5,0.1c0-0.3,0.2-0.4,0.4-0.5c0.6-0.9,1.1-1.8,1.5-2.8c0.1-0.4,0.4-0.9,0.4-1.4
		c0-0.1,0-0.4,0-0.5c1-0.1,1.8-1,1.6-2c-0.1-0.6-0.4-1.3-1-1.6c-0.4-0.3-0.8-0.4-1.1-0.4c-0.4,0-0.6,0.1-1,0.3
		c-0.1,0.3-0.4,0.4-0.6,0.5c0,0.1-0.1,0.1-0.1,0.3s-0.1,0.1-0.1,0.3c-0.2,0.6-0.1,1.3,0.2,1.8c0.1,0.3,0.5,0.4,0.6,0.6
		c0.2,0.4,0.4,0.9,0.4,1.4c-0.1,0.4-0.2,0.6-0.4,0.9c-0.4,0.5-0.8,1-1.1,1.5c-0.2,0.3-0.4,0.5-0.8,0.6c-0.4-0.5-0.5-1-0.4-1.6
		c0-0.1,0.1-0.3,0.2-0.4c0.4-0.5,0.4-1.2,0.2-1.9c-0.5-0.9-1.6-1.3-2.5-0.9c-0.9,0.5-1.3,1.6-0.9,2.5c0.4,0.6,1,1,1.8,1
		c0.1,0,0.2-0.1,0.5,0c0.1,0.1,0.1,0.4,0.2,0.6c0.1,0.3,0.2,0.5,0.2,0.8c0.1,0.6,0.2,1,0.4,1.5c-0.1,0.1-0.2,0.1-0.4,0.3
		c-0.1,0.1-0.2,0.1-0.5,0.1s-0.5-0.1-0.8-0.3c-0.6-0.1-1.1-0.3-1.6-0.4c-0.2,0-0.6,0-0.8-0.3c0.1-0.8-0.1-1.4-0.6-1.9l-0.1-0.1
		c-0.1,0-0.1-0.1-0.2-0.1c-0.5-0.3-1.1-0.4-1.6-0.1c-0.2,0.1-0.5,0.3-0.6,0.4c-0.5,0.4-0.8,1-0.6,1.6c0.1,1.1,1.3,1.9,2.4,1.8
		c0.2,0,0.4-0.1,0.6-0.3c0.2-0.1,0.5-0.5,0.6-0.5h0.2c0.4,0.1,0.6,0.1,0.9,0.3c0.2,0,1,0.3,1,0.4c0,0.1-0.2,0.3-0.4,0.4
		c-0.5,0.3-0.9,0.6-1.2,0.9c-0.6,0-1.3,0.1-1.8,0.4c-0.2,0.1-0.4,0.3-0.6,0.4c0,0-0.1,0.1-0.1,0.3c0,0.1-0.1,0.1-0.1,0.3
		c-0.2,0.8,0,1.5,0.8,2c0.1,0.1,0.2,0.3,0.5,0.3c0.2,0,0.5,0,0.8-0.1c0.2-0.1,0.4-0.3,0.6-0.4c0.1-0.1,0.2-0.1,0.4-0.3
		c0.2-0.4,0.5-0.6,0.6-1.1c0-0.1,0-0.4,0.1-0.5c0.1-0.3,0.4-0.4,0.6-0.6c0.5-0.5,1.1-0.9,1.8-1.3c0.1-0.1,0.2-0.3,0.4-0.1
		c0,0.3,0,0.6-0.1,0.9c-0.1,0.5-0.4,1.1-0.6,1.6c-0.1,0.3-0.2,0.6-0.4,0.6c-0.1,0.1-0.2,0.1-0.4,0.1c-0.1,0-0.2,0.1-0.4,0.1
		c-0.4,0.3-0.6,0.6-0.9,1c-0.5,1-0.1,2.4,0.9,2.9c0.2,0.1,0.4,0.1,0.6,0.3c0.6,0.1,1.1-0.1,1.6-0.4c1-0.6,1.2-2,0.6-2.9
		c-0.1-0.1-0.5-0.5-0.6-0.8c0-0.1,0-0.3,0.1-0.4c0-0.1,0.1-0.3,0.1-0.5c0.2-1,0.2-2,0.1-3c0.4-0.3,0.6-0.4,1-0.5s0.8-0.4,1.3-0.5
		c0.2-0.1,0.5-0.1,0.9-0.3c0.2,0.3,0.1,0.8,0.1,1.1c0,0.4,0,0.9-0.2,1c-0.9,0-1.6,0.4-2.1,1c-0.2,0.3-0.4,0.6-0.4,1
		c0,0.5,0.2,0.9,0.5,1.2c0.4,0.5,1,0.8,1.6,0.8c0.5-0.1,0.9-0.4,1.3-0.6c0.1-0.1,0.4-0.3,0.5-0.5c0.1-0.3,0.2-0.4,0.2-0.6
		c0-0.5-0.1-0.9-0.4-1.3c-0.1-0.3-0.4-0.5-0.5-0.8c-0.1-0.4-0.1-0.6,0-1c0-0.6,0.2-1.3,0.6-1.6c0.4,0,0.6,0,0.9-0.1c0.4,0,0.8,0,1,0
		c0,0.6,0.1,1.1,0.5,1.6c0.2,0.4,0.4,0.6,0.6,0.9c0.2,0.5,0.2,1,0.1,1.5c-0.1,0.3-0.4,0.3-0.6,0.4c-0.4,0.1-0.6,0.3-0.9,0.5
		c-0.2,0.1-0.6,0.4-0.9,0.6c-0.4,0.4-0.8,0.6-1.1,1c-0.2,0.3-0.4,0.4-0.6,0.6c-0.1,0.1-0.1,0.1-0.2,0.3c-0.2,0.1-0.5,0.1-0.8,0.3
		c-0.2,0.1-0.5,0.3-0.6,0.3c-0.4,0.1-0.6,0.4-0.9,0.6s-0.5,0.5-0.6,0.9c0,0.3,0,0.6,0.1,0.9c0.4,0.5,0.9,0.9,1.5,1.1
		c0.4,0.1,0.9,0.3,1.3,0.3c0.4-0.1,0.8-0.5,0.9-0.9c0.1-0.6,0.2-1.4,0.2-2.1c0.1-0.6,0.2-1.1,0.8-1.6c0.5-0.6,1.1-1.1,1.9-1.5
		c0.2-0.1,0.5-0.3,0.8-0.4c0,0.3-0.1,0.4-0.2,0.6c-0.2,0.6-0.5,1.4-0.5,2.1c0,0.6,0.2,1.1,0.6,1.6c0.1,0.1,0.2,0.1,0.4,0.1
		c0.1,0.1,0.2,0.1,0.2,0.3c0.1,0,0.1,0,0.2,0c0.4,0.1,0.8,0,1-0.1c0.4-0.1,0.8-0.5,1-0.8c0.2-0.4,0.4-0.8,0.2-1.3
		c-0.2-0.8-0.6-1.4-1.3-1.8c-0.1,0-0.2-0.1-0.5-0.3c-0.1-0.1-0.2-0.3-0.2-0.5c-0.2-0.3-0.4-0.6-0.4-1s0.2-1.5,0.4-1.5
		c0.1,0,0.4,0.1,0.6,0.3c0.2,0,0.5,0.1,0.6,0.3c0.1,0.1,0.1,0.5,0.1,0.6c0.1,0.4,0.2,0.6,0.4,0.9c0.1,0.4,0.4,0.6,0.6,0.9
		c0.4,0.3,0.9,0.4,1.4,0.4c0.2,0,0.5-0.1,0.8-0.3c0.1-0.1,0.2-0.3,0.5-0.4c0.6-0.9,0.5-2.3-0.4-3c-0.1-0.1-0.2-0.1-0.5-0.3
		c-0.9,0-1.6,0-2.5,0.3c-0.5,0-0.9-0.1-1.4-0.3c-0.1,0-0.1,0-0.2,0s-0.1-0.1-0.2-0.1c-0.5-0.3-1-0.5-1-1.1c0-0.3,0-0.8,0.2-0.9
		c0.2,0,0.6,0,0.9,0.1c0.5,0.1,0.9,0.1,1.3,0.3c0.1,0,0.2,0.1,0.4,0.1c0.8,0.3,1.5,0.5,2.3,0.9c0.1,0.1,0.2,0.1,0.2,0.3
		c0.1,0.1,0.2,0.1,0.4,0.1c0.6,0.4,1.2,0.9,1.9,1.3c0.8,0.6,1.5,1.4,2.1,2.1c0.6,0.8,1.3,1.6,1.8,2.5s1.1,1.6,1.8,2.5
		c0.1,0.1,0.2,0.4,0.5,0.5c0.1,0.3,0.4,0.4,0.5,0.5c0.6,0.8,1.4,1.4,2.1,2c0.6,0.5,1.3,0.9,1.9,1.4c0.2,0.3,0.5,0.4,0.8,0.6
		c0.1,0.1,0.4,0.1,0.5,0.3c0.8,0.4,1.4,0.8,2,1.1c0.6,0.2,1.3,0.6,1.9,0.8c0.4,0.1,0.8,0.4,1.1,0.5c0.5,0.1,1.1,0.4,1.6,0.5
		c1.1,0.3,2.3,0.6,3.4,0.9c0.2,0.1,0.5,0.1,0.9,0.3c0.2,0.1,0.6,0.1,0.9,0.2c0.1,0,0.2,0.1,0.4,0.1s0.2,0,0.4,0.1
		c0.8,0.2,1.5,0.4,2.3,0.6c0.1,0,0.2,0.1,0.4,0.1s0.2,0,0.4,0.1c0.5,0.1,1,0.2,1.4,0.5c0.2,0.1,0.4,0.2,0.6,0.4
		c0.1,0,0.4,0.1,0.5,0.3c-0.2,0.9-0.5,1.6-0.9,2.5c-0.2,0.4-0.4,0.8-0.6,1.1c-0.2,0.4-0.5,0.8-0.6,1c-1,1.2-2.1,2.4-3.5,3.3
		c-0.4-0.3-0.6-0.6-0.8-1c0-0.2,0.1-0.5,0.2-0.8c0.5-0.6,1-1,1.8-1.3c0.5-0.2,1-0.2,1.5-0.5c0.6-0.1,1-0.6,1.1-1.2
		c0.1-1-0.4-1.9-1.4-2.2c-0.9-0.3-1.9,0.2-2.1,1.2c-0.1,0.5-0.1,1,0,1.6c0,0.3,0.1,0.4,0.1,0.6c0,0.3-0.2,0.4-0.5,0.5
		c-0.1,0.1-0.4,0.5-0.5,0.5s-0.4-0.4-0.5-0.6c-0.4-0.4-0.6-1-0.5-1.5c0-0.1,0-0.3,0-0.5c0.1-0.1,0.1-0.3,0.2-0.5
		c0.4-0.5,0.5-1.1,0.5-1.8c-0.1-1-1-1.8-2-1.6l0,0l0,0c-0.9,0.1-1.6,0.8-1.8,1.8c0,1.1,1,1.9,1.8,2.2c0.1,0,0.2,0.1,0.2,0.3
		c-0.1,0.2-0.4,0.4-0.6,0.4c-0.6,0.1-1.4,0-2-0.2c-0.5-0.1-1-0.5-1.4-0.9c-0.4-0.5-0.6-0.9-0.9-1.4s-0.8-1.2-1.6-1.1
		c-0.8,0.4-1.4,0.9-1.8,1.6c-0.1,0.5-0.1,1,0.2,1.4c0.8,0.5,1.6,0.8,2.5,0.6c0.4,0,0.6-0.1,1,0s0.8,0.3,1.1,0.4c1,0.5,2,0.6,3.1,0.8
		c0.2,0,0.5-0.1,0.8,0c0.4,0.1,0.6,0.9,0.6,1.4c0,0.3-0.1,0.6-0.1,0.9c0,0.4,0,0.6,0,1c0.1,0.2,0.1,0.5,0.2,0.8
		c-0.4,0.3-0.9,0.4-1.4,0.6c-0.1,0.1-0.4,0.1-0.5,0.1s-0.4-0.3-0.5-0.4c-0.5-0.4-0.9-1-1-1.6s0.2-1.1,0.1-1.6s-0.4-0.9-0.9-1
		c-0.4-0.2-0.9-0.4-1.4-0.2c-0.6,0-1.1,0.4-1.5,1c-0.5,0.9-0.1,2,0.9,2.5c0.1,0,0.1,0.1,0.2,0.1c0.5,0.1,1,0.1,1.5,0
		c0.1-0.1,0.2-0.1,0.5-0.1c0.2,0,0.5,0.5,0.6,0.6c0.1,0.4,0.2,0.8,0.4,1c-0.5,0.1-1,0.3-1.5,0.3c-0.2,0-0.6,0-0.9,0
		c-0.2,0-0.5,0-0.9,0c-0.1-0.1-0.1-0.3-0.1-0.4c-0.4-0.8-0.9-1.4-1.5-1.8c-0.1-0.1-0.6-0.5-0.6-0.6s0.1-0.3,0.1-0.4
		c0.1-0.2,0.2-0.6,0.4-0.9c0.1-1.1-0.6-2.1-1.6-2.2c-0.4,0-0.8,0-1.1,0.1c-0.5,0.1-0.9,0.6-1,1c-0.5,1.1,0,2.2,1.1,2.8l0,0
		c0.2,0.1,0.6,0.1,0.9,0.1c0.2,0,0.4-0.1,0.6-0.1s0.5,0.4,0.6,0.5c0.2,0.1,0.4,0.4,0.6,0.5c0.2,0.3,0.5,0.6,0.8,0.9
		c0.1,0.1,0.1,0.3,0.1,0.4c-1.1-0.1-2.1-0.3-3.1-0.6c-0.6-0.9-1.5-1.4-2.5-1.4c-0.8,0.1-1.3,1.5-0.9,2.2c0.4,0.6,1.4,0.8,2.3,0.5
		c0.2-0.1,0.6-0.2,0.9-0.2c0.4,0,0.6,0.1,1,0.1s0.6,0,1,0.1c-0.2,0.4-0.5,0.6-0.9,0.9c-0.1,0.1-0.2,0.3-0.5,0.4
		c-0.2,0.1-0.4,0.4-0.5,0.4s-0.4-0.1-0.5-0.1c-1.1-0.1-2.1,0.6-2.3,1.8c0,0.1,0,0.3,0,0.5c0.2,1,1.3,1.6,2.3,1.5
		c0.8-0.1,1.3-0.8,1.5-1.4c0.1-0.6,0-1.1-0.4-1.6c0.4-0.4,0.9-0.6,1.4-1c0.1-0.1,0.4-0.4,0.6-0.5c0.1-0.1,0.5-0.5,0.6-0.5
		s0.2,0,0.4,0c0.1,0,0.2,0,0.4,0c0.1,0.9,0.4,1.9,0.4,2.8c-0.8,0.1-1.4,0.6-1.6,1.4c-0.2,1,0.4,2,1.4,2.1c0.4,0.1,0.8,0,1.1-0.1
		c0.4-0.3,0.8-0.6,0.9-1c0.2-0.8,0-1.5-0.5-2c-0.1-0.1-0.4-0.3-0.5-0.5c-0.2-0.4-0.4-1-0.4-1.5c0.2,0.1,0.6,0.3,0.9,0.4
		c0.6,0.2,1.1,0.5,1.6,0.9c0.2,0.1,0.5,0.4,0.6,0.6c0.1,0.1,0.1,0.4,0.2,0.5c0.1,0.1,0.2,0.4,0.2,0.5c0,0.2-0.2,0.4-0.2,0.5
		c-0.1,0.2-0.1,0.5-0.2,0.8c-0.1,1,0.6,1.8,1.6,1.9c0.9,0,1.6-0.5,2-1.4c0.4-1-0.1-2-1.1-2.4c-0.2-0.1-0.5-0.1-0.8-0.1
		c-0.1,0-0.2,0.1-0.4,0.1c-0.1-0.2-0.4-0.6-0.6-0.9c-0.2-0.3-0.5-0.5-0.8-0.6c-0.5-0.4-0.9-0.6-1.4-0.8c-0.4-0.1-0.8-0.3-1.1-0.4
		c-0.1,0-0.4-0.1-0.5-0.2c0-0.3,0-0.4,0.1-0.6c0.6-0.1,1.1-0.1,1.8-0.2c0.1,0,0.2-0.1,0.4-0.1c0.1,0,0.2,0.2,0.4,0.4
		c0.2,0.3,0.5,0.5,0.8,0.6c0.1,0.1,0.4,0.3,0.4,0.4s0,0.4,0,0.5s0,0.1,0.1,0.3c0.4,0.6,1.1,0.9,1.8,0.6c0.6-0.4,0.9-1.1,0.6-1.8
		c-0.2-0.5-0.8-0.8-1.3-0.8c-0.1,0-0.2,0-0.5,0.1c-0.1,0.1-0.2,0.1-0.4,0.3c0,0.1-0.1,0.2-0.4,0.2c-0.3,0-0.4-0.2-0.5-0.4
		c-0.1-0.1-0.2-0.3-0.4-0.5c0.4-0.1,0.6-0.3,1-0.3c0.9-0.2,1.8-0.5,2.5-0.8c0.1-0.1,0.4-0.1,0.5-0.1c0.2,0.1,0.4,0.3,0.4,0.5
		c0.1,0.5-0.2,0.9-0.1,1.4c0.1,0.9,1,1.5,1.9,1.4l0,0h0.1c0.5-0.1,0.9-0.5,1-1c0.1-0.3,0.1-0.6,0.2-0.9c0-1.1-0.8-1.5-1.8-1.4
		c-0.1,0-0.2,0-0.4,0c0.1-0.1,0.4-0.2,0.5-0.4c0.6-0.4,1.1-0.8,1.6-1.1c1.8-1.3,3.4-2.8,4.6-4.5c0.2-0.4,0.5-0.8,0.8-1
		c0.2,0.1,0.6,0.3,0.9,0.5c0.4,0.3,0.6,0.4,0.9,0.5s0.6,0.4,0.9,0.5c0.1,0.1,0.2,0.2,0.4,0.4c0.1,0.1,0.2,0.1,0.4,0.3
		c0.5,0.4,1,0.9,1.4,1.2c0.5,0.5,0.9,1,1.2,1.5c0.1,0.1,0.1,0.4,0.2,0.5c0.1,0.4,0.1,0.8,0,1.1c0,0.5-0.1,1.1-0.1,1.8
		c0,0.5,0,1-0.1,1.4c-0.1,2-0.2,4-0.2,5.9c0,1,0,2-0.1,3c0,0.5,0,1.2-0.1,1.8s-0.1,1-0.1,1.5c-0.1,2.3-0.6,4.6-1.4,6.8
		c-0.2,0.8-0.6,1.5-1,2.3s-0.8,1.4-1.1,2.1c-0.9,1.2-1.9,2.5-2.9,3.6c-0.5,0.5-1.1,1-1.8,1.6c0.6,0.6,1.4,1.5,2.1,2.2
		c0.1,0.1,0.5,0.8,0.8,0.8c0.1,0,0.6-0.4,0.9-0.5c1-0.5,1.9-1.1,2.6-1.5c1.5-1,3.3-1.6,5-2c0.4-0.1,0.9-0.1,1.2-0.1
		c1.5,0,2.8,0.9,3.4,2.2c0.9,2.8,1,5.6,0.4,8.5c-0.1,0.3-0.1,0.5-0.1,0.9c0.1,0,0.2,0,0.2,0s0-0.1,0.1-0.1h0.1
		c0.9,0,1.6-0.1,2.5-0.1c0.8,0,1.5-0.1,2.4-0.3c-0.1-3.1,0.5-6.4,3.9-5.6c1,0.3,2,0.6,2.9,1.1s1.8,1,2.6,1.4c1.6-1,3.1-2.1,4.8-3
		c0.1,0,0.2-0.1,0.2-0.3c-1.8-1-3.4-1.9-5-2.9s-3-2.2-4.3-3.6c-1.3-1.5-2.1-3.3-2.8-5c-0.5-1.6-0.8-3.3-0.9-5
		c-0.1-2.1-0.2-4.6-0.4-6.9c0-0.1,0-0.1,0-0.2s0-0.3,0-0.4s-0.1-0.3-0.1-0.3c0-0.6,0-1.2-0.1-1.9c-0.1-1.6-0.1-3.1-0.2-4.6
		c0-0.1,0-0.3,0-0.3s0-0.3,0-0.4s0-0.2,0-0.2c0-0.5,0-1,0-1.5s-0.1-1.1-0.1-1.6c0-0.4,0.1-0.6,0.2-1c0.2-0.9,0.8-1.8,1.2-2.4
		c1-1.1,2-2.1,3.3-2.9c0.6-0.4,1.2-0.9,1.9-1.1c0.6-0.4,1.4-0.8,2-1c0.6-0.3,1.1-0.5,1.8-0.8c0.5,0.8,1,1.5,1.6,2.1
		c0.6,0.8,1.4,1.4,2.1,2.1c0.9,0.9,1.9,1.6,2.9,2.2c0.1,0.1,0.4,0.3,0.5,0.4c0.2,0.1,0.5,0.1,0.5,0.4c-1.1-0.1-2.1,0.1-2.3,1.1
		c-0.1,0.6,0.1,1.4,0.5,1.9c0.4,0.4,0.9,0.5,1.4,0.4c0.8-0.1,1.4-0.6,1.4-1.4c0-0.4-0.2-0.9-0.1-1.4c0.1-0.2,0.2-0.4,0.5-0.4
		c0.1,0,0.2,0.1,0.5,0.2c0.1,0,0.4,0.1,0.5,0.1c0.9,0.3,1.6,0.5,2.5,0.8c0.1,0,0.4,0,0.5,0.1c-0.2,0.4-0.5,0.6-0.9,0.9
		c-0.2-0.1-0.4-0.4-0.6-0.5c-0.8-0.2-1.5,0-1.8,0.8c-0.1,0.1-0.1,0.4-0.1,0.5c0,0.6,0.5,1.1,1.1,1.2c0.8,0.1,1.5-0.4,1.6-1.1
		c0-0.1,0-0.3,0-0.5c0.2-0.1,0.5-0.4,0.8-0.6c0.1-0.1,0.6-0.6,0.8-0.6c0.1,0,0.2,0,0.4,0c0.6,0.1,1.2,0.1,1.9,0.2
		c0,0.3,0.1,0.4,0.1,0.6c-0.5,0.3-0.9,0.4-1.4,0.5c-0.9,0.4-1.6,0.9-2.4,1.4c-0.1,0.1-0.2,0.3-0.4,0.5c-0.1,0.1-0.2,0.4-0.4,0.6
		c-1-0.4-2,0.1-2.4,1.1l0,0c0,0.1,0,0.1,0,0.3c-0.2,1,0.4,2,1.4,2.4c0.9,0.4,2-0.1,2.3-1.1c0.1-0.2,0.1-0.5,0.1-0.6
		c0-0.3-0.1-0.5-0.2-0.9c-0.1-0.2-0.2-0.4-0.2-0.6c0-0.1,0.1-0.4,0.2-0.5s0.1-0.4,0.2-0.5c0.1-0.2,0.4-0.4,0.6-0.6
		c0.2-0.1,0.5-0.4,0.8-0.5c0.6-0.4,1.1-0.6,1.8-0.8c0,0.2,0,0.5,0,0.8s-0.1,0.5-0.2,0.6c-0.2,0.4-0.8,0.6-1,1
		c-0.5,0.9-0.2,2,0.6,2.5s2,0.3,2.5-0.6c0.4-0.6,0.4-1.4,0-2c-0.1-0.4-0.5-0.6-0.8-0.8c-0.1-0.1-0.4-0.1-0.6-0.2
		c0.1-0.9,0.2-1.9,0.5-2.8c0.1-0.1,0.5,0,0.8,0c0.6,0.5,1.3,1,2,1.5c0.2,0.1,0.5,0.3,0.6,0.5c-0.1,0.3-0.2,0.4-0.4,0.6
		c-0.4,1.1,0.2,2.3,1.4,2.6h0.1c0.4,0.1,0.8,0,1.1-0.1c0.1-0.1,0.2-0.2,0.5-0.2c0.5-0.5,0.8-1.3,0.6-1.9c-0.1-0.5-0.4-0.9-0.8-1.1
		c-0.4-0.3-1-0.4-1.5-0.4c-0.1,0-0.4,0.3-0.5,0.1c-0.2-0.1-0.4-0.3-0.5-0.4s-0.4-0.3-0.5-0.4c-0.4-0.2-0.8-0.5-0.8-0.9
		c0.4-0.1,0.6-0.1,1-0.1c0.1,0,0.4-0.1,0.5-0.1s0.4-0.1,0.5-0.1s0.4,0.1,0.6,0.2c0.6,0.3,1.4,0.3,2.1,0c0.2-0.1,0.5-0.4,0.6-0.8
		c0-0.3,0-0.6,0-0.9c-0.1-0.4-0.2-0.8-0.6-1c-0.4-0.1-0.9-0.1-1.3,0c-0.5,0.1-0.9,0.4-1.2,0.8c-0.1,0.1-0.2,0.4-0.5,0.5
		c-0.2,0.1-0.5,0.1-0.8,0.2c-0.5,0.1-1,0.3-1.6,0.4c-0.2,0.1-0.5,0.1-0.9,0c0-0.1,0.1-0.3,0.1-0.4c0.2-0.4,0.5-0.6,0.8-1
		c0.2-0.2,0.6-0.5,0.9-0.8c0.1-0.1,0.2-0.1,0.4-0.3c0.1,0,0.2,0,0.4,0.1c1.1,0.1,2.3-0.8,2.4-1.9c0-0.1,0-0.4,0-0.5
		c-0.1-1-1-1.6-2-1.8c-1.1-0.1-2.1,0.8-2.1,1.9l0,0c0,0.6,0.2,1.1,0.5,1.6c-0.4,0.4-0.8,0.8-1.3,1c-0.4,0.4-0.8,0.9-1,1.4
		c-0.1,0.1-0.1,0.5-0.2,0.5c-0.2,0-0.5,0-0.8,0s-0.5,0-0.9,0c-0.5,0-1-0.1-1.5-0.3c0.1-0.4,0.2-0.8,0.4-1s0.4-0.8,0.8-0.8
		c0.1,0,0.4,0.1,0.5,0.1c0.6,0.1,1.1,0.1,1.8-0.1c0.2-0.1,0.5-0.4,0.8-0.6c0.5-0.9,0.2-1.9-0.5-2.5c-0.9-0.5-1.9-0.4-2.6,0.1
		c-0.2,0.3-0.5,0.5-0.6,0.9c-0.1,0.5,0.2,1,0.1,1.5c-0.1,0.4-0.4,0.9-0.6,1.1c-0.2,0.4-0.5,0.6-0.9,0.9c-0.5-0.3-1-0.4-1.4-0.5
		c-0.1,0-0.2-0.1-0.4-0.3c0-0.2,0.1-0.2,0.2-0.4c0.1-0.5,0.1-1.1,0-1.8c0-0.1-0.1-0.4-0.1-0.5c0-0.5,0.2-1.4,0.8-1.4
		c0.2,0,0.4,0,0.6,0c0.8,0,1.5-0.1,2.2-0.4c0.6-0.3,1.4-0.5,2-0.8c0.4,0,0.8,0,1.1,0c1.1,0.1,2.8-0.1,2.8-1.5c0-0.5-0.2-1-0.6-1.2
		c-0.2-0.3-0.5-0.5-0.6-0.6c-0.4-0.3-0.8-0.3-1.1-0.3c-1.1,0.5-1.1,2-2.1,2.9c-0.9,0.6-1.9,0.9-2.9,0.8c-0.2,0-0.8-0.1-0.8-0.5
		c0.2-0.1,0.5-0.2,0.8-0.4c0.8-0.4,1.2-1.1,1.4-2c-0.1-0.8-0.5-1.4-1.3-1.6c-1-0.4-2,0-2.5,1c-0.1,0.1-0.1,0.2-0.1,0.5
		c0,0.6,0.1,1.4,0.6,1.9c0.1,0.1,0.1,0.3,0.2,0.3c0,0.1,0,0.4,0,0.5c0.1,0.5-0.1,1.1-0.5,1.5c-0.1,0.2-0.4,0.6-0.6,0.6
		s-0.4-0.4-0.5-0.5s-0.5-0.4-0.5-0.5s0-0.3,0.1-0.4c0.1-0.4,0.1-0.8,0.1-1.1c0-0.2,0-0.6-0.1-0.9c-0.2-0.6-1-1.1-1.6-1.2
		c-0.6,0-1.1,0.3-1.5,0.6c-0.4,0.5-0.6,1.3-0.5,1.9c0,0.2,0.1,0.4,0.4,0.5c0.4,0.4,0.9,0.6,1.5,0.8c0.9,0.1,1.6,0.6,2.3,1.3
		c0.4,0.2,0.5,0.6,0.6,1.1c0,0.6-0.4,0.8-0.8,1.1c-2-1.2-3.6-3.1-4.8-5.3c-0.4-0.8-0.8-1.5-1-2.4c0.2-0.1,0.5-0.2,0.9-0.4
		c0.8-0.2,1.5-0.5,2.3-0.8c0.4-0.1,0.9-0.3,1.2-0.4c0.8-0.1,1.5-0.4,2.1-0.5c0.1,0,0.2,0,0.5,0c0.1,0,0.2-0.1,0.4-0.1s0.2,0,0.5,0
		c0.1,0,0.2-0.1,0.4-0.1s0.2,0,0.5,0c0.1,0,0.2-0.1,0.5-0.1c0.5-0.1,0.9-0.3,1.4-0.5c0.4-0.1,0.8-0.3,1-0.4c0.1,0,0.1-0.1,0.2-0.1
		s0.2-0.1,0.5-0.1c0.5-0.3,1-0.5,1.6-0.8c0.4-0.3,0.8-0.5,1.1-0.6c0.2-0.1,0.6-0.3,0.8-0.5c0.5,0.5,1.1,0.9,1.9,1.1
		c0.9,0.1,1.6,0.3,2.5,0.4c0.1,0.3,0.4,0.5,0.4,0.6c0.2,0.5,0.5,0.9,0.9,1.2c0.1,0.1,0.4,0.4,0.5,0.6c0.1,0.3,0.4,0.5,0.6,0.5
		c-0.4-1.5-0.1-3,0.6-4.4c0.4-0.9,0.8-1.6,1.4-2.3c0.1-0.1,0.1-0.3,0.2-0.4c-0.4,0-0.8,0.1-1.1,0.3s-0.6,0.3-1,0.5
		c-0.5,0.3-0.9,0.6-1.1,1.1c-0.1,0.1-0.1,0.4-0.2,0.4c0.1-0.4,0.2-0.8,0.4-1.1c-0.6,0.1-0.9,0.8-1.1,1.3c0,0,0,0.3-0.1,0.3
		c0-0.3,0-0.4,0.1-0.6c0.1-0.1,0.1-0.4,0.2-0.5c-0.5,0.1-0.9,0.1-1.4,0.3c-0.6,0.1-1.4,0-2-0.3c2.3-1.6,4.1-3.8,5.6-6.1
		c0.6-1.3,1.5-2.4,2.5-3.4s2-1.9,3.3-2.6c0.9-0.5,1.8-1,2.6-1.2c0.5-0.1,1-0.4,1.5-0.5s1.1-0.3,1.6-0.3c0.1,0.3,0.2,0.6,0.2,0.9
		c0,0.4-0.2,0.6-0.6,0.9c-0.4,0.3-0.8,0.4-1.1,0.4c-0.6,0.1-1.1,0.1-1.8,0.1c-0.2,0-0.4-0.1-0.6-0.1c-0.6-0.1-1.3,0-1.9,0.3
		c-0.9,0.8-1,2-0.4,3c0.2,0.1,0.5,0.4,0.8,0.5c0.6,0.1,1.3,0.1,1.9-0.3c0.5-0.5,0.8-1.1,0.9-1.8c0-0.1,0.1-0.3,0.1-0.4
		c0-0.1,0-0.3,0-0.4c0.1-0.3,0.6-0.3,0.8-0.3c0.2-0.1,0.4-0.3,0.6-0.3c0.1,0.3,0.2,0.5,0.2,0.8c0.1,0.3,0.1,0.6,0.1,0.9
		c0,0.4-0.1,0.8-0.4,1c-0.1,0.1-0.2,0.4-0.2,0.5c-0.1,0.1-0.4,0.1-0.5,0.3c-0.6,0.4-1.1,1-1.2,1.8c-0.1,0.5,0.1,1,0.5,1.4
		c0.1,0.3,0.4,0.4,0.6,0.5c0.5,0.3,1.1,0.3,1.6,0.1c0.5-0.1,0.9-0.5,1.1-1c0.2-1,0.1-2.1-0.4-3.1c-0.1-0.1-0.2-0.4-0.2-0.6
		c0.5,0.3,1.1,0.5,1.5,0.9c0,0,0.1,0,0.1,0.1c1,0.8,1.5,1.9,1.6,3c0,0.8,0.1,1.4,0.4,2c0.1,0.1,0.2,0.3,0.4,0.4
		c0.5,0.1,1,0.1,1.5-0.1c0.8-0.1,1.4-0.6,1.6-1.4c0-0.3,0-0.5,0-0.8c-0.1-0.3-0.2-0.5-0.5-0.6c-0.5-0.5-1.1-0.8-1.8-1
		c-0.1-0.1-0.4-0.1-0.6-0.3c-0.1-0.1-0.2-0.3-0.4-0.3c-0.1-0.1-0.2-0.3-0.4-0.4c-0.6-0.8-1.5-1.5-2.4-2.1c-0.2-0.1-0.4-0.3-0.6-0.4
		c-0.2-0.1-0.5-0.1-0.6-0.4c-0.1-0.5-0.1-1,0.1-1.5c0.1-0.3,0.2-0.4,0.4-0.6c0.2-0.4,0.5-0.8,0.8-1.3c0.1-0.3,0-0.5,0.1-0.9
		c0.6,0,1.4,0,2,0.1c0.4,0.6,0.6,1.3,0.6,1.9c0,0.3,0,0.5,0,0.8c-0.1,0.3-0.2,0.5-0.5,0.8c-0.1,0.3-0.2,0.5-0.4,0.8
		c-0.1,0.4,0,0.6,0.1,0.9c0.1,0.4,0.4,0.6,0.8,0.8c0.5,0.5,1.1,0.6,1.8,0.5c0.4-0.1,0.6-0.3,0.9-0.6c0.4-0.4,0.5-0.9,0.6-1.4
		c0-0.4-0.1-0.8-0.4-1c-0.4-0.5-0.9-0.9-1.4-1c-0.2,0-0.5-0.1-0.8-0.1s-0.4-0.6-0.4-1s0-1,0.2-1.1c0.9,0.3,1.6,0.5,2.4,0.9
		c0.2,0.1,0.6,0.3,0.8,0.4c0,0.1-0.1,0.4-0.1,0.4c-0.1,0.6,0,1.3,0.1,1.9c0,0.3,0.1,0.5,0.1,0.9s0.2,0.6,0.1,0.9
		c0,0.3-0.2,0.3-0.2,0.4c-0.1,0.1-0.2,0.3-0.2,0.4c-0.6,1-0.2,2.4,0.8,3c0.1,0.1,0.4,0.3,0.6,0.3c0.6,0.1,1.4,0,1.9-0.4
		c0.8-0.6,1-1.6,0.6-2.5c0-0.1,0-0.1-0.1-0.3c-0.1-0.3-0.2-0.5-0.5-0.6c-0.1-0.1-0.2-0.1-0.4-0.3c-0.2-0.1-0.5-0.3-0.9-0.3
		c-0.1,0-0.1-0.1-0.2-0.4c-0.2-0.4-0.4-0.8-0.5-1.1s-0.2-0.6-0.2-0.9s-0.2-0.6,0-0.9c0.2,0.1,0.5,0.3,0.8,0.5c0.5,0.3,0.9,0.6,1.4,1
		c0.2,0.3,0.6,0.4,0.6,0.6c0,0.3,0.1,0.6,0.2,0.9c0.1,0.1,0.1,0.3,0.2,0.3c0.2,0.5,0.6,0.9,1.1,1c0.5,0.3,1.1,0.1,1.4-0.4
		c0.2-0.1,0.4-0.4,0.5-0.8c0.2-0.5,0.1-1.1-0.4-1.5c-0.8-0.5-1.5-0.8-2.4-0.8c-0.5-0.3-0.9-0.6-1.4-0.9c-0.1-0.1-0.2-0.1-0.2-0.3
		C209.3,124.9,208.4,123.6,208.6,123.6z M141,151.3c-0.1,2.1,0,4.1-0.1,6.3c-0.1,1,0,2.1,0,3.1c0,0.5-0.1,1-0.1,1.5s0,1-0.1,1.5
		c-0.2-0.1-0.2-0.5-0.2-0.8c0-0.2-0.1-0.6-0.1-0.9c-0.1-0.5-0.1-1.1-0.2-1.8c-0.1-1.1-0.2-2.4-0.4-3.5c-0.1-2.4-0.4-4.6-0.5-7
		c0-0.8,0-1.5,0.1-2.3c0-1.1,0.1-2.2,0.1-3.5c0-4,0.5-7.9,1.4-11.8h0.1l0,0c0.1,4.1,0.1,8.4,0.1,12.6C141,147,141.1,149.1,141,151.3
		z M140.9,86.3c0,0.1,0.1,0.4-0.1,0.5c0-0.2-0.1-0.6-0.1-0.9c-0.1-0.4-0.1-0.8-0.1-1.3c0.1-0.6,0.4-1.3,0.8-1.8
		c0.1,0.1,0.4,0.2,0.5,0.2C141.3,84.1,141,85.3,140.9,86.3z M142.5,97.9c-0.2-0.1-0.1-0.4-0.2-0.5c-0.2-1.4-0.4-2.9-0.4-4.4
		c-0.1-2.3,0-4.6,0.2-6.9c0-0.2,0-0.5,0.1-0.8c0-0.1,0.1-0.2,0.1-0.4c0-0.1,0-0.2,0-0.4c0-0.1,0.1-0.1,0.1-0.2l0,0
		C142.8,88.8,142.8,93.5,142.5,97.9L142.5,97.9z"/>
	<path class="st0" d="M142.6,4.5C66.1,4.5,4.2,66.6,4.2,143s62.1,138.4,138.5,138.4s138.4-62,138.4-138.4
		C281.3,66.5,219.3,4.5,142.6,4.5C142.8,4.5,142.8,4.5,142.6,4.5z M142.6,275.1c-73,0-132.1-59.3-132.1-132.4
		c0-73,59.3-132.1,132.4-132.1c73,0,132.1,59.3,132.1,132.3S215.8,275.1,142.6,275.1C142.8,275.1,142.8,275.1,142.6,275.1z"/>
	<path class="st0" d="M143.6,17.3c-70.1,0-127,56.9-127,127s56.9,127,127,127s127-56.9,127-127C270.6,74,213.8,17.3,143.6,17.3
		L143.6,17.3z M143.6,236.6c-51.1,0-92.5-41.5-92.5-92.6s41.5-92.5,92.6-92.5S236.2,93,236.2,144
		C236.1,195.3,194.8,236.6,143.6,236.6L143.6,236.6L143.6,236.6z"/>
	<path class="st0" d="M143.6,56.3c-48.5,0-87.9,39.4-87.8,87.9c0,48.5,39.4,87.9,87.9,87.8c48.5,0,87.8-39.4,87.8-87.9
		C231.5,95.6,192.3,56.3,143.6,56.3L143.6,56.3z M143.6,229.8c-47.3,0-85.5-38.4-85.5-85.6s38.4-85.5,85.6-85.5s85.5,38.4,85.5,85.6
		C229.3,191.4,190.9,229.8,143.6,229.8L143.6,229.8z"/>
	<path class="st0" d="M165.8,101.9c0,0,0.1-0.1,0-0.1C165.9,101.8,165.6,101.8,165.8,101.9z"/>
	<path class="st0" d="M165.4,102c0.1,0,0.1,0,0.1-0.1C165.5,102,165.4,102,165.4,102z"/>
	<path class="st0" d="M90.6,133.8c0,0.1,0.2,0,0.2,0S90.6,133.6,90.6,133.8z"/>
	<path class="st2" d="M73.3,53.4c-2.1,0-3.9,1.8-3.9,3.9s1.8,3.9,3.9,3.9s3.9-1.8,3.9-3.9l0,0C77.1,55.1,75.4,53.4,73.3,53.4z"/>
	<path class="st2" d="M42.1,194.5c-2.1,0-3.9,1.8-3.9,3.9s1.8,3.9,3.9,3.9c2.1,0,3.9-1.8,3.9-3.9l0,0
		C46,196.3,44.4,194.5,42.1,194.5L42.1,194.5z"/>
	<circle class="st2" cx="212.6" cy="59.9" r="3.9"/>
	<path class="st2" d="M239.9,195.4c-2.1,0-3.9,1.8-3.9,3.9s1.8,3.9,3.9,3.9s3.9-1.8,3.9-3.9l0,0C243.8,197.1,242,195.4,239.9,195.4
		L239.9,195.4z"/>
	<polygon class="st2" points="71.5,228.8 73.4,226.4 67.3,221.1 70.9,216.9 77.5,222.6 79.4,220.4 70.6,212.8 57.1,228.5 
		65.9,236.1 67.9,233.8 61.3,228 65.3,223.4 	"/>
	<polygon class="st2" points="94.1,230.1 82.3,240.5 86.5,225.4 83.6,223.6 72.6,241.3 75,242.8 81.6,232.1 78.3,244.8 80.3,246 
		90.1,237.4 83.5,248 85.9,249.5 96.9,231.9 	"/>
	<path class="st2" d="M110.9,238.3c-0.5-0.5-1.1-0.9-1.8-1.1l-6.8-2.6L94.7,254l2.6,1l3-7.8l4,1.6c0.6,0.3,1.3,0.4,1.9,0.4h0.2
		c0.8,0,1.4-0.3,2-0.6c0.6-0.4,1.3-0.9,1.6-1.5c0.5-0.6,1-1.4,1.3-2.2c0.4-0.8,0.5-1.6,0.6-2.5c0.1-0.8,0-1.5-0.2-2.2
		C111.6,239.4,111.4,238.8,110.9,238.3z M108.9,243.8c-0.2,0.9-0.8,1.6-1.5,2c-0.6,0.3-1.4,0.3-2,0l-3.8-1.5l2.4-6l3.8,1.5
		c0.6,0.2,1.1,0.8,1.4,1.4C109.3,242,109.3,243,108.9,243.8z"/>
	<path class="st2" d="M129.3,243.8c-0.4-0.5-0.9-1-1.5-1.4s-1.3-0.6-1.9-0.8l-7.3-1.4l-3.8,20.4l2.9,0.5l1.5-8.4l4.5,0.9
		c0.4,0,0.8,0.1,1,0.4c0.2,0.4,0.4,0.8,0.5,1.1c0.1,0.5,0.1,1.1,0,1.6c0,0.6-0.1,1.4-0.2,2l-0.1,1.5c0,0.3,0,0.6,0,0.9
		s0,0.6,0.1,0.9l0.1,0.5l3.3,0.6l-0.5-1.2c-0.1-0.3-0.1-0.5-0.1-0.8c0-0.4,0-0.9,0-1.2c0-0.5,0.1-0.9,0.1-1.4s0.1-0.9,0.1-1.3
		c0.1-0.6,0.1-1.1,0.1-1.8c0-0.5-0.1-1.1-0.2-1.6s-0.4-0.9-0.8-1.2c0.5-0.3,1-0.6,1.4-1.1c0.8-1,1.2-2.1,1.4-3.4
		c0.1-0.9,0.1-1.8,0-2.5C129.9,245,129.6,244.4,129.3,243.8z M127.1,248.1c-0.1,0.5-0.3,0.9-0.5,1.2c-0.1,0.4-0.4,0.6-0.8,0.9
		c-0.2,0.3-0.5,0.4-0.9,0.4c-0.2,0.1-0.6,0.1-0.9,0l-4.4-0.8l1.1-6l4.4,0.8c0.6,0,1.3,0.5,1.6,1
		C127.3,246.5,127.4,247.3,127.1,248.1L127.1,248.1z"/>
	<polygon class="st2" points="136.5,263.4 148.1,263.9 148.3,260.8 139.5,260.4 139.8,254.3 147.9,254.6 148,251.6 139.9,251.3 
		140.1,245.8 148.8,246.1 148.9,243.1 137.4,242.6 	"/>
	<polygon class="st2" points="163.1,240.5 165.8,254.4 155.9,241.9 153.1,242.4 157,262.8 159.9,262.3 157.3,248.4 167.1,260.9 
		169.8,260.4 165.9,239.9 	"/>
	<path class="st2" d="M183.4,236.6c-1.9-1.3-4.3-1.4-6.3-0.5l-5.4,2.1l7.6,19.4l5.4-2.1c2.1-0.8,3.6-2.5,4.3-4.6
		C189.4,245.5,187.4,240.3,183.4,236.6L183.4,236.6z M186,250c-0.1,0.6-0.5,1.2-1,1.6c-0.6,0.5-1.4,1-2.1,1.2l-2.1,0.9l-5.4-13.6
		l2.1-0.8c1.4-0.8,3-0.8,4.3,0c0.6,0.5,1.3,1,1.8,1.8c0.6,1,1.1,2,1.6,3.1s0.8,2.3,1,3.4C186.3,248.4,186.3,249.1,186,250z"/>
	<polygon class="st2" points="200.5,244.4 197.3,239.3 204.1,234.9 202.5,232.3 195.6,236.6 192.8,232 200.1,227.4 198.5,224.8 
		188.6,230.9 199.8,248.5 209.6,242.3 208,239.8 	"/>
	<path class="st2" d="M224.6,226.8c-0.4-0.3-0.6-0.5-1-0.8c-0.4-0.2-0.6-0.6-1-1l-0.9-0.9c-0.4-0.4-0.9-0.8-1.2-1.1
		c-0.4-0.4-0.9-0.6-1.4-0.8c-0.5-0.1-1-0.3-1.5-0.3c0.1-0.6,0-1.2-0.1-1.8c-0.4-1.1-1-2.2-1.9-3.1c-0.6-0.6-1.3-1.1-2-1.5
		c-0.8-0.4-1.5-0.5-2.3-0.5c-0.6,0-1.3,0.1-1.8,0.4c-0.6,0.3-1.1,0.6-1.6,1.1l-5.4,5.1l14.3,15.1l2.1-2l-5.9-6.3l3.4-3.1
		c0.2-0.3,0.6-0.5,1-0.5s0.8,0.1,1,0.3c0.5,0.2,1,0.6,1.4,1c0.5,0.5,1,0.9,1.5,1.4c0.1,0.1,0.4,0.3,0.5,0.5s0.4,0.4,0.6,0.6
		c0.2,0.3,0.5,0.4,0.8,0.6c0.2,0.1,0.5,0.4,0.8,0.5l0.5,0.1l2.5-2.4l-1.4-0.4C225.1,227,224.9,226.9,224.6,226.8z M214.6,222.5
		c-0.1,0.3-0.2,0.5-0.5,0.8l-3.3,3l-4.3-4.5l3.3-3c0.5-0.5,1.1-0.8,1.8-0.8c0.9,0.3,1.5,0.6,2.1,1.3c0.4,0.4,0.6,0.8,0.8,1.1
		s0.2,0.8,0.2,1.1C214.9,221.9,214.8,222.3,214.6,222.5z"/>
	<path class="st2" d="M43.6,153.1c-1.6-1-3.5-1.5-5.4-1.2h-0.5l0.6,3.1h0.4c1,0,2,0.1,2.9,0.5c1.4,0.6,2.4,1.9,2.5,3.3
		c0.4,1.5,0,3.1-1.1,4.3c-1.3,1.3-2.9,2-4.6,2.3c-1.9,0.5-3.9,0.4-5.6-0.5c-1.2-0.8-2.3-2-2.4-3.5c-0.6-2.1,0.5-4.4,2.6-5.1l0.4-0.1
		l-0.6-3.1l-0.5,0.1c-1.6,0.5-3,1.5-3.9,3c-1.1,1.8-1.4,3.9-0.9,5.9c0.4,2.5,1.9,4.8,4.1,6c1.5,0.8,3.1,1.1,4.8,1.1
		c0.8,0,1.6-0.1,2.4-0.3c3-0.2,5.8-1.9,7.5-4.4c1-1.8,1.4-3.8,1-5.8C46.9,156.4,45.6,154.4,43.6,153.1z"/>
	<path class="st2" d="M45.1,144l-7.8-0.1l0.1-5c0-0.6,0.1-1.4,0.4-2c0.4-0.8,1.3-1.1,2-1l3-0.1c0.5,0,1,0,1.5-0.1
		c0.2,0,0.5-0.1,0.8-0.3l0.2-0.1v-3.8h-1.1l-0.1,0.3c-0.1,0.3-0.5,0.5-0.9,0.5c-0.5,0.1-1,0.1-1.5,0.1h-2.4c-0.9,0-1.8,0.1-2.5,0.6
		c-0.4,0.3-0.8,0.6-0.9,1c-0.4-0.5-0.9-1-1.4-1.4c-0.9-0.5-1.9-0.8-2.9-0.8h-0.2c-2-0.1-3.8,0.9-4.6,2.6c-0.5,1.1-0.8,2.4-0.8,3.5
		l-0.1,8.6l19,0.3L45.1,144z M29,143.8l0.1-5.4c0-0.6,0.1-1.3,0.4-1.8c0.5-0.8,1.3-1.2,2.3-1.1h0.1c0.8-0.1,1.6,0.3,2.1,0.9
		c0.4,0.8,0.6,1.6,0.6,2.4l-0.1,5.1L29,143.8z"/>
	<polygon class="st2" points="43.4,124.6 38.3,123.6 40.3,113.9 37.3,113.3 35.4,123 30.8,122.1 32.9,111.5 29.9,110.9 27.1,124.6 
		45.8,128.4 48.5,114.5 45.6,113.9 	"/>
	<polygon class="st2" points="48,107.1 43,105.3 46.8,96 44,94.9 40.3,104.1 36,102.4 40,92.4 37.1,91.3 31.9,104.3 49.5,111.4 
		54.9,98.1 52,97 	"/>
	<path class="st2" d="M63.6,81.5c-0.2,0.1-0.6,0.1-1,0c-0.5-0.1-0.9-0.4-1.3-0.6l-2.1-1.3c-0.8-0.5-1.6-0.8-2.5-0.8
		c-0.5,0-0.9,0.1-1.4,0.4c0-0.6-0.1-1.3-0.5-1.9c-0.5-0.9-1.1-1.6-2-2.1C51.2,74,49,74,47.4,75.1c-1,0.8-1.9,1.6-2.5,2.6l-4.6,7.4
		l16,10.3l1.8-2.8l-6.6-4.1l2.6-4.3c0.4-0.6,0.8-1.1,1.3-1.5c0.8-0.4,1.6-0.2,2.3,0.2l2.6,1.5c0.4,0.2,0.9,0.5,1.4,0.8
		c0.2,0.1,0.5,0.1,0.8,0.1h0.2l2-3.1l-0.9-0.6L63.6,81.5z M51.9,82.3l-2.8,4.3l-4.5-2.9l2.9-4.5c0.2-0.5,0.8-1,1.3-1.4
		c0.9-0.4,1.8-0.4,2.5,0.2c0.8,0.4,1.3,1,1.4,1.9C52.6,80.8,52.4,81.6,51.9,82.3z"/>
	<path class="st2" d="M107.1,40c-1-0.2-2.1-0.2-3.1,0l-2.5,0.4c-1,0.2-2.1,0.2-3.3,0.2c-0.6-0.1-1.3-0.5-1.4-1.1
		c-0.2-0.6-0.2-1.4,0-2c0.5-0.9,1.3-1.5,2.3-1.8c1.1-0.6,2.4-0.6,3.5-0.1c0.6,0.4,1.1,1,1.4,1.6l0.1,0.4l2.9-1.3l-0.1-0.4
		c-0.6-1.8-2-3.1-3.8-3.6c-1.8-0.4-3.5-0.1-5.1,0.5c-1.8,0.6-3.1,1.9-4,3.5c-0.6,1.5-0.6,3.3,0,4.6c0.5,1.4,1.8,2.5,3.1,2.8l0,0
		c1.2,0.1,2.5,0.1,3.6-0.1l2.4-0.4c1-0.2,1.9-0.2,2.9-0.1c0.6,0.2,1.1,0.8,1.4,1.4c0.4,1,0.1,2.3-0.8,2.9c-0.6,0.5-1.3,0.9-2,1.3
		c-1.2,0.8-2.9,0.8-4.1,0c-0.6-0.5-1.1-1.1-1.5-1.9l-0.1-0.4L96,47.7l0.1,0.4c0.9,2.5,3.3,4.3,6,4.3c1.3,0,2.4-0.2,3.5-0.8
		c1.8-0.6,3.1-1.8,4.3-3.3c1.1-1.5,1.3-3.5,0.4-5.3C109.9,41.5,108.6,40.4,107.1,40z"/>
	<path class="st2" d="M117,27.5l-3.1,20.1l3.4-0.8l0.8-5.8l6.4-1.4l3,4.9l3.5-0.8l-10.6-17.1L117,27.5z M123,37.1l-4.4,0.9l0.9-6.6
		L123,37.1z"/>
	<path class="st2" d="M144.6,33.3c0.2-0.2,0.6-0.5,0.8-0.8c0.8-0.9,1.1-2,1-3.1c0-1-0.4-2-1-2.9c-1.2-1.5-3.1-2.1-5-2l-8.3,0.2
		l0.5,19l8.1-0.2c2.1,0.1,4.1-0.8,5.5-2.5l0,0c0.8-1,1.1-2.3,1.1-3.5c0-1.4-0.5-2.6-1.5-3.5C145.8,33.8,145.3,33.5,144.6,33.3z
		 M140.4,35.1c0.8,0,1.6,0,2.4,0.2c1,0.2,1.6,1.3,1.6,2.3c0,0.6-0.1,1.3-0.5,1.8c-0.8,0.9-1.8,1.2-2.9,1.2l-4.9,0.1l-0.1-5.5
		L140.4,35.1z M142.1,31.9c-0.8,0.4-1.5,0.5-2.3,0.5l-4.1,0.1l-0.1-4.8l4-0.1c0.8,0,1.5,0,2.2,0.2c0.9,0.2,1.4,1.1,1.3,2
		C143.3,30.6,142.9,31.5,142.1,31.9L142.1,31.9z"/>
	<polygon class="st2" points="150.6,43.8 164.8,45.9 165.1,42.9 154.4,41.3 155.1,36 165,37.5 165.4,34.5 155.5,33 156.3,28.5 
		166.9,30 167.4,27 153.5,24.9 	"/>
	<path class="st2" d="M182.5,31.6l-8.3-2.9l-6.3,17.9l3.1,1.1l2.6-7.4l4.8,1.6c0.6,0.1,1.2,0.5,1.8,0.9c0.5,0.6,0.6,1.5,0.4,2.3
		l-0.9,2.9c-0.1,0.5-0.2,1-0.4,1.5c0,0.2,0,0.5,0,0.8v0.2l3.5,1.3l0.4-1l-0.2-0.2c-0.2-0.2-0.2-0.6-0.2-1c0-0.5,0.1-1,0.4-1.4
		l0.8-2.4c0.4-0.9,0.4-1.8,0.2-2.6c-0.1-0.5-0.4-0.9-0.8-1.2c0.6-0.1,1.2-0.5,1.8-0.9c0.8-0.6,1.4-1.5,1.6-2.5
		c0.8-1.9,0.4-4-1.1-5.4C184.8,32.5,183.6,32,182.5,31.6z M181.5,34.4c0.6,0.1,1.1,0.5,1.5,0.9c0.6,0.8,0.8,1.6,0.4,2.5
		c-0.1,0.8-0.8,1.5-1.5,1.8c-0.9,0.1-1.8,0.1-2.5-0.2l-4.8-1.6l1.8-5L181.5,34.4z"/>
	<path class="st2" d="M235.1,91.4l0.4-0.3l-1.8-2.8l-0.4,0.1c-0.9,0.4-1.9,0.6-2.9,0.6c-1.5,0-2.9-0.8-3.6-2.1
		c-1-1.3-1.2-2.9-0.6-4.4c0.6-1.6,1.9-3,3.4-3.9c1.5-1.3,3.5-1.8,5.4-1.8c1.5,0.1,2.9,1,3.6,2.4c1.4,1.8,1.2,4.3-0.5,5.8l-0.2,0.2
		l1.8,2.8l0.4-0.2c1.4-1.1,2.3-2.6,2.5-4.3c0.2-2-0.2-4.1-1.4-5.8c-1.3-2.3-3.5-3.6-6-3.9c-5.6-0.1-10.6,3.4-12.1,8.8
		c-0.2,2,0.1,4.1,1.4,5.8c1.1,2,3.1,3.4,5.4,3.8c0.5,0.1,0.9,0.1,1.4,0.1C232.5,92.4,233.9,92,235.1,91.4z"/>
	<path class="st2" d="M237.5,111.9c0-0.4,0.2-0.6,0.6-0.9s0.9-0.5,1.3-0.8l2.2-1c0.9-0.3,1.6-0.9,2.1-1.6c0.2-0.4,0.4-0.9,0.5-1.4
		c0.5,0.4,1.1,0.6,1.8,0.8c1,0.1,2,0,3-0.4c1.9-0.6,3.3-2.3,3.3-4.3c0-1.3-0.2-2.4-0.8-3.5l-3.3-8l-17.6,7.1l1.3,3.1l7.3-2.9
		l1.9,4.6c0.2,0.6,0.5,1.3,0.5,1.9c-0.1,0.8-0.8,1.5-1.5,1.8l-2.8,1.3c-0.5,0.3-0.9,0.4-1.4,0.6c-0.2,0.1-0.4,0.3-0.6,0.5l-0.2,0.3
		l1.4,3.5l1-0.4V111.9z M246.8,95.1l2,5c0.2,0.5,0.4,1.1,0.4,1.8c-0.1,0.9-0.8,1.6-1.6,1.9c-0.8,0.4-1.5,0.4-2.3,0
		c-0.6-0.5-1.2-1.3-1.5-2l-1.9-4.8L246.8,95.1z"/>
	<polygon class="st2" points="242.9,129.1 240.8,118.4 246,117.4 247.9,127.1 250.8,126.5 248.9,116.8 253.5,115.9 255.5,126.4 
		258.5,125.9 255.9,112.1 237.3,115.8 239.9,129.6 	"/>
	<path class="st2" d="M240.3,134.5l5.5,1.9l0.1,6.5l-5.4,2v3.6l18.9-7.3v-3.4l-19.1-6.9V134.5z M248.6,137.4l6.4,2.1l-6.3,2.2
		L248.6,137.4z"/>
	<path class="st2" d="M239.6,153.9l7.6,1.4l-0.9,4.9c-0.1,0.6-0.2,1.2-0.6,1.9c-0.5,0.6-1.4,0.9-2.1,0.8l-3-0.4
		c-0.5-0.1-1-0.1-1.5-0.1c-0.2,0-0.5,0-0.8,0.1l-0.2,0.1l-0.6,3.6l1.1,0.2l0.1-0.2c0.2-0.3,0.5-0.4,0.9-0.4c0.5,0,1,0,1.5,0.1
		l2.4,0.4c0.9,0.1,1.8,0.1,2.6-0.3c0.4-0.2,0.8-0.5,1.1-0.9c0.2,0.6,0.6,1.1,1.1,1.6c0.8,0.6,1.8,1.1,2.8,1.2
		c0.4,0.1,0.8,0.1,1.1,0.1c1.6,0,3-0.8,3.9-2c0.6-1,1.1-2.1,1.3-3.4l1.5-8.5l-18.8-3.3L239.6,153.9z M255.4,156.6l-0.9,5.4
		c-0.1,0.6-0.2,1.1-0.6,1.6c-0.6,0.8-1.5,1-2.4,0.8c-0.8,0-1.5-0.5-2-1.1c-0.4-0.8-0.4-1.6-0.2-2.5l0.9-5L255.4,156.6z"/>
</g>
</svg>
