<svg id="Capa_1" data-name="Capa 1" xmlns="http://www.w3.org/2000/svg" viewBox="0 0 792 612"><defs><style>.cls-1{fill:#fff;}.cls-2{fill:#1d2734;}.cls-2,.cls-3{isolation:isolate;}.cls-3{fill:#bbbab9;}</style></defs><path class="cls-1" d="M82.79,337a2.81,2.81,0,1,0,2.81,2.81h0A2.8,2.8,0,0,0,82.8,337Z"/><path class="cls-1" d="M83.87,307.06a6.3,6.3,0,0,0-3.88-.92l-.35,0,.42,2.3h.25a5.44,5.44,0,0,1,2.08.38,3,3,0,0,1,1.83,2.39,3.37,3.37,0,0,1-.77,3.1,5.88,5.88,0,0,1-3.32,1.61,6.07,6.07,0,0,1-4.11-.37A3.53,3.53,0,0,1,74.28,313a3,3,0,0,1,1.88-3.67l.23-.1L76,307l-.33.09a4.91,4.91,0,0,0-2.83,2.14,5.59,5.59,0,0,0-.66,4.22,5.85,5.85,0,0,0,2.95,4.32,7.15,7.15,0,0,0,3.42.84,10.26,10.26,0,0,0,1.74-.17,7.61,7.61,0,0,0,5.41-3.14,5.79,5.79,0,0,0,.73-4.2A5.69,5.69,0,0,0,83.87,307.06Z"/><path class="cls-1" d="M84.89,300.47l-5.63-.09.06-3.62a3.57,3.57,0,0,1,.23-1.41,1.57,1.57,0,0,1,1.48-.73l2.18-.07a9.81,9.81,0,0,0,1.08-.08,1.93,1.93,0,0,0,.53-.17l.17-.08,0-2.68h-.81l-.08.18a.84.84,0,0,1-.61.39,5.33,5.33,0,0,1-1,.1l-1.76,0a3.21,3.21,0,0,0-1.84.47,2.68,2.68,0,0,0-.67.75,3.62,3.62,0,0,0-1-1,3.76,3.76,0,0,0-2.09-.57H75a3.37,3.37,0,0,0-3.32,1.94,6.25,6.25,0,0,0-.51,2.55l-.1,6.28,13.74.22Zm-11.58-.19.06-3.9a2.92,2.92,0,0,1,.26-1.27,1.61,1.61,0,0,1,1.58-.8h.07a1.77,1.77,0,0,1,1.53.6,3,3,0,0,1,.42,1.75l-.06,3.68Z"/><polygon class="cls-1" points="83.69 286.48 79.94 285.73 81.36 278.67 79.27 278.25 77.85 285.31 74.55 284.64 76.09 277.01 73.9 276.57 71.9 286.51 85.37 289.22 87.4 279.15 85.26 278.72 83.69 286.48"/><polygon class="cls-1" points="86.98 273.86 83.43 272.44 86.09 265.75 84.11 264.96 81.44 271.65 78.32 270.4 81.2 263.17 79.13 262.34 75.38 271.76 88.14 276.85 91.94 267.31 89.92 266.5 86.98 273.86"/><path class="cls-1" d="M98.29,255.26a.79.79,0,0,1-.72,0,5.36,5.36,0,0,1-.93-.46l-1.52-.89a3.37,3.37,0,0,0-1.81-.57,2.73,2.73,0,0,0-1,.29,3.44,3.44,0,0,0-1.81-2.95,3.4,3.4,0,0,0-3.92-.13,6.33,6.33,0,0,0-1.77,1.91l-3.35,5.3,11.59,7.37,1.29-2-4.75-3,1.93-3.05a3.6,3.6,0,0,1,.93-1.09,1.55,1.55,0,0,1,1.64.15l1.9,1.08a7.42,7.42,0,0,0,1,.5,1.67,1.67,0,0,0,.53.14h.19l1.43-2.25-.67-.44Zm-8.48.6-2,3.11-3.26-2.07,2.1-3.3a2.86,2.86,0,0,1,.88-.95,1.66,1.66,0,0,1,1.82.18,1.77,1.77,0,0,1,1,1.32A3,3,0,0,1,89.81,255.86Z"/><path class="cls-2" d="M404.73,278.72c-.8,5.35-1.61,10.62-2.38,15.9q-5.27,35.91-10.52,71.83c-2.15,14.68-4.36,29.34-6.39,44-.27,1.95-1.13,2-2.57,2-9.64,0-19.28-.11-28.91,0-2.34,0-2.34-.91-2.09-2.64q3.51-23.58,6.94-47.18,5-34.6,10.05-69.21,6.76-46.26,13.52-92.53c.29-2,.89-2.6,2.92-2.57,9.37.12,18.75.13,28.12,0,2.29,0,3.14.72,3.74,2.87Q429,244.1,441.05,286.92q7.92,28.31,15.85,56.62a4.49,4.49,0,0,0,1.44,2.4c.91-3.05,1.85-6.1,2.72-9.17q19.2-68.06,38.35-136.12c.44-1.54,1-2.28,2.84-2.26,9.72.11,19.44.09,29.17,0,1.62,0,2.23.37,2.47,2.13q7,49.85,14.1,99.68,5.19,36.73,10.29,73.48,2.55,18.1,5.22,36.18c.26,1.76.21,2.68-2.11,2.64-9.54-.15-19.09-.13-28.64,0-1.84,0-2.4-.63-2.64-2.34q-6.39-45.52-12.87-91c-1.91-13.42-3.89-26.83-6.3-40.34l-1.25,4.43q-17.94,63.3-35.83,126.63c-.59,2.11-1.43,2.72-3.59,2.68-8.31-.14-16.62-.12-24.93,0-2,0-2.81-.56-3.37-2.57Q423.86,345,405.56,280.16C405.44,279.71,405.6,279.08,404.73,278.72Z"/><path class="cls-2" d="M246.57,348.37,251,336.72c1.41-3.69,2.83-7.38,4.38-11.42A68.07,68.07,0,0,0,273.87,346a63.46,63.46,0,0,0,12.34,7.18c1.44.63,1.78,1.14,1.17,2.72q-10,26-19.87,51.95a2.27,2.27,0,0,1-2.52,1.7q-18.7-.09-37.4,0a2.4,2.4,0,0,1-2.65-1.89q-20.07-53.44-40.2-106.84-18.66-49.56-37.38-99.1c-.9-2.38-.45-2.7,1.9-2.68,12.64.1,25.28.14,37.92,0,2.49,0,3.45.75,4.3,3Q217,270,242.59,337.86C243.83,341.16,245.09,344.45,246.57,348.37Z"/><path class="cls-3" d="M267.33,293.81C266.94,278.63,273,266.75,285,258a48.81,48.81,0,0,1,14.59-7.14,52.6,52.6,0,0,1,20.06-2.48c13.24,1,24.79,6,34.3,15.5,1.17,1.17,1.2,1.94,0,3-3,2.62-6,5.23-8.82,8-1.44,1.41-2.31,1.18-3.69-.09-8.18-7.54-17.78-11.34-29-10.51-16.88,1.24-30.88,16.07-27.3,34.67,2.55,13.2,13.28,21.31,26,23.05,11.43,1.56,21-2.31,29.45-9.62,2.74-2.36,2.7-2.39,5.19.06s5.26,5.23,8,7.77c1.07,1,1.18,1.62,0,2.7-7.71,6.83-16.09,12.45-26.5,14.08-18.66,2.91-35.79.22-49.25-14.52A39.57,39.57,0,0,1,267.33,293.81Z"/><path class="cls-2" d="M292.24,228.79c3.72-9.77,7.28-19.06,10.8-28.36a1.93,1.93,0,0,1,2.17-1.39q20.13.06,40.26,0c1.4,0,1.93.19,1.32,1.78-3.49,8.95-6.88,17.94-10.31,26.91-.32.85-.54,1.52-1.86,1.09C320.71,224.28,306.74,224.32,292.24,228.79Z"/><path class="cls-2" d="M311.8,447.52c.95-4.35,1.91-8.69,2.85-13,.67-3.11,1.4-6.2,2-9.33.25-1.41.81-1.86,2.25-1.88,4.23,0,4.23-.11,5.06,4.12,1.29,6.58,2.63,13.15,3.86,19.74.13.7,1.15,2.26-.68,2.12-1.39-.11-3.51,1.35-4.13-1.32-.08-.34-.15-.69-.23-1-.39-1.66,0-3.56-3-3.6s-3.21,2.47-3.21,3.74c0,2.63-1.36,2.33-3,2.32-4.14,0-8.29-.06-12.43,0-1.36,0-1.83-.39-1.82-1.81.06-7.51.1-15,0-22.53,0-2.36,1.53-1.64,2.67-1.68s2.68-.56,2.63,1.74c-.12,5.92,0,11.84-.08,17.76,0,1.82.56,2.39,2.25,2.15.43-.07.88,0,1.32,0C310,444.82,311.69,444.81,311.8,447.52Zm7.84-17.22c-.46,2.78-.88,5.21-1.26,7.65-.07.43-.63,1.11.23,1.28a7.53,7.53,0,0,0,2.37,0c.73-.11.6-.77.47-1.27C320.84,435.52,320.94,432.91,319.64,430.3Z"/><path class="cls-2" d="M491.8,440.76c1.14-5.33,2.15-10,3.16-14.73a4,4,0,0,1,5.47-2.64c.84.44.52,1.24.56,1.89.51,7.4,1,14.81,1.46,22.22.08,1.07.14,2.09-1.35,1.83-1.24-.22-3.24,1-3.34-1.65-.13-3.53-.34-7.06-.53-10.59a1.69,1.69,0,0,0-.66-1.69c-.45,1.84-.87,3.53-1.28,5.22-.5,2.05-1.05,4.1-1.46,6.18-.26,1.35-.59,2.18-2.31,2.13s-2.08-.63-2.38-2.08c-.83-4-1.84-7.89-2.78-11.89-1,.55-.65,1.45-.69,2.16-.19,3.26-.47,6.54-.37,9.8.08,2.34-1,2.45-2.86,2.48-2.4.05-1.69-1.54-1.61-2.68.49-7.05,1.05-14.1,1.59-21.15.08-1.1-.16-2.58,1.68-2.22,1.53.3,3.74-1.25,4.3,1.91C489.28,430.24,490.55,435.16,491.8,440.76Z"/><path class="cls-2" d="M429.33,434.53c0,4.22-.12,8.44.05,12.66.08,2.08-.88,2.13-2.5,2.21-1.93.11-2.12-.72-2.11-2.33.07-7.15,0-14.3.05-21.45,0-.81-.6-2.3,1-2.21s3.36-1.14,4.25,1.34c1.49,4.14,3.17,8.22,4.8,12.31.17.43.1,1.11.83,1.18,0-4.09.13-8.17-.05-12.24-.1-2.26.69-2.83,2.83-2.75,1.66.07,1.84.77,1.83,2.11,0,7.23,0,14.47,0,21.71,0,.83.56,2.29-1,2.21s-3.4,1.1-4.29-1.32c-1.56-4.21-3.25-8.38-4.88-12.56-.12-.3-.25-.6-.38-.89Z"/><path class="cls-2" d="M380.92,438.24c-.53-4.2-.29-8.42-.45-12.62-.06-1.88.54-2.35,2.36-2.36s2.23.55,2.21,2.25c-.08,7.23,0,14.47-.05,21.71,0,.85.46,2.25-1.15,2.08-1.39-.14-3.18,1-4-1.3-1.75-4.67-3.66-9.27-5.66-14.27,0,4.64-.09,8.88.05,13.1.06,1.91-.38,2.6-2.44,2.6s-2.23-.87-2.22-2.53c.07-7.06,0-14.12.07-21.18,0-.89-.66-2.44,1.13-2.35,1.47.08,3.34-1,4.2,1.48,1.49,4.24,3.23,8.39,4.87,12.57.11.29.25.58.37.87Z"/><path class="cls-2" d="M259.59,439.21c-.52-4.7-.47-9.2-.55-13.7,0-1.72.43-2.31,2.22-2.25s2.54.23,2.5,2.27c-.13,7.15,0,14.31-.07,21.47,0,.85.53,2.33-1,2.26s-3.42,1.13-4.32-1.25c-1.53-4-3.13-8.06-4.72-12.07-.23-.59-.2-1.67-1.21-1.32-.66.22-.39,1.12-.26,1.66,1,3.92.28,7.89.43,11.83.07,2-1.63,1.05-2.57,1.21s-1.91.13-1.9-1.39c.05-7.69,0-15.38,0-23.07,0-.85.07-1.71,1.23-1.52,1.4.24,3.21-.88,4,1.39,1.6,4.4,3.34,8.74,5,13.1C258.67,438.31,258.66,438.9,259.59,439.21Z"/><path class="cls-2" d="M519.28,436.23c0-3.53.06-7.06,0-10.58,0-1.39.32-2,1.79-2.26,8.63-1.45,13.49,2.35,13.92,11.05a29.08,29.08,0,0,1-.06,4c-.72,8.52-5.85,12.41-14.28,11-1.48-.24-1.33-1.09-1.33-2C519.29,443.64,519.29,439.94,519.28,436.23Zm5.09.09c0,2.3,0,4.6,0,6.89,0,.65-.43,1.56.43,1.89a2.44,2.44,0,0,0,2.45-.59,4.49,4.49,0,0,0,1.46-2.17,20.33,20.33,0,0,0,.19-12,3.85,3.85,0,0,0-2.61-2.78c-1.3-.41-2-.28-2,1.35C524.43,431.37,524.37,433.84,524.37,436.32Z"/><path class="cls-2" d="M422.74,436c-.23,3.25-.33,6.54-1.92,9.51a6.81,6.81,0,0,1-6.31,4c-3,.06-5.25-1.12-6.45-3.73a20.83,20.83,0,0,1,0-18.64,6.91,6.91,0,0,1,7.15-4c3,.2,4.75,2,5.93,4.59S422.53,433.15,422.74,436Zm-11.43.46a18.87,18.87,0,0,0,1,6.75c.37,1,.94,2,2.23,1.9s1.64-1,1.89-1.94a25.63,25.63,0,0,0,.08-13.52c-.28-1.05-.84-2-2.13-2s-1.75,1.05-2.1,2.06A19.75,19.75,0,0,0,411.31,436.43Z"/><path class="cls-2" d="M367.46,437.07A23.33,23.33,0,0,1,366.3,444c-1.37,3.71-3.52,5.39-7,5.44-3.71.05-6-1.44-7.28-5.3a22.36,22.36,0,0,1,.12-15.57c1.5-3.91,4.19-5.7,7.83-5.46,3.22.21,5.51,2.37,6.62,6.27A25.24,25.24,0,0,1,367.46,437.07Zm-5.4-1a18.37,18.37,0,0,0-.72-6.31c-.33-1-.74-2.08-2-2.16s-1.89.87-2.21,1.93a23.21,23.21,0,0,0,0,13.56c.31,1.06.94,2,2.21,1.94s1.71-1.16,2-2.16A20.58,20.58,0,0,0,362.06,436.1Z"/><path class="cls-2" d="M281.1,433.9c0-2.94,0-5.23,0-7.53,0-1.58-.56-3.22,2.34-3.18,2.56,0,2.81,1,2.75,3.07-.13,4.58-.15,9.18,0,13.76.07,2-.42,5,2.57,4.89,2.73-.09,2.17-3,2.22-4.91.14-4.85.17-9.71,0-14.56-.11-2.49,1.36-2,2.83-2.15,1.73-.15,2.51.22,2.44,2.23-.15,4.67,0,9.35,0,14a15.34,15.34,0,0,1-.91,5.45c-1.32,3.5-3.4,4.69-7.73,4.45-3.08-.16-5-1.82-5.89-5.12C280.68,440.68,281.31,437,281.1,433.9Z"/><path class="cls-2" d="M561,435.83A22,22,0,0,1,559,446c-2.27,4.5-10.06,4.92-12.42-.07a20.63,20.63,0,0,1,.13-19.1,6.8,6.8,0,0,1,7.05-3.74c3,.24,4.8,2.07,5.92,4.64A18.51,18.51,0,0,1,561,435.83Zm-5.38.55c0-2.29,0-4.61-.79-6.8-.33-.9-.7-1.87-1.91-1.94a2,2,0,0,0-2.1,1.67,22.12,22.12,0,0,0-.06,14,2.16,2.16,0,0,0,2.07,1.75c1.18,0,1.6-1,1.94-1.91A20.25,20.25,0,0,0,555.64,436.38Z"/><path class="cls-2" d="M230.13,440.63c.6-3.66,1.21-7.31,1.79-11,.23-1.4.46-2.79.6-4.19s.7-2.26,2.48-2.2c3.59.12,3.6,0,2.79,3.51-1.57,6.88-3.26,13.73-4.67,20.63-.42,2-1.52,2.08-3,1.94s-3.22.76-3.75-2c-1.45-7.43-3.23-14.81-5-22.18-.39-1.63.12-1.82,1.61-1.93,2.68-.21,4.11.28,4.37,3.46.39,4.66,1.44,9.26,2.2,13.89Z"/><path class="cls-2" d="M448.71,436.39c0-3.71.06-7.42,0-11.13,0-1.48.42-2,1.95-2a73.06,73.06,0,0,0,7.69,0c2-.12,1.77,1,1.84,2.32.09,1.48-.12,2.44-1.93,2.15-.51-.08-1.07.07-1.58,0-2.4-.45-2.87.6-2.91,2.87-.05,2.56.65,3.49,3.22,3.14,1.39-.18,2.87-.54,2.86,2,0,2.41-1.24,2.16-2.78,2.22-1.06,0-2.77-.74-3.07.61a9.84,9.84,0,0,0,.19,5.7c.54,1.24,2.75.53,4.17.46,1.91-.09,2.36.59,2.35,2.41s-.52,2.3-2.26,2.21a65.76,65.76,0,0,0-7.69,0c-1.72.1-2.08-.55-2-2.12.11-3.63,0-7.25,0-10.88Z"/><path class="cls-2" d="M505.14,436.36c0-3.71.07-7.42,0-11.13,0-1.47.37-2,1.92-1.94a70.27,70.27,0,0,0,7.68,0c1.77-.1,1.78.84,1.71,2.11s.39,2.66-1.7,2.35a5.33,5.33,0,0,0-.8,0c-3.68,0-4.68,1.31-3.66,4.93.54,1.91,2.26,1,3.35.93,2.1-.09,2.76.55,2.62,2.68-.1,1.47-.57,1.85-1.89,1.71-.7-.07-1.42.06-2.12,0-1.67-.21-2.25.54-2,2.12a3.13,3.13,0,0,1,0,.53c0,4.18,0,4.26,4.13,4.18,1.77,0,2.65.15,2.66,2.34,0,2.35-1.15,2.28-2.78,2.23-2.29-.07-4.6-.11-6.88,0-1.7.1-2.32-.37-2.24-2.17C505.25,443.6,505.14,440,505.14,436.36Z"/><path class="cls-2" d="M397.73,436.14a15.62,15.62,0,0,0,.83,5.46c1,2.43,2.72,3.82,5.33,3.29,2.21-.45,1.71,1.09,2,2.13.31,1.26.18,2.14-1.48,2.39-5.77.86-9.93-1.66-11.41-7.33-1.24-4.74-1.13-9.46,1.29-13.89a9.47,9.47,0,0,1,10-5c1,.14,2.41.07,1.81,1.78-.4,1.13.5,3.29-2.24,2.74-2.26-.46-3.86.75-4.91,2.75A14,14,0,0,0,397.73,436.14Z"/><path class="cls-2" d="M337.87,449.41c-4.23,0-7.07-1.8-8.56-5.76a19.1,19.1,0,0,1,.12-14.22,9.75,9.75,0,0,1,10.83-6.2c1.11.19,2.22.38,1.6,1.95-.43,1.06.4,3.08-2.18,2.54-2.4-.51-4.17.82-5.06,2.95a14.61,14.61,0,0,0-.09,11.35,4.17,4.17,0,0,0,4.83,2.89c2.62-.56,2.13,1.23,2.38,2.54.38,2-1.05,1.87-2.28,2C338.93,449.44,338.4,449.41,337.87,449.41Z"/><path class="cls-2" d="M271.19,436.5a12.81,12.81,0,0,0,1,5.43c1,2.17,2.69,3.51,5,3s1.86.93,2.12,2.16c.32,1.56-.09,2.21-1.77,2.37-6.44.61-10.35-2.28-11.47-8.95a19.78,19.78,0,0,1,.84-10.71c1.84-4.64,5.85-7.14,10.63-6.56,1.08.13,2.62,0,2,1.89-.38,1.13.39,3.15-2.36,2.66-3.06-.54-5,1.58-5.74,5.57A30.33,30.33,0,0,0,271.19,436.5Z"/><path class="cls-2" d="M468.05,434.32c0,2.91.07,5.82,0,8.73,0,1.46.33,2.15,1.89,1.93.7-.1,1.42.07,2.12,0,1.74-.2,2.67,0,2.65,2.29s-1,2.15-2.59,2.11q-3.7-.12-7.41,0c-1.34,0-1.85-.34-1.84-1.78.06-7.49.1-15,0-22.49,0-2.26,1.38-1.8,2.62-1.76s2.75-.61,2.64,1.72c-.14,3.08,0,6.17,0,9.26Z"/><path class="cls-2" d="M239.65,436.07c0-3.62.11-7.25-.05-10.87-.08-1.9.89-2.05,2.26-1.86,1.17.17,3-.87,2.93,1.71-.08,7.51-.09,15,0,22.54,0,2.31-1.44,1.7-2.65,1.75s-2.64.33-2.55-1.87C239.76,443.68,239.64,439.87,239.65,436.07Z"/><path class="cls-2" d="M343.5,436.33c0-3.71.13-7.42-.05-11.12-.12-2.49,1.49-1.84,2.78-1.88s2.56-.36,2.51,1.87q-.23,11.13,0,22.25c0,2.21-1.19,1.95-2.51,1.89s-2.9.61-2.77-1.88C343.64,443.76,343.5,440,343.5,436.33Z"/><path class="cls-2" d="M537.14,436.34c0-3.7.12-7.41,0-11.11-.11-2.43,1.47-1.87,2.78-1.9s2.55-.31,2.5,1.89c-.14,7.4-.13,14.81,0,22.21,0,2.41-1.42,1.89-2.76,1.93s-2.62.24-2.53-1.91c.15-3.7,0-7.41,0-11.11Z"/><path class="cls-2" d="M357.34,421.82c1.4-3.42,3.58-5.14,7.56-3.9C362.74,420,361.21,422.86,357.34,421.82Z"/></svg>