<svg id="Capa_1" data-name="Capa 1" xmlns="http://www.w3.org/2000/svg" viewBox="0 0 792 612"><defs><style>.cls-1{fill:#0062ac;}.cls-2{fill:#e3473e;}</style></defs><path class="cls-1" d="M111.16,412.59a14.1,14.1,0,0,1-5.8,1c-6.2,0-10.87-3.92-10.87-11.13,0-6.88,4.67-11.54,11.49-11.54a11.6,11.6,0,0,1,5.21,1l-.68,2.31a10.39,10.39,0,0,0-4.44-.91c-5.15,0-8.58,3.29-8.58,9.07,0,5.38,3.1,8.84,8.45,8.84a11.25,11.25,0,0,0,4.63-.92Z"/><path class="cls-1" d="M129.2,405.28c0,5.84-4,8.38-7.86,8.38-4.28,0-7.57-3.13-7.57-8.12,0-5.29,3.46-8.39,7.83-8.39C126.13,397.15,129.2,400.45,129.2,405.28Zm-12.53.16c0,3.46,2,6.07,4.8,6.07s4.79-2.58,4.79-6.13c0-2.68-1.34-6.07-4.73-6.07S116.67,402.44,116.67,405.44Z"/><path class="cls-1" d="M147.75,405.28c0,5.84-4,8.38-7.86,8.38-4.27,0-7.57-3.13-7.57-8.12,0-5.29,3.46-8.39,7.83-8.39C144.69,397.15,147.75,400.45,147.75,405.28Zm-12.52.16c0,3.46,2,6.07,4.79,6.07s4.8-2.58,4.8-6.13c0-2.68-1.34-6.07-4.73-6.07S135.23,402.44,135.23,405.44Z"/><path class="cls-1" d="M152,402.67c0-2-.06-3.66-.13-5.16h2.58l.13,2.71h.07a6.21,6.21,0,0,1,5.61-3.07c3.81,0,6.68,3.24,6.68,8,0,5.68-3.45,8.48-7.17,8.48a5.52,5.52,0,0,1-4.86-2.48h-.07v8.58H152Zm2.84,4.21a7,7,0,0,0,.13,1.17,4.43,4.43,0,0,0,4.31,3.36c3,0,4.79-2.48,4.79-6.1,0-3.16-1.66-5.87-4.69-5.87a4.57,4.57,0,0,0-4.34,3.55,4.63,4.63,0,0,0-.2,1.18Z"/><path class="cls-1" d="M172.83,405.93c.07,3.88,2.54,5.48,5.42,5.48a10.34,10.34,0,0,0,4.37-.82l.49,2.06a12.78,12.78,0,0,1-5.26,1c-4.86,0-7.76-3.2-7.76-8s2.81-8.52,7.41-8.52c5.15,0,6.52,4.54,6.52,7.44a11.21,11.21,0,0,1-.1,1.34Zm8.42-2.06c0-1.82-.75-4.66-4-4.66-2.91,0-4.18,2.68-4.41,4.66Z"/><path class="cls-1" d="M188.22,402.44c0-1.86,0-3.46-.13-4.93h2.52l.09,3.1h.13a4.74,4.74,0,0,1,4.37-3.46,3.35,3.35,0,0,1,.82.1V400a4.62,4.62,0,0,0-1-.1c-2,0-3.45,1.54-3.85,3.69a8.7,8.7,0,0,0-.13,1.34v8.41h-2.84Z"/><path class="cls-1" d="M208.12,413.3l-.23-2h-.1a5.86,5.86,0,0,1-4.82,2.35,4.5,4.5,0,0,1-4.83-4.53c0-3.82,3.39-5.91,9.49-5.88v-.32c0-1.31-.36-3.65-3.59-3.65a7.84,7.84,0,0,0-4.11,1.17l-.65-1.89a9.78,9.78,0,0,1,5.19-1.41c4.82,0,6,3.3,6,6.46v5.91a21.71,21.71,0,0,0,.26,3.78Zm-.42-8.05c-3.14-.07-6.69.48-6.69,3.55a2.54,2.54,0,0,0,2.71,2.74,3.91,3.91,0,0,0,3.81-2.64,3,3,0,0,0,.17-.91Z"/><path class="cls-1" d="M227,412.72a10.58,10.58,0,0,1-4.53.91c-4.76,0-7.86-3.23-7.86-8.06s3.32-8.38,8.48-8.38a9.65,9.65,0,0,1,4,.81l-.65,2.22a6.72,6.72,0,0,0-3.33-.75c-3.62,0-5.58,2.68-5.58,6,0,3.65,2.35,5.91,5.48,5.91a8.09,8.09,0,0,0,3.52-.79Z"/><path class="cls-1" d="M234.21,393.08a1.78,1.78,0,0,1-3.56,0,1.76,1.76,0,0,1,1.8-1.8A1.71,1.71,0,0,1,234.21,393.08ZM231,413.3V397.51h2.87V413.3Z"/><path class="cls-1" d="M253.58,405.28c0,5.84-4,8.38-7.86,8.38-4.27,0-7.56-3.13-7.56-8.12,0-5.29,3.45-8.39,7.82-8.39C250.52,397.15,253.58,400.45,253.58,405.28Zm-12.52.16c0,3.46,2,6.07,4.79,6.07s4.8-2.58,4.8-6.13c0-2.68-1.34-6.07-4.73-6.07S241.06,402.44,241.06,405.44Zm9.1-14.74-4,4.66h-2.05L247,390.7Z"/><path class="cls-1" d="M257.85,401.79c0-1.63,0-3-.13-4.28h2.55l.16,2.61h.06a5.83,5.83,0,0,1,5.22-3c2.19,0,5.58,1.31,5.58,6.72v9.43h-2.87v-9.1c0-2.54-.94-4.66-3.65-4.66a4.07,4.07,0,0,0-3.85,2.93,4.15,4.15,0,0,0-.2,1.34v9.49h-2.87Z"/><path class="cls-1" d="M302.24,412.59a14.1,14.1,0,0,1-5.8,1c-6.2,0-10.87-3.92-10.87-11.13,0-6.88,4.67-11.54,11.49-11.54a11.66,11.66,0,0,1,5.22,1l-.69,2.31a10.35,10.35,0,0,0-4.44-.91c-5.15,0-8.57,3.29-8.57,9.07,0,5.38,3.09,8.84,8.44,8.84a11.3,11.3,0,0,0,4.64-.92Z"/><path class="cls-1" d="M306.35,390.14h2.87V400h.06a5.41,5.41,0,0,1,2.06-2,5.92,5.92,0,0,1,2.94-.82c2.12,0,5.51,1.31,5.51,6.76v9.39h-2.87v-9.07c0-2.54-.95-4.69-3.66-4.69a4.13,4.13,0,0,0-3.85,2.87,3.52,3.52,0,0,0-.19,1.37v9.52h-2.87Z"/><path class="cls-1" d="M328.3,393.08a1.78,1.78,0,0,1-3.56,0,1.76,1.76,0,0,1,1.8-1.8A1.71,1.71,0,0,1,328.3,393.08Zm-3.2,20.22V397.51H328V413.3Z"/><path class="cls-1" d="M333.39,390.14h2.87V413.3h-2.87Z"/><path class="cls-1" d="M343.33,405.93c.07,3.88,2.55,5.48,5.42,5.48a10.34,10.34,0,0,0,4.37-.82l.49,2.06a12.72,12.72,0,0,1-5.25,1c-4.86,0-7.77-3.2-7.77-8s2.81-8.52,7.41-8.52c5.15,0,6.52,4.54,6.52,7.44a9.42,9.42,0,0,1-.1,1.34Zm8.42-2.06c0-1.82-.75-4.66-4-4.66-2.9,0-4.18,2.68-4.4,4.66Z"/><path class="cls-1" d="M358.73,401.79c0-1.63,0-3-.13-4.28h2.54l.16,2.61h.07a5.81,5.81,0,0,1,5.22-3c2.18,0,5.58,1.31,5.58,6.72v9.43h-2.88v-9.1c0-2.54-.94-4.66-3.65-4.66a4.07,4.07,0,0,0-3.85,2.93,4.17,4.17,0,0,0-.19,1.34v9.49h-2.87Z"/><path class="cls-1" d="M386.22,413.3l-.23-2h-.09a5.88,5.88,0,0,1-4.83,2.35,4.5,4.5,0,0,1-4.83-4.53c0-3.82,3.39-5.91,9.49-5.88v-.32c0-1.31-.36-3.65-3.59-3.65a7.86,7.86,0,0,0-4.11,1.17l-.65-1.89a9.81,9.81,0,0,1,5.19-1.41c4.83,0,6,3.3,6,6.46v5.91a22.74,22.74,0,0,0,.26,3.78Zm-.42-8.05c-3.13-.07-6.69.48-6.69,3.55a2.54,2.54,0,0,0,2.71,2.74,3.91,3.91,0,0,0,3.81-2.64,3,3,0,0,0,.17-.91Z"/><path class="cls-1" d="M401.42,402.67c0-2-.07-3.66-.13-5.16h2.57l.13,2.71h.07a6.21,6.21,0,0,1,5.61-3.07c3.82,0,6.69,3.24,6.69,8,0,5.68-3.46,8.48-7.18,8.48a5.53,5.53,0,0,1-4.86-2.48h-.07v8.58h-2.83Zm2.83,4.21a7,7,0,0,0,.13,1.17,4.45,4.45,0,0,0,4.31,3.36c3,0,4.8-2.48,4.8-6.1,0-3.16-1.67-5.87-4.7-5.87a4.57,4.57,0,0,0-4.34,3.55,4.63,4.63,0,0,0-.2,1.18Z"/><path class="cls-1" d="M429.37,413.3l-.23-2H429a5.88,5.88,0,0,1-4.83,2.35,4.49,4.49,0,0,1-4.82-4.53c0-3.82,3.39-5.91,9.49-5.88v-.32c0-1.31-.36-3.65-3.59-3.65a7.84,7.84,0,0,0-4.11,1.17l-.65-1.89a9.75,9.75,0,0,1,5.18-1.41c4.83,0,6,3.3,6,6.46v5.91a21.71,21.71,0,0,0,.26,3.78Zm-.43-8.05c-3.13-.07-6.68.48-6.68,3.55a2.54,2.54,0,0,0,2.7,2.74,3.93,3.93,0,0,0,3.82-2.64,3,3,0,0,0,.16-.91Z"/><path class="cls-1" d="M437,402.44c0-1.86,0-3.46-.13-4.93h2.51l.1,3.1h.13a4.73,4.73,0,0,1,4.37-3.46,3.32,3.32,0,0,1,.81.1V400a4.55,4.55,0,0,0-1-.1c-2,0-3.45,1.54-3.85,3.69a8.77,8.77,0,0,0-.12,1.34v8.41H437Z"/><path class="cls-1" d="M456.89,413.3l-.22-2h-.1a5.88,5.88,0,0,1-4.83,2.35,4.5,4.5,0,0,1-4.83-4.53c0-3.82,3.39-5.91,9.49-5.88v-.32c0-1.31-.35-3.65-3.58-3.65a7.84,7.84,0,0,0-4.11,1.17l-.66-1.89a9.81,9.81,0,0,1,5.19-1.41c4.83,0,6,3.3,6,6.46v5.91a22.74,22.74,0,0,0,.26,3.78Zm-.42-8.05c-3.13-.07-6.69.48-6.69,3.55a2.54,2.54,0,0,0,2.71,2.74,3.93,3.93,0,0,0,3.82-2.64,3.29,3.29,0,0,0,.16-.91Z"/><path class="cls-1" d="M473.69,405.93c.06,3.88,2.54,5.48,5.41,5.48a10.27,10.27,0,0,0,4.37-.82l.49,2.06a12.72,12.72,0,0,1-5.25,1c-4.86,0-7.76-3.2-7.76-8s2.8-8.52,7.4-8.52c5.16,0,6.53,4.54,6.53,7.44a11.21,11.21,0,0,1-.1,1.34Zm8.41-2.06c0-1.82-.75-4.66-4-4.66-2.9,0-4.17,2.68-4.4,4.66Z"/><path class="cls-1" d="M489.08,390.14H492V413.3h-2.87Z"/><path class="cls-1" d="M505.09,391.61a40.84,40.84,0,0,1,6-.46c4.08,0,7,1,8.9,2.74a10.13,10.13,0,0,1,3.1,7.9,11.62,11.62,0,0,1-3.16,8.54c-2.06,2.06-5.45,3.17-9.72,3.17a46.66,46.66,0,0,1-5.16-.26Zm2.84,19.44a18,18,0,0,0,2.87.16c6.07,0,9.36-3.39,9.36-9.32,0-5.19-2.9-8.49-8.9-8.49a16.27,16.27,0,0,0-3.33.3Z"/><path class="cls-1" d="M529.1,405.93c.06,3.88,2.54,5.48,5.41,5.48a10.27,10.27,0,0,0,4.37-.82l.49,2.06a12.72,12.72,0,0,1-5.25,1c-4.86,0-7.76-3.2-7.76-8s2.8-8.52,7.4-8.52c5.16,0,6.53,4.54,6.53,7.44a11.21,11.21,0,0,1-.1,1.34Zm8.41-2.06c0-1.82-.75-4.66-4-4.66-2.9,0-4.17,2.68-4.4,4.66Z"/><path class="cls-1" d="M544.1,410.37a7.58,7.58,0,0,0,3.78,1.14c2.09,0,3.07-1.05,3.07-2.35s-.82-2.12-2.94-2.9c-2.84-1-4.17-2.58-4.17-4.47,0-2.55,2-4.64,5.44-4.64a7.93,7.93,0,0,1,3.89,1l-.72,2.09a6.16,6.16,0,0,0-3.23-.91c-1.7,0-2.64,1-2.64,2.15s.94,1.89,3,2.68c2.74,1,4.14,2.41,4.14,4.76,0,2.77-2.15,4.73-5.9,4.73a8.94,8.94,0,0,1-4.44-1.08Z"/><path class="cls-1" d="M566.8,413.3l-.23-2h-.1a5.86,5.86,0,0,1-4.82,2.35,4.5,4.5,0,0,1-4.83-4.53c0-3.82,3.39-5.91,9.49-5.88v-.32c0-1.31-.36-3.65-3.59-3.65a7.84,7.84,0,0,0-4.11,1.17l-.65-1.89a9.78,9.78,0,0,1,5.19-1.41c4.82,0,6,3.3,6,6.46v5.91a21.71,21.71,0,0,0,.26,3.78Zm-.43-8.05c-3.13-.07-6.68.48-6.68,3.55a2.54,2.54,0,0,0,2.71,2.74,3.92,3.92,0,0,0,3.81-2.64,3,3,0,0,0,.16-.91Z"/><path class="cls-1" d="M574.43,402.44c0-1.86,0-3.46-.13-4.93h2.51l.1,3.1H577a4.74,4.74,0,0,1,4.37-3.46,3.32,3.32,0,0,1,.81.1V400a4.52,4.52,0,0,0-1-.1c-2,0-3.46,1.54-3.85,3.69a7.61,7.61,0,0,0-.13,1.34v8.41h-2.84Z"/><path class="cls-1" d="M585.88,402.44c0-1.86,0-3.46-.13-4.93h2.51l.09,3.1h.14a4.73,4.73,0,0,1,4.37-3.46,3.32,3.32,0,0,1,.81.1V400a4.62,4.62,0,0,0-1-.1c-2,0-3.46,1.54-3.85,3.69a8.7,8.7,0,0,0-.13,1.34v8.41h-2.83Z"/><path class="cls-1" d="M611.15,405.28c0,5.84-4,8.38-7.86,8.38-4.27,0-7.56-3.13-7.56-8.12,0-5.29,3.45-8.39,7.83-8.39C608.09,397.15,611.15,400.45,611.15,405.28Zm-12.52.16c0,3.46,2,6.07,4.79,6.07s4.8-2.58,4.8-6.13c0-2.68-1.34-6.07-4.73-6.07S598.63,402.44,598.63,405.44Z"/><path class="cls-1" d="M615.43,390.14h2.87V413.3h-2.87Z"/><path class="cls-1" d="M623.77,390.14h2.87V413.3h-2.87Z"/><path class="cls-1" d="M646.41,405.28c0,5.84-4,8.38-7.86,8.38-4.28,0-7.57-3.13-7.57-8.12,0-5.29,3.46-8.39,7.83-8.39C643.34,397.15,646.41,400.45,646.41,405.28Zm-12.53.16c0,3.46,2,6.07,4.8,6.07s4.79-2.58,4.79-6.13c0-2.68-1.33-6.07-4.73-6.07S633.88,402.44,633.88,405.44Z"/><path class="cls-1" d="M125.47,483.61l-.35-14.38H125c-.3,1.82-.61,3.13-.84,4.12l-2.42,10.26h-4.87l-2.32-10.26c-.22-1-.53-2.3-.85-4.12h-.1l-.23,14.38h-3l.66-17h5.67s1.87,8.58,2.85,14.08h.08c1.13-5.47,3.35-14.08,3.35-14.08h5.58l.66,17Z"/><path class="cls-1" d="M134.62,483.61v-17h3.31v17Z"/><path class="cls-1" d="M151.82,483.61l-5.29-13.39h-.1l.22,13.39h-3v-17h5.07l5.37,13.68h.1L154,466.58h3.06v17Z"/><path class="cls-1" d="M162.79,483.61v-17h3.31v17Z"/><path class="cls-1" d="M176.71,483.86a9.3,9.3,0,0,1-5.54-1.81l1.26-2.6a7.26,7.26,0,0,0,4.34,1.64,2.36,2.36,0,0,0,2.62-2.24c0-3.61-7.87-1.82-7.87-7.83,0-2.57,2-4.69,6-4.69a10.73,10.73,0,0,1,5.07,1.16l-1.11,2.65a8.36,8.36,0,0,0-4-.93c-1.54,0-2.55.5-2.55,1.76,0,3.06,7.92,1.87,7.92,7.67C182.84,481.34,180.6,483.86,176.71,483.86Z"/><path class="cls-1" d="M193.31,469.38v14.23h-3.43V469.38h-4.11v-2.8h11.78v2.8Z"/><path class="cls-1" d="M201.61,483.61v-17h10.46v2.8h-7.16v4.19h5.47l-.25,2.93h-5.22v4.36h7.16v2.75Z"/><path class="cls-1" d="M220.07,483.61h-3.28v-17h5.47c3.36,0,6.08,1.57,6.08,5.13a5.26,5.26,0,0,1-3.23,4.89c1.19,2.37,2.42,4.64,3.61,7h-3.89l-2.8-6.43c-.75,0-1.26,0-2,0Zm1.66-14.45h-1.66v5.45h1.66c2.17,0,3.08-1,3.08-2.93S223.72,469.16,221.73,469.16Z"/><path class="cls-1" d="M233.41,483.61v-17h3.3v17Z"/><path class="cls-1" d="M249.12,483.86c-5.62,0-7.24-4.26-7.24-8.9,0-4.47,1.56-8.63,7.24-8.63s7.29,4.12,7.29,8.63S254.75,483.86,249.12,483.86Zm0-14.68c-3,0-3.76,2.7-3.76,5.76,0,3.38.76,6.15,3.76,6.15s3.78-2.72,3.78-6.15C252.9,471.83,252.1,469.18,249.12,469.18Z"/><path class="cls-1" d="M278.32,483.86a21.42,21.42,0,0,1-6.05-.9V466.58h5.67c4.95,0,8.08,2,8.08,8.36C286,480.46,283.62,483.86,278.32,483.86Zm-.5-14.6h-2.25v11.48a11.68,11.68,0,0,0,2.93.35c2.22,0,4-1.29,4-6.18C282.51,470.8,281.22,469.26,277.82,469.26Z"/><path class="cls-1" d="M291,483.61v-17h10.47v2.8h-7.17v4.19h5.48l-.26,2.93h-5.22v4.36h7.17v2.75Z"/><path class="cls-1" d="M319.05,483.61h-3.28v-17h5.48c3.35,0,6.07,1.57,6.07,5.13a5.26,5.26,0,0,1-3.22,4.89c1.18,2.37,2.42,4.64,3.6,7h-3.88l-2.8-6.43c-.76,0-1.26,0-2,0Zm1.67-14.45h-1.67v5.45h1.67c2.17,0,3.07-1,3.07-2.93S322.71,469.16,320.72,469.16Z"/><path class="cls-1" d="M332,483.61v-17h10.47v2.8h-7.16v4.19h5.47l-.25,2.93h-5.22v4.36h7.16v2.75Z"/><path class="cls-1" d="M347.29,483.61v-17h3.31v14.26h7.16v2.77Z"/><path class="cls-1" d="M363.61,483.61h-3.23l4.62-17h5.5l4.46,17h-3.7l-.89-3.83h-5.85ZM367,469.49l-1.86,7.61h4.64L368,469.49Z"/><path class="cls-1" d="M385.28,483.86c-4.8,0-7.37-3.17-7.37-8.85,0-5.3,2.55-8.68,7.37-8.68a10.7,10.7,0,0,1,5.8,1.44l-1.26,2.68a7.08,7.08,0,0,0-4.19-1.19c-2.83,0-4.24,2-4.24,5.72,0,3.94,1.41,6,4.19,6a7.9,7.9,0,0,0,4.49-1.57l1.06,2.68A10.07,10.07,0,0,1,385.28,483.86Z"/><path class="cls-1" d="M395.94,483.61v-17h3.31v17Z"/><path class="cls-1" d="M411.66,483.86c-5.63,0-7.24-4.26-7.24-8.9,0-4.47,1.56-8.63,7.24-8.63S419,470.45,419,475,417.28,483.86,411.66,483.86Zm0-14.68c-3,0-3.76,2.7-3.76,5.76,0,3.38.75,6.15,3.76,6.15s3.78-2.72,3.78-6.15C415.44,471.83,414.63,469.18,411.66,469.18Z"/><path class="cls-1" d="M431.91,483.61l-5.3-13.39h-.1l.23,13.39h-3v-17h5.07l5.37,13.68h.1l-.22-13.68h3.05v17Z"/><path class="cls-1" d="M442.5,483.61v-17H453v2.8H445.8v4.19h5.48L451,476.5H445.8v4.36H453v2.75Z"/><path class="cls-1" d="M461.87,483.86a9.33,9.33,0,0,1-5.55-1.81l1.26-2.6a7.26,7.26,0,0,0,4.34,1.64,2.36,2.36,0,0,0,2.62-2.24c0-3.61-7.87-1.82-7.87-7.83,0-2.57,2-4.69,6-4.69a10.8,10.8,0,0,1,5.08,1.16l-1.11,2.65a8.44,8.44,0,0,0-4-.93c-1.53,0-2.54.5-2.54,1.76,0,3.06,7.92,1.87,7.92,7.67C468,481.34,465.75,483.86,461.87,483.86Z"/><path class="cls-1" d="M482.8,483.61v-17h10.47v2.8H486.1v4.19h5.48l-.26,2.93H486.1v4.36h7.17v2.75Z"/><path class="cls-1" d="M501.16,466.58l3,5.5,3-5.5h4L505.72,475l5.3,8.65H507l-3.25-5.6-3.13,5.6h-4l5.57-8.52-5-8.51Z"/><path class="cls-1" d="M521.34,469.38v14.23H517.9V469.38h-4.11v-2.8h11.78v2.8Z"/><path class="cls-1" d="M529.63,483.61v-17H540.1v2.8h-7.16v4.19h5.47l-.25,2.93h-5.22v4.36h7.16v2.75Z"/><path class="cls-1" d="M548.09,483.61h-3.28v-17h5.48c3.35,0,6.08,1.57,6.08,5.13a5.27,5.27,0,0,1-3.23,4.89c1.18,2.37,2.42,4.64,3.6,7h-3.88l-2.8-6.43c-.76,0-1.26,0-2,0Zm1.67-14.45h-1.67v5.45h1.67c2.17,0,3.07-1,3.07-2.93S551.75,469.16,549.76,469.16Z"/><path class="cls-1" d="M561.43,483.61v-17h3.31v17Z"/><path class="cls-1" d="M577.15,483.86c-5.63,0-7.24-4.26-7.24-8.9,0-4.47,1.56-8.63,7.24-8.63s7.29,4.12,7.29,8.63S582.77,483.86,577.15,483.86Zm0-14.68c-3,0-3.76,2.7-3.76,5.76,0,3.38.75,6.15,3.76,6.15s3.78-2.72,3.78-6.15C580.93,471.83,580.12,469.18,577.15,469.18Z"/><path class="cls-1" d="M592.5,483.61h-3.28v-17h5.48c3.35,0,6.08,1.57,6.08,5.13a5.26,5.26,0,0,1-3.23,4.89c1.19,2.37,2.42,4.64,3.61,7h-3.89l-2.8-6.43c-.75,0-1.26,0-2,0Zm1.67-14.45H592.5v5.45h1.67c2.17,0,3.08-1,3.08-2.93S596.16,469.16,594.17,469.16Z"/><path class="cls-1" d="M605.47,483.61v-17h10.46v2.8h-7.16v4.19h5.48L614,476.5h-5.22v4.36h7.16v2.75Z"/><path class="cls-1" d="M624.84,483.86a9.33,9.33,0,0,1-5.55-1.81l1.26-2.6a7.26,7.26,0,0,0,4.34,1.64,2.36,2.36,0,0,0,2.62-2.24c0-3.61-7.87-1.82-7.87-7.83,0-2.57,2-4.69,6-4.69a10.73,10.73,0,0,1,5.07,1.16l-1.11,2.65a8.36,8.36,0,0,0-4-.93c-1.54,0-2.54.5-2.54,1.76,0,3.06,7.92,1.87,7.92,7.67C631,481.34,628.72,483.86,624.84,483.86Z"/><path class="cls-2" d="M345.23,339.4a25.06,25.06,0,0,1-19.08,9.34c-15.7,0-26.66-11.64-26.66-34.64,0-20.15,10-34.36,27.75-34.36,8.25,0,13.93,2.7,17.72,5.68a93.28,93.28,0,0,1-.54-10.82V254h10.29v93.35H347Zm-.81-47.08a28.44,28.44,0,0,0-16.1-4.73c-12.45,0-18.4,9.74-18.4,26.51,0,16.37,5.27,26.92,17.72,26.92,5.95,0,11.37-2.57,16.78-8.38Z"/><path class="cls-2" d="M326.15,350.81c-18,0-28.73-13.72-28.73-36.71,0-22.13,11.7-36.43,29.82-36.43a31.29,31.29,0,0,1,15.29,3.66c-.12-2.05-.18-4.24-.18-6.73V252h14.43v97.49H345.33l-1.27-5.74A27.38,27.38,0,0,1,326.15,350.81Zm1.09-69c-15.84,0-25.68,12.37-25.68,32.29,0,20.7,9,32.57,24.59,32.57a23.13,23.13,0,0,0,17.43-8.52l2.71-3.57,2.37,10.73h4V256.1h-6.14v18.5a91.45,91.45,0,0,0,.53,10.58l.57,4.93-3.91-3.06C339.26,283.57,333.73,281.81,327.24,281.81Zm.4,61.29c-9,0-19.8-5-19.8-29,0-10.67,2.66-28.59,20.48-28.59a30.17,30.17,0,0,1,17.28,5.11l.89.62v42.21l-.55.6C340.27,340.14,334.29,343.1,327.64,343.1Zm.68-53.44c-10.84,0-16.33,8.22-16.33,24.44,0,16.49,5.26,24.85,15.65,24.85,5.3,0,10-2.27,14.71-7.14V293.44A26.91,26.91,0,0,0,328.32,289.66Z"/><path class="cls-2" d="M200.36,280.69v59.76c0,21.19-6.78,34.79-30,34.79-6.8,0-17.23-2.06-21.18-8.23l4.42-4.9c4.44,3.8,11.39,4.74,17.08,4.74,14.86,0,20.23-8.85,20.07-22.59V339.5c-3.79,5.85-12.18,8.86-19,8.86-21,0-26.71-16.61-26.71-34.63s5.7-34.63,26.71-34.63c6.8,0,15.19,3,19,8.86v-7.27Zm-27,59c6.95,0,13.13-4.11,17.39-9.32V297.12c-4.26-5.22-10.44-9.32-17.39-9.32-16.29,0-18.65,12.48-18.65,25.93S157,339.65,173.33,339.65Z"/><path class="cls-2" d="M170.33,377.31c-7.87,0-18.58-2.41-22.93-9.18l-.85-1.33,6.84-7.57,1.53,1.31c4.09,3.5,10.81,4.24,15.73,4.24,5.94,0,10.26-1.46,13.21-4.43,3.19-3.23,4.8-8.47,4.79-15.58a28.48,28.48,0,0,1-16.91,5.67c-18.83,0-28.78-12.7-28.78-36.71s9.95-36.7,28.78-36.7c5.47,0,12.13,1.77,16.91,5.62v-4h13.78v61.83C202.43,373.48,184.11,377.31,170.33,377.31Zm-18.49-10.19c3.8,4.14,12,6,18.49,6,19.6,0,28-9.78,28-32.71V282.76h-5.5V295l-3.81-5.9c-3.51-5.43-11.39-7.91-17.24-7.91-16.35,0-24.64,10.95-24.64,32.56s8.29,32.57,24.64,32.57c6,0,13.88-2.73,17.24-7.92l3.81-5.88v11.76c.1,8.6-1.86,14.82-6,19-3.72,3.75-9.15,5.66-16.16,5.66-5,0-11.82-.73-16.81-4Zm21.49-25.39c-20.73,0-20.73-19.63-20.73-28s0-28,20.73-28c6.85,0,13.77,3.68,19,10.1l.46.57v34.67l-.46.58C187.09,338.05,180.17,341.73,173.33,341.73Zm0-51.86c-13.76,0-16.58,9.53-16.58,23.86s2.82,23.85,16.58,23.85c5.4,0,10.94-2.91,15.32-8V297.87C184.28,292.77,178.73,289.87,173.33,289.87Z"/><path class="cls-2" d="M126.71,347.18l-1.77-8.56a26.14,26.14,0,0,1-20.49,9.91c-13.57,0-21.45-9.09-21.45-20.37,0-11.53,8.42-19,23.5-19h17.24v-5.29c0-11.53-5-16.42-15.07-16.42a49,49,0,0,0-20.1,4.34l-2.71-7.47a58.77,58.77,0,0,1,24.16-5c15.74,0,23.76,8.15,23.76,24v43.85Zm-3-30.95h-15.6c-11.28,0-15.08,4.89-15.08,11.53,0,8,4.34,13.31,14,13.31,6.52,0,12.75-3.81,16.7-8.28Z"/><path class="cls-2" d="M104.45,350.6c-13.85,0-23.52-9.23-23.52-22.44,0-13,9.8-21.06,25.57-21.06h15.16v-3.22c0-10.06-3.88-14.35-13-14.35a47.1,47.1,0,0,0-19.26,4.16l-2,.91-4.12-11.39,1.78-.78a60.52,60.52,0,0,1,25-5.19c16.9,0,25.83,9,25.83,26.09v45.92H125L123.74,343A28.39,28.39,0,0,1,104.45,350.6Zm2-39.36c-13.61,0-21.43,6.17-21.43,16.92,0,10.94,7.79,18.3,19.38,18.3a24.15,24.15,0,0,0,18.86-9.12l2.76-3.53,2.33,11.3h3.31V303.33c0-14.77-7.1-21.95-21.69-21.95a56.37,56.37,0,0,0-21.54,4.1l1.3,3.57a50.82,50.82,0,0,1,18.89-3.66c11.53,0,17.13,6,17.13,18.49v7.36Zm.54,31.9c-10.2,0-16.05-5.61-16.05-15.38,0-6.2,3-13.6,17.15-13.6H125.8v19.41l-.51.59C121.46,338.5,114.65,343.14,107,343.14Zm1.1-24.84c-11.66,0-13,5.4-13,9.46,0,7.45,4,11.23,11.91,11.23,5.92,0,11.33-3.52,14.62-7V318.3Z"/><path class="cls-2" d="M263,342.7a47.4,47.4,0,0,1-22.12,5.83c-16.83,0-29-9.91-29-34.6,0-22.54,12.35-34.62,29-34.62,7.61,0,15.75,1.63,21.72,5.29l-3,7.33c-5.15-3-11.4-4.33-18.19-4.33-11.94,0-19.26,9.49-19.26,26.33,0,18.71,7.32,26.59,19.26,26.59A37.5,37.5,0,0,0,260.58,335Z"/><path class="cls-2" d="M240.9,350.6c-11.62,0-31.11-4.77-31.11-36.67,0-22.29,12.21-36.69,31.11-36.69,8.69,0,17,2,22.8,5.59l1.5.92-4.54,11.16-2.06-1.19c-4.66-2.69-10.43-4.05-17.16-4.05-10.93,0-17.19,8.84-17.19,24.26,0,16.5,5.62,24.52,17.19,24.52a35.51,35.51,0,0,0,18.07-5.26l2.25-1.36,3.74,11.85-1.46.82A49.49,49.49,0,0,1,240.9,350.6Zm0-69.22c-16.63,0-27,12.47-27,32.55,0,21.28,9.33,32.53,27,32.53a45.14,45.14,0,0,0,19.63-4.78L259.37,338a38.84,38.84,0,0,1-17.93,4.58c-9.73,0-21.33-5-21.33-28.66,0-17.79,8-28.4,21.33-28.4A39.35,39.35,0,0,1,258.58,289l1.43-3.53C255,282.87,248.1,281.38,240.9,281.38Z"/><path class="cls-2" d="M275.64,280.86h10v66.5h-10v-66.5Zm-.95-26.2h11v10.86h-11Z"/><path class="cls-2" d="M287.75,349.43H273.57V278.79h14.18Zm-10-4.14h5.9V282.93h-5.9Zm10-77.7H272.62v-15h15.13Zm-11-4.14h6.85v-6.72h-6.85Z"/><path class="cls-1" d="M588.74,98a131,131,0,0,1,30.36,14.27l10.82-12.39L638,124.43a194.15,194.15,0,0,1,27.8,23.35l-24.15-1.66,2.21,39.39-19.77-38.6L592,150.07l18.92-24A114.86,114.86,0,0,0,588.74,98"/><path class="cls-1" d="M688.39,219.21l-15,3.66L661.18,202a139.77,139.77,0,0,1,1,24L645,232.18,661.77,242l-2.28,24,12.6-17.53,13.88,12L678.4,237Z"/><polygon class="cls-1" points="686.9 176.73 676.66 179.77 689.5 185.39 694.23 200.79 696.17 191.7 704.61 199 697.73 183.37 700.31 172.94 691.48 175.31 680.84 163.87 686.9 176.73"/><path class="cls-1" d="M722.2,272.11l10.33-14.75-10.78-6.51c-.74-14-2.79-25.94-6.32-35.44.53,10.58-2.86,31.5-2.86,31.5a50.09,50.09,0,0,0-18.46-5.45c5.84,6.11,10.52,14.33,13.87,24.42-3.07,11.94-7,21.54-11.9,28.61l17.55-12.91s4.42,15.08,4.59,23.52q4-13.69,4-33"/><path class="cls-1" d="M700.47,327.22c-2,3.18-5.65,6.28-10.74,9.55,4.06-.82,6.86-.88,8.7-.46a77.16,77.16,0,0,1-3.61,14.24l8.3-14.65,7-1.26-2.48-9.47,6.61-15.25A61.76,61.76,0,0,1,706,320.71l-4.38-7.84Z"/><path class="cls-1" d="M621,198.5l5.77,15.41,3-9.56A90.13,90.13,0,0,1,643.36,214L631.25,199.2l1.47-8.07H624l-13.86-12.46,7.57,12.41-11.47.43Z"/><path class="cls-1" d="M415.54,350.9c-27.6,0-45.12-19.88-45.12-48.15s17.52-48.16,45.12-48.16c17.38,0,29,6.18,36.29,17.49l-14.19,7.74c-5.48-7.59-11.13-11.22-22.1-11.22-18.59,0-28.65,13.22-28.65,34.15S397,336.9,415.54,336.9c11.12,0,18-4,23.48-11.62L452.28,333c-7.63,11.48-20.58,17.88-36.74,17.88"/><path class="cls-1" d="M510.44,349.43v-39.6c0-14.14-6.08-19.22-16.45-19.22-10.53,0-16.45,6.57-16.45,17.87v40.95H461.81v-90l15.73-7.21v33.87c3.93-5.07,11.89-8.14,20.1-8.14,18.62,0,28.52,10.68,28.52,31.33v40.16Z"/><polygon class="cls-1" points="567.27 349.43 567.27 259.42 582.97 252.21 582.97 349.43 567.27 349.43"/><polygon class="cls-1" points="539.03 279.77 539.03 272.92 554.73 265.71 554.73 279.77 539.03 279.77"/><path class="cls-1" d="M626.66,290.36c-10.52,0-16.91,6.38-18.3,17.6h37.19c-.76-9.63-5.95-17.6-18.89-17.6M661,319.29H608.06c1.69,13.47,10.36,19.2,20.12,19.2,6.71,0,12-2.14,17.37-5.61l9.32,8.79c-7,5.9-15.39,9.23-27.59,9.23-18.77,0-34.62-13.21-34.62-36.42,0-23.71,14.32-36.53,35.06-36.53,22.71,0,33.69,16.14,33.69,35.07a54.93,54.93,0,0,1-.46,6.27"/><rect class="cls-1" x="539.05" y="284.79" width="15.7" height="64.64"/><rect class="cls-1" x="84.03" y="438.07" width="235.09" height="7.25"/><rect class="cls-2" x="319.12" y="438.08" width="338.75" height="7.26"/></svg>