<?xml version="1.0" encoding="utf-8"?>
<!-- Generator: Adobe Illustrator 27.2.0, SVG Export Plug-In . SVG Version: 6.00 Build 0)  -->
<svg version="1.1" id="Capa_1" xmlns="http://www.w3.org/2000/svg" xmlns:xlink="http://www.w3.org/1999/xlink" x="0px" y="0px"
	 viewBox="0 0 409.6 123" style="enable-background:new 0 0 409.6 123;" xml:space="preserve">
<style type="text/css">
	.st0{fill:#132B3F;}
	.st1{fill:#C9AE83;}
	.st2{fill:#FFFFFF;}
</style>
<g id="Group_18">
	<g id="Capa_1-2">
		<g id="Group_16">
			<g id="Group_10">
				<g id="Path_146">
					<path class="st0" d="M62.5,1.5c-33.1,0-60,26.8-60,60s26.9,60,60,60s60-26.9,60-60S95.6,1.5,62.5,1.5z M62.5,118.6
						c-31.6,0-57.1-25.6-57.1-57.1S30.9,4.4,62.5,4.4s57.1,25.6,57.1,57.1S94.1,118.6,62.5,118.6z"/>
				</g>
				<g id="Ellipse_11">
					<circle class="st1" cx="62.5" cy="61.5" r="57.1"/>
				</g>
				<g id="Group_8">
					<g id="Group_7">
						<g id="Group_4">
							<g id="Path_147">
								<path class="st0" d="M49.2,86.5h2.5l-1.3,3.9C50.4,90.4,49.2,86.5,49.2,86.5z"/>
							</g>
							<g id="Path_148">
								<path class="st0" d="M51.7,94.4h-2.5l1.3-3.9C50.4,90.4,51.7,94.4,51.7,94.4z"/>
							</g>
							<g id="Path_149">
								<path class="st0" d="M46.5,91.8v-2.5l3.9,1.3L46.5,91.8L46.5,91.8L46.5,91.8z"/>
							</g>
							<g id="Path_150">
								<path class="st0" d="M54.3,89.2v2.5l-3.9-1.3L54.3,89.2L54.3,89.2L54.3,89.2z"/>
							</g>
						</g>
						<g id="Group_5">
							<g id="Path_151">
								<path class="st0" d="M60.5,86.4H63l-1.3,3.9C61.7,90.3,60.5,86.4,60.5,86.4z"/>
							</g>
							<g id="Path_152">
								<path class="st0" d="M63,94.2h-2.5l1.3-3.9L63,94.2L63,94.2L63,94.2z"/>
							</g>
							<g id="Path_153">
								<path class="st0" d="M57.8,91.6v-2.5l3.9,1.3L57.8,91.6z"/>
							</g>
							<g id="Path_154">
								<path class="st0" d="M65.6,89.1v2.5l-3.9-1.3L65.6,89.1L65.6,89.1L65.6,89.1z"/>
							</g>
						</g>
						<g id="Group_6">
							<g id="Path_155">
								<path class="st0" d="M71.7,86.6h2.5L73,90.5C73,90.5,71.7,86.6,71.7,86.6z"/>
							</g>
							<g id="Path_156">
								<path class="st0" d="M74.2,94.4h-2.5l1.3-3.9L74.2,94.4z"/>
							</g>
							<g id="Path_157">
								<path class="st0" d="M69,91.8v-2.5l3.9,1.3L69,91.8z"/>
							</g>
							<g id="Path_158">
								<path class="st0" d="M76.9,89.3v2.5L73,90.5L76.9,89.3z"/>
							</g>
						</g>
					</g>
					<g id="Path_159">
						<path class="st0" d="M64.9,70.9c0,0,0,0.1,0,0.1c0.1,0.9,0.1,2,0.1,2.9c0,0.7,0.2,1.4,0.4,2.1c0.2,0.8,0.6,1.5,1.2,2.1
							c0.5,0.6,1.1,1.1,1.8,1.5l7.2,4.8c0.1,0.2,0,0.2,0,0.2h-3.5c-0.3,0-0.4-0.1-0.4-0.1c-0.6-0.3-2.2-1.7-3.4-2.3
							c0,0-4.6-3.3-4.7,2.4l-3.2,0v-0.1c0,0-0.3-5.9-5.2-2.5l-3.6,2.3l-0.6,0.4h-3.7c-0.1-0.2,0-0.5,0.2-0.6c0,0,5.3-2.7,6.3-3.5
							c0.2-0.2,2-1.6,2.2-1.9c0.5-0.5,0.9-1,1.2-1.5c0.2-0.3,0.3-0.6,0.5-0.9c0.2-0.3,0.3-0.6,0.4-0.9c0.3-0.9,0.5-1.9,0.6-2.8
							c0-0.2,0-0.4,0-0.6s0-0.5,0-0.7c0-0.2,0-0.3,0-0.5l0,0c0-0.9,0-1.7,0-2.6c0-0.4,0-0.8,0-1.2c0.1-0.8-1.1-1.6-1.1-1.6l-1.7-1.1
							c-1.2,1.4-2.6,2.5-4.3,3.3c0.1,0.1,0.2,0.2,0.3,0.2c0.2,0.1,0.3,0.1,0.5,0.1c0.3,0.1,0.6,0.5,0.6,0.8c0,0.1,0,0.2,0,0.2
							c-0.1,0.3-0.4,0.5-0.7,0.4h0c-0.7-0.3-0.6-0.8-0.6-1.2c0-0.2-0.1-0.4-0.2-0.5c-0.5,0.2-1.1,0.3-1.7,0.3H49v0.2
							c0.1,0.3,0.5,0.3,1,0.6c0.5,0.3,0.4,0.6,0.8,0.7c0.3,0.1,0.5,0,0.8,0.1c0.1,0.1,0.3,0.2,0.4,0.3c0.2,0.4,0.1,0.9-0.2,1.2
							c-0.1,0.1-0.3,0.1-0.4,0.1c-0.3,0-0.7-0.1-0.9-0.4c-0.2-0.3-0.2-0.6-0.1-0.9l0.1-0.1c0,0,0-0.2-0.1-0.3
							c-0.3-0.5-0.8-0.9-1.4-1c0,0.2,0,0.3,0,0.5c0,0.1,0,0.1,0.1,0.2c0.1,0.1,0.2,0.1,0.3,0.2c0.3,0.1,0.5,0.3,0.6,0.6
							c0,0.3,0,0.5-0.2,0.8c0,0.1-0.1,0.2-0.2,0.2c-0.1,0-0.2,0.1-0.3,0.1c-0.2,0-0.4,0-0.5-0.1c-0.2-0.1-0.3-0.2-0.5-0.4
							c-0.1-0.2-0.1-0.5,0.1-0.7c0.1-0.3,0.4-0.4,0.5-0.8v-0.1c0-0.4,0-0.7-0.2-1.1c0,0,0-0.1-0.1-0.1c-0.2,0-0.5,0-0.6-0.1
							c-0.1,0.2-0.3,0.3-0.5,0.5c-0.2,0.1-0.5,0.3-0.7,0.4c0.1,0.3-0.1,0.7-0.3,0.9c-0.3,0.2-0.7,0.2-1,0c-0.1-0.1-0.2-0.2-0.3-0.4
							C45,69,45,68.9,45,68.7c0.1-0.3,0.3-0.5,0.6-0.6c0.3,0,0.6,0,0.9,0.2c0.1,0,0.1,0.1,0.2,0.1c0.1,0,0.1,0,0.2,0
							c0.3-0.1,0.5-0.2,0.7-0.3c0.1-0.1,0.1-0.1,0.1-0.2c-0.2,0-0.5-0.1-0.6-0.1c-0.1,0-0.1,0-0.2,0c-0.1,0-0.2,0.1-0.4,0.1
							c-0.3,0.1-0.6,0.1-0.8,0c-0.2-0.1-0.3-0.3-0.4-0.5c0-0.2,0-0.4,0.1-0.6c0.2-0.2,0.4-0.2,0.6-0.1c0.2,0.1,0.3,0.2,0.5,0.3
							c0.1,0.1,0.2,0.2,0.2,0.2c0,0,0.1,0,0.1,0.1c0.1,0,0.2,0.1,0.3,0.1l0.1,0c0.2,0,0.4,0.1,0.7,0.1c-0.1-0.1-0.1-0.2-0.1-0.3
							c0,0-0.1-0.1-0.1-0.1c-0.1,0-0.2,0-0.3,0c-0.3,0.1-0.7,0-0.9-0.3s-0.3-0.6-0.2-0.9c0.1-0.3,0.5-0.5,0.8-0.4
							c0.2,0.1,0.3,0.2,0.4,0.3c0.1,0.2,0.2,0.5,0.2,0.7c0,0.1,0,0.2,0,0.3c0.1,0.3,0.2,0.4,0.5,0.7h0c0.6,0,1.2,0,1.8-0.1
							C50.1,67.2,50,67,50,67s-0.1-0.1-0.1-0.1c-0.1,0-0.2,0-0.3,0c-0.3,0.1-0.7,0-0.9-0.3c-0.2-0.2-0.3-0.6-0.2-0.9
							s0.5-0.5,0.8-0.4c0.2,0.1,0.3,0.2,0.4,0.3c0.1,0.2,0.2,0.5,0.2,0.7c0,0.1,0,0.2,0,0.3l0.5,0.7c0,0,0.1,0,0.2,0l0.2,0
							c0.6-0.2,1.1-0.5,1.5-0.8c0-0.1,0-0.1,0-0.2c0,0-0.1-0.1-0.2-0.1c-0.2,0-0.4-0.1-0.6-0.1c-0.1-0.1-0.2-0.2-0.3-0.2
							c-0.3-0.3-0.5-0.6-0.8-0.9c-0.1,0.1-0.3,0.1-0.4,0.1c-0.1,0-0.3-0.1-0.4-0.1c-0.1-0.1-0.3-0.2-0.4-0.3
							c-0.1-0.2-0.2-0.4-0.1-0.6c0-0.2,0.1-0.5,0.3-0.7c0.1-0.1,0.3-0.1,0.4-0.1c0.3,0,0.7,0.1,0.9,0.4c0.2,0.3,0.2,0.6,0.1,0.9
							l-0.1,0.1c0,0,0,0.2,0.1,0.3c0.3,0.5,0.8,0.9,1.4,1c0-0.2,0-0.3,0-0.5c0-0.1,0-0.1-0.1-0.2c-0.1-0.1-0.2-0.1-0.3-0.2
							c-0.3-0.1-0.5-0.3-0.6-0.6c-0.1-0.3,0-0.6,0.2-0.8c0.2-0.2,0.5-0.3,0.8-0.2c0.2,0,0.5,0.1,0.6,0.3c0.1,0.1,0.1,0.3,0.1,0.4
							c0,0.4-0.2,0.8-0.6,1.1c0,0,0,0-0.1,0.1v0.1c0,0.3,0,0.6,0.1,0.8c0.8-0.8,1.4-1.8,1.8-2.8c-1.6-0.7-3.3-1.2-5-1.5
							c-2.5-0.7-4.7-2.2-6.2-4.4c-0.3-0.5-0.7-1-1.1-1.5c-0.9-0.9-2-1.6-3.2-2.1c0,0.2,0,0.4,0.1,0.5c0.2,0.6,0.5,1.1,1,1.5
							c0,0,0.1,0,0.1,0s0.1,0,0.1,0c0.2-0.1,0.5-0.1,0.8,0c0.4,0.2,0.7,0.7,0.6,1.2c-0.1,0.2-0.2,0.3-0.3,0.4
							c-0.3,0.2-0.6,0.2-0.9,0c-0.5-0.3-0.5-0.8-0.4-1.3v-0.1c0,0,0,0,0,0c-0.1-0.1-0.4-0.3-0.5-0.3s-0.3,0.2-0.3,0.4
							c-0.1,0.2-0.1,0.5,0,0.7c0.1,0.1,0.1,0.1,0.2,0.2c0.3,0.3,0.5,0.6,0.5,1c0,0.3,0,0.5-0.2,0.7C39.3,58.9,39.1,59,39,59
							c-0.3,0-0.6-0.1-0.9-0.3c-0.3-0.3-0.4-0.7-0.2-1.1c0.2-0.3,0.6-0.3,0.7-0.7c0-0.1,0-0.2,0-0.3c-0.5,0.1-1,0.3-1.5,0.5
							c-0.1,0-0.3,0.1-0.4,0.2c-0.3,0.3,0,0.8-0.1,1.2c-0.1,0.5-0.6,0.7-1,0.6c-0.5-0.1-0.8-0.4-1-0.8c-0.1-0.3-0.2-0.6-0.1-0.9
							c0.2-0.3,0.5-0.6,0.9-0.6c0.3-0.1,0.5,0,0.8,0.1c0.1,0,0.1,0.1,0.2,0c0.3-0.1,0.5-0.2,0.8-0.3c0.4-0.1,0.9-0.2,1.3-0.4
							c0.3-0.2,0.5-0.6,0.5-0.9c-0.1-0.2-0.1-0.5-0.2-0.7c-0.1-0.2-0.1-0.4-0.1-0.6h-0.9c-0.2,0-0.4,0-0.6,0.1
							c-0.1,0.1-0.2,0.3-0.3,0.5c0,0.1,0,0.1-0.1,0.2v0.1c0,0.1,0,0.3,0,0.4c-0.1,0.3-0.2,0.5-0.3,0.8c-0.1,0.2-0.2,0.3-0.4,0.4
							c-0.4,0.1-0.8,0-1-0.4c-0.2-0.3-0.1-0.8,0.1-1.1c0.1-0.2,0.3-0.3,0.5-0.3c0.4-0.1,0.8,0.1,0.9-0.1c0-0.1,0-0.1,0.1-0.2
							c0-0.1,0.1-0.2,0.1-0.2c-0.5,0-1,0.1-1.5,0.3c-0.3,0.1-0.7,0.3-1,0.6c0,0-0.1,0.1-0.1,0.1c0,0,0,0.1,0,0.1c0,0,0,0.1,0,0.1
							c0.1,0.2,0,0.5-0.2,0.7c-0.2,0.5-0.8,0.7-1.3,0.5c-0.3-0.1-0.5-0.3-0.5-0.6c-0.1-0.3,0.1-0.6,0.3-0.8c0.2-0.1,0.4-0.2,0.7-0.3
							c0.1,0,0.3-0.1,0.5-0.1c0.2-0.1,0.4-0.2,0.6-0.3c0-0.8-0.3-1-0.5-1.2c-0.2-0.1-0.3-0.1-0.5-0.2c-0.2-0.1-0.3-0.3-0.4-0.5
							c-0.1-0.5,0.1-1,0.6-1.2c0.2-0.1,0.4,0,0.6,0c0.2,0.1,0.4,0.3,0.5,0.6c0.1,0.2,0,0.5-0.1,0.7c-0.1,0.2-0.2,0.2-0.3,0.3
							c-0.1,0.1-0.1,0.3,0.2,0.7c0.5-0.4,0.8-0.9,0.8-1.5c0-0.1,0-0.2,0-0.3c0,0-0.1-0.1-0.1-0.1c-0.3-0.2-0.4-0.6-0.3-0.9
							c0.1-0.3,0.3-0.6,0.6-0.7c0.1-0.1,0.3-0.1,0.4-0.1c0.2,0.1,0.5,0.2,0.6,0.5c0.1,0.2,0.2,0.4,0.1,0.6c0,0.2-0.1,0.3-0.2,0.4
							c-0.3,0.3-0.5,0.3-0.7,0.5c-0.2,0.3-0.3,0.6-0.4,0.9c-0.1,0.3-0.3,0.6-0.5,0.8l0,0c-0.1,0.1-0.2,0.1-0.2,0.2
							c0,0.1,0,0.1,0.1,0.2h0c0,0,0.1-0.1,0.2-0.1h0l0.1,0c0,0,0,0,0.1,0c1-0.4,2.1-0.7,3.1-0.8c0.1-0.2,0.1-0.6-0.2-0.7
							c-0.1,0-0.1-0.1-0.2-0.1c-0.2-0.1-0.4-0.4-0.5-0.6c-0.1-0.3,0-0.7,0.3-0.9c0.3-0.2,0.7-0.2,0.9,0.1c0.1,0.1,0.2,0.3,0.2,0.5
							c0,0.2,0,0.5,0,0.7c0,0.1-0.1,0.2-0.1,0.3c0,0-0.1,0.1-0.1,0.1c0,0.1,0,0.1,0,0.2c0,0.1,0,0.3,0.1,0.5h0.1
							c1.2,0.1,2.3,0.4,3.3,0.9c0-0.7-0.3-1.3-0.7-1.8c-0.3-0.1-0.7-0.3-0.9-0.5c-0.3-0.3-0.5-0.7-0.6-1.1c0-0.3,0-0.6,0-0.8
							c0-0.1-0.1-0.2-0.1-0.2c0-0.2,0.2-0.3,0.3-0.5c0.1-0.2,0.1-0.6,0.2-0.8s0.4-0.4,0.6-0.6c0.1-0.1,0.3-0.3,0.5-0.3
							c0.1,0,0.2,0.1,0.3,0.2c0.2,0.1,0.4,0.1,0.6,0.2s0.2,0.3,0.3,0.5s0.3,0.2,0.4,0.4c0,0.1,0,0.2,0,0.4c0,0.2,0.2,0.3,0.3,0.4
							c0,0.2,0,0.3,0,0.5c0,0.2,0.2,0.4,0.2,0.6c0,0.2-0.3,0.4-0.3,0.7c0,0.1,0,0.2-0.1,0.2c-0.1,0.2-0.1,0.3-0.3,0.5l0,0
							c0,1.5,0.4,3.1,1.3,4.4c1.6,2.6,6.2,4.1,9.1,4.2c0.7-2.2,0.3-4.5-0.9-6.4c-0.1,0.1-0.2,0.1-0.3,0.2c-0.2,0.2-0.4,0.5-0.5,0.9
							c-0.1,0.3-0.1,0.7,0,1c0,0,0,0.1,0,0.1c0,0,0.1,0,0.1,0.1c0.3,0.1,0.5,0.3,0.6,0.6c0.2,0.5,0,1.1-0.4,1.4
							c-0.2,0.1-0.4,0.1-0.6,0.1c-0.3-0.1-0.6-0.3-0.7-0.7c-0.2-0.6,0.3-1,0.7-1.4c0,0,0,0,0.1-0.1v-0.1c0-0.2-0.1-0.6-0.2-0.7
							s-0.4,0-0.6,0c-0.2,0.1-0.5,0.2-0.6,0.5v0.3c0,0.4-0.1,0.9-0.4,1.2C49,57.9,48.7,58,48.4,58c-0.2,0-0.4-0.1-0.5-0.2
							c-0.3-0.2-0.5-0.6-0.5-0.9c0-0.4,0.2-0.7,0.5-0.9c0.4-0.2,0.9-0.2,1.3-0.1c0.1-0.2,0.1-0.1,0.1-0.4c-0.5-0.3-0.9-0.5-1.4-0.8
							c-0.1-0.1-0.3-0.1-0.5-0.1c-0.5,0-0.7,0.6-1,0.9c-0.5,0.3-1,0.1-1.3-0.3c-0.3-0.4-0.3-1-0.1-1.5c0.1-0.3,0.3-0.6,0.7-0.8
							c0.7-0.2,1.5,0.2,1.7,0.9c0,0,0,0.1,0.1,0.1c0,0,0,0,0.1,0.1c0.3,0.1,0.6,0.3,0.9,0.4c0.5,0.2,0.9,0.5,1.4,0.7
							c0.3,0.1,0.7,0.1,1-0.2c0.1-0.2,0.4-0.7,0.6-0.9c0.1-0.1,0.3-0.2,0.4-0.3c-0.2-0.3-0.4-0.5-0.6-0.7c-0.3-0.1-0.7-0.1-1,0.1
							c-0.1,0.1-0.2,0.1-0.3,0.2c-0.2,0.2-0.5,0.3-0.8,0.3c-0.2,0-0.4,0-0.6-0.1c-0.3-0.2-0.5-0.6-0.3-1c0.2-0.3,0.5-0.6,0.9-0.6
							c0.4,0,0.7,0.2,1,0.6c0.1,0.1,0.1,0.2,0.3,0.2c0.1,0,0.2,0,0.3-0.1c0.1,0,0.2-0.1,0.2-0.1c-1.2-1.1-2.6-1.8-4.1-2.2
							c-0.1,0-0.1,0-0.2,0c-0.1,0-0.3,0.1-0.4,0.2c-0.2,0.1-0.3,0.2-0.6,0.3c-0.5,0.1-1,0-1.3-0.4c-0.1-0.2-0.2-0.4-0.3-0.6
							c-0.1-0.3,0-0.7,0.2-0.9c0.3-0.3,0.7-0.3,1-0.2c0.3,0.1,0.5,0.2,0.7,0.5c0.1,0.2,0.3,0.3,0.6,0.4h0c0.5,0.2,1,0.4,1.5,0.6
							c0-0.3,0-0.6-0.1-0.9c0,0,0,0,0-0.1c0,0,0,0-0.1,0c-0.4-0.2-0.7-0.5-0.8-0.9c0-0.1,0-0.2,0-0.3c0.1-0.4,0.5-0.7,0.9-0.7
							c0.2,0,0.3,0.1,0.5,0.2c0.2,0.2,0.3,0.4,0.3,0.7c0,0.3-0.2,0.6-0.4,0.7c-0.1,0.1-0.2,0.1-0.2,0.2c0,0.1,0,0.1,0,0.2
							c0,0.2,0,0.3,0.1,0.5c0.5-0.3,0.9-0.7,1.2-1.3c0.1-0.1,0.1-0.2,0-0.3c0,0,0-0.1-0.1-0.1c-0.2-0.3-0.2-0.6-0.1-0.9
							c0.1-0.3,0.4-0.5,0.8-0.5c0.1,0,0.3,0,0.4,0c0.2,0.1,0.4,0.3,0.5,0.6c0.1,0.2,0.1,0.4,0,0.6c-0.1,0.1-0.2,0.3-0.3,0.4
							c-0.2,0.2-0.5,0.2-0.8,0.2c-0.2,0.3-0.3,0.6-0.6,0.9c-0.1,0.1-0.2,0.3-0.3,0.4c-0.1,0.1-0.3,0.2-0.5,0.3
							c-0.1,0-0.1,0.1-0.1,0.1c0,0.1,0,0.2,0.1,0.3c0.7,0.3,1.3,0.7,1.9,1.2c0.1-0.1,0.2-0.1,0.3-0.2c0.1-0.1,0.1-0.2,0.1-0.2
							c0-0.1,0-0.3,0-0.4c-0.1-0.3-0.1-0.7,0-1.1c0.2-0.3,0.5-0.6,0.9-0.5c0.4,0,0.7,0.4,0.7,0.8c0,0.2-0.1,0.4-0.2,0.6
							c-0.2,0.2-0.4,0.4-0.7,0.5c-0.1,0-0.2,0.1-0.3,0.1c-0.3,0.2-0.4,0.5-0.5,0.8c0.5,0.4,1,0.8,1.4,1.2c0.2,0.2,0.4,0.5,0.6,0.7
							c0-0.1,0.1-0.1,0.1-0.2c0-0.1,0-0.1,0-0.2c0-0.1-0.1-0.2-0.2-0.3c-0.2-0.3-0.4-0.6-0.4-1c0-0.4,0.3-0.7,0.7-0.8
							c0.4-0.1,0.7,0.1,0.9,0.5c0.1,0.2,0.1,0.4,0,0.6c-0.1,0.3-0.2,0.5-0.5,0.7c-0.1,0.1-0.2,0.1-0.3,0.2c-0.2,0.2-0.2,0.5-0.2,0.8
							c0.4,0.7,0.8,1.4,1.1,2.2c0.3,0.7,0.5,1.5,0.7,2.2c0.4,0,0.7-0.4,0.8-0.8c0-0.5,0-1,0-1.6c0-0.3,0-0.6,0-1v-0.1
							c0,0,0-0.1-0.1-0.1c-0.5-0.6-0.5-1.4,0-2c0.3-0.2,0.7-0.3,1-0.2c0.5,0,1,0.3,1.2,0.8c0.2,0.5,0.1,1-0.3,1.3
							c-0.4,0.2-1,0.1-1.3,0.5C56,55.6,56,55.8,56,55.9v1.6c0.2,0,0.2,0,0.4,0c0.1-0.5,0.3-0.9,0.7-1.2c0.3-0.2,0.7-0.2,1,0
							c0.3,0.2,0.5,0.5,0.6,0.9c0.1,0.2,0,0.4,0,0.6c-0.1,0.3-0.4,0.5-0.7,0.5c-0.4,0.1-0.9,0-1.3-0.2c-0.1-0.1-0.2-0.1-0.3-0.1
							c-0.3,0-0.5,0.1-0.7,0.3c-0.1,0.1-0.3,0.3-0.3,0.5c0.1,0.2,0.4,0.4,0.5,0.5c0,0,0,0,0.1,0h0.1c0.5-0.2,1.1-0.4,1.5,0
							c0.2,0.2,0.3,0.6,0.2,0.9c0,0.2-0.1,0.4-0.3,0.5c-0.5,0.2-1.1,0.1-1.4-0.3c-0.2-0.2-0.3-0.5-0.3-0.8v-0.1c0,0,0-0.1-0.1-0.1
							c-0.3-0.2-0.6-0.4-0.9-0.5l0,0c0.1,0.7,0.2,1.3,0.3,1.8c1.4,0.3,2.8,0.8,4.1,1.5c0,0,0.8-9.6,0.6-11.9c-0.8-1-1.7-2-2.7-2.8
							c-1.1-0.8-2.9-2.1-2.9-2.1c-1.8,0.1-3.7-0.3-5.3-1.1c-0.1,0-0.1,0.1-0.1,0.1c0,0-0.1,0.1-0.1,0.1c0,0-0.1,0.1-0.1,0.1
							c0,0,0,0.1,0,0.1c0,0.1-0.1,0.2-0.1,0.3c-0.1,0.2-0.3,0.4-0.5,0.5c-0.4,0.2-0.9,0-1.1-0.4c0-0.3,0.1-0.6,0.4-0.8
							c0.2-0.1,0.5-0.1,0.7-0.1c0.1,0,0.1,0.1,0.2,0.1c0.1,0,0.2,0.1,0.2,0.1c0,0,0.1-0.1,0.1-0.1c0-0.1,0.1-0.1,0.1-0.2
							c-0.6-0.3-1.2-0.8-1.7-1.3c-0.1,0.1-0.2,0.1-0.2,0.2c-0.1,0-0.1,0.1-0.2,0.1c0,0-0.1,0.1-0.1,0.1c0,0,0,0.1,0,0.1
							c0,0.1-0.1,0.2-0.1,0.3c-0.1,0.2-0.3,0.4-0.6,0.6c-0.1,0.1-0.3,0.2-0.5,0.2c-0.4,0-0.7-0.3-0.8-0.7c0-0.4,0.1-0.7,0.5-0.9
							c0.3-0.1,0.6-0.2,0.9-0.1c0.1,0,0.2,0.1,0.3,0.1c0.1,0,0.2,0.1,0.3,0.1c0,0,0.1-0.1,0.1-0.1c0.1-0.1,0.2-0.3,0.3-0.4
							c-0.8-0.9-1.4-1.8-1.9-2.9c0,0-0.1,0-0.1,0.1c0,0.1,0,0.1,0,0.2c0,0.2,0,0.4,0,0.6c0,0.1,0,0.2-0.1,0.3
							c-0.2,0.3-0.3,0.6-0.6,0.9c0.1,0.1,0.2,0.2,0.2,0.3c0,0.1,0,0.3,0,0.4c-0.1,0.3-0.3,0.6-0.6,0.7c-0.2,0.1-0.5,0-0.7-0.1
							c-0.1-0.1-0.2-0.2-0.2-0.3c-0.1-0.3-0.1-0.6,0.1-0.9c0.2-0.3,0.5-0.4,0.8-0.4h0.1c0,0,0.2-0.1,0.2-0.2c0.3-0.4,0.5-1,0.5-1.5
							c-0.2,0-0.3,0.1-0.5,0.1c0,0-0.1,0.1-0.1,0.1c-0.1,0.1-0.1,0.2-0.1,0.3c0,0.3-0.1,0.5-0.4,0.7c-0.2,0.1-0.5,0.2-0.7,0.1
							c-0.1-0.1-0.3-0.2-0.4-0.3c-0.1-0.2-0.1-0.3-0.1-0.5c0-0.2,0.1-0.4,0.2-0.5c0.1-0.1,0.2-0.1,0.3-0.2c0.4-0.1,0.8-0.1,1.1,0.2
							c0,0,0,0,0.1,0h0.1c0.3-0.1,0.6-0.2,0.8-0.4c-0.1-0.3-0.2-0.6-0.2-0.9c0-0.3-0.1-0.6-0.1-0.8c-0.1-0.2-0.2-0.3-0.2-0.5
							c-0.1-0.2-0.2-0.5-0.2-0.8c0-0.3,0.1-0.7,0.5-0.9c0.3-0.1,0.6-0.1,0.9,0c0.2,0.1,0.3,0.2,0.5,0.4c0.2,0.3,0.2,0.8,0.1,1.1
							c-0.1,0.2-0.1,0.3-0.3,0.4c-0.2,0.2-0.3,0.2-0.4,0.3c-0.2,0.3-0.2,0.6-0.1,0.9c0.2,0.9,0.6,1.8,1,2.6c0.1-0.1,0.1-0.2,0.2-0.3
							c0-0.1,0.1-0.1,0.1-0.2c0,0-0.2-0.2-0.2-0.2c-0.1-0.1-0.1-0.1-0.2-0.2c-0.2-0.2-0.3-0.5-0.2-0.8c0-0.3,0.3-0.7,0.6-0.8
							c0.3-0.1,0.7,0.1,0.9,0.4c0.1,0.2,0.1,0.4,0,0.5c-0.1,0.2-0.2,0.5-0.3,0.7c-0.1,0.1-0.1,0.2-0.2,0.3c0,0-0.1,0-0.1,0.1
							c0,0-0.1,0.1-0.1,0.1c-0.1,0.1-0.1,0.2-0.1,0.4c0,0.1,0,0.2,0.3,0.6c0.2,0.2,0.5,0.4,0.7,0.6c0.2-0.2,0.5-0.4,0.7-0.6
							c0.6-0.6,0.6-0.8,0.6-1c0-0.4-0.3-0.5-0.6-1.2c-0.1-0.2-0.2-0.5-0.3-0.7c0,0,0,0,0-0.1c0,0-0.1,0-0.1,0
							c-0.2-0.1-0.4-0.2-0.6-0.5c-0.2-0.3-0.3-0.6-0.1-0.9c0.1-0.2,0.4-0.5,0.7-0.5c0.4-0.1,0.8-0.1,1.2,0.1
							c0.3,0.2,0.4,0.7,0.2,1.1c-0.2,0.3-0.7,0.5-0.7,0.8c0,0.1,0,0.3,0.1,0.4c0.2,0.4,0.4,0.8,0.6,1.2c0.2-0.1,0.1,0,0.3-0.1
							c-0.1-0.3-0.1-0.7,0.1-1.1c0.2-0.2,0.5-0.4,0.7-0.4c0.3,0,0.6,0.2,0.8,0.4c0.1,0.1,0.2,0.3,0.2,0.4c0,0.2-0.1,0.5-0.3,0.6
							c-0.3,0.2-0.6,0.3-1,0.3h-0.2C49.2,40.9,49,41,49,41.2c0,0.1-0.1,0.3,0,0.5c0.1,0.1,0.4,0.1,0.5,0.1h0.1c0,0,0,0,0.1,0
							c0.3-0.3,0.7-0.7,1.1-0.5c0.3,0.1,0.5,0.3,0.5,0.6c0,0.1,0,0.3,0,0.5c-0.3,0.3-0.7,0.5-1.1,0.3c-0.2-0.1-0.4-0.3-0.5-0.5
							c0,0,0-0.1,0-0.1c0,0-0.1,0-0.1,0c-0.4-0.1-0.8,0-1.2,0.1c-0.2,0.1-0.5,0.3-0.6,0.6c0.2,0.1,0.4,0.2,0.7,0.4
							c1.2,0.8,2.7,1.1,4.1,0.8c-0.9-1.4-1.2-3.2-0.8-4.9c0,0,0.3-0.6,0.4-0.1c0.1,0.6-0.1,1.6,0.1,2.2c0.3,1.2,1,2.2,2,2.9
							c1.2,1,2.5,1.8,4,2.5c0,0,0,0,0.1,0c0.3-1,0.1-2.1-0.4-3c0,0-0.1-0.1-0.1-0.2c-0.2-0.4-0.3-0.5-0.4-0.5c-0.1,0-0.1,0-0.2,0.1
							c-0.1,0.1-0.2,0.1-0.2,0.2l0,0v0c0,0-0.1,0.2-0.1,0.2c-0.1,0.1-0.2,0.3-0.4,0.4c-0.1,0.1-0.2,0.1-0.3,0.1
							c-0.2,0-0.5-0.2-0.5-0.4c0-0.2,0.1-0.5,0.3-0.6c0.2-0.1,0.4-0.1,0.6-0.1c0.1,0,0.1,0,0.2,0.1c0.1,0,0.1,0,0.2,0
							c0.1,0,0.1-0.1,0.1-0.1c0.1-0.1,0.1-0.1,0.2-0.2c-0.3-0.2-0.5-0.4-0.8-0.6c0,0-0.1,0-0.2-0.1c-0.3-0.1-0.6-0.2-0.9-0.3h0
							c-0.1,0.1-0.3,0.2-0.5,0.2c-0.1,0-0.2,0-0.3-0.1c-0.1-0.1-0.2-0.2-0.3-0.3c-0.1-0.1-0.1-0.3,0-0.4c0-0.1,0.1-0.1,0.2-0.1
							c0.2-0.1,0.5-0.1,0.6,0c0.2,0.1,0.3,0.2,0.4,0.4c0.1,0,0.3,0.1,0.4,0.1v0c0-0.1,0-0.3,0-0.5c0-0.3-0.1-0.5-0.2-0.8
							c-0.2-0.3-0.5-0.2-0.6-0.4c-0.1-0.2-0.1-0.5,0-0.8c0.3-0.3,0.7-0.3,1-0.1c0.2,0.1,0.2,0.3,0.2,0.6c0,0.3-0.2,0.3-0.3,0.7
							c-0.1,0.2,0,0.2,0.1,0.7c0,0.2,0,0.5,0,0.7l0.1,0c0.2,0.1,0.4,0.2,0.6,0.3c0.1-0.1,0.1-0.2,0.1-0.3c0.1-0.2,0.1-0.4,0.1-0.7
							c-0.1-0.4-0.2-0.4-0.2-0.7c0-0.2,0.1-0.5,0.3-0.6c0.1,0,0.3-0.1,0.4,0c0.2,0,0.3,0.2,0.4,0.4c0.1,0.2,0.1,0.4,0,0.5
							c-0.1,0.2-0.4,0.1-0.6,0.4c-0.1,0.2,0,0.2-0.2,0.6c-0.1,0.1-0.1,0.3-0.2,0.4c0,0,0,0,0.1,0c0.2,0.1,0.3,0.2,0.5,0.3
							c0.1,0,0.1,0.1,0.2,0.1l0,0c0,0,0.1,0,0.1,0c0,0,0.1-0.1,0.1-0.1c0,0,0-0.1,0.1-0.1c0,0,0-0.1,0-0.1c0-0.1,0-0.2,0.1-0.2
							c0.1-0.1,0.2-0.3,0.3-0.4c0.1-0.1,0.2-0.1,0.3-0.2c0.2,0,0.5,0.2,0.5,0.4c0,0.2-0.1,0.5-0.3,0.6c-0.2,0.1-0.4,0.1-0.6,0.1
							c-0.1,0-0.1,0-0.2-0.1c0,0-0.1,0-0.2,0c0,0-0.1,0.1-0.1,0.1c0,0-0.1,0.1-0.1,0.1c0.3,0.2,0.6,0.5,0.8,0.8c0,0,0.1,0.1,0.1,0.1
							c0.1,0.1,0.2,0.2,0.2,0.3c0.7,1.1,1,2.3,0.9,3.6c0.1,0.1,0.3,0.2,0.4,0.3c0,0,0.5-9.2,0.5-9.7c0.1-0.7,0.1-1.3,0-2
							c-0.3-0.8-0.9-1.5-1.6-2.1l-0.1,0.3c-0.2,0.6,0,1.2,0.3,1.6c0,0,0,0,0.1,0.1h0.1c0.2,0,0.5,0.1,0.7,0.2
							c0.3,0.3,0.4,0.8,0.2,1.2c-0.1,0.1-0.2,0.2-0.4,0.2c-0.3,0.1-0.6,0-0.8-0.2c-0.3-0.3-0.2-0.8,0-1.2v-0.1c0,0,0,0,0,0
							c-0.1-0.1-0.2-0.4-0.4-0.4c-0.1,0-0.3,0.1-0.4,0.2c-0.1,0.1-0.2,0.3-0.2,0.6c0,0.1,0.1,0.2,0.1,0.2c0.2,0.3,0.2,0.7,0.1,1
							c0,0.2-0.2,0.5-0.4,0.6c-0.1,0.1-0.3,0.1-0.5,0c-0.3-0.1-0.5-0.2-0.7-0.5c-0.1-0.3-0.1-0.6,0-0.8c0.2-0.3,0.6-0.5,0.9-0.6
							c0-0.2,0-0.1,0-0.3c-0.4,0-0.9,0-1.3,0c-0.1,0-0.3,0-0.4,0.1c-0.3,0.2-0.2,0.7-0.4,1c-0.2,0.3-0.7,0.5-1.1,0.3
							c-0.4-0.2-0.6-0.6-0.6-1c-0.1-0.3,0-0.6,0.2-0.8c0.2-0.2,0.6-0.3,0.9-0.3c0.2,0,0.5,0.1,0.7,0.3c0,0,0,0,0.1,0.1h0.1
							c0.3,0,0.5,0,0.8,0c0.4,0,0.9,0,1.3,0c0.3,0,0.6-0.4,0.6-0.7c0-0.2,0-0.5,0-0.8c0-0.2,0-0.4,0.1-0.6c-0.2-0.2-0.5-0.3-0.8-0.4
							c-0.3-0.1-0.6-0.3-1-0.4c-0.1,0.2-0.2,0.3-0.4,0.5c-0.1,0.1-0.5,0.3-0.6,0.4c0.1,0.3,0.2,0.7,0,1c-0.1,0.2-0.4,0.3-0.6,0.2
							c-0.2,0-0.5-0.1-0.6-0.3c-0.1-0.1-0.1-0.1-0.2-0.2c0-0.1-0.1-0.2,0-0.3c0-0.3,0.2-0.5,0.5-0.7c0.3-0.1,0.6-0.1,0.8,0
							c0.2-0.1,0.5-0.3,0.7-0.5h0c0,0,0.2-0.2,0.2-0.3c-0.9-0.2-1.8-0.3-2.7-0.2c-0.1,0.2-0.3,0.4-0.6,0.5c-0.2,0.1-0.4,0.1-0.6,0
							c-0.2,0-0.5-0.1-0.7-0.3c-0.2-0.2-0.3-0.4-0.3-0.7c0-0.1,0.1-0.2,0.2-0.3c0.2-0.3,0.6-0.4,1-0.3c0.4,0.1,0.8,0.3,1,0.6
							c0.2,0,0.5,0,0.7-0.1c-0.1-0.2-0.1-0.3-0.1-0.5c0-0.2,0-0.4,0-0.6c0,0,0,0,0,0c-0.3-0.1-0.5-0.3-0.6-0.5c0-0.2,0-0.4,0.2-0.6
							c0.1-0.1,0.3-0.2,0.5-0.3c0.1,0,0.1,0,0.2,0c0.1,0,0.1,0.1,0.2,0.1c0.2,0.2,0.3,0.4,0.2,0.7c0,0.2-0.2,0.5-0.4,0.6
							c0,0.2,0,0.5,0,0.7v0c0,0.1,0,0.3,0.1,0.4c0.6,0,1.2,0.1,1.7,0.3c0-0.3,0-0.6-0.1-0.8c0,0,0,0,0,0c0,0,0,0-0.1,0
							c-0.3-0.1-0.6-0.4-0.7-0.8c0-0.1,0-0.2,0-0.3c0-0.2,0.1-0.3,0.3-0.4c0.1-0.1,0.3-0.2,0.5-0.2c0.1,0,0.1,0,0.2,0
							c0.1,0,0.2,0.1,0.3,0.1c0.2,0.1,0.3,0.3,0.3,0.6c0,0.2-0.1,0.5-0.3,0.6c-0.1,0.1-0.1,0.1-0.2,0.2v0.1c0,0.1,0.1,0.3,0.1,0.4
							c0.5-0.2,0.8-0.7,0.9-1.2c0-0.1,0-0.2,0-0.2c0,0,0-0.1-0.1-0.1c-0.2-0.2-0.2-0.5-0.1-0.8c0.1-0.3,0.3-0.5,0.6-0.5
							c0.1,0,0.2,0,0.4,0c0.2,0.1,0.4,0.2,0.4,0.5c0.1,0.2,0.1,0.3,0,0.5c-0.1,0.1-0.1,0.2-0.2,0.3c-0.1,0.1-0.2,0.1-0.3,0.2
							s-0.2,0.1-0.3,0c-0.1,0.3-0.3,0.6-0.4,0.9c-0.1,0.1-0.1,0.2-0.2,0.3c-0.1,0.1-0.3,0.2-0.4,0.2c0,0-0.1,0.1-0.1,0.1
							c0,0.1,0,0.1,0,0.2c0.3,0.1,0.7,0.2,1,0.4c0.5,0.2,1,0.5,1.4,0.8c0.3-0.2,0.6-0.7,0.2-2.1l0,0v-0.1c0-0.3,0-0.6,0.2-0.9
							c0.1-0.1,0.3-0.2,0.4-0.4c0-0.1,0-0.1,0.1-0.2c0.1-0.1,0.3-0.1,0.4-0.1c0.2-0.1,0.3-0.2,0.5-0.3c0.2-0.1,0.4-0.1,0.6,0
							c0.1,0,0.3,0,0.4,0.1c0,0.1,0,0.2,0,0.2c0,0.1,0.2,0.2,0.2,0.4c0,0.1-0.1,0.3-0.1,0.4s0.1,0.3,0,0.4c0,0.1-0.1,0.1-0.2,0.2
							c0,0.1,0,0.2-0.1,0.3c-0.1,0.1-0.1,0.2-0.2,0.3c-0.1,0.1-0.1,0.3-0.2,0.4c-0.1,0.1-0.2,0.1-0.4,0.1c0,0-0.1,0-0.1,0
							c-0.1,0-0.1,0.1-0.1,0.1c-0.1,0-0.1,0.1-0.2,0.1c-0.5,0.3-0.9,0.8-1.2,1.3c0.7,0.6,1.5,1,2.3,1.2c0.6,0,1.2-0.2,1.5-0.7
							c0.3-0.3,0.5-0.6,0.8-0.9l-0.2-0.2c-0.1,0.1-0.3,0.2-0.5,0.2c-0.2,0-0.3,0-0.5-0.1c-0.1-0.1-0.2-0.2-0.3-0.3
							c-0.2-0.2-0.2-0.6,0-0.8c0.2-0.3,0.4-0.4,0.7-0.5c0.2,0,0.4,0.1,0.6,0.2c0.2,0.2,0.1,0.6,0.2,0.8c0,0.1,0.2,0.3,0.3,0.4
							c0.7-0.7,1.5-1.3,2.4-1.8c0-0.1,0-0.1,0-0.2c0,0-0.1-0.1-0.1-0.1c-0.2-0.1-0.3-0.1-0.5-0.3c-0.1-0.1-0.2-0.2-0.3-0.3
							c-0.4-0.6-0.4-0.7-0.6-0.8c-0.2-0.1-0.3,0-0.6-0.1c-0.1-0.1-0.2-0.2-0.3-0.3c-0.1-0.2-0.1-0.3,0-0.5c0-0.2,0.1-0.4,0.3-0.5
							c0.1-0.1,0.3-0.1,0.4-0.1c0.3,0,0.5,0.2,0.7,0.4c0.1,0.2,0.1,0.6,0,0.8c0,0,0,0.1-0.1,0.1c0,0.1,0,0.2,0,0.2
							c0.2,0.5,0.6,0.9,1,1c0.1-0.1,0.1-0.3,0.1-0.4c0-0.1,0-0.1,0-0.1c-0.1-0.1-0.1-0.1-0.2-0.2c-0.2-0.1-0.4-0.3-0.4-0.6
							c0-0.2,0.1-0.5,0.3-0.6c0.1-0.1,0.1-0.1,0.2-0.1c0.1,0,0.1,0,0.2,0c0.1,0,0.3,0.1,0.4,0.1c0.2,0.1,0.3,0.2,0.3,0.4
							c0,0.1,0,0.2,0,0.3c-0.1,0.4-0.3,0.7-0.6,0.8c0,0,0,0-0.1,0v0c-0.1,0.3-0.1,0.6,0,0.8c0.5-0.2,1.1-0.3,1.6-0.4
							c0.1-0.1,0.1-0.3,0.1-0.5v0c0-0.3-0.1-0.5-0.2-0.8c-0.1-0.2-0.3-0.1-0.4-0.3c-0.1-0.3-0.1-0.6,0.1-0.8
							c0.1-0.1,0.3-0.2,0.4-0.2c0.2,0,0.4,0.1,0.6,0.2c0.1,0.2,0.2,0.4,0.1,0.6c-0.1,0.3-0.3,0.2-0.4,0.5c-0.1,0.2,0.1,0.3,0.1,0.7
							c0,0.2,0,0.4-0.1,0.6c0.3,0.1,0.6,0,0.8-0.1c0.4-0.2,0.4-0.6,0.8-0.7c0.3-0.1,0.8-0.1,1,0.2c0.2,0.3,0.2,0.7,0,1
							c-0.2,0.2-0.4,0.3-0.7,0.3c-0.5,0.1-0.6-0.2-1.3-0.4c-0.4-0.1-0.8-0.1-1.2,0c-0.5,0.1-1,0.3-1.4,0.5c0.1,0.1,0.2,0.2,0.2,0.2
							h0c0.2,0.2,0.5,0.3,0.7,0.4c0.4-0.3,0.9-0.2,1.2,0.2c0.1,0.1,0.1,0.2,0.1,0.3c0,0.1,0,0.2,0,0.3c0,0.1-0.1,0.1-0.1,0.2
							c-0.2,0.2-0.4,0.3-0.6,0.4c-0.2,0.1-0.5,0-0.7-0.2c-0.2-0.3-0.2-0.7,0-1c0,0.1-0.7-0.3-0.8-0.4c-0.1-0.1-0.3-0.3-0.4-0.4
							c-0.1,0-0.2,0.1-0.3,0.1c-0.3,0.1-0.5,0.3-0.7,0.4c-0.2,0.1-0.5,0.3-0.7,0.5c0.1,0.1,0.1,0.3,0.1,0.4c0.1,0.5,0,0.6,0.1,0.9
							c0.1,0.3,0.4,0.6,0.7,0.6c0.4,0,0.8-0.1,1.3-0.2c0.3,0,0.5-0.1,0.8-0.1h0.1c0,0,0.1,0,0.1-0.1c0.4-0.5,1.1-0.5,1.6-0.2
							c0.2,0.2,0.3,0.5,0.3,0.8c0,0.4-0.2,0.8-0.5,1.1c-0.3,0.2-0.8,0.2-1.1-0.1c-0.2-0.3-0.2-0.8-0.5-1c-0.1,0-0.2,0-0.4,0
							c-0.4,0-0.9,0.1-1.3,0.2v0.3c0.4,0,0.7,0.2,1,0.4c0.2,0.2,0.2,0.6,0.1,0.8c-0.1,0.3-0.3,0.5-0.6,0.6c-0.3,0.2-0.7,0-0.9-0.3
							c0-0.1,0-0.1-0.1-0.2c-0.1-0.3-0.1-0.7,0-1c0-0.1,0.1-0.2,0.1-0.2c0-0.2-0.1-0.4-0.3-0.5c-0.1-0.1-0.3-0.2-0.4-0.2
							c-0.1,0.1-0.2,0.3-0.3,0.5c0,0,0,0,0,0.1c0,0,0,0.1,0,0.1c0.2,0.4,0.4,0.8,0.1,1.2c-0.2,0.2-0.5,0.3-0.7,0.3
							c-0.2,0-0.3-0.1-0.4-0.2c-0.2-0.4-0.2-0.8,0.1-1.2c0.2-0.2,0.4-0.3,0.6-0.3h0.1c0,0,0,0,0.1-0.1c0.5-1.1,0.2-1.6,0.2-1.6
							c0-0.1-0.1-0.3-0.2-0.4c-0.8,0.7-1.3,1.6-1.5,2.6c0,0,0.1,5,0.2,6.2c0.1,1.2,0.4,6.2,0.4,6.2s0.2-0.1,0.5-0.3
							c-0.1-1.4,0.2-2.8,0.9-4c0.1-0.1,0.2-0.2,0.2-0.3l0.1-0.1c0.2-0.3,0.5-0.5,0.8-0.7c0,0,0,0,0-0.1c0,0-0.1-0.1-0.1-0.1
							c0,0-0.1,0-0.2,0.1c-0.1,0-0.1,0-0.2,0.1c-0.2,0-0.4,0-0.6-0.1c-0.2-0.1-0.3-0.4-0.3-0.6s0.3-0.4,0.5-0.4
							c0.1,0,0.2,0.1,0.3,0.2c0.1,0.1,0.3,0.2,0.3,0.4c0,0.1,0.1,0.1,0.1,0.2c0,0,0,0.1,0,0.1c0,0,0,0.1,0.1,0.1
							c0,0,0.1,0.1,0.1,0.1c0,0,0.1,0,0.1,0l0,0l0.2-0.1c0.2-0.1,0.3-0.2,0.5-0.3l0.2-0.1h0c-0.1-0.1-0.1-0.2-0.1-0.3
							c-0.1-0.2-0.1-0.4-0.1-0.6h-0.2c-0.2,0-0.4-0.1-0.5-0.3c-0.1-0.2-0.1-0.4,0-0.6c0.1-0.1,0.2-0.3,0.3-0.3
							c0.1,0,0.2-0.1,0.3-0.1c0.1,0,0.2,0,0.2,0.1c0.3,0.2,0.4,0.6,0.2,1c0,0.1-0.1,0.1-0.2,0.2c0,0.2,0.1,0.5,0.1,0.7v0
							c0,0,0,0.1,0.1,0.2c0.1-0.1,0.3-0.1,0.4-0.2l0.2-0.1c0.2-0.1,0.4-0.1,0.5-0.2c0.1-0.2,0.2-0.3,0.4-0.4c0.2-0.1,0.4-0.1,0.6,0
							c0.1,0,0.1,0.1,0.2,0.1c0.1,0.1,0.1,0.3,0,0.4c-0.1,0.1-0.2,0.2-0.3,0.3c-0.1,0.1-0.2,0.1-0.3,0.1c-0.2,0-0.3-0.1-0.5-0.2h0
							c-0.3,0-0.6,0.1-0.9,0.3c0.1,0.1,0.2,0.1,0.3,0.2h0c0.2,0.1,0.5,0.2,0.7,0.2c0.1-0.2,0.3-0.3,0.6-0.2c0.2,0,0.4,0.2,0.5,0.4
							c0,0.1,0.1,0.1,0,0.2c0,0.1,0,0.1-0.1,0.2c-0.1,0.2-0.2,0.3-0.4,0.4c-0.2,0.1-0.4,0.1-0.5,0c-0.2-0.2-0.3-0.5-0.2-0.8
							c0,0-0.6-0.1-0.6-0.1c-0.2-0.1-0.4-0.2-0.5-0.3c-0.3,0.2-0.6,0.3-0.9,0.6c0.1,0.1,0.2,0.2,0.3,0.3c0.1,0,0.1,0,0.2,0
							c0.1,0,0.1,0,0.2-0.1c0.2,0,0.4,0,0.6,0.1c0.2,0.1,0.3,0.3,0.3,0.6c0,0.2-0.2,0.4-0.5,0.4c-0.1,0-0.2-0.1-0.3-0.1
							c-0.1-0.1-0.3-0.2-0.4-0.4l-0.1-0.2c0,0-0.1-0.1-0.1-0.2c0,0-0.1-0.1-0.1-0.1c-0.1,0-0.1-0.1-0.2-0.1
							c-0.2,0.2-0.3,0.3-0.5,0.5c0,0-0.1,0.1-0.1,0.2c-0.6,1-0.7,2.2-0.3,3.3c1.4-0.8,2.6-1.7,3.8-2.8c0.9-1.2,2.3-2.2,2.1-4.5
							c-0.2,0-0.5,0-0.7,0c-0.3,0-0.6-0.2-0.8-0.5c-0.1-0.2-0.2-0.4-0.3-0.5c0,0-0.1-0.1-0.1-0.1c-0.1-0.1,0-0.3,0-0.4
							c0-0.2-0.2-0.4-0.2-0.6c0-0.2,0.1-0.4,0.1-0.6c0-0.1,0.1-0.3,0.2-0.4c0.1,0,0.2,0,0.3,0c0.1,0,0.3-0.1,0.5-0.1
							c0.1,0,0.2,0.2,0.4,0.2c0.1,0,0.3,0,0.4,0.1c0.1,0.1,0.1,0.2,0.2,0.2c0.1,0.1,0.2,0.1,0.3,0.2c0.1,0.1,0.1,0.2,0.2,0.3
							c0.1,0.1,0.3,0.2,0.3,0.3c0.1,0.1,0,0.4,0,0.6c0,0.1,0,0.1,0.1,0.2c0,0.1,0,0.3,0,0.4c0,0.2-0.1,0.3-0.2,0.5
							c0.2,1.5,0,3-0.7,4.3c1.8,0,3.6-0.6,5.1-1.6c-0.2-0.2-0.4-0.4-0.7-0.5c-0.4-0.2-0.9-0.2-1.4-0.2c0,0-0.1,0-0.1,0
							c0,0,0,0,0,0.1c-0.1,0.2-0.3,0.4-0.5,0.5c-0.4,0.1-0.9,0-1.1-0.3c-0.1-0.1-0.1-0.3,0-0.5c0.1-0.3,0.3-0.5,0.5-0.6
							c0.5-0.1,0.8,0.2,1.1,0.5c0,0,0,0,0.1,0h0.1c0.1,0,0.5-0.1,0.5-0.1c0.1-0.1,0-0.3,0-0.5c-0.1-0.2-0.2-0.4-0.4-0.5h-0.2
							c-0.3,0-0.7-0.1-1-0.3c-0.2-0.1-0.3-0.4-0.3-0.6c0-0.2,0.1-0.3,0.2-0.4c0.2-0.2,0.5-0.4,0.8-0.4c0.3,0,0.6,0.1,0.7,0.4
							c0.1,0.3,0.2,0.7,0.1,1.1l0.3,0.1c0.2-0.4,0.4-0.8,0.6-1.2c0.1-0.1,0.1-0.2,0.1-0.4c0-0.4-0.5-0.5-0.7-0.8
							c-0.2-0.4-0.1-0.8,0.2-1.1c0.3-0.2,0.8-0.3,1.2-0.1c0.3,0.1,0.5,0.3,0.6,0.5c0.1,0.6-0.2,1.2-0.7,1.4c0,0-0.1,0-0.1,0
							c0,0,0,0,0,0.1c-0.1,0.2-0.2,0.5-0.3,0.7c-0.3,0.6-0.6,0.7-0.6,1.1c0,0.3,0.2,0.7,0.5,0.9c0.3,0.3,0.7,0.5,1.1,0.6
							c0,0,0.1-0.1,0.1-0.1c0.2-0.2,0.5-0.4,0.7-0.7c0-0.1,0-0.2,0-0.2c0-0.1-0.1-0.3-0.1-0.4c0-0.1-0.1-0.1-0.1-0.1
							c0,0-0.1-0.1-0.1-0.1c-0.1-0.1-0.2-0.2-0.2-0.3c-0.1-0.2-0.2-0.5-0.3-0.7c0-0.2,0-0.4,0-0.5c0.1-0.3,0.5-0.5,0.9-0.4
							c0.3,0.1,0.6,0.4,0.6,0.8c0,0.3-0.1,0.6-0.2,0.8c-0.1,0.1-0.1,0.1-0.2,0.2c0,0-0.2,0.2-0.2,0.2c0,0.1,0.1,0.1,0.1,0.2
							c0.1,0.1,0.1,0.2,0.2,0.3c0.5-0.7,0.8-1.5,1-2.3c0.1-0.3,0.1-0.7,0-1c-0.1-0.2-0.2-0.3-0.3-0.5c-0.2-0.3-0.3-0.3-0.4-0.4
							c-0.2-0.3-0.2-0.8,0-1.2c0.1-0.2,0.3-0.3,0.5-0.4c0.3-0.1,0.6-0.1,0.9,0c0.3,0.2,0.5,0.5,0.4,0.9c0,0.3-0.1,0.5-0.2,0.8
							c-0.1,0.1-0.2,0.3-0.2,0.5c-0.1,0.2-0.1,0.5-0.2,0.8l0,0c0,0.2-0.1,0.4-0.1,0.6c0,0.1,0,0.3-0.1,0.4c0.2,0.2,0.5,0.3,0.9,0.5
							H80c0,0,0.1,0,0.1,0c0.3-0.2,0.7-0.3,1.1-0.1c0.1,0,0.2,0.1,0.3,0.2c0.1,0.1,0.2,0.3,0.2,0.5c0,0.2,0,0.4-0.1,0.5
							c0,0.1,0,0.1-0.1,0.2c-0.1,0.1-0.2,0.1-0.3,0.1c-0.2,0.1-0.5,0-0.7-0.1c-0.2-0.2-0.3-0.4-0.3-0.7c0-0.1,0-0.2-0.1-0.3
							c0,0-0.1-0.1-0.1-0.1c-0.1-0.1-0.3-0.1-0.5-0.1c-0.1,0.6,0.1,1.1,0.5,1.5c0,0.1,0.1,0.1,0.2,0.2h0.1c0.3,0,0.6,0.1,0.8,0.4
							c0.2,0.3,0.2,0.6,0.1,0.9c-0.1,0.1-0.1,0.2-0.2,0.3c-0.2,0.1-0.5,0.2-0.7,0.1c-0.2,0-0.3-0.1-0.5-0.3
							c-0.1-0.1-0.1-0.3-0.1-0.4c0-0.1,0-0.3,0-0.4c0-0.1,0.1-0.2,0.2-0.3c-0.2-0.3-0.4-0.6-0.5-0.9c0-0.1-0.1-0.3-0.1-0.4
							c0-0.2,0-0.3,0-0.5v-0.2c0,0-0.1-0.1-0.1-0.1c-0.3,0.9-0.8,1.8-1.5,2.6c-0.1,0.1-0.2,0.2-0.3,0.4c0,0.1,0.1,0.2,0.2,0.3
							c0.1,0.1,0.3,0.1,0.4,0.1c0.1,0,0.2-0.1,0.3-0.1c0.3-0.1,0.6,0,0.9,0.1c0.3,0.2,0.5,0.6,0.5,0.9c-0.1,0.4-0.4,0.7-0.8,0.7
							c-0.2,0-0.4-0.1-0.5-0.2c-0.3-0.2-0.3-0.4-0.7-1c-0.1-0.1-0.2-0.3-0.4-0.4c-0.1,0-0.1-0.1-0.2-0.1c-0.5,0.5-1.1,1-1.7,1.4
							c0,0,0,0,0,0c0,0,0.1,0.1,0.1,0.1c0.1,0,0.1,0,0.2,0c0.1,0,0.2-0.1,0.2-0.1c0.2-0.1,0.5,0,0.7,0.1c0.3,0.2,0.4,0.5,0.4,0.8
							c-0.1,0.3-0.3,0.5-0.7,0.5c-0.4,0-0.8-0.3-0.9-0.7c0-0.2-0.1-0.4-0.2-0.5c0,0-0.1-0.1-0.1-0.1c-1.5,1.1-3.3,1.6-5.2,1.6
							c-1.3,0.9-2.6,1.9-3.8,3c-0.8,0.9-2.3,3-2.3,3s0.3,10.4,0.5,10.5c1.5-0.6,3.1-1.2,4.7-1.5c0.1,0,0.1,0,0.2,0
							c0-0.7,0.1-1.4,0.2-2.1h-0.1c-0.3,0.1-0.7,0.2-0.9,0.5c0,0-0.1,0-0.1,0.1v0.1c0,0.3-0.1,0.6-0.3,0.8c-0.4,0.4-0.9,0.5-1.4,0.3
							c-0.2-0.1-0.3-0.3-0.3-0.5c-0.1-0.3,0-0.7,0.2-0.9c0.4-0.4,1-0.2,1.5,0h0.1c0,0,0,0,0.1,0c0.1-0.1,0.5-0.3,0.5-0.5
							s-0.2-0.4-0.3-0.5c-0.2-0.2-0.4-0.3-0.7-0.3c-0.1,0-0.2,0.1-0.3,0.1c-0.4,0.2-0.8,0.3-1.3,0.2c-0.3,0-0.6-0.2-0.7-0.5
							c-0.1-0.2-0.1-0.4,0-0.6c0.1-0.3,0.3-0.7,0.6-0.9c0.3-0.2,0.7-0.2,1,0c0.3,0.3,0.6,0.7,0.7,1.2H68c0-0.6,0.1-1.1,0.1-1.7
							c0-0.2,0-0.3-0.1-0.5c-0.2-0.4-0.9-0.3-1.3-0.5c-0.5-0.3-0.6-0.9-0.3-1.3c0.3-0.5,0.7-0.7,1.2-0.8c0.3-0.1,0.7,0,1,0.2
							c0.3,0.3,0.4,0.7,0.3,1.2c0,0.3-0.1,0.6-0.3,0.8c0,0-0.1,0.1-0.1,0.1v0.1c0,0.3,0,0.6,0,1c0,0.5,0,1.1,0,1.6
							c0,0.4,0.4,0.8,0.8,0.8c0.4-2,1.3-3.8,2.6-5.4l0.1-0.1c-0.1-0.2-0.2-0.4-0.4-0.5c-0.1-0.1-0.2-0.1-0.3-0.1
							c-0.3-0.1-0.5-0.2-0.7-0.5c-0.1-0.1-0.2-0.3-0.2-0.5c0-0.4,0.3-0.7,0.6-0.8c0.4-0.1,0.7,0.1,0.9,0.5c0.2,0.3,0.2,0.7,0,1
							c-0.1,0.1-0.1,0.2-0.1,0.3c0,0.1,0.1,0.1,0.1,0.1c0,0,0.1,0.1,0.2,0.2c0.5-0.6,1.2-1.2,1.8-1.7c0-0.1,0.1-0.4,0.1-0.5
							c0,0-0.1-0.1-0.1-0.1c-0.2-0.1-0.3-0.1-0.5-0.3c-0.1-0.1-0.2-0.2-0.3-0.3c-0.4-0.6-0.3-0.9-0.6-1.1c-0.3-0.2-0.4,0-0.7-0.2
							c-0.4-0.3-0.5-0.9-0.1-1.3c0.1-0.1,0.2-0.2,0.3-0.2c0.1-0.1,0.3-0.1,0.4,0c0.3,0,0.6,0.2,0.8,0.5c0.1,0.3,0.1,0.6-0.1,0.9
							c0,0-0.1,0.1-0.1,0.2c0,0.1,0,0.2,0,0.3c0.2,0.6,0.6,1,1.2,1.3c0.1-0.2,0.1-0.3,0.1-0.5c0-0.1,0-0.1,0-0.2
							c-0.1-0.1-0.1-0.2-0.2-0.2c-0.2-0.2-0.4-0.4-0.4-0.7c0-0.3,0.1-0.5,0.3-0.7c0.1-0.1,0.2-0.2,0.3-0.2h0.3
							c0.2,0,0.3,0.1,0.5,0.2c0.2,0.1,0.3,0.3,0.4,0.5c0,0.1,0,0.2,0,0.3c-0.1,0.4-0.4,0.8-0.8,0.9c0,0-0.1,0-0.1,0c0,0,0,0,0,0.1
							c-0.1,0.3-0.1,0.7-0.1,1c0.7-0.5,1.4-0.9,2.2-1.2c0.1-0.2,0.2-0.4,0.3-0.5c0-0.1,0-0.1,0-0.2c0-0.1-0.1-0.2-0.3-0.3
							c-0.3-0.3-0.6-0.7-0.5-1.2c0-0.5,0.3-0.8,0.8-1c0.5-0.1,0.9,0.1,1.1,0.5c0.1,0.2,0.1,0.5,0,0.7c-0.1,0.3-0.2,0.6-0.5,0.9
							c-0.3,0.2-0.5,0.7-0.5,1.1c0.1,0,0.2-0.1,0.3-0.1c0.1,0,0.2-0.1,0.3-0.1c0.2-0.1,0.3-0.1,0.4-0.1c0.1,0,0.2-0.1,0.2-0.1
							c0.1-0.1,0.3-0.2,0.4-0.4c0.2-0.2,0.5-0.3,0.7-0.5c0.3-0.1,0.8-0.1,1,0.2c0.2,0.3,0.3,0.6,0.2,0.9c0,0.2-0.1,0.4-0.3,0.6
							c-0.3,0.3-0.7,0.4-1.1,0.4c-0.3,0-0.5-0.1-0.7-0.3c-0.1-0.1-0.1-0.2-0.2-0.2c-0.1,0-0.3,0-0.4,0c-0.5,0.1-0.9,0.2-1.4,0.4
							c-0.1,0.1-0.3,0.1-0.6,0.2c-0.7,0.3-1.3,0.7-2,1.1c0.1,0.1,0.2,0.2,0.3,0.2c0,0,0.1,0.1,0.2,0.1c0.1,0,0.2-0.1,0.3-0.1
							c0.3-0.2,0.7-0.3,1.1-0.2c0.4,0.1,0.6,0.5,0.7,0.9c0,0.4-0.3,0.7-0.7,0.8c-0.2,0-0.4,0-0.6-0.1c-0.3-0.1-0.5-0.3-0.6-0.6
							c-0.1-0.1-0.1-0.2-0.2-0.3c-0.2-0.2-0.5-0.2-0.8-0.4c-0.4,0.3-0.8,0.7-1.1,1.2c0.2,0.1,0.5,0.3,0.7,0.5
							c0.4,0.4,0.4,0.6,0.7,0.8c0.3,0.2,0.6,0.2,0.9,0.2c0.6-0.1,0.7-0.3,1.4-0.7c0.3-0.1,0.6-0.3,0.9-0.4c0,0,0.1,0,0.1-0.1
							c0,0,0-0.1,0.1-0.1c0.3-0.7,1-1.1,1.7-0.9c0.3,0.2,0.6,0.5,0.7,0.8c0.2,0.5,0.1,1-0.1,1.5c-0.3,0.4-0.9,0.6-1.3,0.3
							c-0.4-0.3-0.6-0.9-1-0.9c-0.2,0-0.3,0-0.5,0.1c-0.5,0.2-1,0.5-1.4,0.8c0.1,0.2,0.1,0.1,0.1,0.4c0.4-0.1,0.9-0.1,1.3,0.1
							c0.3,0.2,0.5,0.6,0.5,0.9c0,0.4-0.2,0.7-0.5,0.9c-0.1,0.1-0.3,0.2-0.5,0.2c-0.3,0-0.6-0.1-0.8-0.4c-0.3-0.3-0.4-0.8-0.4-1.2
							V55c-0.1-0.2-0.3-0.4-0.6-0.5c-0.1-0.1-0.4-0.2-0.6,0C74,54.7,74,54.9,74,55.1v0.1c0,0,0,0.1,0.1,0.1c0.4,0.3,0.8,0.8,0.7,1.4
							c-0.1,0.3-0.4,0.6-0.7,0.7c-0.2,0.1-0.4,0-0.6-0.1c-0.4-0.3-0.6-0.9-0.4-1.4c0.1-0.3,0.3-0.5,0.6-0.6c0,0,0.1,0,0.1-0.1
							c0,0,0-0.1,0-0.1c0.1-0.3,0.1-0.7,0-1c-0.1-0.3-0.2-0.6-0.5-0.9c-0.2-0.1-0.4-0.2-0.6-0.3c-0.1,0.1-0.2,0.2-0.2,0.4
							c-1.2,2.1-1.5,4.7-0.8,7c1.9-0.2,3.8-0.7,5.5-1.7c2.2-1.1,3.8-3.2,4.3-5.7c0.8-3.4,0.5,1,0.5,1c1.3-0.7,2.9-1.1,4.4-1
							c0,0,0.1-0.1,0.1-0.2c0,0,0-0.1,0-0.1c0.1-0.1,0.1-0.2,0-0.3c0-0.1,0-0.1-0.1-0.1c-0.1-0.1-0.1-0.2-0.1-0.3c0-0.2,0-0.5,0-0.7
							c0-0.2,0.1-0.3,0.2-0.5c0.3-0.2,0.7-0.2,0.9,0c0.2,0.2,0.3,0.6,0.2,0.9c-0.1,0.3-0.3,0.5-0.5,0.6c-0.1,0-0.2,0.1-0.2,0.1
							c-0.1,0.1-0.2,0.1-0.2,0.2c-0.1,0.2-0.1,0.4,0,0.6h0c1.2,0.3,2.3,0.7,3.4,1.2c0,0,0.1-0.1,0.1-0.2c0-0.2-0.4-0.3-0.6-0.7
							c0-0.1-0.1-0.2-0.1-0.2c-0.1-0.4-0.2-0.8-0.2-1.2c-0.1,0-0.3,0-0.4-0.1c-0.1-0.1-0.2-0.2-0.3-0.3c-0.1-0.1-0.2-0.3-0.2-0.5
							c0-0.2,0.1-0.4,0.2-0.6c0.1-0.2,0.4-0.3,0.6-0.4c0.1,0,0.3,0,0.4,0.1c0.3,0.1,0.5,0.4,0.6,0.8c0,0.3-0.1,0.7-0.4,0.8
							c0,0-0.1,0-0.1,0.1c-0.1,0.1-0.1,0.2-0.1,0.3c0,0.6,0.3,1.2,0.7,1.6c0.1-0.1,0.2-0.3,0.3-0.4c0-0.1,0-0.1,0-0.2
							c0-0.1-0.1-0.2-0.1-0.3c-0.3-0.3-0.3-0.9,0-1.2c0.1-0.1,0.2-0.1,0.3-0.2c0.1-0.1,0.2-0.1,0.4-0.1c0.1,0,0.1,0,0.2,0
							c0.2,0.1,0.3,0.2,0.5,0.4c0.1,0.1,0.2,0.3,0.2,0.6c0,0.1,0,0.2-0.1,0.3c-0.2,0.4-0.6,0.6-1,0.7c0,0-0.1,0-0.1,0l0,0
							c-0.2,0.3-0.3,0.6-0.4,1c0.2,0.1,0.4,0.3,0.7,0.4c0.1,0,0.3,0.1,0.5,0.1c0.2,0.1,0.5,0.1,0.7,0.3c0.3,0.2,0.4,0.5,0.3,0.8
							c-0.1,0.3-0.3,0.5-0.5,0.6c-0.5,0.2-1.1,0-1.3-0.5c-0.1-0.2-0.2-0.5-0.2-0.7V55c-0.1-0.2-0.3-0.3-0.4-0.3
							c-0.4-0.2-1.1-0.6-2.2-1.1c0,0.1,0,0.3,0.1,0.4c0,0.1,0.1,0.1,0.2,0.2c0.2,0.1,0.4,0,0.6,0.1c0.2,0.1,0.5,0.2,0.6,0.5
							c0.2,0.3,0.2,0.7,0,1.1c-0.2,0.3-0.7,0.5-1,0.3c-0.2-0.1-0.3-0.3-0.4-0.5c-0.1-0.2-0.2-0.5-0.3-0.8v-0.4c0,0,0-0.1,0-0.1
							c0-0.1-0.1-0.3-0.1-0.4c0,0-0.1-0.1-0.1-0.1l-0.2-0.3l-0.3-0.1c-0.3,0-0.6-0.1-0.8-0.1c-0.1,0.2-0.1,0.5-0.3,0.7
							c-0.2,0.4-0.3,0.4-0.4,0.7c-0.1,0.4,0.1,0.7,0.3,0.9c0.4,0.2,0.9,0.4,1.3,0.5c0.3,0.1,0.5,0.2,0.8,0.3c0,0,0.1,0,0.1,0
							c0,0,0.1,0,0.1,0c0.6-0.2,1.3,0.1,1.6,0.7c0.1,0.3,0,0.6-0.2,0.9c-0.2,0.4-0.6,0.7-1.1,0.7c-0.5,0-0.9-0.3-1-0.7
							c0-0.4,0.3-0.9,0-1.2c-0.1-0.1-0.2-0.2-0.3-0.2c-0.4-0.2-0.9-0.4-1.3-0.5c-0.1,0.2-0.1,0.1-0.2,0.3c0.3,0.2,0.6,0.6,0.7,0.9
							c0,0.3-0.1,0.7-0.3,0.9c-0.3,0.2-0.6,0.3-0.9,0.2c-0.2,0-0.3-0.1-0.5-0.2c-0.2-0.2-0.2-0.5-0.2-0.8c0.1-0.4,0.3-0.7,0.6-1
							c0.1-0.1,0.1-0.1,0.2-0.2c0.1-0.2,0.1-0.5,0-0.7c0-0.1-0.1-0.4-0.3-0.4c-0.1,0-0.4,0.2-0.6,0.3c0,0,0,0,0,0c0,0,0,0.1,0,0.1
							c0,0.5-0.1,1-0.6,1.2c-0.3,0.1-0.6,0.1-0.9-0.1c-0.1-0.1-0.2-0.2-0.3-0.4c0-0.5,0.2-0.9,0.7-1.1c0.2-0.1,0.5-0.1,0.8,0.1
							c0,0,0.1,0,0.1,0c0,0,0.1,0,0.1,0c0.5-0.3,0.9-0.8,1.1-1.4c0-0.2,0.1-0.3,0.1-0.5c-0.7,0-1.4,0.2-2,0.5
							c-1.1,0.6-2,1.4-2.8,2.4c-0.8,0.9-1.5,1.9-2.1,3c0.5-0.1,1-0.3,1.4-0.5l0,0c0,0,0.1,0,0.1-0.1c0.4-0.2,0.9-0.2,1.3,0
							c0.2,0.2,0.5,0.3,0.7,0.4c0.1,0,0.3,0.1,0.4,0.2c0.1,0.1,0.1,0.2,0.2,0.4c0.1,0.3,0.4,0.2,0.6,0.6c0.1,0.3,0.2,0.5,0.3,0.8
							c0.1,0.2,0.1,0.5,0,0.6c-0.1,0.1-0.2,0.1-0.3,0.1c-0.2,0.1-0.3,0.3-0.5,0.4c-0.2,0.1-0.4,0-0.6,0c-0.2,0-0.3,0.2-0.5,0.2
							c-0.1,0-0.2-0.1-0.3-0.1c-0.2,0-0.3,0.1-0.5,0c-0.2-0.1-0.3-0.1-0.5-0.2c-0.2-0.1-0.5,0-0.6-0.1c-0.1-0.1-0.2-0.3-0.3-0.5
							c0,0-0.1-0.1-0.1-0.1c0-0.1-0.1-0.1-0.2-0.2c-0.1-0.1-0.1-0.1-0.2-0.2c-0.4-0.4-0.9-0.7-1.4-0.9c-2.3,1.1-4.7,1.9-7.2,2.2
							c-0.5,0.1-1,0.2-1.5,0.5c0.3,1.6,1.3,3,2.8,3.8c0.1-0.3,0.1-0.7,0-1v-0.1c0,0,0,0-0.1-0.1c-0.4-0.2-0.7-0.6-0.7-1
							c0-0.1,0-0.2,0-0.3c0.1-0.2,0.2-0.3,0.4-0.4c0.1-0.1,0.3-0.2,0.5-0.2c0.1,0,0.2,0,0.3,0c0.1,0,0.2,0.1,0.3,0.2
							c0.2,0.2,0.3,0.5,0.3,0.7c-0.1,0.3-0.2,0.5-0.5,0.7c-0.1,0-0.2,0.1-0.2,0.2c0,0.1,0,0.1,0,0.2c0,0.2,0,0.3,0.1,0.5
							c0.6-0.2,1-0.7,1.2-1.2c0.1-0.1,0.1-0.2,0.1-0.3c0,0,0-0.1-0.1-0.1c-0.2-0.3-0.2-0.6,0-0.9s0.5-0.5,0.8-0.5
							c0.1,0,0.3,0,0.4,0.1c0.2,0.1,0.4,0.3,0.4,0.6c0.1,0.2,0,0.4,0,0.6c-0.1,0.1-0.2,0.3-0.3,0.3c-0.1,0-0.1,0.1-0.2,0.1
							c-0.3,0.1-0.4,0-0.6,0c-0.3,0.1-0.3,0.5-0.8,1.1c-0.1,0.1-0.2,0.2-0.3,0.3c-0.1,0.1-0.2,0.1-0.4,0.2c-0.1,0.1-0.2,0.1-0.2,0.1
							c-0.1,0.1,0,0.2,0,0.3c0.1,0,0.2,0.1,0.2,0.1c0.6,0.2,1.1,0.4,1.7,0.4c0.2-0.2,0.3-0.5,0.4-0.7V66c0-0.2,0-0.5,0.1-0.7
							c0.1-0.2,0.2-0.3,0.3-0.4c0.3-0.1,0.7,0,0.9,0.3c0.2,0.3,0.1,0.7-0.1,0.9c-0.2,0.3-0.5,0.4-0.9,0.4c-0.1,0-0.2,0-0.3,0.1
							c0,0-0.1,0.1-0.1,0.2c0,0.1-0.1,0.2-0.1,0.3c0.6,0,1.2,0,1.7-0.2c0.2-0.2,0.3-0.5,0.4-0.8c0-0.2,0-0.3,0-0.3
							c0-0.2,0-0.5,0.1-0.7c0.1-0.2,0.2-0.3,0.3-0.4c0.3-0.1,0.7,0,0.9,0.3c0.2,0.3,0.2,0.7-0.1,0.9c-0.2,0.3-0.5,0.4-0.9,0.4
							c-0.1,0-0.2,0-0.3,0.1c0,0.1-0.1,0.1-0.1,0.2c0,0.1-0.1,0.2-0.1,0.3c0.2,0,0.5,0,0.7-0.1c0.2-0.1,0.4-0.2,0.5-0.4
							c0.1-0.1,0.1-0.1,0.2-0.3c0.1-0.1,0.2-0.2,0.4-0.3c0.2-0.1,0.4-0.1,0.6,0c0.3,0.2,0.3,0.7,0,1l-0.1,0.1
							C78.9,67,78.6,67,78.3,67c-0.2,0-0.2,0-0.3-0.1c-0.3,0-0.6,0.1-0.8,0.3l0.1,0.1c0.2,0.1,0.5,0.2,0.7,0.2c0.1,0,0.3,0,0.3-0.1
							c0.2-0.2,0.5-0.3,0.8-0.3c0.3,0,0.6,0.2,0.7,0.5c0,0.2,0,0.3,0,0.5c0,0.2-0.1,0.3-0.2,0.4c-0.3,0.3-0.9,0.3-1.2,0
							c-0.2-0.2-0.3-0.4-0.2-0.7c-0.3-0.1-0.5-0.2-0.8-0.3c-0.2-0.1-0.3-0.2-0.5-0.3c-0.2,0-0.4,0.1-0.7,0.1v0.1
							c-0.1,0.3-0.1,0.7,0,1.1v0.1c0,0,0,0,0.1,0.1c0.4,0.2,0.7,0.6,0.7,1c0,0.1,0,0.2,0,0.3c-0.2,0.4-0.6,0.6-1,0.6
							c-0.2,0-0.4-0.1-0.5-0.2c-0.2-0.2-0.3-0.5-0.3-0.7c0.1-0.3,0.2-0.5,0.5-0.7c0.1,0,0.2-0.1,0.2-0.2c0-0.1,0-0.1,0-0.2
							c0-0.2,0-0.3-0.1-0.5c-0.6,0.2-1,0.7-1.2,1.2c-0.1,0.1-0.1,0.2-0.1,0.3c0,0,0,0.1,0.1,0.1c0.2,0.3,0.2,0.6,0,0.9
							c-0.2,0.3-0.5,0.5-0.8,0.5c-0.1,0-0.3,0-0.4-0.1c-0.2-0.1-0.4-0.3-0.4-0.6c-0.1-0.2,0-0.4,0-0.6c0.1-0.1,0.2-0.3,0.3-0.3
							c0.2-0.1,0.4-0.2,0.6-0.2c0.5-0.2,0.3-0.5,0.9-0.9c0.4-0.3,0.8-0.3,0.9-0.7v-0.2c-0.8,0.1-1.7,0.1-2.5-0.1
							c-0.1,0.2-0.2,0.4-0.2,0.6c0,0.3,0,0.6-0.1,0.8c-0.1,0.2-0.2,0.4-0.4,0.5c-0.3,0.1-0.6,0-0.8-0.3c0-0.1-0.1-0.2-0.1-0.2
							c0-0.4,0.2-0.7,0.5-0.9c0.1-0.1,0.3-0.1,0.5-0.2c0.1-0.1,0.2-0.2,0.3-0.3c-0.6-0.1-1.2-0.3-1.8-0.7c-1.4-0.9-2.7-2-3.7-3.3
							c-1.7,1-3.1,2.5-3.1,3.6c0,0.5,0.1,2.1,0.1,2.1c0,0.5,0.1,1,0.1,1.6"/>
					</g>
				</g>
				<g id="Path_160">
					<path class="st0" d="M62.5,7.1C32.4,7.1,8,31.4,8,61.5C8,91.6,32.4,116,62.5,116c30.1,0,54.5-24.4,54.5-54.4l0,0
						C116.9,31.5,92.6,7.1,62.5,7.1z M96,26.8c1.4,0,2.4,1.1,2.4,2.4s-1.1,2.4-2.4,2.4s-2.4-1.1-2.4-2.4S94.6,26.8,96,26.8L96,26.8z
						 M28.7,27.5c1.4,0,2.4,1.1,2.4,2.4s-1.1,2.4-2.4,2.4s-2.4-1.1-2.4-2.4l0,0C26.3,28.6,27.4,27.5,28.7,27.5L28.7,27.5z
						 M63.3,99.1c-20.8,0-37.6-16.8-37.6-37.6s16.8-37.6,37.6-37.6s37.6,16.8,37.6,37.6l0,0C100.9,82.3,84.1,99.1,63.3,99.1
						L63.3,99.1L63.3,99.1z"/>
				</g>
				<g id="Group_9">
					<g id="Path_161">
						<path class="st2" d="M48.7,103l0.3,0.8l0.3-0.1c0.1-0.1,0.2-0.1,0.4-0.2c0.1-0.1,0.2-0.1,0.3-0.1h0.1v6.5c0,0.2,0,0.4,0,0.6
							c0,0.1-0.1,0.2-0.2,0.2h0c-0.2,0-0.4,0-0.6,0H49v0.9h2.9v-9.7h-0.6L48.7,103L48.7,103z"/>
					</g>
					<g id="Path_162">
						<path class="st2" d="M59.8,103.1c-0.2-0.4-0.6-0.7-1-1c-0.4-0.3-0.9-0.4-1.4-0.4c-0.5,0-0.9,0.1-1.3,0.3
							c-0.4,0.2-0.7,0.5-1,0.8c-0.3,0.3-0.5,0.7-0.6,1.1c-0.1,0.4-0.2,0.8-0.2,1.3c0,0.4,0.1,0.7,0.2,1.1c0.1,0.3,0.3,0.7,0.5,0.9
							c0.2,0.3,0.5,0.5,0.8,0.7l0,0c0.4,0.2,0.9,0.3,1.4,0.2c0.9-0.3,1.2-1.5,1.2-1.5h0c-0.1,0.1-0.3,0.2-0.5,0.2
							c-0.3,0.2-0.7,0.1-1-0.1c-0.2-0.2-0.4-0.4-0.5-0.6c-0.1-0.3-0.2-0.5-0.3-0.8c-0.1-0.3-0.1-0.5-0.1-0.8c0-0.2,0-0.5,0.1-0.7
							c0.1-0.2,0.1-0.5,0.3-0.7c0.1-0.2,0.3-0.3,0.4-0.5c0.2-0.1,0.4-0.2,0.6-0.2c0.1,0,0.3,0,0.4,0.1c0.1,0.1,0.2,0.2,0.3,0.3
							c0.1,0.2,0.2,0.3,0.2,0.5c0.1,0.2,0.1,0.4,0.2,0.7c0,0.2,0.1,0.4,0.1,0.6s0,0.4,0,0.6c0,0.3,0,0.5,0,0.7c0,0.2,0,0.3-0.1,0.5
							c0,0.1-0.3,1.2-0.3,1.2c0,0.1-0.1,0.2-0.2,0.4c-0.2,0.5-0.5,0.9-0.8,1.3c-0.3,0.4-0.7,0.7-1.2,1c-0.4,0.2-0.9,0.4-1.3,0.4
							h-0.3v0.9H55c0.7,0,1.5-0.2,2.1-0.5c0.7-0.3,1.3-0.8,1.7-1.3c0.5-0.6,0.9-1.2,1.2-1.9c0.3-0.7,0.4-1.4,0.4-2.2
							c0-0.5-0.1-0.9-0.2-1.3C60.2,104,60,103.5,59.8,103.1L59.8,103.1L59.8,103.1z"/>
					</g>
					<g id="Path_163">
						<path class="st2" d="M75.6,103.1c-0.2-0.4-0.6-0.7-1-1c-0.4-0.3-0.9-0.4-1.4-0.4c-0.5,0-0.9,0.1-1.3,0.3
							c-0.4,0.2-0.7,0.5-1,0.8c-0.3,0.3-0.5,0.7-0.6,1.1c-0.1,0.4-0.2,0.8-0.2,1.3c0,0.4,0.1,0.7,0.2,1.1c0.1,0.3,0.3,0.7,0.5,0.9
							s0.5,0.5,0.8,0.7l0,0c0.4,0.2,0.9,0.3,1.4,0.2c0.9-0.3,1.2-1.5,1.2-1.5l0,0c-0.1,0.1-0.3,0.2-0.5,0.2c-0.3,0.2-0.7,0.1-1-0.1
							c-0.2-0.2-0.4-0.4-0.5-0.6c-0.1-0.3-0.2-0.5-0.3-0.8c-0.1-0.3-0.1-0.5-0.1-0.8c0-0.2,0-0.5,0.1-0.7c0.1-0.2,0.1-0.5,0.3-0.7
							c0.1-0.2,0.3-0.3,0.4-0.5c0.2-0.1,0.4-0.2,0.6-0.2c0.1,0,0.3,0,0.4,0.1c0.1,0.1,0.2,0.2,0.3,0.3c0.1,0.2,0.2,0.3,0.2,0.5
							c0.1,0.2,0.1,0.4,0.2,0.7c0,0.2,0.1,0.4,0.1,0.6s0,0.4,0,0.6c0,0.3,0,0.5,0,0.7c0,0.2,0,0.3-0.1,0.5c0,0.1-0.3,1.2-0.3,1.2
							c0,0.1-0.1,0.2-0.2,0.4c-0.2,0.5-0.5,0.9-0.8,1.3c-0.3,0.4-0.7,0.7-1.2,1c-0.4,0.2-0.9,0.4-1.3,0.4h-0.3v0.9h0.6
							c0.7,0,1.5-0.2,2.1-0.5c0.7-0.3,1.3-0.8,1.7-1.3c0.5-0.6,0.9-1.2,1.2-1.9c0.3-0.7,0.4-1.4,0.4-2.2c0-0.5-0.1-0.9-0.2-1.3
							C76,104,75.8,103.5,75.6,103.1L75.6,103.1L75.6,103.1z"/>
					</g>
					<g id="Path_164">
						<path class="st2" d="M66.9,107.1c-0.2-0.3-0.5-0.5-0.8-0.7c-0.2-0.1-0.3-0.3-0.5-0.4l-0.2-0.2h0c-0.2-0.2-0.4-0.3-0.6-0.5
							c-0.2-0.1-0.4-0.3-0.5-0.5c-0.1-0.1-0.3-0.3-0.4-0.5c-0.1-0.2-0.1-0.4-0.1-0.6c0-0.1,0-0.3,0.1-0.4c0.1-0.1,0.2-0.3,0.3-0.4
							c0.1-0.1,0.2-0.2,0.4-0.3c0.1-0.1,0.3-0.1,0.4-0.1c0.2,0,0.3,0,0.5,0.1c0.2,0.1,0.3,0.2,0.5,0.3c0.1,0.1,0.2,0.3,0.3,0.5
							c0.1,0.2,0.1,0.3,0.1,0.5c0,0.1,0,0.3,0,0.4c0,0.1-0.1,0.2-0.1,0.3l-0.3,0.9c0.4,0.1,0.9,0,1.2-0.3c0,0,0,0,0.1,0
							c0.2-0.1,0.3-0.3,0.4-0.5c0.1-0.2,0.1-0.5,0.1-0.7c0-0.3-0.1-0.6-0.2-0.8c-0.1-0.3-0.3-0.5-0.6-0.7c-0.2-0.2-0.5-0.4-0.9-0.5
							c-0.7-0.2-1.4-0.2-2.1,0c-0.3,0.1-0.6,0.3-0.9,0.5c-0.3,0.2-0.5,0.5-0.6,0.8c-0.2,0.3-0.2,0.7-0.2,1c0,0.3,0.1,0.6,0.2,0.9
							c0.1,0.3,0.2,0.5,0.4,0.7c0.2,0.2,0.4,0.4,0.6,0.6l0.3,0.3c0,0-0.2,0.2-0.3,0.3c-0.2,0.2-0.4,0.4-0.6,0.6s-0.3,0.5-0.5,0.7
							c-0.1,0.3-0.2,0.6-0.2,0.9c0,0.2,0,0.5,0.1,0.7c0.1,0.3,0.2,0.6,0.5,0.8c0.2,0.3,0.5,0.5,0.9,0.7c0.4,0.2,0.9,0.3,1.4,0.3
							c0.4,0,0.7-0.1,1.1-0.2c0.3-0.1,0.6-0.3,0.9-0.5c0.3-0.2,0.5-0.5,0.7-0.8c0.2-0.3,0.2-0.7,0.2-1.1c0-0.4-0.1-0.7-0.3-1.1
							C67.3,107.7,67.1,107.4,66.9,107.1L66.9,107.1L66.9,107.1L66.9,107.1z M66.1,110.1c-0.1,0.2-0.2,0.3-0.3,0.4
							c-0.1,0.1-0.3,0.2-0.4,0.3c-0.3,0.1-0.7,0.1-1,0c-0.2-0.1-0.3-0.2-0.5-0.4c-0.1-0.2-0.2-0.4-0.3-0.6c-0.1-0.2-0.1-0.4-0.1-0.7
							c0-0.4,0.1-0.7,0.3-1l0,0c0.2-0.3,0.4-0.5,0.6-0.7c0.3,0.2,0.6,0.5,0.8,0.7c0.2,0.2,0.4,0.4,0.6,0.7c0.1,0.2,0.2,0.3,0.3,0.5
							c0.1,0.1,0.1,0.3,0.1,0.5C66.2,109.8,66.1,110,66.1,110.1L66.1,110.1L66.1,110.1L66.1,110.1z"/>
					</g>
					<g id="Path_165">
						<path class="st2" d="M18.5,77.2l3-4.1l-0.8-2.4L20,71l0.1,0.3c0,0.2,0.1,0.4,0.1,0.6c0,0.2,0,0.3-0.1,0.5
							c-0.1,0.2-0.1,0.3-0.2,0.5c-0.1,0.2-0.2,0.3-0.4,0.5l-1.3,1.7c0,0-0.2-0.2-0.2-0.3c-0.2-0.2-0.4-0.4-0.6-0.5
							c-0.2-0.1-0.5-0.2-0.8-0.2c-0.3,0-0.6,0-0.9,0.1c-0.2,0.1-0.4,0.2-0.6,0.3c-0.2,0.2-0.5,0.4-0.6,0.7c-0.2,0.3-0.3,0.7-0.3,1
							c0,0.5,0.1,1,0.2,1.5l1.1,3.4l0.8-0.2l-0.1-0.3C16.1,80.4,16,80.2,16,80c0-0.1,0-0.1,0-0.2c0.1-0.1,0.1-0.1,0.2-0.1
							c0.1-0.1,0.3-0.1,0.6-0.2l6.1-2l-0.5-1.6L18.5,77.2L18.5,77.2L18.5,77.2z M16.3,78c-0.1,0.1-0.3,0.1-0.5,0.1
							c-0.1,0-0.2,0-0.2-0.1c0,0-0.1-0.1-0.1-0.1c0-0.1-0.1-0.2-0.1-0.2c-0.1-0.2-0.1-0.3-0.1-0.5c0-0.2,0.1-0.3,0.1-0.5
							c0.1-0.1,0.2-0.3,0.3-0.4c0.1-0.1,0.3-0.2,0.5-0.2c0.2-0.1,0.3-0.1,0.5-0.1h0.2c0.2,0,0.3,0.1,0.5,0.2
							c0.1,0.1,0.3,0.2,0.4,0.4c0.1,0.2,0.2,0.4,0.3,0.6l0.1,0.3L16.3,78L16.3,78L16.3,78z"/>
					</g>
					<g id="Path_166">
						<path class="st2" d="M20.3,67.6l-0.8,0.1v0.6c0,0,0,0.1,0,0.2c0,0,0,0.1-0.1,0.1h-0.1c-0.1,0-0.2,0-0.3,0l-0.4-0.1l-0.9-0.3
							l-0.3-2.5l2.4-1.3l-0.2-1.6l-7.9,4.3l0.1,0.6l8.8,2.7L20.3,67.6L20.3,67.6L20.3,67.6z M14.7,67.2l1.9-1.1l0.2,1.7L14.7,67.2
							L14.7,67.2z"/>
					</g>
					<g id="Path_167">
						<path class="st2" d="M14.2,60.9l-0.2-0.1c-0.3-0.1-0.6-0.2-0.9-0.4c-0.3-0.3-0.4-0.8-0.3-1.2l0.2-2.3l6.2,5.2l0.6,0l0.5-6.7
							l-2.6-0.7l-0.1,0.8l0.2,0.1c0.2,0.1,0.4,0.2,0.6,0.3c0.1,0.1,0.3,0.2,0.3,0.4c0.1,0.2,0.2,0.5,0.2,0.7c0,0.5,0,0.9,0,1.4
							l-0.1,1.3l-6.8-5.5l-0.5,7l2.5,0.5L14.2,60.9L14.2,60.9L14.2,60.9z"/>
					</g>
					<g id="Path_168">
						<path class="st2" d="M13.5,52.4c0.3,0.5,0.7,0.8,1.1,1.2c0.5,0.3,1,0.6,1.6,0.7c0.4,0.1,0.8,0.1,1.2,0.1c0.2,0,0.4,0,0.6,0
							c0.5-0.1,1-0.2,1.5-0.5c0.5-0.3,0.8-0.6,1.2-1c0.3-0.4,0.6-0.9,0.7-1.5l0,0c0.1-0.5,0.2-1.1,0.1-1.6c-0.1-0.5-0.3-1-0.6-1.5
							c-0.3-0.5-0.7-0.8-1.1-1.2c-1-0.7-2.1-1-3.3-0.8c-0.5,0.1-1,0.2-1.5,0.5c-0.5,0.3-0.8,0.6-1.2,1c-0.7,0.9-0.9,2-0.8,3.1
							C13.1,51.5,13.2,51.9,13.5,52.4L13.5,52.4L13.5,52.4z M14,49.6L14,49.6c0.2-0.6,0.6-1.2,1.2-1.5c0.3-0.2,0.7-0.2,1.1-0.3h0.2
							c0.9,0,1.7,0.2,2.5,0.7c0.3,0.2,0.6,0.5,0.9,0.8c0.2,0.3,0.3,0.6,0.4,0.9c0.1,0.3,0.1,0.7,0,1c-0.2,0.6-0.6,1.2-1.2,1.5
							c-0.3,0.2-0.7,0.2-1.1,0.3c-0.5,0-1,0-1.4-0.1c-0.5-0.1-0.9-0.3-1.3-0.5c-0.3-0.2-0.6-0.5-0.9-0.8c-0.2-0.3-0.3-0.6-0.4-0.9
							C13.9,50.2,13.9,49.9,14,49.6z"/>
					</g>
					<g id="Path_169">
						<path class="st2" d="M43.7,14.4l0.3,6l-4.5-4.1l-2.1,0.9l0.3,0.7l0.2-0.1c0,0,0.2-0.1,0.3,0c0.1,0,0.2,0,0.3,0.1
							c0.1,0.1,0.2,0.1,0.3,0.2c0.1,0.1,0.2,0.2,0.3,0.3l5.3,4.8l0.5-0.2L44.8,14L43.7,14.4L43.7,14.4L43.7,14.4z"/>
					</g>
					<g id="Path_170">
						<path class="st2" d="M53,17.6v0.2c0,0.2,0,0.5-0.1,0.7c0,0.1-0.1,0.3-0.1,0.4c-0.1,0.1-0.2,0.2-0.3,0.3
							c-0.2,0.1-0.3,0.2-0.5,0.2l-0.8,0.2c-0.2,0.1-0.4,0.1-0.6,0.1c-0.1,0-0.2-0.1-0.3-0.1c-0.1-0.1-0.1-0.2-0.2-0.3
							c0-0.1-0.1-0.2-0.1-0.4l-0.5-1.7l1.8-0.5c0,0,0.2,0,0.3,0c0.1,0,0.1,0,0.1,0c0,0,0.1,0.2,0.1,0.3l0.1,0.3l0.8-0.2L52.1,15
							l-0.8,0.2l0.1,0.3v0.1c0,0,0,0-0.1,0.1c-0.1,0.1-0.2,0.1-0.3,0.1l-1.8,0.5l-0.6-2.4l1.6-0.4c0.2-0.1,0.4-0.1,0.6-0.1
							c0.1,0,0.2,0,0.3,0c0.1,0,0.2,0.1,0.2,0.2c0.1,0.2,0.2,0.4,0.3,0.6l0.1,0.2l0.8-0.2L51.9,12l-6.2,1.7l0.2,0.8l0.3-0.1
							c0.2-0.1,0.3-0.1,0.5-0.1c0.1,0,0.1,0,0.2,0c0.1,0.1,0.1,0.1,0.1,0.2c0.1,0.1,0.1,0.3,0.2,0.6l1.7,6.2l5.2-1.4l-0.1-2.5
							L53,17.6C53,17.6,53,17.6,53,17.6z"/>
					</g>
					<g id="Path_171">
						<path class="st2" d="M54.5,12.7c0,0.1,0.1,0.3,0.1,0.6l0.6,6.4l1.7-0.2l-0.4-4.1l3.3,3.8l2.5-0.2l-0.1-0.8h-0.3
							c-0.2,0-0.4,0-0.6-0.1c-0.2,0-0.3-0.1-0.5-0.2c-0.1-0.1-0.3-0.2-0.4-0.3c-0.1-0.1-0.3-0.3-0.5-0.5l-1.4-1.6
							c0.1,0,0.2-0.1,0.3-0.2c0.2-0.1,0.5-0.3,0.6-0.5c0.2-0.2,0.3-0.4,0.4-0.7c0.1-0.3,0.1-0.6,0.1-0.9c0-0.2-0.1-0.5-0.2-0.7
							c-0.1-0.3-0.3-0.5-0.5-0.7c-0.3-0.2-0.6-0.4-1-0.5c-0.5-0.1-1-0.2-1.5-0.1l-3.6,0.3l0.1,0.8h0.3c0.2-0.1,0.4-0.1,0.6,0
							c0.1,0,0.1,0,0.2,0.1C54.5,12.6,54.5,12.6,54.5,12.7L54.5,12.7L54.5,12.7z M56.3,12.6c0,0,0.1-0.1,0.1-0.2
							c0.1,0,0.1-0.1,0.2-0.1c0.1,0,0.2,0,0.2,0h0.1c0.3,0,0.6,0.1,0.8,0.3c0.1,0.1,0.2,0.2,0.3,0.4c0.1,0.2,0.1,0.3,0.1,0.5
							c0,0.2,0,0.5-0.1,0.7c-0.1,0.2-0.2,0.3-0.3,0.5s-0.3,0.2-0.5,0.3c-0.2,0.1-0.4,0.1-0.6,0.1h-0.3l-0.2-1.9
							C56.2,12.9,56.2,12.8,56.3,12.6L56.3,12.6L56.3,12.6z"/>
					</g>
					<g id="Path_172">
						<path class="st2" d="M70.8,15.7c0-0.3,0-0.7,0-1c0-0.3-0.1-0.6-0.2-0.9c-0.1-0.3-0.2-0.6-0.4-0.9c-0.2-0.3-0.4-0.5-0.7-0.7
							c-0.2-0.2-0.5-0.3-0.8-0.5c-0.3-0.1-0.6-0.2-0.8-0.3c-0.3-0.1-0.6-0.1-0.9-0.2c-0.3,0-0.6-0.1-0.8-0.1l-3.2-0.3l-0.1,0.8h0.3
							c0.2,0,0.4,0.1,0.5,0.1c0.1,0,0.1,0.1,0.1,0.1c0,0.1,0.1,0.2,0,0.2c0,0.2,0,0.3,0,0.6l-0.6,6.4l2.8,0.3c0.2,0,0.4,0,0.6,0
							c0.5,0,0.9-0.1,1.3-0.2c0.5-0.1,1-0.4,1.5-0.8c0.4-0.3,0.7-0.8,1-1.3C70.6,16.7,70.7,16.2,70.8,15.7L70.8,15.7L70.8,15.7z
							 M68.9,15.5c0,0.4-0.1,0.8-0.3,1.2c-0.1,0.3-0.3,0.7-0.6,0.9c-0.2,0.2-0.6,0.5-0.9,0.6c-0.4,0.1-0.8,0.2-1.2,0.1
							c-0.2,0-0.4,0-0.6-0.1c-0.1,0-0.2-0.1-0.3-0.1l0.5-4.8c0-0.3,0.1-0.6,0.2-0.8c0.1-0.1,0.2-0.2,0.3-0.3
							c0.1-0.1,0.3-0.1,0.4-0.1c0.4,0,0.8,0.1,1.2,0.3c0.3,0.2,0.6,0.4,0.8,0.7c0.2,0.3,0.3,0.7,0.4,1
							C68.9,14.7,68.9,15.1,68.9,15.5L68.9,15.5L68.9,15.5z"/>
					</g>
					<g id="Path_173">
						<path class="st2" d="M75.5,12.6l-5.8,7.1l2.5,0.7l0.2-0.7l-0.3-0.1c0,0-0.2-0.1-0.3-0.1c-0.1,0-0.1-0.1-0.2-0.1
							c0,0-0.1-0.1-0.1-0.1v-0.1c0,0,0.1-0.2,0.1-0.2c0.1-0.1,0.2-0.2,0.2-0.3l0.6-0.8l2.5,0.7l0.3,2.7l1.6,0.4l-1-9L75.5,12.6
							C75.5,12.6,75.5,12.6,75.5,12.6z M73.4,17l1.4-1.7l0.3,2.2L73.4,17z"/>
					</g>
					<g id="Path_174">
						<path class="st2" d="M85.9,17.6c-0.2-0.2-0.3-0.5-0.6-0.7c-0.2-0.2-0.5-0.4-0.7-0.6c-0.2-0.2-0.5-0.3-0.7-0.5
							c-0.2-0.1-0.5-0.3-0.7-0.4l-2.9-1.4l-0.3,0.7l0.3,0.1c0.2,0.1,0.3,0.2,0.5,0.3c0.1,0,0.1,0.1,0.1,0.1c0,0.1,0,0.2,0,0.2
							c-0.1,0.1-0.1,0.3-0.2,0.5L77.7,22l2.5,1.2c0.6,0.3,1.2,0.5,1.9,0.5h0.3c0.5,0,0.9-0.1,1.3-0.2c0.5-0.2,0.9-0.5,1.3-0.8
							c0.4-0.4,0.7-0.8,0.9-1.3c0.1-0.3,0.2-0.6,0.3-0.9c0.1-0.3,0.1-0.6,0.1-1s0-0.7-0.1-1C86.2,18.1,86.1,17.8,85.9,17.6
							L85.9,17.6L85.9,17.6z M84.6,19.4c-0.1,0.4-0.2,0.8-0.4,1.2c-0.2,0.4-0.4,0.7-0.7,1c-0.2,0.3-0.6,0.5-0.9,0.7
							c-0.3,0.2-0.7,0.2-1,0.2l0,0c-0.4,0-0.8-0.1-1.2-0.3c-0.2-0.1-0.3-0.2-0.5-0.3c-0.1-0.1-0.2-0.1-0.3-0.2l2.1-4.3
							c0.1-0.2,0.3-0.5,0.5-0.7c0.1-0.1,0.3-0.2,0.4-0.2c0.1,0,0.3,0,0.4,0c0.4,0.2,0.7,0.4,1,0.7c0.2,0.3,0.4,0.6,0.5,1
							C84.6,18.6,84.6,19,84.6,19.4L84.6,19.4L84.6,19.4z"/>
					</g>
					<g id="Path_175">
						<path class="st2" d="M109.7,43.8l-6,0.2l4.2-4.4l-0.9-2.1l-0.7,0.3l0.1,0.2c0,0,0.1,0.2,0,0.3c0,0.1,0,0.2-0.1,0.3
							c-0.1,0.1-0.1,0.2-0.2,0.3c-0.1,0.1-0.2,0.2-0.3,0.3l-4.9,5.2l0.2,0.6l9.1-0.2L109.7,43.8C109.7,43.8,109.7,43.8,109.7,43.8z"
							/>
					</g>
					<g id="Rectangle_85">
						
							<rect x="102.6" y="47.1" transform="matrix(0.956 -0.2932 0.2932 0.956 -9.3571 33.3832)" class="st2" width="8.2" height="1.7"/>
					</g>
					<g id="Path_176">
						<path class="st2" d="M110.5,48.9c0,0.2,0.1,0.4,0,0.6c0,0.1,0,0.1-0.1,0.2c-0.1,0.1-0.1,0.1-0.2,0.1c-0.1,0-0.3,0.1-0.6,0.1
							l-6.4,1.2l0.3,1.6l4-0.7l-3.5,3.6l0.5,2.4l0.8-0.1v-0.3c0-0.2,0-0.4,0-0.6c0-0.2,0.1-0.3,0.2-0.5c0.1-0.2,0.2-0.3,0.3-0.5
							c0.1-0.1,0.3-0.3,0.5-0.5l1.5-1.5c0,0,0.1,0.2,0.2,0.3c0.1,0.2,0.3,0.4,0.6,0.6c0.2,0.2,0.5,0.3,0.7,0.3
							c0.3,0.1,0.6,0.1,0.9,0c0.2,0,0.4-0.1,0.6-0.2c0.3-0.1,0.5-0.3,0.7-0.6c0.2-0.3,0.3-0.6,0.4-1c0.1-0.5,0.1-1,0-1.5l-0.7-3.5
							l-0.8,0.1L110.5,48.9L110.5,48.9L110.5,48.9z M110.8,51.7c0,0,0,0.2,0.1,0.2c0,0.2,0,0.3,0,0.5c0,0.2-0.1,0.3-0.2,0.4
							c-0.1,0.1-0.2,0.2-0.4,0.3c-0.4,0.2-0.8,0.3-1.2,0.2c-0.2-0.1-0.3-0.1-0.5-0.3c-0.1-0.1-0.2-0.3-0.3-0.5
							c-0.1-0.2-0.1-0.4-0.2-0.6l0-0.3l1.9-0.3c0.2,0,0.3,0,0.5,0c0.1,0,0.1,0.1,0.2,0.1C110.8,51.6,110.8,51.7,110.8,51.7
							C110.8,51.7,110.8,51.7,110.8,51.7z"/>
					</g>
					<g id="Path_177">
						<path class="st2" d="M110.2,57.8l0.2,0c0.8,0.1,1,0.3,1,0.4c0.2,0.3,0.3,0.7,0.2,1.1v0.3l-7.1,0.1l0,1.7l7.1-0.1v0.3
							c0,0.8-0.1,1-0.2,1.1c-0.1,0.1-0.3,0.2-1,0.4l-0.2,0.1v0.8l2.6-0.1l-0.1-7.1l-2.5,0L110.2,57.8L110.2,57.8
							C110.2,57.8,110.2,57.8,110.2,57.8z"/>
					</g>
					<g id="Path_178">
						<path class="st2" d="M112,65.5c0,0.2-0.1,0.4-0.1,0.5c0,0.1-0.1,0.1-0.1,0.1c-0.1,0-0.2,0-0.2,0c-0.2,0-0.4,0-0.6-0.1
							l-3.4-0.5c-0.4-0.1-0.8-0.1-1.2,0c-0.4,0-0.8,0.1-1.1,0.3c-0.4,0.2-0.7,0.5-0.9,0.9c-0.3,0.5-0.4,1-0.5,1.5
							c-0.1,0.5-0.1,1.1,0,1.6c0.1,0.4,0.3,0.8,0.6,1.1c0.3,0.3,0.6,0.5,1,0.7c0.3,0.1,0.7,0.2,1.1,0.3l5.1,0.8l0.2-1.1l-4.5-0.7
							l-0.5-0.1c-0.2,0-0.3-0.1-0.5-0.1c-0.2,0-0.3-0.1-0.5-0.2c-0.1-0.1-0.2-0.1-0.3-0.2c-0.2-0.2-0.4-0.5-0.5-0.8
							c-0.1-0.3-0.1-0.7,0-1c0-0.2,0.1-0.3,0.1-0.5c0.1-0.1,0.1-0.3,0.2-0.4c0.1-0.1,0.2-0.2,0.3-0.3c0.1-0.1,0.3-0.1,0.4-0.2
							c0.1,0,0.2,0,0.3,0c0.1,0,0.3,0,0.5,0c0.2,0,0.3,0,0.5,0c0.1,0,0.3,0,0.4,0.1l4.7,0.7l0.4-2.7l-0.8-0.1L112,65.5L112,65.5
							L112,65.5z"/>
					</g>
					<g id="Path_179">
						<path class="st2" d="M110.6,74.2c-0.1,0.2-0.1,0.3-0.2,0.5c0,0.1-0.1,0.1-0.1,0.1H110c-0.1,0-0.3-0.1-0.6-0.2l-6.1-2.1
							l-0.9,2.6c-0.2,0.6-0.3,1.3-0.3,1.9c0,0.6,0.1,1.1,0.4,1.6c0.2,0.5,0.6,0.9,1,1.2c0.4,0.3,0.9,0.6,1.4,0.8
							c0.3,0.1,0.6,0.2,0.9,0.2c0.2,0,0.4,0,0.6,0c0.1,0,0.3,0,0.4,0c0.3,0,0.6-0.1,0.9-0.2c0.6-0.2,1.1-0.6,1.5-1.1
							c0.2-0.2,0.3-0.5,0.5-0.8c0.1-0.2,0.2-0.5,0.3-0.8c0.1-0.3,0.2-0.5,0.3-0.8l1.1-3.1l-0.8-0.3L110.6,74.2L110.6,74.2
							L110.6,74.2L110.6,74.2z M109.3,77.2c-0.1,0.4-0.3,0.8-0.6,1.1c-0.2,0.3-0.6,0.5-0.9,0.6c-0.3,0.1-0.7,0.2-1.1,0.2
							c-0.4,0-0.8-0.1-1.2-0.2c-0.4-0.1-0.8-0.3-1.1-0.6c-0.3-0.2-0.6-0.5-0.8-0.8c-0.2-0.3-0.3-0.7-0.3-1c0-0.4,0-0.8,0.2-1.2
							c0.1-0.2,0.1-0.3,0.2-0.5c0-0.1,0.1-0.2,0.2-0.3l4.5,1.6c0.3,0.1,0.5,0.2,0.7,0.4c0.1,0.1,0.2,0.2,0.2,0.4
							C109.3,77,109.3,77.1,109.3,77.2L109.3,77.2L109.3,77.2z"/>
					</g>
					<g id="Path_180">
						<path class="st2" d="M18.1,38l0.2-0.5l0.1-0.1l-0.6-0.3l-0.5,1.1l-0.4,0.8l4.5,2l-6,1.7h-0.1l0,0.1l0,0l-0.4,1l7.5,3.3
							l0.5-1.2l-3.7-1.6l-1.1-0.5l6.6-1.8h0.1l0.3-0.7l-6.8-3C18.3,38.3,18,38.2,18.1,38L18.1,38L18.1,38z"/>
					</g>
				</g>
			</g>
			<g id="Group_15">
				<g id="Rectangle_86">
					<rect x="131.3" y="80.5" class="st0" width="261.3" height="1"/>
				</g>
				<g id="Group_11">
					<g id="Path_181">
						<path class="st0" d="M147.3,35.8c0,0.9-0.1,1.7-0.3,2.5c-0.2,0.8-0.6,1.6-1.1,2.3c-0.6,0.7-1.3,1.3-2.2,1.7
							c-1.1,0.5-2.3,0.7-3.6,0.7c-1.3,0-2.5-0.2-3.7-0.6c-1.7-0.6-2.9-2.1-3.3-3.8c-0.2-0.9-0.3-1.8-0.3-2.6v-8.4c0-0.6,0-1.1,0-1.5
							c0-0.3-0.1-0.7-0.3-0.9c-0.2-0.3-0.5-0.5-0.8-0.5c-0.5-0.1-1-0.1-1.5-0.1v-0.5h5.3v11.9c0,0.4,0,0.7,0.1,1.2s0.1,0.8,0.1,1.1
							c0,0.3,0.1,0.6,0.2,0.9c0.1,0.5,0.4,0.9,0.7,1.2c0.3,0.3,0.6,0.6,1,0.8c0.4,0.2,0.8,0.4,1.3,0.5c0.5,0.1,0.9,0.2,1.4,0.2
							c0.9,0,1.9-0.2,2.8-0.6c0.9-0.3,1.6-0.9,2.2-1.7c0.2-0.3,0.4-0.7,0.5-1.2c0.1-0.4,0.2-0.9,0.3-1.3c0.1-0.5,0.1-0.9,0.1-1.3
							V23.9h1.2L147.3,35.8L147.3,35.8L147.3,35.8z"/>
					</g>
					<g id="Path_182">
						<path class="st0" d="M171.7,23.9h2.6v18.6h-2.6V23.9z"/>
					</g>
					<g id="Path_183">
						<path class="st0" d="M187.8,42.9h-0.5l-6.6-15.5c-0.1-0.3-0.3-0.7-0.5-1c-0.2-0.3-0.3-0.6-0.6-0.9c-0.2-0.3-0.5-0.5-0.8-0.7
							c-0.3-0.2-0.7-0.3-1.1-0.3v-0.5h4.4l6.1,14.8l5.9-14.8h1.4L187.8,42.9L187.8,42.9L187.8,42.9z"/>
					</g>
					<g id="Path_184">
						<path class="st0" d="M201.8,32.3h5.2c0.3,0,0.7,0,1-0.1c0.2,0,0.5-0.2,0.6-0.4c0.1-0.2,0.2-0.5,0.2-0.8h0.5v3.9h-0.5
							c0-0.3,0-0.7-0.2-1c-0.1-0.2-0.3-0.4-0.6-0.5c-0.3-0.1-0.7-0.1-1-0.1h-5.2v5c0,0.3,0,0.6,0,1c0,0.4,0.1,0.7,0.3,1.1
							c0.2,0.4,0.6,0.7,0.9,0.8c0.6,0.2,1.2,0.4,1.9,0.3h2.1c0.5,0,1-0.1,1.6-0.2c0.4-0.1,0.8-0.3,1.1-0.7c0.3-0.3,0.6-0.7,0.8-1.1
							c0.2-0.5,0.4-1.1,0.6-1.7h0.8l-1,4.7h-11.8v-15c0-0.6,0-1.1,0-1.5c0-0.3-0.1-0.7-0.3-0.9c-0.2-0.3-0.5-0.5-0.8-0.5
							c-0.5-0.1-1-0.2-1.5-0.1v-0.5h14.3l0.2,4.1h-0.6c-0.1-0.6-0.2-1.1-0.5-1.7c-0.1-0.4-0.4-0.7-0.7-0.9c-0.3-0.2-0.7-0.3-1.1-0.4
							c-0.6-0.1-1.1-0.1-1.6-0.1h-4.7L201.8,32.3L201.8,32.3L201.8,32.3z"/>
					</g>
					<g id="Path_185">
						<path class="st0" d="M215.9,27.5c0-0.6,0-1.1,0-1.5c0-0.3-0.1-0.7-0.3-0.9c-0.2-0.3-0.5-0.5-0.8-0.5c-0.5-0.1-1-0.2-1.5-0.1
							v-0.5h8.1c1.1,0,2.3,0.1,3.3,0.5c0.7,0.3,1.4,0.7,2,1.3c0.4,0.5,0.8,1,0.9,1.6c0.1,0.5,0.2,0.9,0.2,1.4c0,0.6-0.1,1.2-0.4,1.8
							c-0.2,0.5-0.6,1-1,1.4c-0.4,0.4-0.9,0.7-1.5,1c-0.6,0.2-1.2,0.5-1.7,0.6l3.6,5.1c0.3,0.5,0.7,0.9,1,1.3c0.3,0.4,0.7,0.7,1,1
							c0.4,0.3,0.8,0.6,1.3,0.7c0.5,0.2,1.1,0.3,1.7,0.4v0.5h-5l-6.8-9.6c0.6,0,1.2-0.1,1.7-0.2c0.5-0.1,1-0.3,1.5-0.7
							c0.5-0.3,0.8-0.8,1-1.3c0.3-0.6,0.4-1.3,0.4-2c0-0.5-0.1-1.1-0.3-1.6c-0.2-0.5-0.4-0.9-0.8-1.3c-0.3-0.3-0.8-0.6-1.2-0.8
							c-0.5-0.2-1-0.3-1.5-0.3c-0.2,0-0.5,0-0.7,0c-0.3,0-0.5,0.1-0.7,0.3c-0.3,0.2-0.5,0.5-0.6,0.8c-0.2,0.5-0.3,1-0.2,1.5v15h-2.6
							L215.9,27.5L215.9,27.5L215.9,27.5L215.9,27.5z"/>
					</g>
					<g id="Path_186">
						<path class="st0" d="M233.4,36.5c0.1,1,0.3,1.9,0.8,2.7c0.4,0.6,0.9,1.2,1.5,1.6c0.5,0.4,1.1,0.6,1.7,0.8
							c0.5,0.1,1,0.2,1.5,0.2c0.5,0,0.9-0.1,1.4-0.2c0.4-0.1,0.8-0.3,1.2-0.6c0.3-0.2,0.6-0.6,0.8-0.9c0.2-0.4,0.3-0.9,0.3-1.3
							c0-0.7-0.2-1.4-0.7-1.9c-0.5-0.6-1.2-1.1-1.8-1.5c-0.7-0.5-1.5-0.9-2.3-1.4c-0.8-0.4-1.6-0.9-2.3-1.5
							c-0.7-0.5-1.3-1.1-1.8-1.8c-0.5-0.7-0.7-1.5-0.7-2.4c0-0.7,0.1-1.4,0.4-2c0.3-0.6,0.7-1.1,1.2-1.6c0.5-0.4,1.1-0.8,1.7-1
							c0.7-0.2,1.4-0.4,2.1-0.4c0.5,0,0.9,0.1,1.4,0.2c0.4,0.1,0.8,0.2,1.1,0.4c0.2,0.1,0.4,0.2,0.6,0.4c0.2,0.2,0.5,0.3,0.7,0.5
							c0.3,0.1,0.6,0.2,0.9,0.3c0.3,0,0.7-0.1,1-0.3l-0.1,5.1h-0.5c-0.1-0.7-0.2-1.4-0.5-2.1c-0.2-0.6-0.6-1.2-1-1.7
							c-0.5-0.5-1-0.9-1.6-1.1c-0.7-0.3-1.4-0.4-2.1-0.4c-0.4,0-0.8,0.1-1.2,0.2c-0.4,0.1-0.7,0.3-1,0.6s-0.6,0.6-0.7,0.9
							c-0.2,0.3-0.3,0.7-0.3,1.2c0,0.7,0.3,1.3,0.8,1.7c0.6,0.5,1.2,1,1.9,1.4c0.8,0.4,1.6,0.9,2.5,1.3c0.9,0.4,1.7,0.9,2.5,1.4
							c0.7,0.5,1.4,1.1,1.9,1.8c0.5,0.7,0.8,1.5,0.8,2.4c0,0.7-0.1,1.4-0.4,2.1s-0.7,1.2-1.2,1.7c-0.6,0.5-1.2,0.9-1.9,1.2
							c-0.8,0.3-1.6,0.4-2.5,0.4c-0.6,0-1.1,0-1.7-0.2c-0.4-0.1-0.8-0.2-1.3-0.4c-0.2-0.1-0.4-0.2-0.5-0.3c-0.2-0.1-0.4-0.2-0.6-0.3
							c-0.3-0.1-0.6-0.2-0.9-0.3c-0.4-0.1-0.9-0.1-1.3-0.1v-4.8L233.4,36.5L233.4,36.5L233.4,36.5z"/>
					</g>
					<g id="Path_187">
						<path class="st0" d="M249.5,23.9h2.6v18.6h-2.6V23.9z"/>
					</g>
					<g id="Path_188">
						<path class="st0" d="M258.7,27.5c0-0.6,0-1.1,0-1.5c0-0.3-0.1-0.7-0.3-0.9c-0.2-0.3-0.5-0.5-0.8-0.5c-0.5-0.1-1-0.1-1.5-0.1
							v-0.5h7.2c0.6,0,1.3,0,2,0c0.7,0,1.4,0.1,2,0.2c0.7,0.1,1.3,0.2,2,0.5c1.4,0.4,2.5,1.3,3.4,2.4c0.5,0.6,0.9,1.2,1.2,1.8
							c0.3,0.7,0.5,1.4,0.7,2.1c0.1,0.7,0.2,1.5,0.2,2.2c0,1.2-0.2,2.4-0.6,3.6c-0.4,1.1-1,2.1-1.9,3c-0.9,0.9-2,1.6-3.1,2
							c-1.4,0.5-2.9,0.8-4.4,0.7h-6L258.7,27.5L258.7,27.5L258.7,27.5z M261.4,41.1c0.5,0.1,1,0.2,1.5,0.3c0.5,0.1,1,0.1,1.5,0.1
							c1.1,0,2.2-0.2,3.2-0.7c0.9-0.4,1.7-1,2.3-1.8c0.6-0.8,1.1-1.7,1.4-2.6c0.3-1,0.5-2.1,0.5-3.2c0-1.1-0.2-2.2-0.5-3.2
							c-0.3-1-0.8-1.8-1.4-2.6c-0.6-0.8-1.4-1.4-2.3-1.8c-1-0.5-2.1-0.7-3.2-0.6c-1,0-2,0.7-2.4,1.6c-0.3,0.7-0.5,1.5-0.4,2.3
							L261.4,41.1L261.4,41.1L261.4,41.1L261.4,41.1z"/>
					</g>
					<g id="Path_189">
						<path class="st0" d="M295,27.5c0-0.6,0-1.1,0-1.5c0-0.3-0.1-0.7-0.3-0.9c-0.2-0.3-0.5-0.5-0.8-0.5c-0.5-0.1-1-0.2-1.5-0.1
							v-0.5h7.2c0.6,0,1.3,0,2,0c0.7,0,1.4,0.1,2,0.2c0.7,0.1,1.3,0.2,2,0.5c0.6,0.2,1.2,0.5,1.8,0.9c0.6,0.4,1.2,0.9,1.7,1.5
							c0.5,0.6,0.9,1.2,1.2,1.8c0.3,0.7,0.5,1.4,0.7,2.1c0.2,0.7,0.2,1.5,0.2,2.2c0,1.2-0.2,2.4-0.6,3.6c-0.4,1.1-1,2.1-1.9,3
							c-0.9,0.9-2,1.6-3.1,2c-1.4,0.5-2.9,0.8-4.4,0.7h-6L295,27.5L295,27.5L295,27.5z M297.6,41.1c0.5,0.1,1,0.2,1.5,0.3
							c0.5,0.1,1,0.1,1.5,0.1c1.1,0,2.2-0.2,3.2-0.7c0.9-0.4,1.7-1,2.3-1.8c0.6-0.8,1.1-1.7,1.4-2.6c0.3-1,0.5-2.1,0.5-3.2
							c0-1.1-0.2-2.2-0.5-3.2c-0.3-1-0.8-1.8-1.4-2.6c-0.6-0.8-1.4-1.4-2.3-1.8c-1-0.5-2.1-0.7-3.2-0.6c-0.5,0-1,0.2-1.4,0.5
							c-0.4,0.3-0.7,0.7-1,1.2c-0.3,0.7-0.5,1.5-0.4,2.3L297.6,41.1L297.6,41.1L297.6,41.1z"/>
					</g>
					<g id="Path_190">
						<path class="st0" d="M165.4,23.9h-1.2v13.9h-0.1l-0.1-0.1l0,0l-11.2-13.8h-1.4v18.6h1.2V28.2l0,0v-0.3h0.1l12.2,15h0.9V27.1
							c0-0.5,0-0.9,0-1.3c0-0.3,0.1-0.6,0.3-0.8c0.2-0.2,0.4-0.4,0.7-0.5c0.4-0.1,0.8-0.1,1.1-0.1v-0.5L165.4,23.9L165.4,23.9z"/>
					</g>
					<g id="Path_191">
						<path class="st0" d="M284.7,23.5h-0.5l-8.4,19h4.6V42c-0.3,0-0.5-0.1-0.8-0.1c-0.2,0-0.5-0.1-0.7-0.2
							c-0.2-0.1-0.4-0.2-0.5-0.3c-0.1-0.2-0.2-0.4-0.2-0.6c0-0.3,0.1-0.7,0.2-1c0.1-0.3,0.2-0.5,0.3-0.7l0,0l0.1-0.2l1.1-2.5h7.2
							l2.5,6.2h2.5L284.7,23.5L284.7,23.5L284.7,23.5z M280.5,35.3l3.2-7.5l3.2,7.5H280.5z"/>
					</g>
				</g>
				<g id="Group_12">
					<g id="Path_192">
						<path class="st0" d="M207.7,65.9c0.1,1.3,0.5,2.5,1.1,3.6c0.5,0.8,1.1,1.5,1.9,2.1c0.7,0.5,1.4,0.8,2.2,1
							c0.6,0.2,1.3,0.2,2,0.3c0.6,0,1.2-0.1,1.8-0.2c0.6-0.1,1.1-0.4,1.6-0.7c0.5-0.3,0.8-0.8,1.1-1.3c0.3-0.5,0.4-1.1,0.4-1.7
							c0-0.9-0.3-1.8-0.9-2.4c-0.7-0.8-1.5-1.4-2.4-1.9c-1-0.6-2-1.2-3.1-1.8c-1.1-0.6-2.1-1.2-3.1-1.9c-0.9-0.7-1.7-1.5-2.4-2.4
							c-0.6-0.9-1-2-0.9-3.2c0-0.9,0.2-1.8,0.6-2.6c0.4-0.8,0.9-1.5,1.5-2c0.7-0.6,1.4-1,2.2-1.3c0.9-0.3,1.8-0.5,2.7-0.5
							c0.6,0,1.2,0.1,1.8,0.2c0.5,0.1,1,0.3,1.5,0.5c0.3,0.1,0.5,0.3,0.8,0.5c0.3,0.2,0.6,0.4,1,0.6c0.3,0.2,0.7,0.3,1.1,0.3
							c0.4,0,0.9-0.1,1.2-0.4l-0.1,6.6h-0.7c-0.1-0.9-0.3-1.8-0.6-2.7c-0.3-0.8-0.8-1.6-1.4-2.2c-1.2-1.3-3-2.1-4.8-2
							c-0.5,0-1,0.1-1.5,0.3c-0.5,0.2-1,0.4-1.4,0.8c-0.4,0.3-0.7,0.8-0.9,1.2c-0.2,0.5-0.4,1-0.4,1.5c0,0.9,0.4,1.7,1,2.3
							c0.8,0.7,1.6,1.3,2.5,1.8c1,0.6,2.1,1.2,3.2,1.7c1.1,0.5,2.2,1.2,3.2,1.9c0.9,0.7,1.8,1.5,2.5,2.4c0.7,0.9,1,2,1,3.1
							c0,0.9-0.2,1.8-0.6,2.7c-0.4,0.8-0.9,1.6-1.6,2.2c-0.7,0.7-1.6,1.2-2.5,1.5c-1,0.4-2.1,0.6-3.2,0.6c-0.7,0-1.5-0.1-2.2-0.2
							c-0.6-0.1-1.1-0.3-1.6-0.5c-0.2-0.1-0.5-0.2-0.7-0.4c-0.2-0.2-0.5-0.3-0.8-0.5c-0.4-0.2-0.7-0.3-1.1-0.4
							c-0.6-0.1-1.2-0.2-1.7-0.2v-6.2L207.7,65.9L207.7,65.9L207.7,65.9z"/>
					</g>
					<g id="Path_193">
						<path class="st0" d="M231.9,60.3h6.7c0.5,0,0.9,0,1.3-0.1c0.3-0.1,0.6-0.2,0.8-0.5c0.2-0.3,0.3-0.7,0.3-1h0.7v5.1h-0.7
							c0-0.5-0.1-0.9-0.2-1.3c-0.2-0.3-0.4-0.5-0.8-0.6c-0.4-0.1-0.9-0.2-1.3-0.2H232v6.5c0,0.4,0,0.8,0,1.3c0,0.5,0.2,1,0.5,1.4
							c0.3,0.5,0.7,0.9,1.2,1.1c0.8,0.3,1.6,0.5,2.4,0.4h2.8c0.7,0,1.4-0.1,2-0.3c0.5-0.2,1-0.5,1.4-0.8c0.4-0.4,0.8-0.9,1-1.5
							c0.3-0.7,0.6-1.4,0.8-2.2h1l-1.3,6.1h-15.3V54.1c0-0.8,0-1.4,0-1.9c0-0.5-0.1-0.9-0.4-1.3c-0.2-0.3-0.6-0.6-1-0.7
							c-0.7-0.1-1.3-0.2-2-0.2v-0.7h18.6l0.3,5.3h-0.7c-0.1-0.7-0.3-1.5-0.6-2.2c-0.2-0.5-0.5-0.9-0.9-1.2c-0.4-0.3-0.9-0.5-1.5-0.5
							c-0.7-0.1-1.4-0.1-2.1-0.1h-6.2V60.3L231.9,60.3L231.9,60.3L231.9,60.3z"/>
					</g>
					<g id="Path_194">
						<path class="st0" d="M250.9,54.1c0-0.8,0-1.4,0-1.9c0-0.5-0.1-0.9-0.4-1.3c-0.2-0.3-0.6-0.6-1-0.7c-0.7-0.1-1.3-0.2-2-0.2
							v-0.7h11.2c1.5,0,2.9,0.1,4.4,0.5c1,0.3,2.1,0.8,2.9,1.5c0.7,0.6,1.3,1.3,1.6,2.1c0.3,0.8,0.5,1.6,0.5,2.4
							c0,1.3-0.4,2.5-1.3,3.4c-0.8,0.9-1.8,1.6-3,1.9v0.1c0.7,0.1,1.4,0.3,2,0.6c0.6,0.3,1.2,0.7,1.7,1.2c0.5,0.5,0.9,1,1.2,1.7
							c0.3,0.7,0.5,1.4,0.5,2.1c0,0.7-0.1,1.3-0.3,2c-0.2,0.8-0.7,1.6-1.3,2.2c-0.8,0.8-1.8,1.4-2.8,1.8c-1.6,0.6-3.2,0.8-4.9,0.7
							h-9L250.9,54.1L250.9,54.1L250.9,54.1z M254.3,71.9c1.4,0.3,2.8,0.5,4.1,0.5c0.8,0,1.6-0.1,2.3-0.3c0.8-0.2,1.5-0.5,2.1-0.9
							c0.6-0.4,1.2-0.9,1.6-1.6c0.4-0.7,0.6-1.5,0.6-2.3c0-0.9-0.2-1.9-0.7-2.7c-0.5-0.7-1.1-1.3-1.8-1.7c-0.8-0.4-1.6-0.7-2.5-0.9
							c-0.9-0.2-1.8-0.2-2.7-0.2l-3.1,0.1L254.3,71.9L254.3,71.9L254.3,71.9z M261.5,60.1c0.7-0.3,1.3-0.7,1.8-1.3
							c0.4-0.5,0.7-1,0.8-1.6c0.1-0.5,0.2-0.9,0.2-1.4c0-0.8-0.2-1.7-0.6-2.4c-0.4-0.6-0.9-1.2-1.6-1.6c-0.7-0.4-1.4-0.7-2.2-0.9
							c-0.8-0.2-1.6-0.3-2.4-0.3c-0.6,0-1.1,0.2-1.6,0.5c-0.5,0.5-0.8,1-1.1,1.6c-0.4,1.1-0.6,2.3-0.5,3.4v4.4l4,0
							C259.4,60.6,260.5,60.5,261.5,60.1C261.5,60.1,261.5,60.1,261.5,60.1z"/>
					</g>
					<g id="Path_195">
						<path class="st0" d="M294.7,65.9c0.1,1.3,0.5,2.5,1.1,3.6c0.5,0.8,1.1,1.5,1.9,2.1c0.7,0.5,1.4,0.8,2.2,1
							c0.6,0.2,1.3,0.2,2,0.3c0.6,0,1.2-0.1,1.8-0.2c0.6-0.1,1.1-0.4,1.6-0.7c0.5-0.3,0.8-0.8,1.1-1.3c0.3-0.5,0.4-1.1,0.4-1.7
							c0-0.9-0.3-1.8-0.9-2.4c-0.7-0.8-1.5-1.4-2.4-1.9c-1-0.6-2-1.2-3.1-1.8c-1.1-0.6-2.1-1.2-3.1-1.9c-0.9-0.7-1.7-1.5-2.4-2.4
							c-0.6-0.9-1-2-0.9-3.2c0-0.9,0.2-1.8,0.6-2.6c0.4-0.8,0.9-1.5,1.5-2c0.7-0.6,1.4-1,2.2-1.3c0.9-0.3,1.8-0.5,2.7-0.5
							c0.6,0,1.2,0.1,1.8,0.2c0.5,0.1,1,0.3,1.5,0.5c0.3,0.1,0.5,0.3,0.8,0.5c0.3,0.2,0.6,0.4,1,0.6c0.3,0.2,0.7,0.3,1.1,0.3
							c0.4,0,0.9-0.1,1.2-0.4l-0.1,6.6h-0.7c-0.1-0.9-0.3-1.8-0.6-2.7c-0.3-0.8-0.8-1.6-1.4-2.2c-0.6-0.6-1.3-1.1-2.1-1.5
							c-0.8-0.4-1.8-0.6-2.7-0.6c-0.5,0-1,0.1-1.5,0.3c-0.5,0.2-1,0.4-1.4,0.8c-0.4,0.3-0.7,0.8-0.9,1.2c-0.2,0.5-0.4,1-0.4,1.5
							c0,0.9,0.4,1.7,1,2.3c0.8,0.7,1.6,1.3,2.5,1.8c1,0.6,2.1,1.2,3.2,1.7c1.1,0.5,2.2,1.2,3.2,1.9c0.9,0.7,1.8,1.5,2.5,2.4
							c0.7,0.9,1,2,1,3.1c0,0.9-0.2,1.8-0.6,2.7c-0.4,0.8-0.9,1.6-1.6,2.2c-0.7,0.7-1.6,1.2-2.5,1.5c-1,0.4-2.1,0.6-3.2,0.6
							c-0.7,0-1.5-0.1-2.2-0.2c-0.6-0.1-1.1-0.3-1.6-0.5c-0.2-0.1-0.5-0.2-0.7-0.4c-0.2-0.2-0.5-0.3-0.8-0.5
							c-0.4-0.2-0.7-0.3-1.1-0.4c-0.6-0.1-1.2-0.2-1.7-0.2v-6.2L294.7,65.9L294.7,65.9L294.7,65.9z"/>
					</g>
					<g id="Path_196">
						<path class="st0" d="M320.6,51h-2.1c-1.4-0.1-2.9,0.2-4.1,0.9c-0.9,1.1-1.5,2.4-1.6,3.8h-0.9l0.2-6.2h20.6l0.2,6.2h-0.9
							c-0.2-1.4-0.7-2.7-1.6-3.8c-1.3-0.7-2.7-1-4.2-0.9h-2v22.7h-3.7L320.6,51L320.6,51L320.6,51z"/>
					</g>
					<g id="Path_197">
						<path class="st0" d="M337.7,49.4h3.4v24.2h-3.4V49.4z"/>
					</g>
					<g id="Path_198">
						<path class="st0" d="M388.9,49.4h-1.6v18.1h-0.1l-0.1-0.2l0,0l-14.6-17.9h-1.8v24.2h1.6V54.6h0.1l15.9,19.5h1.1V53.6
							c0-0.7,0-1.2,0.1-1.7c0-0.4,0.1-0.8,0.3-1.1c0.2-0.3,0.5-0.5,0.9-0.6c0.5-0.1,1-0.2,1.5-0.2v-0.6H388.9L388.9,49.4z"/>
					</g>
					<g id="Path_199">
						<path class="st0" d="M159.2,48.9h-0.7l-10.9,24.8h6V73c-0.3,0-0.7-0.1-1-0.1c-0.3,0-0.6-0.1-0.9-0.2c-0.2-0.1-0.5-0.2-0.7-0.5
							c-0.2-0.2-0.3-0.5-0.2-0.8c0-0.4,0.1-0.9,0.3-1.3c0.2-0.4,0.3-0.7,0.4-0.9l0,0l0.1-0.3l1.4-3.3h9.4l3.3,8.1h3.2L159.2,48.9
							L159.2,48.9L159.2,48.9z M153.7,64.2l4.2-9.8l4.1,9.8C162,64.2,153.7,64.2,153.7,64.2z"/>
					</g>
					<g id="Path_200">
						<path class="st0" d="M191.5,49.4h-1.6v18.1h-0.1l-0.1-0.2l0,0l-14.6-17.9h-1.8v24.2h1.6V54.6h0.1l15.9,19.5h1.1V53.6
							c0-0.7,0-1.2,0-1.7c0-0.4,0.1-0.8,0.3-1.1c0.2-0.3,0.5-0.5,0.9-0.6c0.5-0.1,1-0.2,1.5-0.2v-0.6L191.5,49.4L191.5,49.4z"/>
					</g>
					<g id="Path_201">
						<path class="st0" d="M282.7,48.8H282l-10.9,24.8h6v-0.7c-0.3,0-0.7-0.1-1-0.1c-0.3,0-0.6-0.1-0.9-0.2
							c-0.2-0.1-0.5-0.2-0.7-0.5c-0.2-0.2-0.3-0.5-0.2-0.8c0-0.4,0.1-0.9,0.3-1.3c0.1-0.4,0.3-0.7,0.4-1l0,0l0.1-0.3l1.4-3.3h9.4
							l3.3,8.1h3.2L282.7,48.8L282.7,48.8L282.7,48.8L282.7,48.8z M277.1,64.2l4.2-9.8l4.1,9.8L277.1,64.2L277.1,64.2L277.1,64.2z"
							/>
					</g>
					<g id="Path_202">
						<path class="st0" d="M130.9,65.9c0.1,1.3,0.5,2.5,1.1,3.6c0.5,0.8,1.1,1.5,1.9,2.1c0.7,0.5,1.4,0.8,2.2,1
							c0.6,0.2,1.3,0.2,2,0.3c0.6,0,1.2-0.1,1.8-0.2c0.6-0.1,1.1-0.4,1.6-0.7c0.5-0.3,0.8-0.8,1.1-1.3c0.3-0.5,0.4-1.1,0.4-1.7
							c0-0.9-0.3-1.8-0.9-2.4c-0.7-0.8-1.5-1.4-2.4-1.9c-1-0.6-2-1.2-3.1-1.8c-1.1-0.6-2.1-1.2-3.1-1.9c-0.9-0.7-1.7-1.4-2.4-2.4
							c-0.6-0.9-1-2-0.9-3.2c0-0.9,0.2-1.8,0.6-2.6c0.4-0.8,0.9-1.5,1.5-2c0.7-0.6,1.4-1,2.2-1.3c0.9-0.3,1.8-0.5,2.7-0.5
							c0.6,0,1.2,0.1,1.8,0.2c0.5,0.1,1,0.3,1.5,0.5c0.3,0.1,0.5,0.3,0.8,0.5c0.3,0.2,0.6,0.4,1,0.6c0.3,0.2,0.7,0.3,1.1,0.3
							c0.5,0,0.9-0.1,1.2-0.4l-0.1,6.6h-0.7c-0.1-0.9-0.3-1.8-0.6-2.7c-0.3-0.8-0.8-1.6-1.4-2.2c-0.6-0.6-1.3-1.1-2.1-1.5
							c-0.8-0.4-1.8-0.6-2.7-0.6c-0.5,0-1,0.1-1.5,0.3c-0.5,0.2-1,0.4-1.4,0.8c-0.4,0.3-0.7,0.8-0.9,1.2c-0.2,0.5-0.4,1-0.4,1.5
							c0,0.9,0.4,1.7,1,2.3c0.8,0.7,1.6,1.3,2.5,1.8c1,0.6,2.1,1.2,3.2,1.7c1.1,0.5,2.2,1.2,3.2,1.9c0.9,0.7,1.8,1.5,2.5,2.4
							c0.7,0.9,1,2,1,3.1c0,0.9-0.2,1.8-0.6,2.7c-0.4,0.8-0.9,1.6-1.6,2.2c-0.7,0.7-1.6,1.2-2.5,1.5c-1,0.4-2.1,0.6-3.2,0.6
							c-0.7,0-1.5-0.1-2.2-0.2c-0.6-0.1-1.1-0.3-1.6-0.5c-0.2-0.1-0.5-0.2-0.7-0.4c-0.2-0.2-0.5-0.3-0.8-0.5
							c-0.4-0.2-0.7-0.3-1.1-0.4c-0.6-0.1-1.2-0.2-1.7-0.2v-6.2L130.9,65.9L130.9,65.9L130.9,65.9z"/>
					</g>
					<g id="Path_203">
						<path class="st0" d="M360.3,65.5h-9.4l-1.4,3.4c-0.1,0.3-0.3,0.7-0.5,1.2c-0.2,0.4-0.3,0.8-0.3,1.3c0,0.3,0.1,0.6,0.2,0.8
							c0.2,0.2,0.4,0.4,0.7,0.5c0.3,0.1,0.6,0.2,0.9,0.2c0.3,0.1,0.7,0.1,1,0.1v0.7h-6l10.9-24.8h0.7l9.8,24.8h-3.2L360.3,65.5
							L360.3,65.5L360.3,65.5z M355.7,54.4l-4.2,9.8h8.4L355.7,54.4C355.7,54.4,355.7,54.4,355.7,54.4z"/>
					</g>
				</g>
				<g id="Group_14">
					<g id="Group_13">
						<g id="Path_204">
							<path class="st0" d="M137.4,95.9l-3.2-7.7h-2.9v0.9h0.3c0.2,0,0.3,0.1,0.5,0.2c0.1,0.1,0.2,0.2,0.3,0.3
								c0.1,0.1,0.2,0.3,0.3,0.5c0.1,0.2,0.2,0.4,0.3,0.6l3.7,8.8h0.7l4.5-11.1h-1.4L137.4,95.9C137.4,95.9,137.4,95.9,137.4,95.9z"
								/>
						</g>
						<g id="Path_205">
							<path class="st0" d="M152.7,89.6c-0.5-0.5-1-0.9-1.7-1.2c-1.3-0.6-2.8-0.6-4.2,0c-0.6,0.3-1.2,0.7-1.7,1.2
								c-0.5,0.5-0.9,1.1-1.1,1.8c-0.6,1.5-0.6,3.1,0,4.5c0.3,0.7,0.6,1.3,1.1,1.8c0.5,0.5,1,0.9,1.7,1.2c1.3,0.6,2.8,0.6,4.2,0
								c0.6-0.3,1.2-0.7,1.7-1.2c0.5-0.5,0.9-1.1,1.1-1.8c0.3-0.7,0.4-1.5,0.4-2.3s-0.1-1.5-0.4-2.3
								C153.5,90.7,153.2,90.1,152.7,89.6L152.7,89.6z M146.5,97c-0.3-0.4-0.6-0.9-0.7-1.4c-0.3-1.3-0.3-2.6,0-3.9
								c0.1-0.5,0.4-1,0.7-1.4c0.3-0.4,0.6-0.7,1.1-0.8c0.8-0.4,1.8-0.4,2.6,0c0.4,0.2,0.8,0.5,1.1,0.8c0.3,0.4,0.6,0.9,0.7,1.4
								c0.3,1.3,0.3,2.6,0,3.9c-0.1,0.5-0.4,1-0.7,1.4c-0.3,0.4-0.6,0.7-1.1,0.8c-0.8,0.4-1.8,0.4-2.6,0
								C147.2,97.6,146.8,97.3,146.5,97L146.5,97z"/>
						</g>
						<g id="Path_206">
							<path class="st0" d="M172.5,88l-4.9,11.1h3.3v-0.9h-0.3c-0.1,0-0.3,0-0.4-0.1c-0.1,0-0.2,0-0.3-0.1c-0.1,0-0.1-0.1-0.2-0.1
								c0,0,0-0.1,0-0.1c0-0.1,0-0.3,0.1-0.4c0.1-0.2,0.2-0.4,0.2-0.5l0.5-1.3h3.6l1.4,3.5h2L173.1,88H172.5L172.5,88z M171.1,94.5
								l1.3-3.1l1.3,3.1H171.1z"/>
						</g>
						<g id="Rectangle_87">
							<rect x="190.9" y="88.2" class="st0" width="2.1" height="10.9"/>
						</g>
						<g id="Path_207">
							<path class="st0" d="M203.8,89.6c-0.5-0.5-1-0.9-1.7-1.2c-1.3-0.6-2.8-0.6-4.2,0c-0.6,0.3-1.2,0.7-1.7,1.2
								c-0.5,0.5-0.9,1.1-1.1,1.8c-0.3,0.7-0.4,1.5-0.4,2.3c0,0.8,0.1,1.5,0.4,2.3c0.3,0.7,0.6,1.3,1.1,1.8c0.5,0.5,1,0.9,1.7,1.2
								c1.3,0.6,2.8,0.6,4.2,0c0.6-0.3,1.2-0.7,1.7-1.2c0.5-0.5,0.9-1.1,1.1-1.8c0.3-0.7,0.4-1.5,0.4-2.3s-0.1-1.5-0.4-2.3
								C204.7,90.7,204.3,90.1,203.8,89.6L203.8,89.6z M197.7,97c-0.3-0.4-0.6-0.9-0.7-1.4c-0.3-1.3-0.3-2.6,0-3.9
								c0.1-0.5,0.4-1,0.7-1.4c0.3-0.4,0.6-0.7,1.1-0.8c0.8-0.4,1.8-0.4,2.6,0c0.4,0.2,0.8,0.5,1.1,0.8c0.3,0.4,0.6,0.9,0.7,1.4
								c0.3,1.3,0.3,2.6,0,3.9c-0.1,0.5-0.4,1-0.7,1.4c-0.3,0.4-0.6,0.7-1.1,0.8c-0.8,0.4-1.8,0.4-2.6,0
								C198.3,97.6,197.9,97.3,197.7,97z"/>
						</g>
						<g id="Path_208">
							<path class="st0" d="M232.5,89.1c-0.4-0.3-0.8-0.6-1.3-0.7c-0.6-0.2-1.1-0.2-1.7-0.2h-4.5v0.9h0.3c0.2,0,0.5,0,0.8,0.1
								c0.1,0,0.2,0.1,0.3,0.2c0.1,0.1,0.1,0.2,0.1,0.4c0,0.2,0,0.5,0,0.8v8.6h2.1v-5c0.1,0.1,0.2,0.1,0.4,0.2
								c0.2,0.1,0.4,0.1,0.6,0.1c0.2,0,0.3,0,0.5,0c0.6,0,1.2-0.1,1.8-0.4c0.4-0.2,0.8-0.5,1.1-0.9c0.2-0.3,0.4-0.7,0.5-1
								c0.1-0.3,0.1-0.6,0.1-0.9c0-0.4-0.1-0.8-0.3-1.2C233.1,89.7,232.9,89.4,232.5,89.1L232.5,89.1L232.5,89.1L232.5,89.1z
								 M228.6,90.5c0-0.2,0-0.5,0.1-0.7c0-0.1,0.1-0.2,0.2-0.3c0.1,0,0.1-0.1,0.2-0.1c0.3-0.1,0.7,0,1,0.1c0.2,0.1,0.4,0.2,0.6,0.4
								c0.2,0.2,0.3,0.4,0.4,0.6c0.1,0.3,0.1,0.5,0.1,0.8c0,0.2,0,0.5-0.1,0.7c-0.1,0.2-0.2,0.4-0.3,0.6c-0.1,0.2-0.2,0.3-0.4,0.4
								c-0.3,0.1-0.7,0.2-1.1,0.1c-0.2,0-0.4-0.1-0.6-0.2l0,0L228.6,90.5L228.6,90.5L228.6,90.5z"/>
						</g>
						<g id="Path_209">
							<path class="st0" d="M244.6,89.6c-0.5-0.5-1-0.9-1.7-1.2c-1.3-0.6-2.8-0.6-4.2,0c-0.6,0.3-1.2,0.7-1.7,1.2
								c-0.5,0.5-0.9,1.1-1.1,1.8c-0.3,0.7-0.4,1.5-0.4,2.3c0,0.8,0.1,1.5,0.4,2.3c0.3,0.7,0.6,1.3,1.1,1.8c0.5,0.5,1,0.9,1.7,1.2
								c1.3,0.6,2.8,0.6,4.2,0c0.6-0.3,1.2-0.7,1.7-1.2c0.5-0.5,0.9-1.1,1.1-1.8c0.3-0.7,0.4-1.5,0.4-2.3s-0.1-1.5-0.4-2.3
								C245.5,90.7,245.1,90.1,244.6,89.6L244.6,89.6z M238.5,97c-0.3-0.4-0.6-0.9-0.7-1.4c-0.3-1.3-0.3-2.6,0-3.9
								c0.1-0.5,0.4-1,0.7-1.4c0.3-0.4,0.6-0.7,1.1-0.8c0.8-0.4,1.8-0.4,2.6,0c0.4,0.2,0.8,0.5,1.1,0.8c0.3,0.4,0.6,0.9,0.7,1.4
								c0.3,1.3,0.3,2.6,0,3.9c-0.1,0.5-0.4,1-0.7,1.4c-0.3,0.4-0.6,0.7-1.1,0.8c-0.8,0.4-1.8,0.4-2.6,0
								C239.1,97.6,238.8,97.3,238.5,97z"/>
						</g>
						<g id="Path_210">
							<path class="st0" d="M256.6,98c-0.2-0.1-0.4-0.2-0.6-0.4c-0.2-0.2-0.4-0.3-0.5-0.5c-0.2-0.2-0.3-0.5-0.5-0.7l-1.7-2.4
								c0.2-0.1,0.4-0.1,0.6-0.2c0.3-0.1,0.6-0.3,0.9-0.6c0.2-0.2,0.5-0.5,0.6-0.8c0.2-0.3,0.2-0.7,0.2-1.1c0-0.3-0.1-0.6-0.1-0.9
								c-0.1-0.4-0.3-0.7-0.6-1c-0.3-0.3-0.7-0.6-1.2-0.8c-0.6-0.2-1.3-0.3-2-0.3h-4.8v0.9h0.3c0.2,0,0.5,0,0.8,0.1
								c0.1,0,0.2,0.1,0.3,0.2c0.1,0.1,0.1,0.2,0.1,0.4c0,0.2,0,0.5,0,0.8v8.6h2.1v-5.7l4.1,5.7h3.2v-0.9h-0.3
								C257.1,98.2,256.9,98.1,256.6,98L256.6,98L256.6,98z M250.4,93.2v-2.7c0-0.2,0-0.5,0.1-0.7c0-0.1,0.1-0.2,0.2-0.3
								c0.1-0.1,0.2-0.1,0.3-0.1c0.4-0.1,0.7,0,1.1,0.1c0.2,0.1,0.4,0.2,0.6,0.4c0.2,0.2,0.3,0.4,0.4,0.6c0.1,0.2,0.1,0.5,0.1,0.8
								c0,0.3-0.1,0.7-0.2,0.9c-0.1,0.2-0.3,0.4-0.5,0.6c-0.2,0.2-0.5,0.3-0.7,0.3c-0.3,0.1-0.6,0.1-0.9,0.1L250.4,93.2L250.4,93.2z
								"/>
						</g>
						<g id="Path_211">
							<path class="st0" d="M273,96.1c-0.1,0.3-0.2,0.6-0.3,0.9c-0.1,0.2-0.2,0.4-0.3,0.5c-0.1,0.1-0.3,0.2-0.5,0.3
								c-0.2,0.1-0.5,0.1-0.8,0.1h-1.2c-0.3,0-0.6,0-0.9-0.1c-0.2-0.1-0.3-0.2-0.4-0.3c-0.1-0.1-0.1-0.3-0.1-0.5c0-0.2,0-0.4,0-0.5
								v-8.3h-3.5v0.9h0.3c0.2,0,0.5,0,0.8,0.1c0.1,0,0.2,0.1,0.3,0.2c0.1,0.1,0.1,0.2,0.1,0.4c0,0.2,0,0.5,0,0.8v8.6h7.1l0.7-3.2
								h-1L273,96.1L273,96.1L273,96.1z"/>
						</g>
						<g id="Path_212">
							<path class="st0" d="M279.8,88l-4.9,11.1h3.3v-0.9H278c-0.1,0-0.3,0-0.4-0.1c-0.1,0-0.2,0-0.3-0.1c-0.1,0-0.1-0.1-0.2-0.1
								c0,0,0-0.1,0-0.1c0-0.1,0-0.3,0.1-0.4c0.1-0.2,0.2-0.4,0.2-0.5l0.5-1.3h3.6l1.4,3.5h2L280.5,88H279.8L279.8,88L279.8,88z
								 M278.4,94.5l1.3-3.1l1.3,3.1H278.4z"/>
						</g>
						<g id="Path_213">
							<path class="st0" d="M299.4,96.1c-0.1,0.3-0.2,0.6-0.3,0.9c-0.1,0.2-0.2,0.4-0.3,0.5c-0.1,0.1-0.3,0.2-0.5,0.3
								c-0.2,0.1-0.5,0.1-0.8,0.1h-1.2c-0.3,0-0.6,0-0.9-0.1c-0.2-0.1-0.3-0.2-0.4-0.3c-0.1-0.1-0.1-0.3-0.1-0.5c0-0.2,0-0.4,0-0.5
								V94h2.6c0.2,0,0.3,0,0.5,0.1c0.1,0,0.1,0.1,0.1,0.1c0.1,0.1,0.1,0.3,0.1,0.4v0.3h0.9v-2.8h-0.9v0.3c0,0.2,0,0.2-0.1,0.2
								c0,0-0.1,0.1-0.2,0.1c-0.2,0-0.3,0-0.5,0h-2.5v-3.5h2.3c0.3,0,0.6,0,0.9,0c0.2,0,0.3,0.1,0.5,0.2c0.1,0.1,0.2,0.2,0.3,0.4
								c0.1,0.3,0.2,0.6,0.2,0.9l0,0.2h0.9l-0.2-2.9h-8.5v0.9h0.3c0.2,0,0.5,0,0.8,0.1c0.1,0,0.2,0.1,0.3,0.2
								c0.1,0.1,0.1,0.2,0.1,0.4c0,0.2,0,0.5,0,0.8v8.6h7.1l0.7-3.2h-1L299.4,96.1L299.4,96.1L299.4,96.1z"/>
						</g>
						<g id="Path_214">
							<path class="st0" d="M312.7,98.2c-0.1,0-0.2-0.1-0.4-0.1c-0.2-0.1-0.3-0.2-0.4-0.3c-0.2-0.2-0.4-0.5-0.6-0.7l-2.6-3.9
								l1.8-2.3c0.1-0.2,0.3-0.4,0.5-0.6c0.2-0.2,0.3-0.4,0.5-0.6c0.2-0.2,0.4-0.3,0.6-0.4c0.2-0.1,0.4-0.1,0.7-0.1h0.3v-0.9h-2.3
								L308,92l-2.4-3.8h-3.1v0.8l0.7,0.1c0.1,0,0.2,0.1,0.3,0.1c0.2,0.1,0.3,0.2,0.4,0.3c0.2,0.2,0.4,0.5,0.6,0.7l2.3,3.4l-2.2,2.8
								c-0.2,0.2-0.3,0.4-0.5,0.6c-0.2,0.2-0.4,0.4-0.6,0.5c-0.2,0.2-0.4,0.3-0.6,0.4c-0.2,0.1-0.5,0.2-0.7,0.2h-0.3v0.9h2.1
								l3.5-4.3l2.8,4.3h3.1v-0.9h-0.3C312.9,98.2,312.8,98.2,312.7,98.2L312.7,98.2L312.7,98.2z"/>
						</g>
						<g id="Path_215">
							<path class="st0" d="M323.5,88.9c-0.1,0-0.2,0-0.3-0.1s-0.2-0.1-0.3-0.1l-0.2-0.2c-0.3-0.2-0.7-0.3-1.1-0.4
								c-0.4-0.1-0.8-0.1-1.2-0.1c-0.8,0-1.6,0.1-2.3,0.5c-0.7,0.3-1.3,0.7-1.8,1.3c-0.5,0.6-0.9,1.2-1.1,1.9
								c-0.3,0.7-0.4,1.5-0.4,2.3c0,0.7,0.1,1.5,0.4,2.2c0.2,0.7,0.6,1.2,1.1,1.7c0.5,0.5,1,0.9,1.7,1.2c0.7,0.3,1.4,0.4,2.2,0.4
								c0.9,0,1.9-0.2,2.7-0.7c0.8-0.5,1.4-1.3,1.8-2.1l0.1-0.2l-0.7-0.5l-0.2,0.2c-0.2,0.3-0.4,0.6-0.7,0.9
								c-0.2,0.2-0.4,0.4-0.7,0.6c-0.2,0.2-0.5,0.3-0.8,0.4c-0.8,0.2-1.5,0.2-2.3-0.1c-0.4-0.1-0.8-0.4-1.1-0.7
								c-0.4-0.4-0.6-0.8-0.8-1.3c-0.2-0.7-0.3-1.4-0.3-2.1c0-0.7,0.1-1.4,0.3-2.1c0.1-0.5,0.4-1,0.7-1.5c0.3-0.4,0.6-0.6,1-0.8
								c0.8-0.3,1.7-0.4,2.5-0.1c0.3,0.1,0.6,0.3,0.9,0.6c0.3,0.2,0.5,0.5,0.6,0.8c0.2,0.4,0.3,0.7,0.5,1.1l0.1,0.2h0.8l-0.2-3.1"/>
						</g>
						<g id="Path_216">
							<path class="st0" d="M334.2,96.1c-0.1,0.3-0.2,0.6-0.3,0.9c-0.1,0.2-0.2,0.4-0.3,0.5c-0.1,0.1-0.3,0.2-0.5,0.3
								c-0.2,0.1-0.5,0.1-0.8,0.1h-1.2c-0.3,0-0.6,0-0.9-0.1c-0.2-0.1-0.3-0.2-0.4-0.3c-0.1-0.1-0.1-0.3-0.1-0.5c0-0.2,0-0.4,0-0.5
								V94h2.6c0.2,0,0.3,0,0.5,0.1c0.1,0,0.1,0.1,0.1,0.1c0.1,0.1,0.1,0.3,0.1,0.4v0.3h0.9v-2.8h-0.9v0.3c0,0.2,0,0.2-0.1,0.2
								c0,0-0.1,0.1-0.2,0.1c-0.2,0-0.3,0-0.5,0h-2.5v-3.5h2.3c0.3,0,0.6,0,0.9,0c0.2,0,0.3,0.1,0.5,0.2c0.1,0.1,0.2,0.2,0.3,0.4
								c0.1,0.3,0.2,0.6,0.2,0.9l0,0.2h0.9l-0.2-2.9H326v0.9h0.3c0.2,0,0.5,0,0.8,0.1c0.1,0,0.2,0.1,0.3,0.2
								c0.1,0.1,0.1,0.2,0.1,0.4c0,0.2,0,0.5,0,0.8v8.6h7.1l0.7-3.2h-1l-0.1,0.2L334.2,96.1L334.2,96.1z"/>
						</g>
						<g id="Path_217">
							<path class="st0" d="M344.8,96.1c-0.1,0.3-0.2,0.6-0.3,0.9c-0.1,0.2-0.2,0.4-0.3,0.5c-0.1,0.1-0.3,0.2-0.5,0.3
								c-0.2,0.1-0.5,0.1-0.8,0.1h-1.2c-0.3,0-0.6,0-0.9-0.1c-0.2-0.1-0.3-0.2-0.4-0.3c-0.1-0.1-0.1-0.3-0.1-0.5c0-0.2,0-0.4,0-0.5
								v-8.3h-3.5v0.9h0.3c0.2,0,0.5,0,0.8,0.1c0.1,0,0.2,0.1,0.3,0.2c0.1,0.1,0.1,0.2,0.1,0.4c0,0.2,0,0.5,0,0.8v8.6h7.1l0.7-3.2
								h-1L344.8,96.1L344.8,96.1L344.8,96.1z"/>
						</g>
						<g id="Path_218">
							<path class="st0" d="M355.3,96.1c-0.1,0.3-0.2,0.6-0.3,0.9c-0.1,0.2-0.2,0.4-0.3,0.5c-0.1,0.1-0.3,0.2-0.5,0.3
								c-0.2,0.1-0.5,0.1-0.8,0.1h-1.2c-0.3,0-0.6,0-0.9-0.1c-0.2-0.1-0.3-0.2-0.4-0.3c-0.1-0.1-0.1-0.3-0.1-0.5c0-0.2,0-0.4,0-0.5
								V94h2.6c0.2,0,0.3,0,0.5,0.1c0.1,0,0.1,0.1,0.1,0.1c0.1,0.1,0.1,0.3,0.1,0.4v0.3h0.9v-2.8H354v0.3c0,0,0,0.2-0.1,0.2
								c0,0-0.1,0.1-0.2,0.1c-0.2,0-0.3,0-0.5,0h-2.5v-3.5h2.3c0.3,0,0.6,0,0.9,0c0.2,0,0.3,0.1,0.5,0.2c0.1,0.1,0.2,0.2,0.3,0.4
								c0.1,0.3,0.2,0.6,0.2,0.9l0,0.2h0.9l-0.2-2.9h-8.5v0.9h0.3c0.2,0,0.5,0,0.8,0.1c0.1,0,0.2,0.1,0.3,0.2
								c0.1,0.1,0.1,0.2,0.1,0.4c0,0.2,0,0.5,0,0.8v8.6h7.1l0.7-3.2h-1l-0.1,0.2H355.3z"/>
						</g>
						<g id="Rectangle_88">
							<rect x="380.1" y="88.2" class="st0" width="2.1" height="10.9"/>
						</g>
						<g id="Path_219">
							<path class="st0" d="M389.1,88h-0.7l-4.9,11.1h3.3v-0.9h-0.3c-0.1,0-0.3,0-0.4-0.1c-0.1,0-0.2,0-0.3-0.1
								c-0.1,0-0.1-0.1-0.2-0.1c0,0,0-0.1,0-0.1c0-0.1,0-0.3,0.1-0.4c0.1-0.2,0.2-0.4,0.2-0.5l0.5-1.3h3.6l1.4,3.5h2L389.1,88
								L389.1,88L389.1,88z M387.1,94.5l1.3-3.1l1.3,3.1H387.1L387.1,94.5L387.1,94.5z"/>
						</g>
						<g id="Path_220">
							<path class="st0" d="M215.4,89.3c0-0.2,0.1-0.2,0.1-0.3c0.1-0.1,0.2-0.2,0.4-0.3c0.2-0.1,0.4-0.1,0.7-0.1v-0.5h-2.5v7.2
								l-5.9-7.1H207v10.9h1.3v-7.6l6.4,7.8h0.7"/>
						</g>
						<g id="Path_221">
							<path class="st0" d="M377.5,88.9c-0.1,0-0.2,0-0.3-0.1c-0.1,0-0.2-0.1-0.3-0.1l-0.2-0.2c-0.3-0.2-0.7-0.3-1.1-0.4
								c-0.4-0.1-0.8-0.1-1.2-0.1c-0.8,0-1.6,0.1-2.3,0.5c-0.7,0.3-1.3,0.7-1.8,1.3c-0.5,0.6-0.9,1.2-1.1,1.9
								c-0.3,0.7-0.4,1.5-0.4,2.3c0,0.7,0.1,1.5,0.4,2.2c0.2,0.7,0.6,1.2,1.1,1.7c0.5,0.5,1,0.9,1.7,1.2c0.7,0.3,1.4,0.4,2.2,0.4
								c0.9,0,1.9-0.2,2.7-0.7c0.8-0.5,1.4-1.3,1.8-2.1l0.1-0.2l-0.7-0.5l-0.2,0.2c-0.2,0.3-0.4,0.6-0.7,0.9
								c-0.2,0.2-0.4,0.4-0.7,0.6c-0.2,0.2-0.5,0.3-0.8,0.4c-0.8,0.2-1.5,0.2-2.3-0.1c-0.4-0.1-0.8-0.4-1.1-0.7
								c-0.4-0.4-0.6-0.8-0.8-1.3c-0.2-0.7-0.3-1.4-0.3-2.1c0-0.7,0.1-1.4,0.3-2.1c0.1-0.5,0.4-1,0.7-1.5c0.3-0.4,0.6-0.6,1-0.8
								c0.8-0.3,1.7-0.4,2.5-0.1c0.3,0.1,0.6,0.3,0.9,0.6c0.3,0.2,0.5,0.5,0.6,0.8c0.2,0.4,0.3,0.7,0.5,1.1l0.1,0.2h0.8l-0.2-3.1"/>
						</g>
						<g id="Path_222">
							<path class="st0" d="M164.7,89c-0.1,0-0.2,0-0.3-0.1c-0.1,0-0.2-0.1-0.3-0.1l-0.2-0.2c-0.3-0.2-0.7-0.3-1.1-0.4
								c-0.4-0.1-0.8-0.1-1.2-0.1c-0.8,0-1.6,0.1-2.3,0.5c-0.7,0.3-1.3,0.7-1.8,1.3c-0.5,0.6-0.9,1.2-1.1,1.9
								c-0.3,0.7-0.4,1.5-0.4,2.3c0,0.7,0.1,1.5,0.4,2.2c0.2,0.7,0.6,1.2,1.1,1.7c0.5,0.5,1,0.9,1.7,1.2c0.7,0.3,1.4,0.4,2.2,0.4
								c0.9,0,1.9-0.2,2.7-0.7c0.8-0.5,1.4-1.3,1.8-2.1l0.1-0.2l-0.7-0.5l-0.2,0.2c-0.2,0.3-0.4,0.6-0.7,0.9
								c-0.2,0.2-0.4,0.4-0.7,0.6c-0.2,0.2-0.5,0.3-0.8,0.4c-0.8,0.2-1.5,0.2-2.3-0.1c-0.4-0.1-0.8-0.4-1.1-0.7
								c-0.4-0.4-0.6-0.8-0.8-1.3c-0.2-0.7-0.3-1.4-0.3-2.1c0-0.7,0.1-1.4,0.3-2.1c0.1-0.5,0.4-1,0.7-1.5c0.3-0.4,0.6-0.6,1-0.8
								c0.8-0.3,1.7-0.4,2.5-0.1c0.3,0.1,0.6,0.3,0.9,0.6c0.3,0.2,0.5,0.5,0.6,0.8c0.2,0.4,0.3,0.7,0.5,1.1l0.1,0.2h0.8l-0.2-3.1"/>
						</g>
						<g id="Path_223">
							<path class="st0" d="M188,89c-0.1,0-0.2,0-0.3-0.1c-0.1,0-0.2-0.1-0.3-0.1l-0.2-0.2c-0.3-0.2-0.7-0.3-1.1-0.4
								c-0.4-0.1-0.8-0.1-1.2-0.1c-0.8,0-1.6,0.1-2.3,0.5c-0.7,0.3-1.3,0.7-1.8,1.3c-0.5,0.6-0.9,1.2-1.1,1.9
								c-0.3,0.7-0.4,1.5-0.4,2.3c0,0.7,0.1,1.5,0.4,2.2c0.2,0.7,0.6,1.2,1.1,1.7c0.5,0.5,1,0.9,1.7,1.2c0.7,0.3,1.4,0.4,2.2,0.4
								c0.9,0,1.9-0.2,2.7-0.7c0.8-0.5,1.4-1.3,1.8-2.1l0.1-0.2l-0.7-0.5l-0.2,0.2c-0.2,0.3-0.4,0.6-0.7,0.9
								c-0.2,0.2-0.4,0.4-0.7,0.6c-0.2,0.2-0.5,0.3-0.8,0.4c-0.8,0.2-1.5,0.2-2.3-0.1c-0.4-0.1-0.8-0.4-1.1-0.7
								c-0.4-0.4-0.6-0.8-0.8-1.3c-0.2-0.7-0.3-1.4-0.3-2.1c0-0.7,0.1-1.4,0.3-2.1c0.1-0.5,0.4-1,0.7-1.5c0.3-0.4,0.6-0.6,1-0.8
								c0.8-0.3,1.7-0.4,2.5-0.1c0.3,0.1,0.6,0.3,0.9,0.6c0.3,0.2,0.5,0.5,0.6,0.8c0.2,0.4,0.3,0.7,0.5,1.1l0.1,0.2h0.8l-0.2-3.1"/>
						</g>
						<g id="Path_224">
							<path class="st0" d="M366.2,89.5c0-0.2,0.1-0.2,0.1-0.3c0.1-0.1,0.2-0.2,0.4-0.3c0.2-0.1,0.4-0.1,0.7-0.1v-0.5h-2.5v7.2
								l-5.8-7.1h-1.3v10.9h1.3v-7.6l6.4,7.8h0.7"/>
						</g>
					</g>
					<g id="Path_225">
						<path class="st0" d="M203.1,85.9c0.3-0.2,0.4-0.5,0.4-0.8c0-0.2-0.1-0.5-0.3-0.7c-0.2-0.2-0.4-0.2-0.7-0.2
							c-0.3,0-0.6,0.2-0.7,0.5l-1.5,2.4l0.5,0.5L203.1,85.9C203.1,85.9,203.1,85.9,203.1,85.9z"/>
					</g>
				</g>
			</g>
		</g>
	</g>
</g>
</svg>
