<svg id="Capa_1" data-name="Capa 1" xmlns="http://www.w3.org/2000/svg" viewBox="0 0 409.589 123.049"><defs><style>.cls-1{fill:#283341;}.cls-2{fill:#1a232f;}.cls-3{fill:#fff;}</style></defs><title>logo_</title><path class="cls-1" d="M223.144,96.124a8.842,8.842,0,0,0,1.146,3.834,7.263,7.263,0,0,0,2.069,2.251,7.041,7.041,0,0,0,2.411,1.064,10.153,10.153,0,0,0,2.111.276,7.237,7.237,0,0,0,1.931-.254,5.105,5.105,0,0,0,1.687-.787,3.882,3.882,0,0,0,1.6-3.221,3.794,3.794,0,0,0-1.01-2.624,11.7,11.7,0,0,0-2.543-2.092c-1.032-.647-2.129-1.282-3.3-1.9a27.638,27.638,0,0,1-3.3-2.053,11.468,11.468,0,0,1-2.546-2.545,5.768,5.768,0,0,1-1-3.405,6.456,6.456,0,0,1,.593-2.763,6.713,6.713,0,0,1,1.64-2.187,7.522,7.522,0,0,1,2.408-1.441,8.135,8.135,0,0,1,2.9-.514,7.477,7.477,0,0,1,1.964.238,15.1,15.1,0,0,1,1.595.512,4.667,4.667,0,0,1,.83.514,6.84,6.84,0,0,0,1.05.644,3.485,3.485,0,0,0,1.205.385,1.988,1.988,0,0,0,1.335-.4l-.118,7.154h-.71a10.02,10.02,0,0,0-.649-2.929,7.283,7.283,0,0,0-1.48-2.384,7.1,7.1,0,0,0-2.251-1.6,7.017,7.017,0,0,0-2.923-.594,4.76,4.76,0,0,0-1.661.3,4.544,4.544,0,0,0-1.463.843,4.7,4.7,0,0,0-1.022,1.3,3.435,3.435,0,0,0-.394,1.623,3.3,3.3,0,0,0,1.081,2.428,14.618,14.618,0,0,0,2.691,1.974q1.6.927,3.49,1.838a24.17,24.17,0,0,1,3.5,2.03,12.533,12.533,0,0,1,2.69,2.548,5.405,5.405,0,0,1,1.078,3.356,6.962,6.962,0,0,1-.609,2.9,7.493,7.493,0,0,1-1.737,2.419,8.085,8.085,0,0,1-2.687,1.636,9.751,9.751,0,0,1-3.457.588,10.106,10.106,0,0,1-2.365-.236,16.554,16.554,0,0,1-1.777-.514,3.424,3.424,0,0,1-.754-.411,5.66,5.66,0,0,0-.845-.5,7.185,7.185,0,0,0-1.229-.412,8.324,8.324,0,0,0-1.87-.173V96.124Z" transform="translate(-12.587 -11.383)"/><path class="cls-1" d="M249.327,90.125H256.6a5.994,5.994,0,0,0,1.438-.141,1.428,1.428,0,0,0,.845-.506,1.859,1.859,0,0,0,.279-1.092h.712v5.453h-.712a3.124,3.124,0,0,0-.259-1.44,1.308,1.308,0,0,0-.829-.678,5.209,5.209,0,0,0-1.438-.176h-7.307v6.991c0,.39.017.854.054,1.377a3.3,3.3,0,0,0,.484,1.505,3.125,3.125,0,0,0,1.339,1.191,5.981,5.981,0,0,0,2.628.471h3a7.531,7.531,0,0,0,2.194-.279,3.635,3.635,0,0,0,1.519-.905,5.5,5.5,0,0,0,1.067-1.6,18.1,18.1,0,0,0,.823-2.352h1.11l-1.384,6.56H245.612V83.374c0-.818-.02-1.5-.055-2.058a2.633,2.633,0,0,0-.418-1.339,1.85,1.85,0,0,0-1.105-.713,8.886,8.886,0,0,0-2.133-.2v-.715h20.063l.357,5.727h-.8a10.6,10.6,0,0,0-.646-2.353,2.964,2.964,0,0,0-1.006-1.278,3.5,3.5,0,0,0-1.561-.552A18.062,18.062,0,0,0,256,79.772h-6.671Z" transform="translate(-12.587 -11.383)"/><path class="cls-1" d="M269.74,83.374c0-.818-.014-1.5-.053-2.058a2.664,2.664,0,0,0-.414-1.339,1.876,1.876,0,0,0-1.109-.713,8.827,8.827,0,0,0-2.132-.2v-.715h12.079a16.991,16.991,0,0,1,4.706.572,8.891,8.891,0,0,1,3.138,1.565,6,6,0,0,1,1.76,2.252,6.392,6.392,0,0,1,.55,2.641,5.3,5.3,0,0,1-1.344,3.675,6.794,6.794,0,0,1-3.276,2.056v.073a7.6,7.6,0,0,1,2.186.657,6.751,6.751,0,0,1,1.857,1.256A6.038,6.038,0,0,1,289,94.93a5.378,5.378,0,0,1,.494,2.306,8.087,8.087,0,0,1-.34,2.106,5.761,5.761,0,0,1-1.4,2.4,8.452,8.452,0,0,1-3.067,1.955,14.329,14.329,0,0,1-5.264.807h-9.68Zm3.714,19.2a18.761,18.761,0,0,0,4.454.509,11,11,0,0,0,2.536-.3,7.416,7.416,0,0,0,2.292-.947,5.283,5.283,0,0,0,1.676-1.68,4.478,4.478,0,0,0,.651-2.484,5.2,5.2,0,0,0-.752-2.9,5.65,5.65,0,0,0-1.929-1.864,8.32,8.32,0,0,0-2.665-.965,13.333,13.333,0,0,0-2.944-.235l-3.354.118ZM281.2,89.827a5.377,5.377,0,0,0,1.952-1.4,4.186,4.186,0,0,0,.89-1.717,7.192,7.192,0,0,0,.194-1.482,4.821,4.821,0,0,0-.649-2.583,5.324,5.324,0,0,0-1.716-1.721,7.4,7.4,0,0,0-2.39-.968,11.969,11.969,0,0,0-2.627-.3,2.768,2.768,0,0,0-1.7.555,4.523,4.523,0,0,0-1.166,1.755,9.813,9.813,0,0,0-.533,3.692v4.7l4.347.039a8.39,8.39,0,0,0,3.4-.577Z" transform="translate(-12.587 -11.383)"/><path class="cls-1" d="M317.022,96.124a8.74,8.74,0,0,0,1.145,3.834,7.333,7.333,0,0,0,2.069,2.251,7.012,7.012,0,0,0,2.411,1.064,10.039,10.039,0,0,0,2.113.276,7.252,7.252,0,0,0,1.933-.254,5.1,5.1,0,0,0,1.682-.787,4,4,0,0,0,1.164-1.345,3.9,3.9,0,0,0,.43-1.876,3.782,3.782,0,0,0-1-2.624,11.7,11.7,0,0,0-2.548-2.092c-1.024-.647-2.135-1.282-3.3-1.9a26.846,26.846,0,0,1-3.294-2.053,11.222,11.222,0,0,1-2.551-2.545,5.762,5.762,0,0,1-1.01-3.405,6.441,6.441,0,0,1,.593-2.763A6.721,6.721,0,0,1,318.5,79.72a7.6,7.6,0,0,1,2.4-1.441,8.177,8.177,0,0,1,2.912-.514,7.6,7.6,0,0,1,1.957.238,16.211,16.211,0,0,1,1.6.512,4.965,4.965,0,0,1,.827.514,7.037,7.037,0,0,0,1.04.644,3.616,3.616,0,0,0,1.216.385,2.011,2.011,0,0,0,1.339-.4l-.123,7.154h-.706a10.376,10.376,0,0,0-.66-2.929A7.277,7.277,0,0,0,328.83,81.5a7.084,7.084,0,0,0-2.255-1.6,6.994,6.994,0,0,0-2.925-.594,4.744,4.744,0,0,0-1.654.3,4.478,4.478,0,0,0-1.461.843,4.672,4.672,0,0,0-1.033,1.3,3.469,3.469,0,0,0-.386,1.623,3.285,3.285,0,0,0,1.077,2.428,14.682,14.682,0,0,0,2.687,1.974q1.6.927,3.5,1.838a24.649,24.649,0,0,1,3.491,2.03,12.229,12.229,0,0,1,2.685,2.548,5.4,5.4,0,0,1,1.085,3.356,6.945,6.945,0,0,1-.614,2.9,7.543,7.543,0,0,1-1.731,2.419,8.219,8.219,0,0,1-2.687,1.637,9.811,9.811,0,0,1-3.46.587,10.242,10.242,0,0,1-2.374-.236c-.644-.155-1.241-.329-1.772-.514a3.555,3.555,0,0,1-.748-.41,5.747,5.747,0,0,0-.848-.5,7.153,7.153,0,0,0-1.226-.412,8.364,8.364,0,0,0-1.874-.173V96.124Z" transform="translate(-12.587 -11.383)"/><path class="cls-1" d="M344.987,80.016h-2.218c-2.163,0-3.644.316-4.469.943-.737.557-1.324,1.931-1.77,4.109h-.946l.233-6.715H358.1l.234,6.715h-.949q-.716-3.231-1.779-4.109-1.062-.941-4.5-.943h-2.177V104.5h-3.941Z" transform="translate(-12.587 -11.383)"/><path class="cls-1" d="M363.429,78.353h3.7V104.5h-3.7Z" transform="translate(-12.587 -11.383)"/><path class="cls-1" d="M187.77,61.841a14.03,14.03,0,0,1-.369,3.169,7.014,7.014,0,0,1-4.093,4.956,10.663,10.663,0,0,1-4.459.806,11.909,11.909,0,0,1-4.548-.731,6.946,6.946,0,0,1-2.752-1.967,6.767,6.767,0,0,1-1.364-2.819,14.363,14.363,0,0,1-.367-3.306V51.515c0-.716-.022-1.326-.058-1.818a2.324,2.324,0,0,0-.37-1.188,1.575,1.575,0,0,0-.977-.63,7.638,7.638,0,0,0-1.889-.178v-.632h6.581V60.755c0,.352,0,.753.017,1.211s.031.921.068,1.417.085.957.145,1.4a4.726,4.726,0,0,0,.261,1.12,4.452,4.452,0,0,0,.876,1.506,5.248,5.248,0,0,0,1.27,1.044,5.558,5.558,0,0,0,1.561.619,7.654,7.654,0,0,0,1.713.2,9.125,9.125,0,0,0,3.418-.683,5.869,5.869,0,0,0,2.714-2.162A4.984,4.984,0,0,0,185.8,65a11.686,11.686,0,0,0,.331-1.647,15.722,15.722,0,0,0,.123-1.679c.009-.562.02-1.074.02-1.536V47.069l1.5.03Z" transform="translate(-12.587 -11.383)"/><path class="cls-1" d="M218.262,47.069h3.288V70.248h-3.288Z" transform="translate(-12.587 -11.383)"/><path class="cls-1" d="M238.287,70.772h-.637l-8.221-19.327c-.187-.442-.391-.877-.6-1.311a6.147,6.147,0,0,0-.714-1.154,3.7,3.7,0,0,0-.967-.856,3.036,3.036,0,0,0-1.367-.423v-.632h5.429l7.667,18.447,7.382-18.447h1.68Z" transform="translate(-12.587 -11.383)"/><path class="cls-1" d="M255.816,57.506h6.45a5.366,5.366,0,0,0,1.269-.127,1.254,1.254,0,0,0,.76-.459,1.593,1.593,0,0,0,.24-.956h.63V60.8h-.63a2.875,2.875,0,0,0-.228-1.285,1.188,1.188,0,0,0-.735-.595,4.37,4.37,0,0,0-1.276-.157h-6.48v6.194c0,.358.022.761.058,1.233a3.009,3.009,0,0,0,.421,1.331,2.8,2.8,0,0,0,1.19,1.043,5.052,5.052,0,0,0,2.323.424h2.663a6.505,6.505,0,0,0,1.938-.243,3.21,3.21,0,0,0,1.35-.808,4.608,4.608,0,0,0,.948-1.416,14.732,14.732,0,0,0,.73-2.083h.987L267.2,70.248H252.527V51.515c0-.716-.013-1.326-.052-1.818a2.334,2.334,0,0,0-.365-1.188,1.6,1.6,0,0,0-.982-.63,7.562,7.562,0,0,0-1.886-.178v-.632h17.781l.312,5.074h-.7a9.816,9.816,0,0,0-.579-2.081,2.611,2.611,0,0,0-.894-1.136,3.078,3.078,0,0,0-1.38-.484,15.133,15.133,0,0,0-2.052-.112h-5.917Z" transform="translate(-12.587 -11.383)"/><path class="cls-1" d="M273.357,51.515c0-.716-.022-1.326-.054-1.818a2.346,2.346,0,0,0-.367-1.188,1.583,1.583,0,0,0-.979-.63,7.626,7.626,0,0,0-1.888-.178v-.632h10.043a10.929,10.929,0,0,1,4.132.654,6.827,6.827,0,0,1,2.448,1.584,5.047,5.047,0,0,1,1.174,1.98,6.711,6.711,0,0,1,.3,1.806,5.048,5.048,0,0,1-.476,2.24,5.7,5.7,0,0,1-1.256,1.713,6.8,6.8,0,0,1-1.826,1.214,10.611,10.611,0,0,1-2.183.71l4.514,6.3c.421.609.826,1.162,1.227,1.661a8.358,8.358,0,0,0,1.3,1.317,6.062,6.062,0,0,0,1.573.907,7.085,7.085,0,0,0,2.073.453v.637H286.9l-8.5-11.91a9.753,9.753,0,0,0,2.147-.234,5.108,5.108,0,0,0,1.877-.848,4.482,4.482,0,0,0,1.313-1.577,5.322,5.322,0,0,0,.508-2.452,5.461,5.461,0,0,0-.336-1.94,4.614,4.614,0,0,0-.961-1.559A4.463,4.463,0,0,0,281.44,48.7a4.823,4.823,0,0,0-1.923-.371,8.066,8.066,0,0,0-.878.054,1.973,1.973,0,0,0-1.676,1.277,4.435,4.435,0,0,0-.317,1.854V70.248h-3.289Z" transform="translate(-12.587 -11.383)"/><path class="cls-1" d="M295.164,62.827a7.726,7.726,0,0,0,1.023,3.39,6.458,6.458,0,0,0,1.83,2,6.194,6.194,0,0,0,2.137.944,8.789,8.789,0,0,0,1.87.247,6.4,6.4,0,0,0,1.719-.232,4.477,4.477,0,0,0,1.487-.694,3.589,3.589,0,0,0,1.035-1.19,3.531,3.531,0,0,0,.381-1.664,3.412,3.412,0,0,0-.89-2.332,10.635,10.635,0,0,0-2.262-1.853c-.912-.573-1.883-1.132-2.924-1.682a24.489,24.489,0,0,1-2.921-1.816,9.792,9.792,0,0,1-2.252-2.263,4.991,4.991,0,0,1-.9-3.006,5.745,5.745,0,0,1,.521-2.459,6.053,6.053,0,0,1,1.451-1.933A6.873,6.873,0,0,1,298.613,47a7.392,7.392,0,0,1,2.567-.452,6.923,6.923,0,0,1,1.737.209c.528.138.992.3,1.418.455a4.175,4.175,0,0,1,.737.457,6.608,6.608,0,0,0,.926.578,3.131,3.131,0,0,0,1.068.33,1.71,1.71,0,0,0,1.189-.347l-.1,6.337h-.634a8.774,8.774,0,0,0-.574-2.6,6.689,6.689,0,0,0-1.312-2.116,6.207,6.207,0,0,0-2-1.409,6.136,6.136,0,0,0-2.6-.531,4.106,4.106,0,0,0-1.47.269,3.859,3.859,0,0,0-1.29.745,4.009,4.009,0,0,0-.911,1.16,2.983,2.983,0,0,0-.352,1.43,2.923,2.923,0,0,0,.964,2.155,12.533,12.533,0,0,0,2.376,1.75q1.428.816,3.105,1.626a21.632,21.632,0,0,1,3.1,1.8,10.993,10.993,0,0,1,2.381,2.257,4.786,4.786,0,0,1,.959,2.977,6.177,6.177,0,0,1-.537,2.569,6.669,6.669,0,0,1-1.541,2.14,7.282,7.282,0,0,1-2.386,1.455,8.506,8.506,0,0,1-3.062.524,8.632,8.632,0,0,1-2.1-.218,15.6,15.6,0,0,1-1.574-.449,2.724,2.724,0,0,1-.663-.369,4.466,4.466,0,0,0-.749-.432,5.573,5.573,0,0,0-1.089-.371,7.091,7.091,0,0,0-1.663-.158V62.827Z" transform="translate(-12.587 -11.383)"/><path class="cls-1" d="M315.292,47.069h3.291V70.248h-3.291Z" transform="translate(-12.587 -11.383)"/><path class="cls-1" d="M326.739,51.515c0-.716-.019-1.326-.054-1.818a2.306,2.306,0,0,0-.37-1.188,1.566,1.566,0,0,0-.976-.63,7.711,7.711,0,0,0-1.892-.178v-.632h8.964c.792,0,1.61.023,2.467.053s1.7.118,2.542.225a15.1,15.1,0,0,1,2.464.58A9.514,9.514,0,0,1,342.111,49a9.7,9.7,0,0,1,2.06,1.877,10.56,10.56,0,0,1,1.451,2.3,11.5,11.5,0,0,1,.86,2.611,13.81,13.81,0,0,1,.285,2.765,12.928,12.928,0,0,1-.778,4.5,10.254,10.254,0,0,1-2.346,3.728,11.031,11.031,0,0,1-3.917,2.539,14.932,14.932,0,0,1-5.5.932h-7.491Zm3.287,17.013c.611.142,1.214.256,1.823.335a14.172,14.172,0,0,0,1.818.12,9.073,9.073,0,0,0,3.96-.824,8.187,8.187,0,0,0,2.869-2.238,9.759,9.759,0,0,0,1.746-3.29,12.949,12.949,0,0,0,.6-3.971,13.169,13.169,0,0,0-.6-4.024,9.356,9.356,0,0,0-1.762-3.291,8.29,8.29,0,0,0-2.927-2.213,9.688,9.688,0,0,0-4.025-.8,4.059,4.059,0,0,0-1.746.578,3.9,3.9,0,0,0-1.216,1.438,6.108,6.108,0,0,0-.54,2.848Z" transform="translate(-12.587 -11.383)"/><path class="cls-1" d="M371.925,51.515c0-.716-.013-1.326-.048-1.818a2.3,2.3,0,0,0-.371-1.188,1.559,1.559,0,0,0-.976-.63,7.638,7.638,0,0,0-1.889-.178v-.632H377.6c.8,0,1.614.023,2.471.053s1.7.118,2.538.225a14.9,14.9,0,0,1,2.466.58A9.308,9.308,0,0,1,387.3,49a9.6,9.6,0,0,1,2.065,1.877,10.869,10.869,0,0,1,1.461,2.3,11.923,11.923,0,0,1,.845,2.611,13.6,13.6,0,0,1,.293,2.765,13,13,0,0,1-.777,4.5,10.238,10.238,0,0,1-2.348,3.728,11.057,11.057,0,0,1-3.918,2.539,14.9,14.9,0,0,1-5.49.932h-7.5Zm3.3,17.013a18.507,18.507,0,0,0,1.824.335,13.854,13.854,0,0,0,1.821.12,9.043,9.043,0,0,0,3.95-.824,8.2,8.2,0,0,0,2.873-2.238,9.921,9.921,0,0,0,1.745-3.29,13.076,13.076,0,0,0,.6-3.971,13.3,13.3,0,0,0-.6-4.024,9.447,9.447,0,0,0-1.762-3.291,8.321,8.321,0,0,0-2.924-2.213,9.674,9.674,0,0,0-4.026-.8,4.12,4.12,0,0,0-1.752.578,3.908,3.908,0,0,0-1.207,1.438,6.07,6.07,0,0,0-.542,2.848Z" transform="translate(-12.587 -11.383)"/><path class="cls-1" d="M418.672,78.355v0h-1.7V97.908H416.9l-.159-.2v-.017L401.007,78.375H401l-.015-.022h-1.94V104.5h1.722V83.927h.06l17.145,21.02h1.2V82.805c0-.719.017-1.333.053-1.818A2.412,2.412,0,0,1,419.6,79.8a1.639,1.639,0,0,1,.98-.631,5.231,5.231,0,0,1,1.6-.18v-.632Z" transform="translate(-12.587 -11.383)"/><path class="cls-1" d="M210.41,47.024v-.007h-1.5V64.382h-.072l-.145-.178v-.018L194.725,47.037h-.01l-.012-.02h-1.721V70.238h1.291v.013h.239V52.415l-.026-.029v-.419h.079L209.782,70.62h.41v.009h.664V50.965c0-.635.016-1.18.047-1.609a2.134,2.134,0,0,1,.328-1.054,1.417,1.417,0,0,1,.871-.56,4.649,4.649,0,0,1,1.418-.16v-.558Z" transform="translate(-12.587 -11.383)"/><path class="cls-1" d="M359.145,46.545h-.63l-10.432,23.7h5.775v-.636c-.32-.022-.642-.059-.955-.1a4.2,4.2,0,0,1-.86-.231,1.6,1.6,0,0,1-.632-.433,1.159,1.159,0,0,1-.242-.769,3.1,3.1,0,0,1,.3-1.2c.145-.355.267-.647.375-.915h-.008l.131-.3,1.337-3.186h8.99l3.124,7.771h3.077ZM353.85,61.2l4.033-9.337,3.954,9.337Z" transform="translate(-12.587 -11.383)"/><path class="cls-1" d="M170.869,77.765h-.717L158.387,104.5h6.518v-.717c-.372-.02-.733-.06-1.088-.112a4.01,4.01,0,0,1-.964-.255,1.834,1.834,0,0,1-.716-.5,1.241,1.241,0,0,1-.276-.864,3.594,3.594,0,0,1,.332-1.347c.169-.4.313-.738.427-1.025l-.007,0,.15-.342,1.5-3.6h10.151l3.516,8.77h3.478Zm-5.99,16.553,4.564-10.557,4.462,10.557Z" transform="translate(-12.587 -11.383)"/><path class="cls-1" d="M205.642,78.353h-1.7V97.908h-.08l-.161-.2v-.017L187.977,78.371h-.009l-.014-.018h-1.943V104.5h1.7V83.927h.083l17.142,21.02h1.211V82.8c0-.719.016-1.331.053-1.816a2.336,2.336,0,0,1,.371-1.189,1.582,1.582,0,0,1,.976-.631,5.215,5.215,0,0,1,1.6-.18v-.634Z" transform="translate(-12.587 -11.383)"/><path class="cls-1" d="M304.059,77.711h-.71L291.58,104.447H298.1v-.71c-.369-.028-.733-.067-1.086-.119a3.983,3.983,0,0,1-.972-.262,1.922,1.922,0,0,1-.712-.488,1.27,1.27,0,0,1-.275-.867,3.377,3.377,0,0,1,.343-1.341c.165-.4.3-.745.42-1.037h-.01l.148-.338,1.51-3.6h10.15l3.514,8.764H314.6Zm-5.981,16.543,4.563-10.538L307.1,94.254Z" transform="translate(-12.587 -11.383)"/><path class="cls-1" d="M140.341,96.124a8.759,8.759,0,0,0,1.147,3.834,7.247,7.247,0,0,0,2.064,2.251,7.093,7.093,0,0,0,2.412,1.064,10.22,10.22,0,0,0,2.119.276,7.324,7.324,0,0,0,1.931-.254,4.923,4.923,0,0,0,1.675-.787,4.019,4.019,0,0,0,1.168-1.345,3.944,3.944,0,0,0,.432-1.876,3.794,3.794,0,0,0-1.006-2.624,11.87,11.87,0,0,0-2.544-2.092q-1.537-.97-3.3-1.9a27.546,27.546,0,0,1-3.3-2.053,11.2,11.2,0,0,1-2.547-2.545,5.762,5.762,0,0,1-1.008-3.405,6.458,6.458,0,0,1,.595-2.763,6.7,6.7,0,0,1,1.639-2.187,7.526,7.526,0,0,1,2.409-1.441,8.135,8.135,0,0,1,2.9-.514,7.434,7.434,0,0,1,1.959.238,14.583,14.583,0,0,1,1.595.512,4.459,4.459,0,0,1,.84.514,6.479,6.479,0,0,0,1.045.644,3.439,3.439,0,0,0,1.209.382,1.93,1.93,0,0,0,1.333-.4l-.113,7.154h-.715a10.055,10.055,0,0,0-.651-2.929,7.113,7.113,0,0,0-1.484-2.384,6.919,6.919,0,0,0-5.17-2.2,4.739,4.739,0,0,0-1.658.3,4.455,4.455,0,0,0-2.489,2.145,3.449,3.449,0,0,0-.4,1.623,3.275,3.275,0,0,0,1.084,2.428,14.7,14.7,0,0,0,2.69,1.974c1.062.618,2.234,1.23,3.5,1.838a24.413,24.413,0,0,1,3.492,2.03,12.308,12.308,0,0,1,2.687,2.548,5.4,5.4,0,0,1,1.084,3.356,7.023,7.023,0,0,1-.609,2.909,7.688,7.688,0,0,1-1.737,2.409,8.182,8.182,0,0,1-2.687,1.636,9.8,9.8,0,0,1-3.455.588,9.92,9.92,0,0,1-2.374-.236,16.786,16.786,0,0,1-1.769-.514,3.294,3.294,0,0,1-.756-.41,6.047,6.047,0,0,0-.845-.5,7.381,7.381,0,0,0-1.225-.412,8.408,8.408,0,0,0-1.879-.173V96.124Z" transform="translate(-12.587 -11.383)"/><path class="cls-1" d="M384.35,77.711h-.714l-11.764,26.736h6.519v-.712c-.367-.026-.733-.065-1.091-.117a4.292,4.292,0,0,1-.963-.262,1.85,1.85,0,0,1-.716-.49,1.3,1.3,0,0,1-.275-.872,3.5,3.5,0,0,1,.342-1.343c.162-.4.3-.738.422-1.028H376.1l.151-.346,1.514-3.594h10.143l3.521,8.764H394.9Zm-5.969,16.537,4.547-10.532,4.46,10.532Z" transform="translate(-12.587 -11.383)"/><path class="cls-2" d="M74.062,11.383a61.525,61.525,0,1,0,61.574,61.53A61.525,61.525,0,0,0,74.062,11.383Zm0,122.379a60.855,60.855,0,1,1,60.9-60.849A60.854,60.854,0,0,1,74.062,133.762Z" transform="translate(-12.587 -11.383)"/><polygon class="cls-1" points="46.761 85.474 49.738 85.474 48.251 90.106 46.761 85.474"/><polygon class="cls-1" points="49.738 94.739 46.761 94.739 48.251 90.106 49.738 94.739"/><polygon class="cls-1" points="43.619 91.664 43.619 88.687 48.251 90.175 43.619 91.664"/><polygon class="cls-1" points="52.883 88.687 52.883 91.664 48.251 90.175 52.883 88.687"/><polygon class="cls-1" points="60.126 85.314 63.103 85.314 61.615 89.946 60.126 85.314"/><polygon class="cls-1" points="63.103 94.578 60.126 94.578 61.615 89.946 63.103 94.578"/><polygon class="cls-1" points="56.983 91.504 56.983 88.527 61.615 90.016 56.983 91.504"/><polygon class="cls-1" points="66.247 88.527 66.247 91.504 61.615 90.016 66.247 88.527"/><polygon class="cls-1" points="73.405 85.534 76.381 85.534 74.894 90.166 73.405 85.534"/><polygon class="cls-1" points="76.381 94.8 73.405 94.8 74.894 90.166 76.381 94.8"/><polygon class="cls-1" points="70.262 91.724 70.262 88.748 74.894 90.236 70.262 91.724"/><polygon class="cls-1" points="79.526 88.748 79.526 91.724 74.894 90.236 79.526 88.748"/><path class="cls-1" d="M73.845,41.047a.393.393,0,0,1,.177.356c.048.084.188.157.127.323,0,.022-.031.035-.031.07,0,.07.056.131.056.19,0,.1-.08.172-.1.222.013.129.068.232.033.335s-.158.143-.223.212a.446.446,0,0,1-.238.4c-.057.2-.165.412-.356.432a1.564,1.564,0,0,1-.55-.169,1.225,1.225,0,0,1-.246-.108,1.115,1.115,0,0,1-.571-.624,1.447,1.447,0,0,1-.153-.416c0-.129.112-.189.229-.224.049-.158.1-.3.317-.3.125-.147.131-.412.436-.379.074-.088.106-.22.2-.273.11-.017.177.026.262.012s.124-.1.2-.106.088.043.176.083C73.671,41.065,73.764,41.063,73.845,41.047Z" transform="translate(-12.587 -11.383)"/><path class="cls-1" d="M71.506,42.686c.018,0,.018.012.033.012a1.861,1.861,0,0,0,1.554,1.1c-.006.07-.1.095-.173.126a2.2,2.2,0,0,1-.727.266c-.093.01-.142.1-.274.1a.7.7,0,0,1-.354-.172c-.031-.028-.077-.05-.1-.072a.579.579,0,0,1-.083-.473c.043-.019.066.043.083.067.068.09.129.219.238.264-.024-.174-.238-.313-.271-.533a4.659,4.659,0,0,1,.051-.667C71.484,42.7,71.506,42.7,71.506,42.686Z" transform="translate(-12.587 -11.383)"/><path class="cls-1" d="M82.559,48.732c.181-.019.263.062.269.214.138.083.3.175.273.366-.019.122-.154.205-.231.285-.059.074-.09.172-.162.251a1.086,1.086,0,0,1-.117.118,1.5,1.5,0,0,1-.1.122,1.079,1.079,0,0,1-.1.047c-.031.025-.062.064-.094.089-.093.088-.214.171-.318.253a.483.483,0,0,0-.192.082.559.559,0,0,0-.272.086c-.109-.051-.232-.086-.226-.252-.053-.066-.137-.081-.179-.154-.022-.043-.013-.1-.037-.146-.057-.11-.153-.139-.162-.291,0-.033.023-.079.014-.107-.031-.091-.167-.123-.182-.213a.676.676,0,0,1,.1-.226.287.287,0,0,1,.108-.336c.006-.092.044-.158.049-.247.05,0,.055-.066.092-.078.017-.014.068,0,.108,0a.468.468,0,0,1,.078-.038c.031-.011.07.008.1,0,.094-.031.15-.128.239-.132.047,0,.071.025.114.033.086.005.139-.047.19-.042s.106.052.167.069a1.026,1.026,0,0,0,.265-.017A.5.5,0,0,1,82.559,48.732Z" transform="translate(-12.587 -11.383)"/><path class="cls-1" d="M55.138,60.355a2.117,2.117,0,0,1,.165.417c.047.348-.175.415-.428.536-.139.073-.255.122-.38.178a3.477,3.477,0,0,1-.866.249,2.88,2.88,0,0,1-1-.125c-.077-.11-.164-.184-.174-.326,0-.064.052-.131.05-.2,0-.1-.1-.193-.1-.286-.011-.121.057-.228.055-.346a3.412,3.412,0,0,1-.047-.389.36.36,0,0,1,.03-.091c.017-.064.073-.116.078-.183.009-.115-.108-.257-.1-.368.017-.137.244-.212.31-.32-.014-.137.023-.255.129-.292.034-.013.086.005.133-.028.078-.041.121-.2.2-.27.143-.115.425-.018.549.094a2.043,2.043,0,0,1,.3.013c.077.026.1.141.183.2s.183.04.241.093a1.173,1.173,0,0,1,.106.181c.156.185.367.209.4.473.017.082-.029.182-.01.26s.086.1.138.155A.289.289,0,0,1,55.138,60.355Z" transform="translate(-12.587 -11.383)"/><path class="cls-1" d="M94.547,69.624a.755.755,0,0,1,.352.043,1.118,1.118,0,0,1,.1.119.413.413,0,0,0,.115.1c.064.03.148.021.2.045a.876.876,0,0,1,.2.131.682.682,0,0,1,.086.188c.124.052.348.034.426.143.063.1.006.24.034.353.029.095.18.13.2.23.027.127-.058.22-.064.291a.871.871,0,0,1,.126.373.584.584,0,0,1-.108.236,1.043,1.043,0,0,1-.3.235c-.08.177-.137.381-.407.37-.095.068-.147.168-.251.225a.718.718,0,0,0-.413.108c-.091.049-.154.141-.284.143a.452.452,0,0,1-.215-.063c-.051-.022-.1-.107-.162-.119s-.1.049-.162.074a.275.275,0,0,1-.315-.035c-.044-.043-.05-.093-.105-.108a.7.7,0,0,0-.171.015.535.535,0,0,1-.5-.275,8.428,8.428,0,0,1,.306-1.727,3.282,3.282,0,0,1,.557-.975,1.39,1.39,0,0,1,.237-.277.69.69,0,0,1,.335-.008C94.445,69.481,94.489,69.583,94.547,69.624Z" transform="translate(-12.587 -11.383)"/><path class="cls-1" d="M83.02,50.891s.047-.032.012-.047C83.036,50.86,82.978,50.88,83.02,50.891Z" transform="translate(-12.587 -11.383)"/><path class="cls-1" d="M82.87,50.974c.041,0,.068,0,.067-.036A.086.086,0,0,0,82.87,50.974Z" transform="translate(-12.587 -11.383)"/><path class="cls-1" d="M54.02,63.205c.018.025.1.018.095-.014C54.077,63.205,54.029,63.146,54.02,63.205Z" transform="translate(-12.587 -11.383)"/><path class="cls-1" d="M102.471,64.58a1.184,1.184,0,0,1,.369-.106c.135-.034.271-.054.4-.085a1.216,1.216,0,0,1,.291.229,2.953,2.953,0,0,0,.331.1.9.9,0,0,0,.924-1.209,1.3,1.3,0,0,0-.071-.168,1,1,0,0,0-.461-.3,1.666,1.666,0,0,0-.167-.037,1.223,1.223,0,0,0-.381.048c-.044.023-.106.076-.154.1a.783.783,0,0,0-.346.4,1.372,1.372,0,0,0-.081.247c-.025.12.048.217,0,.331-.345.059-.724.112-1.055.192a2.21,2.21,0,0,1-.331.1.731.731,0,0,1-.358-.193,1.322,1.322,0,0,1,.094-.308c.07-.235.123-.408.189-.621.035-.1.044-.259.134-.281.059-.015.145.033.2.033a.675.675,0,0,0,.185-.011c.025,0,.047-.029.075-.037s.073,0,.094-.011a.916.916,0,0,0,.376-1.2.685.685,0,0,0-.071-.09.879.879,0,0,0-.8-.273,1.171,1.171,0,0,0-.17.049c-.034.009-.065.057-.108.082a.811.811,0,0,0-.28.31,1,1,0,0,0,.021.712,2.239,2.239,0,0,1,.146.257.715.715,0,0,1-.064.441c-.029.085-.055.2-.121.237a.793.793,0,0,1-.289-.286c-.083-.1-.177-.2-.265-.306a2.867,2.867,0,0,1-.235-.334.95.95,0,0,1-.174-.392.824.824,0,0,1,.174-.629c.065-.081.175-.125.245-.24a.859.859,0,0,0-.021-.96c-.066-.095-.172-.141-.251-.234a1.1,1.1,0,0,0-.7-.061.874.874,0,0,0-.411.286.886.886,0,0,0-.135.217.857.857,0,0,0,.392,1.089c.086.044.2.035.272.09a2.069,2.069,0,0,0,.132.717,6.562,6.562,0,0,0,.711,1.3c.057.081.143.152.128.25-.221-.059-.436-.155-.663-.223a.587.587,0,0,1-.213-.084c-.039-.047-.041-.139-.071-.211s-.05-.15-.08-.22c-.046-.092-.2-.263-.2-.375,0-.076.066-.136.082-.191a.577.577,0,0,0-.071-.458.629.629,0,0,0-.873-.17l-.018.013a.821.821,0,0,0-.179.261.584.584,0,0,0,.547.8c.126,0,.228-.073.38-.081a.76.76,0,0,1,.108.235.5.5,0,0,1,.047.286,3.219,3.219,0,0,1-.485-.085,8.945,8.945,0,0,0-1.316-.152,1.381,1.381,0,0,1-.264-.025.416.416,0,0,1,.079-.283c.139-.249.4-.445.405-.768a.664.664,0,0,0-.237-.5c-.055-.048-.128-.055-.176-.132a1.247,1.247,0,0,0-.415-.065.694.694,0,0,0-.371.183,1.149,1.149,0,0,0-.383.675c0,.332.315.543.539.656.074.106.272.087.3.233a2.818,2.818,0,0,1-.328.059,6.518,6.518,0,0,0-.988.216c-.409.124-.791.285-1.162.436-.133.058-.262.1-.384.157a1.086,1.086,0,0,1-.377.147c-.038-.084.019-.166.038-.265.031-.19.048-.4.069-.593.015-.094.073-.185.024-.263a.787.787,0,0,0-.293.043.817.817,0,0,0-.312.1,7.223,7.223,0,0,1-1.759,3.786c-.145.164-.293.319-.445.472-.079.079-.176.136-.251.21-.045.042-.069.09-.114.119s-.1.048-.152.087-.081.093-.131.127-.11.057-.16.1c-.109.068-.208.157-.311.223-.053.036-.1.073-.153.1-.173.105-.344.191-.521.291-.091.046-.184.1-.253.142a.7.7,0,0,1-.105.032c-.06.031-.111.065-.164.1s-.135.049-.192.085c-.012,0-.012.03-.021.033s-.045,0-.065.011c-.163.068-.311.14-.462.2-.062.03-.118.076-.176.1a.992.992,0,0,1-.123.025c-.031.007-.068.02-.106.033-.162.074-.34.161-.5.226a.5.5,0,0,1-.12.035c-.29.091-.606.152-.93.237-.469.123-.994.2-1.448.28a.5.5,0,0,1-.121.026.987.987,0,0,1-.129.027c-.1.012-.185-.016-.283-.01-.075,0-.2.019-.306.035s-.2.07-.271.022c-.04-.024-.086-.189-.105-.257s-.017-.147-.033-.229c-.03-.129-.042-.272-.07-.405a1.589,1.589,0,0,1-.047-.163c-.008-.049.007-.1,0-.156-.018-.129-.055-.275-.061-.411-.018-.235-.026-.445-.035-.642,0-.07-.011-.137-.011-.2a5.739,5.739,0,0,1,.046-.68c.011-.144.006-.3.028-.451a4.387,4.387,0,0,1,.09-.484c.044-.219.093-.46.13-.627.028-.115.053-.183.068-.253.073-.214.107-.411.18-.593.039-.086.056-.16.083-.223a1.283,1.283,0,0,1,.109-.153c.1-.183.179-.351.271-.526a2.5,2.5,0,0,1,.189-.344.793.793,0,0,0,.121-.138c.057-.083.081-.138.13-.138.089-.027.146.045.2.062.042.017.075.013.106.027a.7.7,0,0,1,.094.049,1.314,1.314,0,0,1,.347.212,1,1,0,0,1,.127.376.7.7,0,0,1-.021.144,1.642,1.642,0,0,1-.135.456,2.719,2.719,0,0,1-.192.422c-.02.048-.053.091-.073.13-.047.065-.109.119-.147.165-.018.025-.018.053-.034.073a1.756,1.756,0,0,1-.217.176c-.052.049-.1.1-.143.141-.013.02-.052.02-.07.039a4.378,4.378,0,0,1-.369.424c-.046.071-.077.159-.118.236a.84.84,0,0,0-.092.276,1.306,1.306,0,0,0,.092.5c.012.048.072.093.11.132s.06.095.077.117c.051.044.135.07.194.12a1.506,1.506,0,0,0,.176.143.944.944,0,0,0,.906.079.515.515,0,0,0,.138-.093c.046-.038.095-.067.143-.1a1,1,0,0,0,.372-.606,2.236,2.236,0,0,0,.01-.375c-.01-.075-.1-.167-.132-.266a2.657,2.657,0,0,0-.114-.3c-.029-.049-.082-.1-.121-.171a1.5,1.5,0,0,0-.109-.185c-.06-.075-.178-.128-.187-.226a.459.459,0,0,1,.056-.2c.05-.153.1-.278.131-.411.016-.058.005-.141.072-.2a3.065,3.065,0,0,1,.5.2,2.112,2.112,0,0,1,.417.292.8.8,0,0,1,.169.307,1.113,1.113,0,0,1,.165.442,1.039,1.039,0,0,1-.047.153,1.627,1.627,0,0,0-.028.2c0,.07,0,.158,0,.224s.059.12.075.183c.02.083.02.187.048.272a1.378,1.378,0,0,0,.261.463.693.693,0,0,0,.41.177,2.2,2.2,0,0,0,.277.047,3.577,3.577,0,0,0,.358-.047.873.873,0,0,0,.712-.534,1.216,1.216,0,0,0,.12-.687,1.037,1.037,0,0,0-.309-.606.971.971,0,0,0-.5-.237,2.566,2.566,0,0,0-.608-.131,1.5,1.5,0,0,1-.379,0c-.111-.027-.171-.161-.209-.284.07-.092.211-.1.315-.142A4.536,4.536,0,0,1,88.182,65c.1-.026.2-.068.306-.1a1.372,1.372,0,0,0,.192-.019c.121-.028.236-.036.377-.061.063-.007.116-.038.177-.045a1.623,1.623,0,0,1,.714.015.5.5,0,0,1,.288.163,2.734,2.734,0,0,0,.279.259,3.7,3.7,0,0,0,.407.32c.054.028.11.038.171.064a.92.92,0,0,0,.612.044.985.985,0,0,0,.369-.4,2.333,2.333,0,0,0,.225-.556,1.421,1.421,0,0,0,.085-.321,1.125,1.125,0,0,0-.085-.525.9.9,0,0,0-.961-.37.942.942,0,0,0-.188.062c-.067.023-.136.052-.2.076-.125.047-.244.115-.36.16a1.646,1.646,0,0,0-.357.17,1.487,1.487,0,0,1-.334.2,3.158,3.158,0,0,1-.431.1c-.072.017-.152.011-.237.026-.067.009-.134.05-.2.059a.869.869,0,0,0-.125,0c-.061.006-.12.046-.18.051-.076.017-.157,0-.228.017a1.131,1.131,0,0,1-.127.046c-.052.013-.095.013-.154.025a2.434,2.434,0,0,0-.285.083c-.1.029-.2.043-.3.075a2.874,2.874,0,0,0-.285.08,2.02,2.02,0,0,1-.293.119.475.475,0,0,1-.253-.062c-.073-.025-.163-.048-.213-.067a.677.677,0,0,1-.261-.333,2.523,2.523,0,0,0,0-.275,1.28,1.28,0,0,0-.093-.223,1.251,1.251,0,0,0-.108-.123,1.294,1.294,0,0,1-.093-.139A1.808,1.808,0,0,0,85.446,63c-.072-.041-.129-.051-.136-.1a.115.115,0,0,1,.069-.126A.667.667,0,0,1,85.5,62.7c.073-.072.117-.157.179-.23.123-.14.25-.275.4-.414.071-.068.156-.176.231-.176a.771.771,0,0,1,.176.057A1.823,1.823,0,0,1,87.6,62.7c.11.2.129.486.246.684a.775.775,0,0,0,.306.3,1.612,1.612,0,0,0,.72.071,1.125,1.125,0,0,0,.153.011.925.925,0,0,0,.208-.093,1.051,1.051,0,0,0,.7-1.04,1.481,1.481,0,0,0-.04-.2A1.22,1.22,0,0,0,89.725,62a.509.509,0,0,0-.349-.268,1.769,1.769,0,0,0-.638-.131,1.655,1.655,0,0,0-.691.213,1.879,1.879,0,0,0-.2.2c-.052.066-.129.177-.228.191a.435.435,0,0,1-.28-.094,5.461,5.461,0,0,1-.435-.333c-.066-.04-.2-.118-.193-.2,0-.056.122-.127.193-.174.077-.07.151-.11.208-.159.077-.053.141-.112.209-.152.118-.07.2-.132.312-.192.034-.012.053-.04.085-.057.122-.069.272-.09.4-.157.083-.031.144-.083.2-.082s.062.029.109.061a.8.8,0,0,0,.111.07,4.172,4.172,0,0,0,.8.43,5,5,0,0,0,.723.2c.08.018.181.005.238.07.009.085-.048.148-.057.225a1.286,1.286,0,0,0,.091.7,1.089,1.089,0,0,0,.076.153,1.366,1.366,0,0,0,.781.5,1.477,1.477,0,0,0,.247.048,1.225,1.225,0,0,0,.241-.048.852.852,0,0,0,.234-.046,1.042,1.042,0,0,0,.7-.637,1.292,1.292,0,0,0-.437-1.5,1.856,1.856,0,0,0-.349-.116,1.134,1.134,0,0,0-.352-.058,1.723,1.723,0,0,0-.516.1,1.646,1.646,0,0,0-.161.049c-.1.041-.174.176-.271.191a1.288,1.288,0,0,1-.209-.048c-.144-.042-.274-.063-.411-.094-.068-.018-.129-.062-.189-.07s-.127-.006-.176-.015a1.324,1.324,0,0,1-.457-.186c-.072-.042-.257-.081-.246-.192s.156-.083.255-.118c.052-.018.089-.048.133-.062a1.373,1.373,0,0,1,.142-.044c.095-.032.176-.08.272-.11s.247-.035.335-.057a1.291,1.291,0,0,1,.456-.083.425.425,0,0,1,.106.049c.045.011.095.009.142.02a1.845,1.845,0,0,0,.262.071,2.3,2.3,0,0,0,.745.017.748.748,0,0,0,.34-.148.521.521,0,0,0,.274-.427,1,1,0,0,0-.046-.38,1.287,1.287,0,0,0-.247-.484.826.826,0,0,0-.429-.29.867.867,0,0,0-.652.233c-.082.06-.144.15-.226.2-.052.04-.118.04-.155.071s-.042.073-.069.111-.065.06-.1.094a.535.535,0,0,1-.177.2.908.908,0,0,1-.213.078c-.067.021-.148.053-.212.079a1.5,1.5,0,0,1-.44.157.609.609,0,0,1,.033-.417,2.34,2.34,0,0,1,.16-.379c.048-.1.1-.224.176-.356.059-.106.134-.278.22-.3.063-.026.132.006.186,0,.039-.011.106-.048.164-.074a3.739,3.739,0,0,0,.449-.274,1.006,1.006,0,0,0,.153-.268,1.244,1.244,0,0,0-.058-1.141.878.878,0,0,0-.311-.332.473.473,0,0,0-.136-.092,1.769,1.769,0,0,0-.741-.062.89.89,0,0,0-.415.225,1.289,1.289,0,0,0-.239.3,1.236,1.236,0,0,0-.158.748,1.154,1.154,0,0,0,.294.664.987.987,0,0,1,.234.154.546.546,0,0,0,.066.019c.152.1.053.156-.021.291-.136.229-.229.424-.342.627a3.2,3.2,0,0,0-.212.427,2.4,2.4,0,0,1-.186.462.881.881,0,0,1-.228.132c-.085.04-.16.1-.2.095s-.05-.068-.106-.132c-.039-.048-.094-.095-.118-.122a2.11,2.11,0,0,1-.2-.284,7.288,7.288,0,0,0-.5-.709.539.539,0,0,0-.058-.059c-.088-.121.068-.207.143-.3a1.078,1.078,0,0,0,.308-.863,1.04,1.04,0,0,0-.334-.68,1.255,1.255,0,0,0-1-.222,1.013,1.013,0,0,0-.189.095.849.849,0,0,0-.248.095.735.735,0,0,0-.171.185,1.11,1.11,0,0,0-.178.8,1.141,1.141,0,0,0,.119.336,1.246,1.246,0,0,0,.1.2,1.073,1.073,0,0,0,.134.108,1.179,1.179,0,0,0,.116.118,1.207,1.207,0,0,0,.357.14c.13.043.269.055.4.1a.711.711,0,0,1,.369.3c.051.074.245.281.187.377-.027.061-.072.045-.165.051-.193.012-.468.027-.616.038a7.29,7.29,0,0,1-.809-.038,1.711,1.711,0,0,1-.369-.059,1.351,1.351,0,0,1-.513-.358c-.09-.066-.23-.118-.243-.2a.426.426,0,0,1,.023-.116c0-.056,0-.114,0-.157a1.456,1.456,0,0,0-.237-.77.829.829,0,0,0-.2-.16c-.056-.03-.1-.087-.153-.112a1.092,1.092,0,0,0-.335-.1.909.909,0,0,0-.555.108.9.9,0,0,0-.559.534,1.319,1.319,0,0,0-.082.225,1.148,1.148,0,0,0-.01.379,1.306,1.306,0,0,0,.366.8,1.029,1.029,0,0,0,.657.225,1.87,1.87,0,0,0,.374-.01,1.62,1.62,0,0,0,.234-.121c.083-.057.144-.168.232-.165.046.006.086.06.128.1a1.47,1.47,0,0,0,.628.246,5.334,5.334,0,0,0,.547.106,3.435,3.435,0,0,0,.5,0c.174,0,.339.019.488.015.112-.009.255-.052.394-.062a1.3,1.3,0,0,0,.153,0c.078-.011.194-.091.293-.026a.874.874,0,0,1,.136.42c-.014.047-.08.088-.148.128-.116.08-.251.128-.365.2-.069.046-.112.106-.167.121a1.142,1.142,0,0,1-.154.034c-.048.025-.1.08-.164.118s-.13.07-.175.107-.046.055-.075.069-.067.028-.1.051c-.057.043-.1.1-.148.14-.093.074-.206.142-.325.251-.068.061-.222.257-.334.248-.176,0-.3-.387-.342-.556s-.051-.354-.168-.452a.713.713,0,0,0-.764-.131,1.722,1.722,0,0,0-.279.146.607.607,0,0,0-.166.343.875.875,0,0,0,.05.369,1.245,1.245,0,0,0,.018.148.461.461,0,0,0,.074.085c.125.172.183.294.414.321a.845.845,0,0,0,.583-.189c.041-.029.088-.1.179-.107.115,0,.256.086.248.169,0,.051-.085.1-.139.165-.142.163-.327.38-.431.507s-.2.222-.284.333c-.038.057-.086.117-.131.18s-.071.145-.153.165a1.333,1.333,0,0,1-.286-.511,3.582,3.582,0,0,0-.25-.712c-.056-.07-.18-.257-.259-.273a1.49,1.49,0,0,0-.975.05,1.091,1.091,0,0,0-.193.179.883.883,0,0,0-.235.509,1.322,1.322,0,0,0,.061.484,1.2,1.2,0,0,0,.127.368c.029.046.047.092.075.139a.6.6,0,0,0,.558.253,1.12,1.12,0,0,0,.377-.048c.045-.016.089-.054.144-.082s.127-.029.179-.061c.085-.048.143-.211.284-.211.056,0,.094.041.147.071s.1.031.1.107-.138.205-.177.258a3.213,3.213,0,0,0-.326.562,2.536,2.536,0,0,1-.262.4.847.847,0,0,0-.067.151c-.041.1-.111.2-.157.3s-.081.21-.13.308-.112.2-.154.3c-.082.2-.175.411-.258.623-.137.347-.239.635-.345.983-.073.246-.148.414-.213.681a1.662,1.662,0,0,1-.093.352c-.071.083-.3.068-.406.036a1.337,1.337,0,0,1-.294-.138.766.766,0,0,1-.326-.491c0-.128.048-.158.075-.248a2.019,2.019,0,0,0,.037-.3c.009-.1.031-.2.034-.293.007-.482-.049-1.076-.06-1.555a4.684,4.684,0,0,1-.011-.53,1.349,1.349,0,0,1,.153-.392,3.21,3.21,0,0,0,.156-.56,2.107,2.107,0,0,0,.055-.3,1.412,1.412,0,0,0-.1-.7.73.73,0,0,0-.154-.223c-.031-.017-.1-.019-.158-.047a.959.959,0,0,0-.127-.067c-.037-.008-.094,0-.132-.015a1.074,1.074,0,0,0-.122-.026.994.994,0,0,0-.379.087,2.3,2.3,0,0,0-.235.038.765.765,0,0,0-.246.149c-.039.021-.069.029-.1.047a1.579,1.579,0,0,0-.3.252.97.97,0,0,0-.226.326.849.849,0,0,0,.251.8,1.454,1.454,0,0,0,.26.26,4.642,4.642,0,0,1,.631.42.824.824,0,0,1,.108.26,3.379,3.379,0,0,1,.151.8c0,.054-.012.113-.012.167s.023.118.023.179-.02.138-.023.2c0,.04.023.077.023.117a5.232,5.232,0,0,1-.037.708c0,.084.009.183-.058.24-.231.027-.312-.083-.356-.259a2.363,2.363,0,0,0-.26-.729,2.078,2.078,0,0,0-.266-.327,1.114,1.114,0,0,0-.684-.369,1.266,1.266,0,0,0-.876.31,1.066,1.066,0,0,0-.2.252,1.5,1.5,0,0,0-.121.163,1.378,1.378,0,0,0-.072.646,1.089,1.089,0,0,0,.015.15.763.763,0,0,0,.155.248.782.782,0,0,0,.129.184,1.333,1.333,0,0,0,.758.267,2.436,2.436,0,0,0,.868-.12c.051-.024.094-.077.157-.085a1.373,1.373,0,0,1,.306.034c.095.021.2.011.3.027a1.091,1.091,0,0,1,.272.149,1.718,1.718,0,0,1,.225.218,1.8,1.8,0,0,1,.383.5c-.121.185-.387.241-.569.38-.075.052-.121.123-.2.121-.06,0-.127-.077-.189-.11s-.147-.071-.2-.1a2.32,2.32,0,0,0-.924-.212,1.082,1.082,0,0,0-.728.355,1.161,1.161,0,0,0-.315.544.872.872,0,0,0,.315.889,1.67,1.67,0,0,0,.285.216,2.4,2.4,0,0,0,.341.169c.141.031.282,0,.4.023h.017a1.39,1.39,0,0,0,.265-.108,3.45,3.45,0,0,0,.579-.534c.084-.147.164-.3.251-.451.044-.07.091-.138.142-.2a1.881,1.881,0,0,1,.141-.214c.035-.024.081-.051.123-.083a1.317,1.317,0,0,0,.1-.095,2.918,2.918,0,0,1,.237-.177,1.166,1.166,0,0,1,.547-.281,1.45,1.45,0,0,1-.056.458c-.061.407-.132.816-.178,1.249-.013.089-.007.214-.04.248-.052.061-.34.087-.461.119-.193.05-.343.064-.487.107-.669.183-1.319.362-1.909.578-.127.051-.228.071-.336.106a2.841,2.841,0,0,0-.413.178,1.066,1.066,0,0,0-.284.11c-.193.086-.365.162-.534.248-.049.024-.116.028-.154.046s-.067.081-.121.061c-.146-1.412-.177-2.979-.282-4.458-.044-.613-.061-1.227-.061-1.838,0-.311-.018-.615-.02-.915s.006-.576-.029-.855c-.024-.22-.015-.5-.034-.75-.036-.4-.049-.862-.074-1.287a2.459,2.459,0,0,1-.022-.42,1.273,1.273,0,0,1,.13-.223c.06-.076.115-.158.155-.212.314-.435.681-.793.982-1.19.221-.275.414-.555.647-.8a9.834,9.834,0,0,1,.7-.761,16.724,16.724,0,0,1,1.614-1.292c.261-.186.557-.392.834-.619.122-.1.28-.207.4-.32.182-.176.293-.355.554-.37.222-.006.425,0,.622-.006.1-.01.2-.037.3-.052s.221-.009.334-.023c.128-.015.24-.054.372-.081s.258-.044.378-.07a10.846,10.846,0,0,0,3.717-1.7c.129-.1.278-.184.392-.288.032-.029.061-.108.125-.083-.02.284-.195.509-.211.8a.734.734,0,0,0,.13.46,1.127,1.127,0,0,0,.743.294.917.917,0,0,0,.181-.011.793.793,0,0,0,.455-1.194.7.7,0,0,0-.271-.191c-.276-.124-.665-.09-.855-.323.248-.254.5-.515.744-.781.118-.132.236-.277.357-.415s.208-.3.337-.439a.652.652,0,0,1,.151.249.784.784,0,0,1,.095.309,2.049,2.049,0,0,1-.246.106.587.587,0,0,0-.324.583.648.648,0,0,0,.545.566.63.63,0,0,0,.693-.557c0-.02,0-.041,0-.061a.638.638,0,0,0-.257-.506c-.057-.037-.166-.042-.211-.122a1,1,0,0,1-.038-.162,2.838,2.838,0,0,0-.224-.7c.188-.3.354-.62.534-.927a1.171,1.171,0,0,1,.306.1c-.009.252-.039.519-.039.784a3.46,3.46,0,0,0,.172,1.164,2.148,2.148,0,0,0,.309.516.969.969,0,0,0-.23.7.883.883,0,0,0,.641.708.989.989,0,0,0,.635-.043.957.957,0,0,0,.533-.683.8.8,0,0,0-.265-.719.957.957,0,0,0-.473-.249c-.124-.02-.229.015-.325,0a.824.824,0,0,1-.154-.071.925.925,0,0,1-.362-.329,1.973,1.973,0,0,1-.144-.807c-.008-.151-.013-.3-.013-.442a1.908,1.908,0,0,1,.025-.427.906.906,0,0,1,.364.165.707.707,0,0,1,.279.274c.021.055.005.12.025.166a.856.856,0,0,0,.9.757c.034,0,.051-.027.082-.038s.088,0,.121-.008a.88.88,0,0,0,.486-.476.839.839,0,0,0-.841-1.185.977.977,0,0,0-.492.2c-.08.073-.107.168-.2.24-.34-.192-.671-.433-1.009-.634-.07-.038-.127-.062-.137-.106a1.107,1.107,0,0,1,.2-.382c.092-.059.219-.107.331-.164.223-.114.446-.233.637-.355a1.3,1.3,0,0,1,.334-.179,1.618,1.618,0,0,1,.117.179.99.99,0,0,0,1.229.165c.028-.018.053-.064.09-.094s.078-.051.111-.081a.95.95,0,0,0,.19-.622.9.9,0,0,0-.9-.792,1.021,1.021,0,0,0-.557.189.959.959,0,0,0-.358.738,3.576,3.576,0,0,1-.736.427.818.818,0,0,1-.3.071,2.418,2.418,0,0,1,.131-.432,3.008,3.008,0,0,1,.116-.448,3.753,3.753,0,0,1,.272-.319,1.3,1.3,0,0,0,.334-.763.7.7,0,0,0-.778-.613h-.009a.894.894,0,0,0-.284.068c-.38.2-.321.935-.167,1.3a.874.874,0,0,1,.1.214,2.093,2.093,0,0,1-.035.411,7.184,7.184,0,0,1-.206.928c-.014.053-.029.133-.084.155-.055-.014-.091-.076-.126-.119a3.4,3.4,0,0,1-.487-1.282,1.117,1.117,0,0,0,.256-.8,1.04,1.04,0,0,0-.66-.84,1.078,1.078,0,0,0-.88.159,1.051,1.051,0,0,0-.283.358.99.99,0,0,0,.987,1.412,3.647,3.647,0,0,1,.222.413,2.939,2.939,0,0,0,.673.924c.067.057.162.114.172.165a.626.626,0,0,1-.071.181,5.418,5.418,0,0,1-.454.829c-.027.045-.143.291-.212.3s-.254-.2-.307-.254a1.517,1.517,0,0,1-.241-.317c-.13-.277.089-.318.218-.5a1.229,1.229,0,0,0,.176-.46,1.588,1.588,0,0,0-.117-.657.428.428,0,0,0-.1-.094.932.932,0,0,0-1.033-.179.986.986,0,0,0-.451.76,1.255,1.255,0,0,0,.019.473.753.753,0,0,0,.573.438,2.383,2.383,0,0,1,.252.064,1.029,1.029,0,0,1,.471.495,2.014,2.014,0,0,1,.24.593,4.957,4.957,0,0,1-.491.523,1.7,1.7,0,0,1-.185.154c-.1-.074-.136-.156-.227-.225a1.671,1.671,0,0,0-.452-.2,4.7,4.7,0,0,1-.51-.143c-.143-.069-.436-.3-.442-.485a.708.708,0,0,1,.109-.25,4.8,4.8,0,0,0,.345-1.811,2.195,2.195,0,0,1,.031-.334,1.9,1.9,0,0,1,.161-.262c.04-.085.088-.176.125-.261a1.807,1.807,0,0,0,.192-.581.692.692,0,0,0-.211-.657c-.4-.294-.97-.006-1.334.2a.6.6,0,0,0-.162.572,1.294,1.294,0,0,0,.26.463c.07.1.161.182.239.275a1.391,1.391,0,0,1,.308.71,2.847,2.847,0,0,1-.172,1.3c-.013.052-.109.315-.173.332a.4.4,0,0,1-.263-.18,1.6,1.6,0,0,1-.012-.285,1.88,1.88,0,0,0-.152-.557c-.035-.052-.043-.122-.075-.164,0-.013-.041-.03-.055-.049s-.02-.054-.036-.068a.862.862,0,0,0-.905-.229.978.978,0,0,0-.487.428,1.034,1.034,0,0,0-.117.494.758.758,0,0,0,.6.738,1.448,1.448,0,0,0,.545.086,3.107,3.107,0,0,1,.331-.075.909.909,0,0,1,.2.075c.084.031.187.046.235.069a.826.826,0,0,1,.31.342,1.366,1.366,0,0,1,.188.467,1.173,1.173,0,0,1-.3.118c-.075.028-.231.127-.309.121-.058,0-.132-.1-.215-.155a1.727,1.727,0,0,0-.233-.148,1.1,1.1,0,0,0-.774-.176,1,1,0,0,0-.64.664,1.149,1.149,0,0,0-.02.262,1.03,1.03,0,0,0,.25.49,1.056,1.056,0,0,0,.6.329.881.881,0,0,0,.413-.121,1.37,1.37,0,0,0,.342-.333,3.579,3.579,0,0,1,.691-.661,1.643,1.643,0,0,1,.477-.211.587.587,0,0,1,.814.436,1.767,1.767,0,0,1-.4.3,7.145,7.145,0,0,1-3.329,1.231,5.4,5.4,0,0,1-.9,0c-.055-.011-.133.006-.169-.052,0-.075.063-.134.1-.2.129-.268.239-.562.348-.842a6.883,6.883,0,0,0,.214-.69,5.859,5.859,0,0,0,.2-.99,4.634,4.634,0,0,0,0-1.153,1.2,1.2,0,0,0-.043-.156,1.536,1.536,0,0,0-.027-.189,4.613,4.613,0,0,0-.221-.807c-.018-.045-.03-.112-.075-.139-.059.008-.09.07-.133.116-.086.105-.159.183-.259.289-.05.053-.109.091-.116.149a.941.941,0,0,0,.059.209,1.782,1.782,0,0,1,.14.623,1.343,1.343,0,0,1-.242-.151c-.053-.035-.2-.134-.218-.19a1.1,1.1,0,0,1,.01-.263c0-.095-.005-.189-.01-.274a1.039,1.039,0,0,0-.11-.508,1.868,1.868,0,0,1-.349.593,1.838,1.838,0,0,1-.16.17c-.031.014-.062.027-.094.038a.757.757,0,0,1-.074.076c-.156.136-.346.224-.51.358a.316.316,0,0,0-.177.045.437.437,0,0,0-.153.071.689.689,0,0,0,.368.093,2.157,2.157,0,0,0,.454.028c.116-.022.174-.132.268-.132-.01.11-.186.116-.163.228.058.023.137-.014.2-.025a2.124,2.124,0,0,0,.357.162,2.837,2.837,0,0,1,.36.213.4.4,0,0,0,.1.191c.017.1.1.1.107.188A1.218,1.218,0,0,1,83.7,52a4.561,4.561,0,0,1-.725,1.523q-.055.1-.12.189a10.331,10.331,0,0,1-1.209,1.342c-.11.11-.223.21-.331.306-.041.041-.093.094-.118.123-.021.01-.044,0-.063.019-.117.1-.219.205-.339.3-.361.282-.714.569-1.1.821-.126.087-.252.175-.38.262s-.241.2-.365.274c-.094.049-.211.091-.3.141-.2.108-.365.228-.543.334a.953.953,0,0,1-.288.141,4.245,4.245,0,0,1,.025-2.669c.039-.114.079-.237.119-.331a2.271,2.271,0,0,1,.2-.334,3.127,3.127,0,0,1,.2-.321c.062-.076.16-.269.251-.286a1.024,1.024,0,0,1,.226.049.967.967,0,0,1,.544.306c.13.2.157.449.367.515a.925.925,0,0,0,.464-.024.766.766,0,0,0,.429-.383.64.64,0,0,0-.274-.713.744.744,0,0,0-.762.087c-.072.056-.152.245-.249.258-.141.028-.364-.161-.439-.213-.042-.034-.105-.056-.105-.121a3.442,3.442,0,0,1,.808-.638,1.405,1.405,0,0,0,.508.276,5.22,5.22,0,0,0,.657.1,1.057,1.057,0,0,0,.151.58.658.658,0,0,0,.542.254.725.725,0,0,0,.476-.242.665.665,0,0,0,.143-.608.709.709,0,0,0-.279-.379.76.76,0,0,0-.584-.08.652.652,0,0,0-.238.13c-.049.043-.075.1-.145.109a1.2,1.2,0,0,1-.274-.033c-.1-.017-.184-.033-.261-.05-.17-.04-.356-.076-.436-.19.049-.071.145-.084.225-.116a3.729,3.729,0,0,1,.759-.277c.312.167.978.07,1.031-.248a.653.653,0,0,0-.142-.486.529.529,0,0,0-.2-.132c-.394-.1-.665.355-.852.534-.1.045-.2.075-.3.119s-.163.139-.273.121a2,2,0,0,1,.251-.763.622.622,0,0,0,.525-.706.639.639,0,0,0-.075-.216A.607.607,0,0,0,79.7,51a.7.7,0,0,0,.231.465c.067.053.161.059.227.131a4.916,4.916,0,0,0-.28.71,1.266,1.266,0,0,1-.088.246c-.031.045-.173.151-.237.141s-.107-.111-.157-.163A4.7,4.7,0,0,1,78.95,52a1.593,1.593,0,0,0,.176-.224c-.01-.057.026-.1.034-.147a.592.592,0,0,0-.851-.619.608.608,0,0,0-.326.585.618.618,0,0,0,.394.5,3.016,3.016,0,0,0,.308.039.667.667,0,0,1,.313.212.26.26,0,0,1,.08.142,3.4,3.4,0,0,1-1.057.121.751.751,0,0,1-.284-.148c-.068-.036-.141-.049-.167-.1a.634.634,0,0,0-.53-.723.584.584,0,0,0-.167,0,.689.689,0,0,0-.477.456.621.621,0,0,0,.806.756,1.219,1.219,0,0,0,.275-.191c.4.31,1.215.163,1.708.036.035.048.1.123.093.19s-.085.077-.14.121c-.111.084-.183.145-.289.235-.032.031-.1.111-.149.121a.441.441,0,0,1-.155-.042,3,3,0,0,0-.464-.048c-.066-.075-.1-.151-.182-.194a.437.437,0,0,0-.595.163.453.453,0,0,0-.051.143.418.418,0,0,0,.266.462.441.441,0,0,0,.539-.187c.037-.068.025-.154.086-.211a.454.454,0,0,1,.376.078c-.209.232-.478.5-.693.77-.054.084-.131.261-.22.275a.276.276,0,0,1-.225-.131c-.056-.083-.058-.2-.1-.27-.2-.4-.733-.247-.886.018a.7.7,0,0,0,.144.748.458.458,0,0,0,.6,0c.053-.036.083-.107.153-.107a8.592,8.592,0,0,0-.736,2.5,4.873,4.873,0,0,0-.057,1.009.625.625,0,0,0,.071.284c-.111.112-.249.218-.357.318-.037.032-.076.093-.128.072-.072-1.54-.195-3.1-.262-4.614-.019-.381-.053-.774-.073-1.137,0-.126-.023-.248-.033-.38-.036-.428-.052-.856-.088-1.281-.048-.648-.041-1.308-.07-1.908,0-.153-.029-.3-.034-.427-.008-.319.024-.634.024-.951a8.9,8.9,0,0,0,0-.924,1.893,1.893,0,0,1-.039-.383,3.534,3.534,0,0,1,.134-.635,1.23,1.23,0,0,1,.073-.191,4.407,4.407,0,0,1,.293-.744,5.355,5.355,0,0,1,.9-1.179.594.594,0,0,1,.468.642,1.539,1.539,0,0,1-.2.473,2.2,2.2,0,0,1-.7.667c-.342.215-.812.575-.564,1.126a1,1,0,0,0,.614.57.855.855,0,0,0,1-.678c0-.017.006-.034.008-.051a1.54,1.54,0,0,0-.21-.755c-.06-.105-.115-.2-.17-.283a2.529,2.529,0,0,0,.153-.286.692.692,0,0,1,.17-.277c.244.119.628.3.72.575a1.085,1.085,0,0,1,.035.234,1.251,1.251,0,0,1,.051.207,1.517,1.517,0,0,1-.074.2,1.5,1.5,0,0,0,.036.77.621.621,0,0,0,.275.379.889.889,0,0,0,1.232-.258.833.833,0,0,0-.45-1.259,2.451,2.451,0,0,0-.686-.178.373.373,0,0,1-.133-.284,2.617,2.617,0,0,1,1.766-.107,1.58,1.58,0,0,1,.62.434,1.684,1.684,0,0,0,.595.47.573.573,0,0,0,.566-.18,1.76,1.76,0,0,0,.357-.748.587.587,0,0,0-.236-.618c-.35-.229-.943-.037-1.27.11a2.661,2.661,0,0,1-.283.115,2.5,2.5,0,0,1-.68,0,3.443,3.443,0,0,0-1.425.155.606.606,0,0,1-.248.085c-.107-.005-.187-.1-.262-.178a1.052,1.052,0,0,1-.246-.626,2.975,2.975,0,0,0-.07-.386,1.122,1.122,0,0,0-.312-.483,5.509,5.509,0,0,1,.575-.448.477.477,0,0,1,.22-.118.8.8,0,0,1,.253.118,1.4,1.4,0,0,1,.609.509,1.664,1.664,0,0,1,.089.413.734.734,0,0,0,.26.5,1.108,1.108,0,0,0,1.318-.168.956.956,0,0,0,.06-.91c-.012-.027-.023-.066-.036-.088A.948.948,0,0,0,79.9,43.3a1.051,1.051,0,0,0-.582.24c-.063.048-.095.1-.166.1-.152.018-.307-.146-.394-.233a1.329,1.329,0,0,1-.139-.169.465.465,0,0,1-.123-.2,6.8,6.8,0,0,1,1.37-.566A4.906,4.906,0,0,0,81.169,43.6a.938.938,0,0,0,.663,1.117.972.972,0,0,0,1.194-.679l.006-.022a.962.962,0,0,0-1.3-1.081c-.062.023-.17.127-.23.131a1.225,1.225,0,0,1-.359-.115,2.219,2.219,0,0,1-.9-.558,3.219,3.219,0,0,1,.568-.109,4.569,4.569,0,0,1,.618-.06.953.953,0,0,1,.293.106,2.543,2.543,0,0,0,.269.085,1.405,1.405,0,0,0,.636.082.491.491,0,0,0,.3-.188.924.924,0,0,0,.053-.7.534.534,0,0,0-.108-.193.666.666,0,0,0-.338-.274.828.828,0,0,0-.431.094,1.97,1.97,0,0,0-.468.3c-.08.061-.133.154-.215.175a.249.249,0,0,1-.077,0,3.6,3.6,0,0,1-.6.087,2.219,2.219,0,0,1,.418-.76c.051-.073.128-.185.184-.2.034-.009.088.014.134.014a.925.925,0,0,0,.738-.452.979.979,0,0,0,.068-.709.849.849,0,0,0-.7-.6.913.913,0,0,0-.9.574,1.011,1.011,0,0,0,.037.694.726.726,0,0,0,.205.285c.032.037.091.051.117.1-.062.107-.146.194-.213.289a10.061,10.061,0,0,0-.617.9,2.2,2.2,0,0,1-.4.107,1.909,1.909,0,0,1-.154-.271c-.145-.3-.286-.59-.429-.883a.865.865,0,0,0,.5-.665.828.828,0,0,0-.857-.935.864.864,0,0,0-.694.444.881.881,0,0,0-.012.72.993.993,0,0,0,.5.428c.07.026.159.026.23.057a.706.706,0,0,1,.239.283.958.958,0,0,1,.114.387,6.42,6.42,0,0,1-.875-.088c-.478-.071-.865-.206-1.022-.582a1.079,1.079,0,0,1-.048-.194c0-.088.037-.134.037-.211a.913.913,0,0,0-.062-.339.815.815,0,0,0-.742-.547.881.881,0,0,0-.807.5.994.994,0,0,0-.085.493.841.841,0,0,0,.915.761.852.852,0,0,0,.425-.161,3.169,3.169,0,0,0,2.353.664c.02.092.02.2.045.284a9.7,9.7,0,0,0-1.637.77,7.327,7.327,0,0,0-1.328,1.092c-.2-.187-.167-.5-.2-.765a.683.683,0,0,0-.772-.581.709.709,0,0,0-.121.028c-.066.024-.119.071-.188.071a.856.856,0,0,0-.3.373,1.162,1.162,0,0,0,.153.92.528.528,0,0,0,.165.123,1.135,1.135,0,0,0,.687.024.956.956,0,0,1,.441-.037,2.6,2.6,0,0,1-.246.3c-.088.1-.16.207-.238.306a7.482,7.482,0,0,1-.48.616,1.671,1.671,0,0,1-.532.317,1.706,1.706,0,0,1-.617.147,1.772,1.772,0,0,1-.63-.133.325.325,0,0,1-.069-.014,2.129,2.129,0,0,1-.372-.165,7.174,7.174,0,0,1-1.084-.673c-.09-.057-.187-.1-.213-.151-.042-.123.026-.26.039-.369-.074-.024-.142-.024-.2-.048-.1-.038-.143-.131-.239-.156-.031.062.009.173-.027.225-.208-.143-.413-.3-.636-.427a6.207,6.207,0,0,0-.7-.364,12.043,12.043,0,0,0-1.6-.538.724.724,0,0,1,.023-.274,3.724,3.724,0,0,0,2.05-.72c.068-.066.123-.152.193-.211a1.368,1.368,0,0,0,.5.1.812.812,0,0,0,.676-.5.9.9,0,0,0-.464-1.181l-.036-.014a.785.785,0,0,0-1.024.428l-.015.039a1.328,1.328,0,0,0,.071.821c-.137.121-.2.293-.339.418a1.77,1.77,0,0,1-.721.33c-.131.041-.287.075-.423.108a.932.932,0,0,1-.441.049,1.01,1.01,0,0,1,.246-.571c.149-.147.381-.2.523-.342a.944.944,0,0,0,.219-.786.833.833,0,0,0-1.63.083.87.87,0,0,0,.174.655,1.964,1.964,0,0,0,.422.284c-.11.3-.228.617-.333.91-.037.1-.048.226-.129.3a1.888,1.888,0,0,0-.351-.048c-.263-.269-.486-.58-.742-.839-.085-.09-.212-.15-.263-.274a1.8,1.8,0,0,0,.189-.2.984.984,0,0,0,.035-.9.963.963,0,0,0-.585-.46A.875.875,0,0,0,65.916,42c.032.006.063.01.095.013.108.012.274-.035.327-.023s.15.124.206.189a3.417,3.417,0,0,1,.36.436c.047.076.128.159.115.26a1.273,1.273,0,0,1-.332-.008,2.153,2.153,0,0,1-.368-.008,1,1,0,0,1-.21-.149,1.5,1.5,0,0,0-.774-.293.506.506,0,0,0-.431.273.312.312,0,0,0-.053.094c-.139.307-.045.882.259.971a1.12,1.12,0,0,0,.779-.129c.167-.072.311-.181.464-.229a2.911,2.911,0,0,1,.6-.043c.112,0,.229.008.334.009a1.354,1.354,0,0,1,.311.034,1.628,1.628,0,0,1-.512.479c-.1.064-.211.122-.321.176a1.174,1.174,0,0,1-.335.169c-.044,0-.076-.046-.115-.058a1.03,1.03,0,0,0-.976.133.964.964,0,0,0-.353.872.928.928,0,0,0,1.044.791.873.873,0,0,0,.735-.546,1.332,1.332,0,0,0-.058-.944,3.346,3.346,0,0,0,1.186-.852c.038-.057.045-.146.115-.18a5.618,5.618,0,0,1,1.406.417,2.37,2.37,0,0,1-.24.391c-.071.094-.2.28-.356.271a.555.555,0,0,1-.191-.1.888.888,0,0,0-.709-.137.862.862,0,0,0-.24.091,1.027,1.027,0,0,0-.223.116.914.914,0,0,0-.24.7c.031.606.691.837,1.261.663a.645.645,0,0,0,.463-.443c.043-.2-.014-.4.045-.612a1.374,1.374,0,0,1,.558-.638.617.617,0,0,1,.264-.145.711.711,0,0,1,.224.092,4.9,4.9,0,0,1,.6.38,1.34,1.34,0,0,0-.272.89c0,.075,0,.15,0,.224-.015.246-.2.638-.438.655-.1,0-.178-.061-.3-.082a3.7,3.7,0,0,0-.6-.053c-.482.015-.962.148-1.37.185a1.166,1.166,0,0,1-.317-.087c-.107-.024-.2-.049-.311-.068-.522-.112-1.143-.063-1.2.473a.771.771,0,0,0,.158.522c.141.259.334.6.686.6a.726.726,0,0,0,.533-.31c.281-.287.42-.6.816-.792A2.7,2.7,0,0,1,69.4,46.49c.17.02.317.071.465.085a.811.811,0,0,0,.764-.357.994.994,0,0,1,.106-.166,4.456,4.456,0,0,1,.354.538,2.159,2.159,0,0,0-.262.968.863.863,0,0,0,.591.715.8.8,0,0,0,.8-.217,1.175,1.175,0,0,0,.3-.6.683.683,0,0,0-.252-.577,9.193,9.193,0,0,0-.866-.525,1.575,1.575,0,0,1-.629-.774.56.56,0,0,1,.345-.713l.019-.007a6.042,6.042,0,0,1,.941.937,4.261,4.261,0,0,1,.354.582c.051.094.118.2.165.306a1.409,1.409,0,0,1,.133.344,3.355,3.355,0,0,1-.011.511c-.058,1.01-.067,1.955-.145,2.929-.022.248.009.5-.011.748-.023.283-.043.617-.056.927-.014.265,0,.535-.039.8a1.621,1.621,0,0,1-.049.178c-.03.206-.009.436-.02.664-.045.662-.066,1.338-.095,1.986-.036.778-.069,1.574-.1,2.343a1.055,1.055,0,0,1-.031.317,2.333,2.333,0,0,1-.416-.317c.054-.006.029-.041.036-.074a2.056,2.056,0,0,0,0-.4c-.029-.346-.091-.676-.142-1a3.322,3.322,0,0,0-.118-.451,7.676,7.676,0,0,0-.487-1.223,2.59,2.59,0,0,1-.175-.392c.183.119.369.253.579.177a.641.641,0,0,0,.307-.521.494.494,0,0,0-.865-.355c-.1.137-.1.508-.334.473-.087-.013-.163-.166-.222-.237a6.424,6.424,0,0,0-.453-.48c-.086-.074-.2-.123-.227-.231A.742.742,0,0,1,70,53.309c.05.066.048.142.081.205a.464.464,0,0,0,.428.193.428.428,0,0,0,.3-.256.412.412,0,0,0-.692-.416c-.035.049-.031.109-.091.135a1.027,1.027,0,0,1-.157.011,2.5,2.5,0,0,0-.41.09,1.742,1.742,0,0,0-.292-.194c-.053-.122-.252-.1-.271-.228A.213.213,0,0,1,69,52.672a2.37,2.37,0,0,1,.335.058c.12.013.24.036.344.04a1.463,1.463,0,0,0,.912-.217.859.859,0,0,0,.251.156.561.561,0,0,0,.717-.343.534.534,0,0,0,.032-.19.6.6,0,0,0-.575-.624h-.033c-.354.023-.523.339-.516.728a1.551,1.551,0,0,1-.354.239.206.206,0,0,1-.035.012,2.71,2.71,0,0,1-.784-.012c-.078-.008-.178.012-.232-.052a.571.571,0,0,1,.393-.353.941.941,0,0,0,.3-.068.565.565,0,0,0,.193-.774.572.572,0,0,0-.258-.226.551.551,0,0,0-.721.3.567.567,0,0,0-.042.207c0,.252.128.33.226.476a3.667,3.667,0,0,1-.262.347c-.05.064-.2.316-.282.319a.386.386,0,0,1-.228-.141,2.244,2.244,0,0,1-.088-.223,6.566,6.566,0,0,0-.3-.644c.079-.047.155-.1.228-.153a.642.642,0,0,0-.022-.869.609.609,0,0,0-.556-.126.625.625,0,0,0-.4.605.614.614,0,0,0,.562.568,1.871,1.871,0,0,1,.237.7c-.2-.059-.345-.172-.558-.215-.151-.159-.391-.474-.69-.473a.482.482,0,0,0-.417.539.438.438,0,0,0,.017.08c.041.17.262.266.448.283a1.317,1.317,0,0,0,.523-.093.711.711,0,0,1,.281.048,3.654,3.654,0,0,1,.465.151c.07.03.171.053.2.119a2,2,0,0,1-.927.3.721.721,0,0,0-.733-.191.749.749,0,0,0-.409.479.658.658,0,0,0,.49.735c.459.1.817-.288.759-.808a2.588,2.588,0,0,0,.8-.215c.109-.057.181-.151.286-.206a3.444,3.444,0,0,1,.786.585,2.406,2.406,0,0,1-.226.189c-.064.047-.2.153-.3.131-.052-.011-.12-.107-.152-.138a.667.667,0,0,0-.727-.182.588.588,0,0,0-.27.761.757.757,0,0,0,.835.307c.193-.075.214-.305.3-.475.129-.237.395-.32.741-.4a2.158,2.158,0,0,1,.374.424,1.328,1.328,0,0,0,.063.132c.025.044.068.076.1.124a2.547,2.547,0,0,1,.232.434,4.259,4.259,0,0,1,.272,1.035,3.806,3.806,0,0,1-.026,1.162.712.712,0,0,1-.081.359c-.326-.142-.623-.335-.929-.479-.05-.022-.106-.022-.157-.047s-.12-.09-.188-.127c-.209-.13-.407-.259-.618-.382-.277-.164-.536-.358-.793-.538s-.535-.361-.775-.552-.472-.4-.71-.621A6.99,6.99,0,0,1,65.13,53.2a3.8,3.8,0,0,1-.422-.9,3.131,3.131,0,0,1-.17-1.164,2.957,2.957,0,0,1,.106-.566c.015-.063.057-.15.046-.194s-.067-.085-.115-.13c-.1-.093-.171-.169-.252-.248a.325.325,0,0,0-.153-.11,4.891,4.891,0,0,0-.136,2.657,8.983,8.983,0,0,0,.751,1.934.767.767,0,0,1,.136.261,3.963,3.963,0,0,1-.7.1,4.564,4.564,0,0,1-.7-.039,4.057,4.057,0,0,1-.76-.115,7.47,7.47,0,0,1-2.079-.857c-.115-.067-.332-.169-.34-.25-.008-.035.025-.08.044-.131a.533.533,0,0,1,.687-.3,1.681,1.681,0,0,1,.742.368c.287.231.484.544.778.685a.687.687,0,0,0,.445.071,1.049,1.049,0,0,0,.629-.6.754.754,0,0,0-.016-.549,1.013,1.013,0,0,0-.582-.483.376.376,0,0,0-.106,0c-.021,0-.046-.023-.082-.023a1.248,1.248,0,0,0-.539.224c-.175.1-.245.2-.436.322a1.713,1.713,0,0,0-.285-.106c-.1-.032-.215-.032-.284-.114a2.162,2.162,0,0,1,.177-.484c.022-.032.061-.115.086-.144.138-.172.372-.187.581-.31a1.3,1.3,0,0,0,.554.043c.056-.009.109-.05.182-.07s.133-.035.192-.062a.7.7,0,0,0,.393-.486.91.91,0,0,0-.575-1.011A.862.862,0,0,0,62.4,50.4c-.445.166-.63.694-.59,1.331a.405.405,0,0,1-.261.178,1.894,1.894,0,0,1-.256-.546,2.159,2.159,0,0,1-.091-1.274,2.128,2.128,0,0,1,.33-.551,1.332,1.332,0,0,0,.308-.6.479.479,0,0,0-.283-.521,1.156,1.156,0,0,0-1.124-.108.711.711,0,0,0-.17.8,2.6,2.6,0,0,0,.3.622,1.317,1.317,0,0,1,.178.286,3.842,3.842,0,0,1,.081.6,3.515,3.515,0,0,0,.381,1.341.472.472,0,0,1,.1.244c0,.178-.238.395-.386.475a4.592,4.592,0,0,1-.479.165,1.893,1.893,0,0,0-.366.175c-.1.081-.142.178-.223.249a1.49,1.49,0,0,1-.358-.278c-.079-.066-.308-.228-.323-.333a1.277,1.277,0,0,1,.084-.321,1.242,1.242,0,0,1,.507-.715,2.256,2.256,0,0,1,.23-.069.744.744,0,0,0,.473-.332,1.021,1.021,0,0,0,.077-.5,1.051,1.051,0,0,0-.32-.65.8.8,0,0,0-.37-.182.984.984,0,0,0-.759.286.948.948,0,0,0-.158.746,1.177,1.177,0,0,0,.183.391c.056.087.247.176.271.3a.51.51,0,0,1-.07.234,1.913,1.913,0,0,1-.133.187c-.052.068-.246.317-.323.311-.059,0-.171-.212-.216-.27a4.9,4.9,0,0,1-.545-.931,2.825,2.825,0,0,0,.285-.3,2.8,2.8,0,0,0,.249-.355,3.2,3.2,0,0,0,.2-.41,3.617,3.617,0,0,1,.2-.4.911.911,0,0,0,.89-.574.939.939,0,0,0-.1-.848.885.885,0,0,0-1.075-.357.938.938,0,0,0-.5,1.228.817.817,0,0,0,.038.079c.043.076.17.168.175.271,0,.026-.029.151-.031.192a2.788,2.788,0,0,1-.36,1.018c-.027.037-.071.112-.13.1a4.328,4.328,0,0,1-.311-1.008,1.453,1.453,0,0,1-.055-.383,1.471,1.471,0,0,1,.092-.23,1.314,1.314,0,0,0-.048-.989.529.529,0,0,0-.552-.221.615.615,0,0,0-.615.616.648.648,0,0,0,.037.209,1.768,1.768,0,0,0,.261.42c.053.054.1.117.16.174s.148.109.175.167a1.27,1.27,0,0,1,.063.21,1.834,1.834,0,0,0,.067.206,1.242,1.242,0,0,1,.133.4,1.873,1.873,0,0,1-.642-.223c-.1-.051-.3-.12-.347-.194-.032-.061-.024-.187-.057-.272a.86.86,0,0,0-1.035-.506.8.8,0,0,0-.315,1.389.993.993,0,0,0,.108.086.967.967,0,0,0,1.021-.076c.1-.1.151-.234.246-.329.273.159.634.335.949.479a1.546,1.546,0,0,1,.333.153.852.852,0,0,1,.082.155.571.571,0,0,1,.072.18c-.338.251-.681.5-1.033.738-.1-.088-.121-.157-.2-.213a.8.8,0,1,0-.524,1.444.741.741,0,0,0,.556-.227.864.864,0,0,0,.166-.244,1.905,1.905,0,0,0,.108-.459c.019-.112.175-.2.261-.269a.652.652,0,0,1,.32-.165,7.516,7.516,0,0,1,.045.794,1.987,1.987,0,0,1-.091.81.878.878,0,0,1-.485.389.972.972,0,0,1-.121-.012.875.875,0,0,0-.745.5.85.85,0,1,0,1.594.592.836.836,0,0,0,.051-.238c.012-.3-.13-.42-.248-.631A3.151,3.151,0,0,0,57.7,51.71a1.529,1.529,0,0,1,.285-.107c.138.2.272.423.416.628a.281.281,0,0,1,.07.417,2.759,2.759,0,0,0-.13.634.638.638,0,0,0-.41.589.587.587,0,0,0,1.173.009.6.6,0,0,0-.33-.546c-.086-.04-.165-.015-.24-.1a.809.809,0,0,1,.212-.517c.111.126.216.263.332.39s.223.259.342.379c.249.234.525.45.764.7-.325.289-.85.217-1.059.56a.655.655,0,0,0-.082.39.722.722,0,0,0,.582.673,1.016,1.016,0,0,0,.646-.138.6.6,0,0,0,.316-.414,1.181,1.181,0,0,0-.132-.609c-.044-.105-.127-.211-.1-.337a9.464,9.464,0,0,0,2.659,1.351,10.292,10.292,0,0,0,1.577.4,11.918,11.918,0,0,0,1.361.1c.166,0,.308-.027.443-.019.179.007.324.163.464.286A9.619,9.619,0,0,0,68,57.226,13.187,13.187,0,0,1,69.523,58.3a10.046,10.046,0,0,1,1.305,1.279c.293.343.614.674.926,1.018.09.1.272.251.3.357a1.252,1.252,0,0,1-.017.293c-.018.536-.038,1.028-.075,1.474-.024.208,0,.422-.014.626-.04.492-.056,1.071-.1,1.582-.024.327,0,.669-.021,1-.061.987-.092,1.98-.147,2.954-.032.656-.058,1.312-.1,1.953-.04.5-.08,1-.095,1.464-.01.177.025.356-.065.458-.312-.109-.592-.265-.912-.38a18.7,18.7,0,0,0-2.6-.8,1.4,1.4,0,0,1-.369-.117c-.065-.41-.114-.874-.175-1.287-.024-.127-.113-.271-.026-.376a1.23,1.23,0,0,1,.476.249c.136.1.252.219.39.333a1.4,1.4,0,0,1,.319.4c.1.147.153.322.261.462.03.035.075.062.107.1a1.529,1.529,0,0,0,.463.429,1.25,1.25,0,0,0,.178.062,1.278,1.278,0,0,0,1.058-.333c.108-.152.3-.283.319-.534a1.617,1.617,0,0,0-.083-.565,2.738,2.738,0,0,0-.391-.442.978.978,0,0,0-.427-.188,1.853,1.853,0,0,0-.674.081,1.918,1.918,0,0,0-.415.154c-.1.046-.218.143-.3.143s-.114-.075-.182-.117c-.192-.145-.434-.18-.543-.385a2.846,2.846,0,0,1,.37-.436,1.13,1.13,0,0,1,.2-.2.932.932,0,0,1,.247-.159c.093-.021.206-.009.316-.023a1.3,1.3,0,0,1,.311-.035.675.675,0,0,1,.156.085,1.648,1.648,0,0,0,1.565-.163.778.778,0,0,0,.095-.146c.016-.019.04-.021.045-.037a.643.643,0,0,0,.109-.215.807.807,0,0,0,0-.139,1.138,1.138,0,0,0,.023-.117,1.4,1.4,0,0,0-.046-.427.977.977,0,0,0-.116-.194,1.512,1.512,0,0,0-.2-.268.88.88,0,0,0-.324-.2,1.293,1.293,0,0,0-.271-.1.973.973,0,0,0-.709.154,1.445,1.445,0,0,0-.266.227c-.054.068-.089.127-.142.2a2.042,2.042,0,0,0-.164.283,3.153,3.153,0,0,0-.108.346.876.876,0,0,1-.115.327.437.437,0,0,1-.278.062c-.061-.076-.04-.18-.048-.271-.013-.256,0-.5,0-.775a4.35,4.35,0,0,1,.148-1.324.523.523,0,0,1,.213-.3c.039-.023.082-.055.123-.083.084-.059.18-.091.268-.142a2.628,2.628,0,0,0,.291-.246,1.326,1.326,0,0,0,.224-.313.7.7,0,0,0,.1-.245.642.642,0,0,0-.033-.3,1.059,1.059,0,0,0-.323-.42.741.741,0,0,0-.139-.1c-.092-.059-.214-.151-.3-.2-.1-.04-.219-.04-.343-.08a.828.828,0,0,0-.3-.044,1.081,1.081,0,0,0-.538.149.835.835,0,0,0-.219.49,2.068,2.068,0,0,0,.031.623,2.541,2.541,0,0,0,.051.274c.051.222.182.4.221.623a2.967,2.967,0,0,1,.011.782,9.286,9.286,0,0,0-.046,1.625,1.744,1.744,0,0,0,.035.189c.027.088.088.155.088.251a.735.735,0,0,1-.36.5.914.914,0,0,1-.5.145c-.207-.033-.185-.3-.242-.529-.1-.314-.207-.613-.3-.91-.049-.155-.11-.3-.167-.439-.095-.248-.192-.536-.3-.764a1.071,1.071,0,0,0-.059-.09c-.069-.142-.113-.3-.177-.431-.033-.069-.087-.121-.122-.187a2,2,0,0,0-.083-.228c-.022-.045-.078-.081-.1-.128s-.056-.115-.082-.165c-.1-.154-.188-.328-.278-.471-.029-.055-.05-.123-.08-.168-.069-.1-.182-.165-.215-.286.056-.076.146-.17.245-.167.118.006.194.151.272.2a1.211,1.211,0,0,0,.161.071,1.088,1.088,0,0,0,.824.073.828.828,0,0,0,.329-.378,1.747,1.747,0,0,0,.15-.562.9.9,0,0,0-.4-.84,1.21,1.21,0,0,0-.963-.059,2.018,2.018,0,0,0-.234.263.413.413,0,0,0-.087.164,1.054,1.054,0,0,0-.054.19,1.432,1.432,0,0,1-.076.257c-.014.038-.04.07-.055.112-.041.1-.138.433-.254.43-.066-.006-.107-.142-.131-.172a2.3,2.3,0,0,0-.259-.332,2.3,2.3,0,0,1-.285-.322c-.036-.046-.073-.12-.118-.174-.015-.017-.059-.028-.083-.06a1.077,1.077,0,0,1-.059-.093c-.05-.06-.154-.087-.146-.166s.2-.146.288-.133.16.12.246.166a.67.67,0,0,0,.616.061.712.712,0,0,0,.29-.346.981.981,0,0,0,.026-.665c-.073-.143-.163-.181-.316-.257a.648.648,0,0,0-.41-.1.757.757,0,0,0-.43.227,1.244,1.244,0,0,0-.1.393c-.014.045-.04.1-.059.149-.05.151-.154.39-.3.384-.058-.006-.133-.085-.175-.116-.066-.054-.116-.108-.159-.149-.123-.1-.225-.192-.321-.268-.111-.089-.225-.17-.342-.254a2.228,2.228,0,0,0-.276-.177c-.033-.012-.082,0-.127-.023s-.088-.075-.15-.118c-.046-.034-.111-.064-.173-.1-.106-.055-.276-.114-.3-.22A.7.7,0,0,1,61.761,61c.083-.056.192.011.307.021.078.011.15.015.227.026a6.66,6.66,0,0,0,1.1.025,3.216,3.216,0,0,0,.616-.1,1.977,1.977,0,0,0,.51-.154c.088-.051.16-.173.261-.162.083,0,.15.108.237.162.061.039.107.06.169.1a2.123,2.123,0,0,0,.711-.028c.127-.04.2-.138.309-.176a2.371,2.371,0,0,0,.358-.664,1.177,1.177,0,0,0-.158-.773.7.7,0,0,0-.344-.34,1.028,1.028,0,0,0-.923-.108.963.963,0,0,0-.19.132c-.132.089-.191.11-.264.239a1.693,1.693,0,0,0-.176.946.4.4,0,0,1-.129.1,4.25,4.25,0,0,1-.4.324,1.569,1.569,0,0,1-.577.129,7.2,7.2,0,0,1-1.1,0c-.141-.013-.369.011-.4-.072s.071-.163.122-.235a1.948,1.948,0,0,1,.145-.224.747.747,0,0,1,.468-.226,1.132,1.132,0,0,0,.887-.57,1.641,1.641,0,0,0,.131-.5,1.129,1.129,0,0,0-.22-.625A.639.639,0,0,0,63.089,58a.987.987,0,0,0-.221-.09,1.092,1.092,0,0,0-.679.063.848.848,0,0,0-.485.481,1.076,1.076,0,0,0,.115,1.08c.05.058.253.2.249.282,0,.093-.166.174-.213.237a1.027,1.027,0,0,0-.082.144c-.1.147-.181.279-.284.427a2.331,2.331,0,0,1-.2.269c-.024.034-.071.073-.116.126s-.064.106-.117.112-.1-.069-.179-.108-.163-.047-.2-.09a2.04,2.04,0,0,1-.16-.383c-.1-.2-.148-.357-.229-.5-.121-.2-.2-.394-.308-.584-.038-.062-.128-.127-.107-.223.04-.051.106-.068.152-.108s.106-.07.158-.106a.9.9,0,0,0,.25-.283,1.389,1.389,0,0,0,.069-.736,1.718,1.718,0,0,0-.092-.273,1.055,1.055,0,0,0-.359-.437.806.806,0,0,0-.3-.132,1.48,1.48,0,0,0-.75.045,1.385,1.385,0,0,0-.308.263,1.2,1.2,0,0,0,0,1.5,1.89,1.89,0,0,0,.276.175.654.654,0,0,0,.49.145.873.873,0,0,1,.194.31,2.906,2.906,0,0,1,.325.71c.025.093.118.355.012.391-.043.014-.165-.052-.216-.072a4.293,4.293,0,0,0-.4-.163.855.855,0,0,1-.24-.088c-.1-.1-.174-.266-.282-.365a2.486,2.486,0,0,1-.414-.308.858.858,0,0,0-.557-.176.766.766,0,0,0-.478.342,1.211,1.211,0,0,0-.235.749.887.887,0,0,0,.054.249,1.156,1.156,0,0,0,.31.251,2.126,2.126,0,0,0,1.268-.027.743.743,0,0,1,.6.011,2.877,2.877,0,0,1,.39.094c.107.036.171.089.346.14.1.043.333.081.337.157.023.1-.156.158-.219.192a1.14,1.14,0,0,1-.287.14c-.051.015-.106.014-.16.024-.136.027-.25.056-.358.084a1.534,1.534,0,0,0-.191.051,1.941,1.941,0,0,1-.392.076c-.1-.008-.216-.179-.3-.2a2.321,2.321,0,0,0-.675-.125,1.572,1.572,0,0,0-.593.164.887.887,0,0,0-.331.351,1.1,1.1,0,0,0-.168.376,1.256,1.256,0,0,0,.177.921.918.918,0,0,0,.405.337.979.979,0,0,0,.412.125,1.341,1.341,0,0,0,.191.036,1.44,1.44,0,0,0,.441-.117,1.149,1.149,0,0,0,.57-.451.975.975,0,0,0,.129-.4.641.641,0,0,0,.022-.131,2.855,2.855,0,0,0-.053-.461,3.475,3.475,0,0,1,.494-.127c.037-.012.081,0,.123-.016a2.39,2.39,0,0,0,.328-.132c.052-.018.12-.023.169-.046a4.44,4.44,0,0,0,.533-.3c.1-.053.189-.165.258-.165.053,0,.147.1.215.123a2.349,2.349,0,0,1,.306.094.7.7,0,0,1,.132.083q.066.038.129.081c.088.061.175.117.265.182.031.029.074.059.116.1s.107.046.15.076c.026.026.055.072.095.11.071.049.123.049.123.1.007.091-.129.149-.192.191-.087.064-.129.1-.214.164a1.046,1.046,0,0,1-.343.23c-.223.06-.268-.084-.35-.182a.865.865,0,0,0-.478-.29.967.967,0,0,0-.322-.086,1.6,1.6,0,0,0-.555.067.6.6,0,0,0-.4.251,1.055,1.055,0,0,0-.177.392,2.418,2.418,0,0,0-.06.237.968.968,0,0,0,.145.593,1.139,1.139,0,0,0,.53.427,1.168,1.168,0,0,0,.179.084c.055.007.112-.016.166-.014.076,0,.151.022.223.022a.728.728,0,0,0,.7-.3.642.642,0,0,0,.115-.21c.056-.145.056-.3.123-.455.029-.045.1-.093.1-.16a1.994,1.994,0,0,1,.665-.486c.1-.042.187-.1.264-.124a.925.925,0,0,0,.148-.021c.047-.018.092-.052.13-.046.062,0,.151.1.214.165s.136.165.174.209c.063.066.137.124.193.194a2.559,2.559,0,0,0,.179.209c.066.06.192.1.18.23a1.4,1.4,0,0,1-.189.105,1.88,1.88,0,0,0-.363.344,2.87,2.87,0,0,1-.318.394c-.011.1-.08.153-.108.233a1.268,1.268,0,0,0-.008.289.582.582,0,0,1-.236.317c-.033.017-.1.026-.159.048a1.036,1.036,0,0,1-.155.06c-.207.06-.315-.053-.516-.122s-.409-.112-.582-.161c-.129-.037-.258-.063-.381-.1a1.759,1.759,0,0,0-.228-.022c-.057-.011-.1-.053-.165-.06s-.1.011-.155,0-.1-.048-.154-.057a1.366,1.366,0,0,0-.181-.015c-.051,0-.1-.023-.152-.031-.111-.033-.225-.033-.336-.062a1.057,1.057,0,0,1-.311-.2,1.949,1.949,0,0,0-.364-.171c-.181-.069-.355-.165-.543-.234a.9.9,0,0,0-.188-.067.8.8,0,0,0-.9.368c-.2.317-.025.78.08,1.076a1.668,1.668,0,0,0,.236.462.946.946,0,0,0,.25.19.936.936,0,0,0,.727-.106,2.572,2.572,0,0,0,.571-.462.713.713,0,0,1,.461-.275,2.062,2.062,0,0,1,.571.026c.261.037.543.081.782.139.162.04.33.092.485.131.09.021.156.056.235.08.115.041.241.062.252.122.021.1-.149.258-.2.277a1.521,1.521,0,0,1-.309-.013,2.97,2.97,0,0,0-.688.126.9.9,0,0,0-.209.062,1.007,1.007,0,0,0-.454.511,1.044,1.044,0,0,0-.048.556.921.921,0,0,0,.1.319,1.137,1.137,0,0,0,.377.437,1.078,1.078,0,0,0,.406.1,1.115,1.115,0,0,0,.415.016c.083-.016.183-.033.248-.047a.664.664,0,0,0,.39-.38,1.367,1.367,0,0,0,.134-.332c.006-.044,0-.1.006-.141.017-.06.056-.112.066-.166a1.219,1.219,0,0,0,.011-.249c0-.109-.058-.207-.062-.323a.769.769,0,0,1,.1-.305,1.049,1.049,0,0,1,.288-.441,2.014,2.014,0,0,1,.816-.411,4.869,4.869,0,0,1,.19.565c.024.074.068.159.056.207-.011.069-.121.132-.176.208-.037.05-.08.13-.13.208a1.2,1.2,0,0,0-.128.211c-.039.072-.057.165-.1.25a1.243,1.243,0,0,0-.12.221,1.29,1.29,0,0,0,.011.176.935.935,0,0,0,.4.791.919.919,0,0,0,.379.218.9.9,0,0,0,.709-.13c.121-.071.221-.177.35-.25.022-.085.119-.123.172-.2a1.245,1.245,0,0,0,.088-.26.92.92,0,0,0-.214-.756,1.627,1.627,0,0,0-.317-.379,4.209,4.209,0,0,1-.523-.511,2.314,2.314,0,0,1-.284-.533,1.457,1.457,0,0,1-.168-.687.821.821,0,0,1,.119-.328.446.446,0,0,1,.2-.136,2.46,2.46,0,0,1,.333-.144c.068-.024.141-.07.191-.058s.073.091.13.169.108.116.142.169c.056.091.114.2.175.311a3.179,3.179,0,0,1,.163.35,2.712,2.712,0,0,1,.169.331,2.854,2.854,0,0,1,.145.369,9.641,9.641,0,0,1,.3,1.209,2.738,2.738,0,0,1,.071.441,10.043,10.043,0,0,1,.051,1.251c-.019.278-.019.549-.051.808-.01.075-.037.159-.046.238,0,.049.009.107,0,.156s-.05.1-.056.166,0,.1-.02.168a.677.677,0,0,1-.032.147,1.015,1.015,0,0,1-.067.3,2.7,2.7,0,0,1-.559-.068l-.405-.058c-.142-.024-.26,0-.389-.013-.084-.011-.164-.033-.254-.049-.337-.059-.659-.124-.948-.175-.162-.028-.324-.074-.483-.108-.324-.072-.638-.149-.941-.239A7.469,7.469,0,0,0,60.494,70c-.242-.136-.5-.228-.739-.354s-.5-.236-.734-.366a8.059,8.059,0,0,1-.844-.535c-.054-.043-.116-.069-.168-.106a1.59,1.59,0,0,0-.223-.187.846.846,0,0,1-.19-.168.72.72,0,0,0-.123-.1,7.174,7.174,0,0,1-2.252-4.093,1.694,1.694,0,0,0-.023-.2c-.03-.065-.127-.1-.153-.166a.89.89,0,0,1-.028-.106c-.075-.237-.156-.467-.238-.686a.467.467,0,0,0,.109-.273,2.057,2.057,0,0,0,.25-.584,3.971,3.971,0,0,0,.191-.65c-.064-.019-.116.065-.156.108s-.1.1-.143.141a2.932,2.932,0,0,1-.855.341,3.284,3.284,0,0,1-1.14.046c-.085-.008-.186-.073-.3-.059,0,.108.091.176.156.247s.131.131.2.193a1.265,1.265,0,0,0,.668.4c.066.009.171-.008.228.056-.054.091-.277.013-.319.108.022.12.162.124.257.168.019.044.019.1.038.144a3.9,3.9,0,0,1,.531.939c-.017.142.042.367-.033.447a1.155,1.155,0,0,1-.347-.142c-.284-.126-.578-.23-.865-.342a4.543,4.543,0,0,0-.535-.18,6.315,6.315,0,0,0-.99-.209c-.067-.01-.157,0-.206-.054.017-.089.125-.1.19-.136s.14-.089.212-.133a1.074,1.074,0,0,0,.356-.334c.226-.412-.213-.939-.513-1.056a.762.762,0,0,0-.7.1.694.694,0,0,0-.282.5c-.012.445.451.629.483,1.054a.7.7,0,0,1-.237.026c-.269.018-.553.038-.821.076-.167.017-.343.037-.507.066a1.661,1.661,0,0,1-.485.082.566.566,0,0,1,.06-.284c.025-.077.052-.2.115-.223s.112.026.181.043a.626.626,0,0,0,.2.051A.592.592,0,0,0,50.341,63v0a.619.619,0,0,0-.448-.557.608.608,0,0,0-.732.448.683.683,0,0,0-.017.135,1.642,1.642,0,0,0,.106.343,4.43,4.43,0,0,0-.365.78,4.647,4.647,0,0,1-.443.155,1.744,1.744,0,0,1-.212.068c-.067.032-.14.085-.215.057.013-.1.092-.155.144-.231a6,6,0,0,0,.668-1.187,2.253,2.253,0,0,0,.163-.581.478.478,0,0,1,.025-.237.849.849,0,0,0,.723-.864.9.9,0,0,0-.417-.674.939.939,0,0,0-.475-.143,3.436,3.436,0,0,0-.414.092c-.072.106-.183.137-.248.225-.021.028-.028.073-.051.106s-.043.069-.057.1a.814.814,0,0,0,.083.746c.078.119.2.17.273.274a.867.867,0,0,1,.142.583.943.943,0,0,1-.177.374,5.3,5.3,0,0,1-.488.655,1.078,1.078,0,0,1-.3.274.956.956,0,0,1-.176-.677.572.572,0,0,1,.082-.139.91.91,0,0,0,.084-.807.8.8,0,1,0-.664,1.16c.071,0,.118-.057.189-.025s.07.178.1.282.088.227.114.3c.065.243.107.409.163.631a1,1,0,0,1-.163.082.706.706,0,0,1-.19.073,1.494,1.494,0,0,1-.336-.086c-.245-.059-.478-.113-.7-.151-.117-.018-.263.009-.338-.083a.933.933,0,0,0-.253-.831.387.387,0,0,0-.052-.047,1.028,1.028,0,0,0-.113-.072.91.91,0,0,0-.718-.075.628.628,0,0,0-.281.16.727.727,0,0,0-.272.7.9.9,0,0,0,1.292.663c.106-.056.2-.2.283-.211.021-.01.084.015.129.02.144.031.27.05.4.086.1.019.432.093.436.187,0,.07-.086.089-.162.135-.2.113-.381.263-.532.353a2.423,2.423,0,0,0-.772.151,1.162,1.162,0,0,0-.252.149c-.021.019-.045.072-.073.1s-.061.059-.08.089a.716.716,0,0,0,.3.835.5.5,0,0,0,.2.1.462.462,0,0,0,.3-.028.679.679,0,0,0,.244-.188,1,1,0,0,0,.146-.113,1.329,1.329,0,0,0,.249-.464.96.96,0,0,1,.048-.2c.038-.088.163-.166.26-.255a5.077,5.077,0,0,1,.764-.541c.047-.036.1-.1.159-.074a.686.686,0,0,1-.029.378,3.034,3.034,0,0,1-.253.677c-.041.1-.094.253-.164.294-.05.036-.122.028-.182.053s-.106.064-.172.057a1.093,1.093,0,0,0-.383.413.922.922,0,0,0,.383,1.243.977.977,0,0,0,.268.1.9.9,0,0,0,.691-.186.932.932,0,0,0,.262-1.258c-.052-.079-.239-.208-.251-.307a.588.588,0,0,1,.051-.183c.019-.06.033-.13.047-.19a3.321,3.321,0,0,0,.075-1.279,1.494,1.494,0,0,1,.452-.229c.17-.064.341-.136.513-.191a1.765,1.765,0,0,1,.359-.083c.082.094.07.307.07.49s-.02.366-.13.425a1.079,1.079,0,0,0-.924.449.82.82,0,0,0-.176.451.855.855,0,0,0,.221.518.69.69,0,0,0,.679.3.986.986,0,0,0,.531-.287.746.746,0,0,0,.2-.2.763.763,0,0,0,.129-.284.735.735,0,0,0-.163-.531,1.653,1.653,0,0,1-.194-.309,1.271,1.271,0,0,1-.025-.417,1.226,1.226,0,0,1,.287-.713A3.181,3.181,0,0,0,50,64.3a1.244,1.244,0,0,1,.451.017,1.235,1.235,0,0,0,.213.707c.081.137.187.25.253.371a.809.809,0,0,1,.055.644c-.044.084-.166.116-.28.161a2.375,2.375,0,0,0-.4.216,2.671,2.671,0,0,0-.358.268,4.215,4.215,0,0,0-.46.456,1.7,1.7,0,0,1-.279.243.528.528,0,0,1-.115.1c-.09.044-.21.065-.309.1s-.2.085-.291.129a1.616,1.616,0,0,0-.383.249.843.843,0,0,0-.262.356.629.629,0,0,0,.033.369,1.041,1.041,0,0,0,.623.463,1.1,1.1,0,0,0,.543.083.583.583,0,0,0,.377-.368,3.708,3.708,0,0,0,.085-.892,1.288,1.288,0,0,1,.3-.686,2.493,2.493,0,0,1,.789-.662.754.754,0,0,1,.327-.154c.007.112-.074.183-.112.273a2.928,2.928,0,0,0-.224.925.857.857,0,0,0,.288.678A.708.708,0,0,0,51,68.42a.944.944,0,0,0,.13.086.893.893,0,0,0,.115.01.909.909,0,0,0,.457-.033.972.972,0,0,0,.439-.344.689.689,0,0,0,.131-.534,1.369,1.369,0,0,0-.542-.748.777.777,0,0,1-.192-.082,1.247,1.247,0,0,1-.124-.2.74.74,0,0,1-.157-.424c0-.147.1-.632.178-.651s.18.056.279.091a1.886,1.886,0,0,1,.283.1c.076.046.055.218.076.286a1.494,1.494,0,0,0,.162.4,1.141,1.141,0,0,0,.246.37.926.926,0,0,0,.606.142.834.834,0,0,0,.325-.1,1.16,1.16,0,0,0,.191-.143.972.972,0,0,0-.149-1.282.753.753,0,0,0-.2-.082,3.708,3.708,0,0,0-1.081.082,1.945,1.945,0,0,1-.591-.1c-.034-.01-.071,0-.1-.01s-.056-.042-.1-.063c-.213-.1-.406-.2-.426-.459-.012-.128.026-.335.106-.367a1,1,0,0,1,.384.049c.217.044.362.078.543.127a1.271,1.271,0,0,1,.169.063,5.5,5.5,0,0,1,.956.388c.05.03.087.067.133.095s.1.043.157.074a5.816,5.816,0,0,1,.8.564,6.8,6.8,0,0,1,.9.907,8.15,8.15,0,0,1,.739,1.077,8.623,8.623,0,0,0,.749,1.06c.067.077.133.164.2.241a1.892,1.892,0,0,0,.225.24,8.649,8.649,0,0,0,.936.88c.253.193.54.377.787.571a3.307,3.307,0,0,0,.306.26c.078.043.152.06.235.106.3.152.575.336.868.485.245.124.532.244.784.341.164.064.328.136.5.194a6.91,6.91,0,0,0,.708.191c.5.094.975.252,1.446.354.125.029.238.062.357.1s.263.043.381.083c.05.01.1.045.145.059s.11.018.165.031c.31.09.634.172.951.265.048.014.1.044.142.055s.113.025.163.038a5.07,5.07,0,0,1,.6.212c.081.044.159.114.245.158a.852.852,0,0,1,.213.09,4.809,4.809,0,0,1-.4,1.057,5.1,5.1,0,0,1-.274.468c-.1.146-.191.3-.294.434a5.567,5.567,0,0,1-1.533,1.4.557.557,0,0,1-.3-.437.657.657,0,0,1,.131-.323,1.783,1.783,0,0,1,.747-.556c.222-.09.456-.125.658-.216a.719.719,0,0,0,.5-.519.9.9,0,0,0-.592-.976.812.812,0,0,0-.94.516,1.709,1.709,0,0,0,0,.676,2.223,2.223,0,0,1,.064.268c-.018.084-.13.161-.206.242-.063.066-.161.2-.24.2-.041,0-.175-.173-.234-.251a.806.806,0,0,1-.215-.662,1.979,1.979,0,0,1,.022-.2.9.9,0,0,1,.124-.192,1.3,1.3,0,0,0,.211-.735.782.782,0,0,0-.866-.689h0a.823.823,0,0,0-.761.75c-.012.492.44.8.736.964.044.024.116.029.133.093a.324.324,0,0,1-.261.177,1.726,1.726,0,0,1-.855-.083,1.386,1.386,0,0,1-.579-.379,3.339,3.339,0,0,1-.36-.606c-.119-.208-.317-.543-.678-.486a1.582,1.582,0,0,0-.77.71.623.623,0,0,0,.085.574,1.35,1.35,0,0,0,1.068.26,1.854,1.854,0,0,1,.421-.023,2.378,2.378,0,0,1,.493.164,3.5,3.5,0,0,0,1.328.31.8.8,0,0,1,.3-.014c.186.06.258.374.264.616,0,.131-.05.264-.06.394a1.738,1.738,0,0,0-.011.414,1.642,1.642,0,0,0,.121.324,3.538,3.538,0,0,1-.589.246.525.525,0,0,1-.211.065c-.062,0-.174-.117-.216-.151a1.478,1.478,0,0,1-.429-.675c-.05-.26.081-.47.038-.721a.573.573,0,0,0-.367-.426,1.151,1.151,0,0,0-.581-.132.742.742,0,0,0-.628.414.789.789,0,0,0,.357,1.057.7.7,0,0,0,.12.047,1,1,0,0,0,.639-.014.578.578,0,0,1,.2-.062c.109.015.22.192.276.29a3.645,3.645,0,0,1,.165.456,2.234,2.234,0,0,1-.657.134c-.118.016-.251.016-.366.024a.945.945,0,0,1-.359-.024c-.029-.061-.055-.123-.079-.186a1.863,1.863,0,0,0-.634-.775c-.051-.041-.287-.2-.294-.273-.006-.047.05-.1.074-.142a1.208,1.208,0,0,0,.15-.388.856.856,0,0,0-1.2-.914.81.81,0,0,0-.456.448.9.9,0,0,0,.484,1.18.888.888,0,0,0,.384.069c.091,0,.18-.062.261-.05s.212.142.278.2a2.818,2.818,0,0,1,.272.239,2.087,2.087,0,0,1,.328.4c.027.046.078.112.05.173a5.148,5.148,0,0,1-1.356-.281,1.319,1.319,0,0,0-1.083-.571c-.339.052-.548.628-.379.948.163.29.576.323.961.235a3.062,3.062,0,0,1,.4-.114,2.732,2.732,0,0,1,.422.06,1.3,1.3,0,0,1,.405.071,1.071,1.071,0,0,1-.356.368c-.053.039-.12.1-.2.149s-.157.14-.226.148-.146-.062-.215-.076a.864.864,0,0,0-.974.937.815.815,0,0,0,1.591.014.933.933,0,0,0-.167-.7c.167-.141.356-.258.572-.417.078-.057.174-.135.274-.216.078-.061.2-.2.284-.209a.55.55,0,0,1,.181,0,.325.325,0,0,1,.151.024c.067.39.137.783.176,1.194a.811.811,0,0,0-.676.619.783.783,0,0,0,1.088.878.87.87,0,0,0,.386-.428.786.786,0,0,0-.227-.874,2.346,2.346,0,0,1-.228-.2.81.81,0,0,1-.141-.629,1.6,1.6,0,0,1,.377.147,3.819,3.819,0,0,1,.707.366,1.189,1.189,0,0,1,.287.247c.033.062.057.149.1.241.044.075.1.137.1.2,0,.095-.1.177-.116.231a1.137,1.137,0,0,0-.082.345.756.756,0,0,0,.7.805.843.843,0,0,0,.841-.583.789.789,0,0,0-.8-1.058.516.516,0,0,1-.179.028,3.8,3.8,0,0,0-.261-.374,2.664,2.664,0,0,0-.346-.28,3.2,3.2,0,0,0-.614-.347c-.16-.067-.306-.117-.464-.172a.562.562,0,0,1-.213-.113.407.407,0,0,1,.046-.256,6.285,6.285,0,0,1,.749-.083c.048-.007.123-.05.178-.038s.11.086.167.144a1.705,1.705,0,0,0,.335.282c.057.045.144.1.162.148a1.481,1.481,0,0,1,.012.221.367.367,0,0,0,.037.095A.573.573,0,1,0,63.8,78.2a.553.553,0,0,0-.193.034.776.776,0,0,0-.176.113c-.024.03-.064.1-.139.1s-.165-.1-.211-.138a.629.629,0,0,1-.158-.217,3.487,3.487,0,0,1,.441-.116,7.432,7.432,0,0,0,1.079-.333.7.7,0,0,1,.213-.074.318.318,0,0,1,.182.194c.058.223-.086.381-.075.607a.694.694,0,0,0,.79.584.647.647,0,0,0,.074-.015.688.688,0,0,0,.452-.409,1.153,1.153,0,0,0,.082-.4c.015-.474-.331-.635-.769-.6a.282.282,0,0,1-.179-.014,1.121,1.121,0,0,1,.224-.164c.256-.164.476-.327.7-.5a9.36,9.36,0,0,0,2.014-1.955,1.907,1.907,0,0,1,.349-.455,3.335,3.335,0,0,1,.373.2c.135.085.248.16.362.237s.248.139.361.231a1.371,1.371,0,0,1,.156.139c.062.043.124.072.181.12a7.389,7.389,0,0,1,.617.556,4.086,4.086,0,0,1,.55.639,1.016,1.016,0,0,1,.1.217,1.371,1.371,0,0,1,.019.465c-.023.229-.039.508-.049.765-.011.206-.026.413-.041.619-.046.857-.083,1.719-.131,2.549-.019.442-.019.876-.057,1.293-.021.225-.017.529-.035.76s-.039.437-.043.655a9.693,9.693,0,0,1-.6,2.9,9.391,9.391,0,0,1-.438.971,9.157,9.157,0,0,1-.494.9,9.877,9.877,0,0,1-1.25,1.553c-.24.241-.491.452-.739.675.29.277.611.632.89.953.073.077.216.3.31.3.064.01.275-.151.382-.21.407-.231.8-.465,1.15-.666a6.783,6.783,0,0,1,2.14-.875,2.167,2.167,0,0,1,.544-.06,1.574,1.574,0,0,1,1.449.97,7.351,7.351,0,0,1,.166,3.64.844.844,0,0,0-.027.36c.051-.009.087.007.132,0s.02-.029.035-.032a.2.2,0,0,1,.075-.014c.355,0,.712-.036,1.07-.061a7.02,7.02,0,0,0,1-.084c-.064-1.363.194-2.762,1.674-2.443a5.635,5.635,0,0,1,1.246.5c.4.2.764.425,1.141.618.691-.425,1.369-.9,2.037-1.316.047-.025.106-.043.133-.092-.759-.406-1.462-.8-2.137-1.236a8.581,8.581,0,0,1-1.839-1.544,6.119,6.119,0,0,1-1.184-2.178,9.689,9.689,0,0,1-.382-2.15c-.078-.939-.1-1.971-.153-2.944,0-.038-.023-.074-.023-.116s.017-.095.013-.142-.027-.081-.029-.13c-.02-.271-.016-.541-.027-.8-.055-.686-.048-1.357-.091-2,0-.043-.019-.089-.023-.133s.017-.1.013-.136-.02-.082-.023-.124c-.017-.207,0-.438-.012-.661s-.046-.461-.052-.693a2.008,2.008,0,0,1,.1-.426,2.938,2.938,0,0,1,.562-1.042,7.407,7.407,0,0,1,1.405-1.247,7.073,7.073,0,0,1,.815-.509c.293-.154.574-.319.876-.453a5.183,5.183,0,0,1,.761-.309c.238.309.443.629.687.918a11.089,11.089,0,0,0,.9.9,13.593,13.593,0,0,0,1.237.982c.077.056.158.115.241.167s.2.077.228.173c-.478-.078-.905.053-.956.467a1.028,1.028,0,0,0,.237.794.786.786,0,0,0,.582.179.67.67,0,0,0,.6-.6c.007-.18-.126-.383-.075-.607a.265.265,0,0,1,.2-.184c.061-.006.125.049.2.084a2.08,2.08,0,0,0,.213.067,9,9,0,0,0,1.1.323c.074.016.169,0,.216.067a.761.761,0,0,1-.392.36c-.11-.07-.178-.171-.285-.212a.592.592,0,0,0-.769.33.584.584,0,0,0-.042.222.628.628,0,0,0,.47.552.59.59,0,0,0,.69-.469.579.579,0,0,0,0-.2,3.256,3.256,0,0,0,.346-.26c.064-.056.245-.269.324-.286a1.022,1.022,0,0,1,.165.022c.251.033.533.046.8.1a.967.967,0,0,1,.035.268c-.191.1-.391.15-.585.229a3.585,3.585,0,0,0-1.007.609,1.185,1.185,0,0,0-.188.212c-.058.078-.1.168-.163.25a.789.789,0,0,0-1.006.483c-.009.027-.017.054-.024.082a.883.883,0,0,0,.573,1.006.765.765,0,0,0,1.023-.757,1.375,1.375,0,0,0-.083-.353c-.031-.091-.121-.158-.123-.244,0-.056.068-.141.1-.208a1.8,1.8,0,0,1,.095-.215.978.978,0,0,1,.291-.248,2.44,2.44,0,0,1,.347-.2,3.952,3.952,0,0,1,.77-.325.652.652,0,0,1-.02.331.7.7,0,0,1-.119.285c-.13.169-.328.249-.428.418a.8.8,0,1,0,1.351,0,.7.7,0,0,0-.341-.318c-.077-.038-.177-.029-.25-.1.073-.4.106-.825.2-1.193.059-.042.241.014.332-.024.288.206.558.454.841.653a.964.964,0,0,1,.287.212c-.028.1-.107.159-.147.261a.9.9,0,0,0,.595,1.122l.027.008a.963.963,0,0,0,.485-.036c.061-.028.11-.095.2-.122a.869.869,0,0,0,.259-.832,1.019,1.019,0,0,0-.33-.508.857.857,0,0,0-.644-.144c-.055.016-.136.082-.208.073a.752.752,0,0,1-.23-.147c-.08-.06-.153-.118-.2-.163-.149-.118-.319-.239-.346-.377a1.437,1.437,0,0,1,.432-.061c.062-.011.137-.027.2-.032a1.327,1.327,0,0,1,.216-.041c.076.009.161.069.256.094a1.4,1.4,0,0,0,.907.018.644.644,0,0,0,.251-.313A.865.865,0,0,0,92,76.557a.67.67,0,0,0-.272-.414.7.7,0,0,0-.523-.009,1.269,1.269,0,0,0-.536.321c-.08.073-.12.166-.213.209a1.636,1.636,0,0,1-.32.1,5.75,5.75,0,0,1-.688.142.924.924,0,0,1-.351.026c-.015-.065.038-.121.066-.168a1.866,1.866,0,0,1,.335-.416A3.712,3.712,0,0,1,89.9,76a.529.529,0,0,1,.164-.1,1.267,1.267,0,0,1,.181.038.933.933,0,0,0,1.036-.814.957.957,0,0,0,0-.227.911.911,0,0,0-.843-.749.874.874,0,0,0-.926.817v.012a1.617,1.617,0,0,0,.235.727q-.251.237-.524.449a1.97,1.97,0,0,0-.415.572c-.035.066-.054.2-.116.231a1.336,1.336,0,0,1-.346,0c-.119,0-.238-.009-.356-.022a2.1,2.1,0,0,1-.669-.131,1.674,1.674,0,0,1,.173-.438c.058-.122.148-.315.3-.315.08-.006.169.061.238.08a1.01,1.01,0,0,0,.734-.071,1.159,1.159,0,0,0,.324-.271.841.841,0,0,0-.213-1.059,1.052,1.052,0,0,0-1.12.057.621.621,0,0,0-.252.4c-.027.235.088.437.051.664a1.106,1.106,0,0,1-.276.5,1.039,1.039,0,0,1-.4.372c-.2-.085-.425-.156-.609-.24a.431.431,0,0,1-.176-.1c.006-.083.062-.114.085-.184a1.775,1.775,0,0,0,0-.733,1.877,1.877,0,0,1-.051-.234c0-.225.119-.581.31-.619.082-.024.184.02.257.02a2.767,2.767,0,0,0,.975-.159,5.674,5.674,0,0,1,.873-.3,1.624,1.624,0,0,1,.472.015c.488.043,1.194-.054,1.186-.623a.769.769,0,0,0-.286-.549,2.826,2.826,0,0,0-.293-.286.579.579,0,0,0-.491-.085c-.49.233-.5.873-.94,1.214a1.665,1.665,0,0,1-1.242.329c-.133-.009-.309-.038-.344-.2a1.943,1.943,0,0,1,.305-.172,1.143,1.143,0,0,0,.585-.88.834.834,0,0,0-.535-.7.811.811,0,0,0-1.062.431.8.8,0,0,0-.055.2,1.305,1.305,0,0,0,.251.821.579.579,0,0,1,.085.133c.011.044,0,.138.007.219a.752.752,0,0,1-.214.651c-.076.1-.187.256-.26.256s-.184-.17-.221-.216c-.08-.074-.194-.148-.2-.235a1.31,1.31,0,0,1,.035-.137,2,2,0,0,0,.069-.461,1.752,1.752,0,0,0-.031-.389.886.886,0,0,0-.725-.519.714.714,0,0,0-.629.283.988.988,0,0,0-.192.792.474.474,0,0,0,.148.236,1.2,1.2,0,0,0,.637.332,2.018,2.018,0,0,1,.972.514.8.8,0,0,1,.273.473c.009.264-.14.347-.308.464a5.808,5.808,0,0,1-2.052-2.255,4.43,4.43,0,0,1-.42-1.02,2.305,2.305,0,0,1,.367-.143,6.292,6.292,0,0,1,.964-.319c.183-.035.373-.1.56-.143.3-.063.634-.145.912-.2.065-.016.134-.011.208-.025.053-.012.1-.044.152-.062s.131-.01.2-.02.111-.037.168-.051a1.722,1.722,0,0,0,.2-.02c.063-.01.121-.045.189-.058a4.969,4.969,0,0,0,.583-.192c.158-.064.306-.127.448-.176a.36.36,0,0,0,.085-.054c.067-.023.129-.042.19-.067.23-.108.454-.229.676-.342.167-.086.341-.2.489-.272.12-.064.25-.091.3-.206a1.679,1.679,0,0,0,.8.478,8.088,8.088,0,0,0,1.094.153c.029.133.135.189.187.285a4.452,4.452,0,0,0,.371.56c.068.077.141.164.214.249s.137.194.248.206a2.719,2.719,0,0,1,.263-1.86,4.188,4.188,0,0,1,.59-.982.258.258,0,0,0,.085-.157,1.23,1.23,0,0,0-.475.131c-.145.06-.291.13-.435.2a1.292,1.292,0,0,0-.479.464c-.035.066-.054.176-.13.166a3.062,3.062,0,0,0,.151-.488c-.273.065-.362.32-.473.547-.025.026,0,.108-.048.117a.552.552,0,0,1,.07-.262.54.54,0,0,0,.084-.223,5,5,0,0,1-.582.094,1.153,1.153,0,0,1-.859-.128,9.689,9.689,0,0,0,2.431-2.626,7.705,7.705,0,0,1,1.057-1.468,6.388,6.388,0,0,1,1.391-1.136,5.975,5.975,0,0,1,1.136-.548,4.593,4.593,0,0,1,.652-.19,2.971,2.971,0,0,1,.7-.117.651.651,0,0,1,.081.4.5.5,0,0,1-.26.357,1.528,1.528,0,0,1-.479.185,2.092,2.092,0,0,1-.744.035,2.345,2.345,0,0,1-.274-.071,1.2,1.2,0,0,0-.783.1.979.979,0,0,0-.146,1.292c.111.052.194.166.336.215a1.06,1.06,0,0,0,.8-.1,1.785,1.785,0,0,0,.4-.738.729.729,0,0,0,.047-.136c.015-.073-.006-.125.025-.167.056-.089.254-.085.33-.132a.761.761,0,0,1,.273-.1,1.024,1.024,0,0,1,.109.307,1.312,1.312,0,0,1,.055.368.711.711,0,0,1-.146.418,1.744,1.744,0,0,1-.132.215c-.053.039-.14.042-.191.082a1.331,1.331,0,0,0-.561.769.7.7,0,0,0,.2.618,1.387,1.387,0,0,0,.251.214.991.991,0,0,0,.71.059.857.857,0,0,0,.487-.442,2.146,2.146,0,0,0-.154-1.349.331.331,0,0,1-.1-.259,2.616,2.616,0,0,1,.66.39c.019.019.055.024.078.046a1.69,1.69,0,0,1,.688,1.3,1.712,1.712,0,0,0,.165.885.609.609,0,0,0,.167.153.832.832,0,0,0,.649-.037.986.986,0,0,0,.707-.58,1.133,1.133,0,0,0-.025-.3.73.73,0,0,0-.214-.292,2.417,2.417,0,0,0-.774-.439c-.079-.036-.171-.049-.246-.083a1.817,1.817,0,0,1-.18-.133,1.59,1.59,0,0,1-.165-.153,4.52,4.52,0,0,0-1.02-.891,1.717,1.717,0,0,0-.282-.139c-.109-.046-.224-.075-.276-.156a.861.861,0,0,1,.033-.633,2.676,2.676,0,0,1,.165-.244,2.041,2.041,0,0,0,.3-.536c.035-.116.014-.232.049-.351a6.8,6.8,0,0,1,.879.044,1.445,1.445,0,0,1,.26.827.971.971,0,0,1-.025.322,1.055,1.055,0,0,1-.2.307.991.991,0,0,0-.161.345.535.535,0,0,0,.071.392,1.077,1.077,0,0,0,.305.346.968.968,0,0,0,.779.235.916.916,0,0,0,.385-.244.978.978,0,0,0,.253-.584.78.78,0,0,0-.16-.427.976.976,0,0,0-.6-.432,2.429,2.429,0,0,0-.319-.033c-.13-.011-.166-.265-.166-.451s-.016-.424.085-.5a5.418,5.418,0,0,1,1.033.357c.1.044.289.087.309.169.015.06-.031.137-.038.187a2.5,2.5,0,0,0,.038.782c.015.1.039.239.07.367s.1.276.079.359-.106.115-.125.143a.627.627,0,0,0-.116.166.956.956,0,0,0,.326,1.312.976.976,0,0,0,.254.106.9.9,0,0,0,.8-.186.914.914,0,0,0,.267-1.077c-.018-.032-.018-.071-.043-.095a.77.77,0,0,0-.224-.276.818.818,0,0,0-.138-.1,2.815,2.815,0,0,0-.356-.121c-.051-.021-.071-.077-.11-.152a4.775,4.775,0,0,1-.223-.488,2.3,2.3,0,0,1-.109-.372c-.02-.12-.082-.288,0-.378a3.052,3.052,0,0,1,.326.2,3.928,3.928,0,0,1,.58.447c.1.091.259.179.285.275a2.089,2.089,0,0,0,.093.366,1.246,1.246,0,0,0,.1.133,1.167,1.167,0,0,0,.482.457.518.518,0,0,0,.607-.146.729.729,0,0,0,.212-.3.59.59,0,0,0-.15-.663,1.945,1.945,0,0,0-1.03-.315c-.2-.112-.38-.265-.586-.383-.066-.043-.129-.038-.129-.11S102.383,64.594,102.471,64.58ZM73.338,76.489c-.047.905.022,1.8-.042,2.678-.029.448.014.89-.01,1.332-.013.2-.038.43-.047.65a2.828,2.828,0,0,1-.071.629c-.1-.065-.1-.2-.118-.3-.024-.117-.033-.247-.047-.365-.036-.232-.063-.494-.083-.734-.045-.5-.089-1.006-.136-1.508-.078-1-.138-2-.213-2.99a7.634,7.634,0,0,1,.052-.991c.019-.5.035-.98.057-1.492a26.074,26.074,0,0,1,.568-5.074.14.14,0,0,1,.043-.02H73.3c.029,1.783.047,3.621.047,5.456C73.349,74.665,73.372,75.586,73.338,76.489ZM73.3,48.522c-.005.059.028.171-.048.2-.009-.127-.041-.264-.062-.39a1.8,1.8,0,0,1-.041-.512,1.708,1.708,0,0,1,.3-.773.531.531,0,0,0,.221.1A4.073,4.073,0,0,0,73.3,48.522Zm.7,4.959c-.092-.034-.068-.154-.082-.23-.081-.576-.138-1.249-.185-1.893a13.566,13.566,0,0,1,.127-2.959c.017-.114.025-.229.05-.343a1.532,1.532,0,0,1,.048-.155,1.091,1.091,0,0,1,.024-.162c.007-.037.046-.075.055-.123.012,0,.012.007.016.011C74.07,49.552,74.112,51.623,73.994,53.481Z" transform="translate(-12.587 -11.383)"/><path class="cls-1" d="M74.06,13.249a59.659,59.659,0,1,0,59.7,59.661A59.659,59.659,0,0,0,74.06,13.249Zm0,116.637A56.982,56.982,0,1,1,131.085,72.91,56.982,56.982,0,0,1,74.06,129.886Z" transform="translate(-12.587 -11.383)"/><path class="cls-1" d="M74.461,18.734a54.738,54.738,0,1,0,.008,0Zm.007,94.568a39.867,39.867,0,1,1,39.89-39.863A39.866,39.866,0,0,1,74.468,113.3Z" transform="translate(-12.587 -11.383)"/><path class="cls-1" d="M74.468,35.576a37.861,37.861,0,1,0,37.884,37.863A37.861,37.861,0,0,0,74.468,35.576Zm0,74.734a36.876,36.876,0,1,1,36.9-36.871A36.878,36.878,0,0,1,74.468,110.31Z" transform="translate(-12.587 -11.383)"/><path class="cls-1" d="M84.026,55.217s.052-.037.012-.055C84.043,55.182,83.979,55.2,84.026,55.217Z" transform="translate(-12.587 -11.383)"/><path class="cls-1" d="M83.857,55.308c.046,0,.077,0,.076-.039C83.9,55.276,83.868,55.285,83.857,55.308Z" transform="translate(-12.587 -11.383)"/><path class="cls-1" d="M51.611,68.979c.02.028.11.022.105-.015C51.675,68.979,51.623,68.914,51.611,68.979Z" transform="translate(-12.587 -11.383)"/><path class="cls-3" d="M44.144,34.326A1.674,1.674,0,1,0,45.818,36a1.674,1.674,0,0,0-1.674-1.674Z" transform="translate(-12.587 -11.383)"/><path class="cls-3" d="M30.752,95.147a1.674,1.674,0,1,0,1.674,1.674h0A1.673,1.673,0,0,0,30.752,95.147Z" transform="translate(-12.587 -11.383)"/><circle class="cls-3" cx="91.634" cy="25.732" r="1.674"/><path class="cls-3" d="M115.939,95.519a1.674,1.674,0,1,0,1.674,1.674h0a1.673,1.673,0,0,0-1.674-1.674Z" transform="translate(-12.587 -11.383)"/><polygon class="cls-3" points="30.783 98.51 31.637 97.517 28.981 95.223 30.527 93.431 33.364 95.88 34.222 94.889 30.45 91.63 24.599 98.405 28.405 101.693 29.265 100.698 26.392 98.22 28.124 96.217 30.783 98.51"/><polygon class="cls-3" points="40.53 99.12 35.449 103.601 37.244 97.066 36.027 96.304 31.28 103.897 32.332 104.55 35.191 99.975 33.707 105.411 34.588 105.961 38.813 102.248 35.956 106.818 37.006 107.472 41.75 99.882 40.53 99.12"/><path class="cls-3" d="M60.342,114.011a2.185,2.185,0,0,0-.769-.5l-2.9-1.138L53.4,120.7l1.152.453,1.3-3.317,1.748.688a2.239,2.239,0,0,0,.8.158l.107,0a1.908,1.908,0,0,0,.858-.259,2.5,2.5,0,0,0,.72-.64,3.816,3.816,0,0,0,.537-.964,3.888,3.888,0,0,0,.264-1.072,2.527,2.527,0,0,0-.093-.959A1.95,1.95,0,0,0,60.342,114.011Zm-.87,2.355a1.544,1.544,0,0,1-.671.88,1,1,0,0,1-.841.01l-1.625-.637,1.01-2.573,1.625.637a1.007,1.007,0,0,1,.609.58A1.555,1.555,0,0,1,59.472,116.366Z" transform="translate(-12.587 -11.383)"/><path class="cls-3" d="M68.286,116.353a1.98,1.98,0,0,0-.629-.586,2.432,2.432,0,0,0-.808-.3L63.7,114.9,62.1,123.7l1.218.219.658-3.631,1.945.353a.6.6,0,0,1,.411.183,1.019,1.019,0,0,1,.2.469,2.676,2.676,0,0,1,.021.715c-.024.286-.057.573-.1.865l-.079.655a3.355,3.355,0,0,0-.025.388,1.468,1.468,0,0,0,.046.379l.052.194,1.417.26-.219-.538a1.088,1.088,0,0,1-.05-.335,4.406,4.406,0,0,1,.02-.551c.019-.2.045-.4.072-.586s.057-.377.074-.513a5.385,5.385,0,0,0,.056-.74,2.3,2.3,0,0,0-.1-.685,1.576,1.576,0,0,0-.311-.562,1.858,1.858,0,0,0,.581-.495,3.224,3.224,0,0,0,.612-1.438,3.1,3.1,0,0,0,.021-1.095A2.2,2.2,0,0,0,68.286,116.353Zm-.93,1.9a1.647,1.647,0,0,1-.191.545,1.37,1.37,0,0,1-.3.358.969.969,0,0,1-.361.178.935.935,0,0,1-.4.012L64.208,119l.471-2.593,1.891.344a.9.9,0,0,1,.7.448,1.664,1.664,0,0,1,.086,1.051Z" transform="translate(-12.587 -11.383)"/><polygon class="cls-3" points="58.827 113.434 63.85 113.636 63.903 112.324 60.116 112.169 60.222 109.527 63.729 109.668 63.786 108.356 60.275 108.216 60.371 105.85 64.119 106.001 64.169 104.691 59.189 104.489 58.827 113.434"/><polygon class="cls-3" points="70.267 103.565 71.411 109.544 67.149 104.163 65.987 104.384 67.669 113.178 68.883 112.944 67.739 106.964 72.004 112.35 73.165 112.125 71.483 103.334 70.267 103.565"/><path class="cls-3" d="M91.581,113.317a2.913,2.913,0,0,0-2.694-.233L86.561,114l3.267,8.337,2.335-.917a2.9,2.9,0,0,0,1.808-1.994,7.215,7.215,0,0,0-2.39-6.1Zm1.169,5.731a1.513,1.513,0,0,1-.44.718,2.862,2.862,0,0,1-.915.541l-.895.351-2.307-5.891.892-.349a1.988,1.988,0,0,1,1.853,0,2.493,2.493,0,0,1,.731.744,7.125,7.125,0,0,1,.69,1.367A6.991,6.991,0,0,1,92.783,118,2.517,2.517,0,0,1,92.75,119.048Z" transform="translate(-12.587 -11.383)"/><polygon class="cls-3" points="86.415 105.263 85.007 103.024 87.979 101.154 87.282 100.043 84.308 101.911 83.049 99.906 86.224 97.912 85.526 96.801 81.303 99.454 86.065 107.033 90.325 104.357 89.625 103.247 86.415 105.263"/><path class="cls-3" d="M109.382,109.026a4.126,4.126,0,0,1-.427-.342c-.15-.133-.294-.268-.433-.407l-.369-.365a5.922,5.922,0,0,0-.559-.478,2.3,2.3,0,0,0-.611-.329,1.469,1.469,0,0,0-.637-.082,1.829,1.829,0,0,0-.055-.761,3.216,3.216,0,0,0-.794-1.344,3.079,3.079,0,0,0-.872-.669,2.191,2.191,0,0,0-.959-.24,1.944,1.944,0,0,0-.781.161,2.473,2.473,0,0,0-.718.473l-2.33,2.2,6.147,6.51.9-.851-2.534-2.683,1.435-1.357a.6.6,0,0,1,.438-.222,1.045,1.045,0,0,1,.452.116,2.639,2.639,0,0,1,.587.406c.217.19.426.385.64.6.064.058.135.124.215.2s.175.165.269.25a3.282,3.282,0,0,0,.3.243,1.474,1.474,0,0,0,.326.189l.19.077,1.056-1-.572-.138A.977.977,0,0,1,109.382,109.026Zm-4.309-1.811a.932.932,0,0,1-.228.33l-1.4,1.317-1.808-1.915,1.4-1.319a.9.9,0,0,1,.776-.3,1.668,1.668,0,0,1,.9.556,1.616,1.616,0,0,1,.325.476,1.232,1.232,0,0,1,.107.459A.9.9,0,0,1,105.073,107.215Z" transform="translate(-12.587 -11.383)"/><path class="cls-3" d="M31.391,77.3a3.754,3.754,0,0,0-2.31-.549l-.206.014.248,1.368.151,0a3.282,3.282,0,0,1,1.239.23,1.788,1.788,0,0,1,1.09,1.426,2,2,0,0,1-.459,1.842,3.522,3.522,0,0,1-1.979.962,3.6,3.6,0,0,1-2.448-.221A2.1,2.1,0,0,1,25.68,80.84,1.783,1.783,0,0,1,26.8,78.653l.135-.059-.247-1.359-.2.054A2.959,2.959,0,0,0,24.8,78.567a3.334,3.334,0,0,0-.393,2.515,3.48,3.48,0,0,0,1.758,2.569,4.148,4.148,0,0,0,2.04.5,5.807,5.807,0,0,0,1.036-.1,4.526,4.526,0,0,0,3.227-1.87,3.444,3.444,0,0,0,.434-2.5A3.4,3.4,0,0,0,31.391,77.3Z" transform="translate(-12.587 -11.383)"/><path class="cls-3" d="M32,73.377l-3.352-.055.036-2.156a2.075,2.075,0,0,1,.136-.84.924.924,0,0,1,.879-.437l1.3-.044a4.986,4.986,0,0,0,.646-.046,1.107,1.107,0,0,0,.313-.1l.1-.051.025-1.595-.482-.006-.049.11a.489.489,0,0,1-.362.229,3.043,3.043,0,0,1-.625.058l-1.049.021a1.9,1.9,0,0,0-1.094.278,1.586,1.586,0,0,0-.4.447,2.187,2.187,0,0,0-.592-.594,2.274,2.274,0,0,0-1.244-.34h-.056a2.015,2.015,0,0,0-1.978,1.158,3.709,3.709,0,0,0-.3,1.52l-.06,3.737,8.186.133ZM25.1,73.264l.038-2.328a1.748,1.748,0,0,1,.151-.758.966.966,0,0,1,.945-.473h.038a1.064,1.064,0,0,1,.917.358,1.778,1.778,0,0,1,.247,1.044L27.4,73.3Z" transform="translate(-12.587 -11.383)"/><polygon class="cls-3" points="18.701 53.655 16.467 53.206 17.313 49.002 16.064 48.749 15.217 52.955 13.253 52.559 14.169 48.011 12.867 47.748 11.674 53.671 19.7 55.289 20.909 49.286 19.633 49.03 18.701 53.655"/><polygon class="cls-3" points="20.659 46.133 18.542 45.288 20.131 41.304 18.947 40.832 17.358 44.816 15.497 44.074 17.216 39.764 15.982 39.271 13.744 44.885 21.349 47.917 23.617 42.23 22.408 41.749 20.659 46.133"/><path class="cls-3" d="M39.987,46.435a.481.481,0,0,1-.428.007A3.064,3.064,0,0,1,39,46.165l-.906-.531a1.976,1.976,0,0,0-1.077-.335,1.593,1.593,0,0,0-.576.171,2.2,2.2,0,0,0-.194-.814,2.266,2.266,0,0,0-.883-.942,2.029,2.029,0,0,0-2.339-.077,3.714,3.714,0,0,0-1.053,1.137l-2,3.156,6.908,4.392.768-1.205-2.829-1.8L35.968,47.5a2.086,2.086,0,0,1,.555-.645.924.924,0,0,1,.978.087l1.134.644a4.894,4.894,0,0,0,.575.3,1.117,1.117,0,0,0,.318.08l.111.009.853-1.345-.4-.261Zm-5.057.357-1.178,1.853-1.941-1.234,1.249-1.966a1.737,1.737,0,0,1,.525-.567.985.985,0,0,1,1.084.11,1.066,1.066,0,0,1,.6.785A1.791,1.791,0,0,1,34.93,46.792Z" transform="translate(-12.587 -11.383)"/><path class="cls-3" d="M58.75,28.566a3.355,3.355,0,0,0-1.361-.013l-1.077.173a6.687,6.687,0,0,1-1.383.128.711.711,0,0,1-.6-.489,1.066,1.066,0,0,1,.015-.854,1.61,1.61,0,0,1,.944-.754,1.7,1.7,0,0,1,1.525-.045,1.839,1.839,0,0,1,.6.7l.08.143,1.243-.512-.07-.17a2.346,2.346,0,0,0-1.623-1.547,3.618,3.618,0,0,0-2.218.232,2.979,2.979,0,0,0-1.7,1.483,2.473,2.473,0,0,0,0,2.015,1.838,1.838,0,0,0,1.357,1.191h0a4.706,4.706,0,0,0,1.579-.06l1.04-.169a3.67,3.67,0,0,1,1.241-.04.857.857,0,0,1,.573.584,1.024,1.024,0,0,1-.349,1.233,2.918,2.918,0,0,1-.849.52,1.786,1.786,0,0,1-1.774-.021,2.019,2.019,0,0,1-.629-.811l-.075-.158-1.251.513.067.17a2.672,2.672,0,0,0,2.565,1.832,4.013,4.013,0,0,0,1.511-.328,4.256,4.256,0,0,0,1.848-1.391,2.185,2.185,0,0,0,.168-2.248A2.053,2.053,0,0,0,58.75,28.566Z" transform="translate(-12.587 -11.383)"/><path class="cls-3" d="M63.024,23.162,61.7,31.811l1.45-.306.346-2.467,2.745-.579,1.282,2.122,1.522-.322-4.6-7.4Zm2.543,4.179-1.888.4.4-2.86Z" transform="translate(-12.587 -11.383)"/><path class="cls-3" d="M74.92,25.667a1.848,1.848,0,0,0,.347-.32A1.939,1.939,0,0,0,75.694,24a2.066,2.066,0,0,0-.413-1.213,2.408,2.408,0,0,0-2.141-.835l-3.564.1.24,8.184,3.508-.1a2.878,2.878,0,0,0,2.381-1.055h0a2.36,2.36,0,0,0,.472-1.5,2.061,2.061,0,0,0-.628-1.526A2.324,2.324,0,0,0,74.92,25.667Zm-1.868.818a2.859,2.859,0,0,1,1.015.124.965.965,0,0,1,.681.967,1.25,1.25,0,0,1-.2.759,1.471,1.471,0,0,1-1.239.526l-2.118.062-.07-2.38Zm.755-1.416a2.244,2.244,0,0,1-.966.2l-1.761.052-.06-2.052,1.723-.049a2.689,2.689,0,0,1,.985.106.827.827,0,0,1,.542.846.894.894,0,0,1-.463.9Z" transform="translate(-12.587 -11.383)"/><polygon class="cls-3" points="64.917 18.786 70.971 19.692 71.164 18.405 66.496 17.707 66.834 15.451 71.075 16.087 71.264 14.825 67.022 14.191 67.319 12.21 71.908 12.897 72.104 11.583 66.127 10.689 64.917 18.786"/><path class="cls-3" d="M91.216,24.939,87.687,23.7l-2.7,7.73,1.349.471,1.107-3.164,2.036.711a2.062,2.062,0,0,1,.754.4.924.924,0,0,1,.139.97L90,32.07a5.024,5.024,0,0,0-.16.628,1.227,1.227,0,0,0-.005.326l.017.11,1.506.528.159-.457-.09-.082a.484.484,0,0,1-.1-.414,3.044,3.044,0,0,1,.141-.611l.311-1a1.909,1.909,0,0,0,.081-1.126,1.573,1.573,0,0,0-.3-.521,2.172,2.172,0,0,0,.749-.375A2.28,2.28,0,0,0,93.022,28a2.03,2.03,0,0,0-.459-2.294A3.664,3.664,0,0,0,91.216,24.939Zm-.4,1.214a1.729,1.729,0,0,1,.67.381.987.987,0,0,1,.141,1.083,1.068,1.068,0,0,1-.629.758,1.776,1.776,0,0,1-1.068-.093l-2.073-.725.76-2.172Z" transform="translate(-12.587 -11.383)"/><path class="cls-3" d="M113.889,50.688l.185-.093-.756-1.166-.141.055a3.273,3.273,0,0,1-1.233.266,1.788,1.788,0,0,1-1.555-.9,1.993,1.993,0,0,1-.287-1.875,3.505,3.505,0,0,1,1.454-1.652,3.587,3.587,0,0,1,2.343-.742,2.106,2.106,0,0,1,1.549,1.012,1.786,1.786,0,0,1-.194,2.452l-.1.106.753,1.159.159-.125a2.966,2.966,0,0,0,1.069-1.832,3.334,3.334,0,0,0-.609-2.472,3.472,3.472,0,0,0-2.612-1.692,5.3,5.3,0,0,0-5.249,3.784,3.44,3.44,0,0,0,.566,2.477,3.392,3.392,0,0,0,2.319,1.618,3.48,3.48,0,0,0,.595.05A3.851,3.851,0,0,0,113.889,50.688Z" transform="translate(-12.587 -11.383)"/><path class="cls-3" d="M114.918,59.556a.49.49,0,0,1,.243-.352,3.188,3.188,0,0,1,.553-.3l.96-.425a1.914,1.914,0,0,0,.9-.68,1.585,1.585,0,0,0,.2-.566,2.207,2.207,0,0,0,.775.316,2.239,2.239,0,0,0,1.279-.169,2.027,2.027,0,0,0,1.426-1.853,3.657,3.657,0,0,0-.31-1.519l-1.392-3.469-7.6,3.05.533,1.326,3.11-1.25.8,2a2.081,2.081,0,0,1,.2.827.924.924,0,0,1-.64.743l-1.185.545a4.881,4.881,0,0,0-.577.293,1.091,1.091,0,0,0-.251.213l-.072.084.594,1.482.448-.183Zm3.976-7.209.868,2.161a1.722,1.722,0,0,1,.154.758.982.982,0,0,1-.722.816,1.071,1.071,0,0,1-.985.026,1.8,1.8,0,0,1-.633-.867l-.817-2.037Z" transform="translate(-12.587 -11.383)"/><polygon class="cls-3" points="104.664 55.572 103.755 50.941 105.991 50.502 106.819 54.71 108.069 54.463 107.243 50.256 109.208 49.869 110.103 54.423 111.406 54.166 110.241 48.237 102.207 49.815 103.388 55.823 104.664 55.572"/><path class="cls-3" d="M116.1,69.289l2.354.811.046,2.806-2.329.854.026,1.554,8.138-3.1-.024-1.453-8.236-2.95Zm3.594,1.237,2.731.939-2.7.991Z" transform="translate(-12.587 -11.383)"/><path class="cls-3" d="M115.828,77.632l3.3.566-.364,2.126a2.112,2.112,0,0,1-.264.81.923.923,0,0,1-.935.3l-1.3-.156a6.326,6.326,0,0,0-.645-.054,1.18,1.18,0,0,0-.323.048l-.108.035-.269,1.572.475.082.067-.1a.489.489,0,0,1,.39-.172,3,3,0,0,1,.628.039l1.04.14a1.89,1.89,0,0,0,1.124-.107,1.582,1.582,0,0,0,.465-.381,2.216,2.216,0,0,0,.494.677,2.269,2.269,0,0,0,1.178.527,3.1,3.1,0,0,0,.509.045,1.927,1.927,0,0,0,1.677-.878,3.675,3.675,0,0,0,.532-1.455l.631-3.685-8.07-1.383Zm6.808,1.168-.394,2.3a1.71,1.71,0,0,1-.265.724.977.977,0,0,1-1.043.318,1.061,1.061,0,0,1-.852-.5A1.783,1.783,0,0,1,120,80.575l.371-2.165Z" transform="translate(-12.587 -11.383)"/></svg>