<svg id="Capa_1" data-name="Capa 1" xmlns="http://www.w3.org/2000/svg" viewBox="0 0 792 612"><defs><style>.cls-1{fill:#243c83;}.cls-2{fill:#269ccd;}</style></defs><path class="cls-1" d="M141.79,311c1.19-1.24,2.35-2.47,3.53-3.68,7.8-7.95,19.7-8,27.3-4.4a18.1,18.1,0,0,1,7.62,6.78l.93,1.47c.69,0,.91-.58,1.25-.95,4.61-5,10.11-8.34,16.91-9.23a30.65,30.65,0,0,1,13.19.84,19.48,19.48,0,0,1,13.13,12.79A33.57,33.57,0,0,1,227.44,326c.05,14.45,0,28.9,0,43.34,0,.34,0,.67,0,1,0,.7-.35.92-1,.9h-1.39c-5,0-10,0-14.92,0-2.8,0-2.47.34-2.47-2.39q0-18,0-36a26.05,26.05,0,0,0-.44-5.14,11.35,11.35,0,0,0-17.63-7.33,10.23,10.23,0,0,0-3.91,4.89,18.31,18.31,0,0,0-1.23,7q0,18.39,0,36.78c0,2.36.25,2.18-2.08,2.18H166.89c-2.38,0-2.17.2-2.17-2.1q0-18.19,0-36.38a20.92,20.92,0,0,0-.94-6.86,9.9,9.9,0,0,0-10-7.22,14.62,14.62,0,0,0-3.37.19,10.23,10.23,0,0,0-7.69,6.52,18,18,0,0,0-1.19,6.8q0,18.19,0,36.38c0,.47,0,.93,0,1.39.09.91-.22,1.31-1.21,1.3-5.77,0-11.54,0-17.3,0-.93,0-1.38-.26-1.27-1.24a11.81,11.81,0,0,0,0-1.19q0-32.2,0-64.41c0-2.66-.32-2.38,2.28-2.39h15.71c1.75,0,1.76,0,1.77,1.71,0,2,0,4,0,6C141.53,310.08,141.36,310.56,141.79,311Z"/><path class="cls-2" d="M376.06,371c-.2-.65.23-1.14.46-1.67q18.6-43.68,37.19-87.38a2.4,2.4,0,0,1,2.65-1.72c4.91.08,9.82.09,14.72,0a2.25,2.25,0,0,1,2.5,1.64q10.11,23.86,20.31,47.71,8.3,19.47,16.58,38.93a7.89,7.89,0,0,1,.87,2.39c-.39.45-.87.28-1.3.28-5.9,0-11.81,0-17.71,0a2.1,2.1,0,0,1-2.3-1.6c-2.27-5.73-4.64-11.41-6.91-17.14a2.12,2.12,0,0,0-2.3-1.6q-17.42.08-34.82,0a2.09,2.09,0,0,0-2.29,1.59c-2.26,5.73-4.66,11.4-6.93,17.13a2.07,2.07,0,0,1-2.27,1.62c-5.7-.07-11.4,0-17.1,0A2.11,2.11,0,0,1,376.06,371Zm59.23-37.75-11.88-28.94c-4.06,9.88-7.93,19.31-11.88,28.94Z"/><path class="cls-1" d="M283.48,331.52c.59-6.62-2.89-11.43-9.16-12.82a36.66,36.66,0,0,0-11.87-.21,44.43,44.43,0,0,0-11.52,2.93c-.89.34-1.36.36-1.7-.75-1.32-4.24-2.73-8.44-4.16-12.64-.34-1,0-1.37.85-1.75a61.67,61.67,0,0,1,17.21-4.6,60.92,60.92,0,0,1,17.63.32c6.17,1.14,11.63,3.6,15.72,8.56a26.78,26.78,0,0,1,5.43,12.63,45.66,45.66,0,0,1,.63,7.92q0,18.69,0,37.38c0,.4,0,.8,0,1.19,0,1.48,0,1.51-1.57,1.51H284.85c-1.39,0-1.41,0-1.43-1.44,0-1.72,0-3.44,0-5.09-.62-.37-.82.1-1.07.34-5.68,5.51-12.6,7.58-20.34,7.44a26.82,26.82,0,0,1-13.15-3.31,18.89,18.89,0,0,1-9.87-15,23.76,23.76,0,0,1,1.41-11.9A19,19,0,0,1,251,331.79,36.93,36.93,0,0,1,264.94,329a50.14,50.14,0,0,1,17.62,2.42A6.05,6.05,0,0,0,283.48,331.52Zm-11.32,9.26c-4.26,0-7,.46-9.29,1.61a8.38,8.38,0,0,0-5,8.69c.31,3.71,2.68,6.31,6.59,7.24a18.61,18.61,0,0,0,13.63-1.82,10.82,10.82,0,0,0,5.37-6.83,23.29,23.29,0,0,0,.35-4.93,1.77,1.77,0,0,0-1.4-2A30.8,30.8,0,0,0,272.16,340.78Z"/><path class="cls-2" d="M596.44,362a10.78,10.78,0,0,0-2.32,2.32c-3.8,4.12-8.29,7.07-13.92,7.83-6.5.87-12.73.08-18.23-3.82-4.93-3.5-7.37-8.56-8.52-14.33a39.84,39.84,0,0,1-.68-7.71q0-20.78,0-41.56v-.79c0-1.95,0-1.95,2-2h15.72c2.17,0,2.08-.15,2.07,2q0,18.3,0,36.59a20.8,20.8,0,0,0,.94,6.46,10,10,0,0,0,8.54,7.34,14.26,14.26,0,0,0,6.49-.42c4.24-1.31,6.48-4.38,7.49-8.52a20.42,20.42,0,0,0,.48-4.93q0-17.79,0-35.59c0-.34,0-.67,0-1,0-1.93,0-1.94,1.95-1.95H614.3c1.89,0,1.91,0,1.91,1.79q0,32.81,0,65.62c0,1.77,0,1.79-1.7,1.8H598c-1.52,0-1.55,0-1.56-1.54C596.42,367.2,596.44,364.76,596.44,362Z"/><path class="cls-2" d="M514.87,317.9H482.56c-1.6,0-1.63,0-1.63-1.66,0-4.11,0-8.22,0-12.33,0-2.09-.05-1.92,2-1.92h51.92c1.26,0,2.52,0,3.78,0,.91,0,1.31.24,1.3,1.23q-.06,5.87,0,11.73a2.91,2.91,0,0,1-1,2q-4.4,4.89-8.81,9.72-12.22,13.47-24.44,26.95a3.24,3.24,0,0,0-1.07,1.64H537.2c.47,0,.93,0,1.39,0,.92-.08,1.31.25,1.3,1.23q-.06,6.66,0,13.32c0,1.09-.43,1.41-1.41,1.32a8.32,8.32,0,0,0-1,0H482.19c-.47,0-.93,0-1.4,0-.75.05-1.07-.28-1.06-1q0-6.07,0-12.13a2.44,2.44,0,0,1,.91-1.69l18.52-20.51q7.53-8.33,15.05-16.66A1.65,1.65,0,0,0,514.87,317.9Z"/><path class="cls-1" d="M359.8,322.53c-1.94-1-3.74-1.95-5.59-2.8-4-1.82-8.08-3.34-12.54-3.54a11,11,0,0,0-4.86.7c-3.55,1.51-4.05,4.94-1.07,7.34a18.34,18.34,0,0,0,4.53,2.44c3.37,1.4,6.9,2.33,10.33,3.54,4.64,1.65,9.13,3.57,12.81,7a16.26,16.26,0,0,1,5.38,12,23.21,23.21,0,0,1-2.57,12.09A19.77,19.77,0,0,1,356,370a35.69,35.69,0,0,1-14.6,2.42A48,48,0,0,1,313.87,363c-1.53-1.1-1.37-1.05-.45-2.44,2.3-3.48,4.59-7,6.81-10.51.57-.92,1-.94,1.83-.34a40.85,40.85,0,0,0,15.26,6.94,21.22,21.22,0,0,0,8.87.28,8.22,8.22,0,0,0,2.42-.86,4.27,4.27,0,0,0,.43-7.5,15.21,15.21,0,0,0-4.28-2.05q-5-1.61-10-3.14a42.58,42.58,0,0,1-9.14-3.82c-7.09-4.15-10.09-10.37-9.5-18.47.73-9.94,7.33-16.62,16.72-19.07,7.25-1.9,14.45-1.19,21.56.89a47.88,47.88,0,0,1,11.74,5.29c1.2.74,1.21.78.56,2C364.4,314.27,362.12,318.37,359.8,322.53Z"/><path class="cls-2" d="M633.32,324.09V279.78c0-.47,0-.93,0-1.39,0-1.42,0-1.45,1.43-1.46,3.51,0,7,0,10.54,0,2.12,0,4.24,0,6.36,0,.9,0,1.4.23,1.3,1.22a11.78,11.78,0,0,0,0,1.19v89.42c0,2.77.28,2.44-2.43,2.45h-14.7c-2.74,0-2.48.34-2.49-2.4Z"/><path class="cls-1" d="M263.59,294.22l6.14-9.64q3.75-5.85,7.49-11.69c.85-1.32.86-1.32,2.33-.68q7.29,3.15,14.55,6.32c.23.1.45.25.83.46-.49.53-.88,1-1.34,1.44l-14,13.16a2.6,2.6,0,0,1-1.88.92c-4.5,0-9,0-13.5,0C264.05,294.47,263.94,294.38,263.59,294.22Z"/></svg>