<svg id="Capa_1" data-name="Capa 1" xmlns="http://www.w3.org/2000/svg" viewBox="0 0 12.17 13.91"><defs><style>.cls-1{fill:#30302f;}</style></defs><path id="Icon_metro-file-text" data-name="Icon metro-file-text" class="cls-1" d="M11.6,3.11a12.67,12.67,0,0,0-1.18-1.35A12.73,12.73,0,0,0,9.06.57,2.13,2.13,0,0,0,7.82,0H1.09A1.09,1.09,0,0,0,0,1.09V12.83a1.08,1.08,0,0,0,1.09,1.08h10a1.08,1.08,0,0,0,1.08-1.08V4.35A2.16,2.16,0,0,0,11.6,3.11ZM9.8,2.37a13.07,13.07,0,0,1,1,1.11H8.69V1.39A11.44,11.44,0,0,1,9.8,2.37Zm1.5,10.46a.21.21,0,0,1-.22.21h-10a.21.21,0,0,1-.21-.21V1.09A.22.22,0,0,1,1.09.87H7.82v3a.44.44,0,0,0,.44.44h3ZM9.13,11.3H3a.43.43,0,0,1-.43-.43A.44.44,0,0,1,3,10.43H9.13a.44.44,0,0,1,.43.44.43.43,0,0,1-.43.43Zm0-1.74H3a.43.43,0,0,1-.43-.43A.44.44,0,0,1,3,8.69H9.13a.44.44,0,0,1,.43.44.43.43,0,0,1-.43.43Zm0-1.73H3a.44.44,0,0,1-.43-.44A.43.43,0,0,1,3,7H9.13a.43.43,0,0,1,.43.43.44.44,0,0,1-.43.44Z"/></svg>