<svg id="Layer_1" data-name="Layer 1" xmlns="http://www.w3.org/2000/svg" viewBox="0 0 89 95"><defs><style>.cls-1{fill:#e880ae;}.cls-2{fill:#199176;}.cls-3{fill:#1d3d7b;}</style></defs><path class="cls-1" d="M54.91,31.45a9.43,9.43,0,0,1,1.18-.18c-.46,0-1.32.06-1.52.06C36,31.79,13.16,38.43,5.43,51.7s-3.5,30.14,9.44,37.67S48,92.12,55.69,78.85c.08-.14.7-1.54.83-1.81a36.4,36.4,0,0,1-4.09.23C27.64,76.86,23.73,38.64,54.91,31.45Z"/><polygon class="cls-2" points="87.45 93.36 56.06 93.36 55.93 30.82 87.45 30.82 87.45 93.36"/><path class="cls-3" d="M55.93,31.27c0-6.55-2.17-10.55-9.58-10.55-8.07,0-9.88,4.42-10.46,10.36H5.52C6.41,16.36,15.73,1,47.08,1,74.69,1,87.39,9.34,87.39,31Z"/></svg>