<svg id="Capa_1" data-name="Capa 1" xmlns="http://www.w3.org/2000/svg" viewBox="0 0 25.54 30.86"><defs><style>.cls-1{fill:#313230;}</style></defs><path id="Icon_metro-youtube2" data-name="Icon metro-youtube2" class="cls-1" d="M16.26,21.42v3.63c0,.77-.22,1.15-.67,1.15a1,1,0,0,1-.77-.38V20.64a1.07,1.07,0,0,1,.77-.37C16,20.27,16.26,20.65,16.26,21.42Zm5.82,0v.79H20.53v-.79c0-.79.26-1.18.78-1.18S22.08,20.65,22.08,21.44ZM5.45,17.68H7.29V16.06H1.92v1.62H3.73v9.8H5.45Zm5,9.8h1.53V19H10.41v6.51c-.34.48-.67.72-1,.72s-.33-.12-.36-.36a4,4,0,0,1,0-.6V19H7.52V25.7A4.14,4.14,0,0,0,7.66,27a.92.92,0,0,0,1,.63,2.48,2.48,0,0,0,1.75-1.05v.93Zm7.39-2.55V21.54a6.5,6.5,0,0,0-.16-1.7,1.2,1.2,0,0,0-1.22-1,2.11,2.11,0,0,0-1.6.93V16.06H13.29V27.48h1.53v-.83a2.13,2.13,0,0,0,1.6,1,1.2,1.2,0,0,0,1.22-1,6.61,6.61,0,0,0,.16-1.72Zm5.81-.17v-.22H22.05a7.38,7.38,0,0,1,0,1.05.65.65,0,0,1-.69.62c-.52,0-.79-.4-.79-1.19v-1.5h3.08V21.74a3.37,3.37,0,0,0-.46-2,2.35,2.35,0,0,0-3.31-.35,2.38,2.38,0,0,0-.36.35,3.28,3.28,0,0,0-.48,2v3a3.19,3.19,0,0,0,.5,2,2.22,2.22,0,0,0,1.86.88,2.13,2.13,0,0,0,2.22-1.84,8.41,8.41,0,0,0,0-1ZM13.15,9V5.43c0-.8-.25-1.19-.74-1.19s-.74.39-.74,1.19V9c0,.8.24,1.21.74,1.21S13.15,9.84,13.15,9ZM25.53,22a30.3,30.3,0,0,1-.45,6,3.25,3.25,0,0,1-1,1.7,3.07,3.07,0,0,1-1.76.8,95,95,0,0,1-9.55.36,95.35,95.35,0,0,1-9.56-.36,3.09,3.09,0,0,1-1.76-.79,3.17,3.17,0,0,1-1-1.7A29,29,0,0,1,0,22a30.42,30.42,0,0,1,.45-6,3.25,3.25,0,0,1,1-1.7,3.11,3.11,0,0,1,1.77-.81q3.15-.34,9.54-.34t9.55.34a3.24,3.24,0,0,1,2.76,2.5,29,29,0,0,1,.45,6ZM8.35,0H10.1L8,6.87v4.67H6.3V6.87a29.2,29.2,0,0,0-1-3.65C4.82,2,4.45,1,4.13,0H6L7.18,4.53Zm6.36,5.73v3a3.38,3.38,0,0,1-.48,2,2.1,2.1,0,0,1-1.82.87,2.14,2.14,0,0,1-1.81-.87,3.38,3.38,0,0,1-.48-2v-3a3.34,3.34,0,0,1,.48-2,2.18,2.18,0,0,1,1.81-.88,2.13,2.13,0,0,1,1.82.88,3.34,3.34,0,0,1,.48,2ZM20.48,3v8.59H18.91v-.95a2.45,2.45,0,0,1-1.77,1.07,1,1,0,0,1-1-.64A4.33,4.33,0,0,1,16,9.73V3h1.56V9.27c0,.2,0,.4,0,.6s.16.37.36.37.64-.24,1-.74V3Z"/></svg>