<?xml version="1.0" encoding="utf-8"?>
<!-- Generator: Adobe Illustrator 26.3.1, SVG Export Plug-In . SVG Version: 6.00 Build 0)  -->
<svg version="1.1" id="Capa_1" xmlns="http://www.w3.org/2000/svg" xmlns:xlink="http://www.w3.org/1999/xlink" x="0px" y="0px"
	 viewBox="0 0 31.5 31.5" style="enable-background:new 0 0 31.5 31.5;" xml:space="preserve">
<style type="text/css">
	.st0{fill:#FFFFFF;}
</style>
<path id="Icon_awesome-instagram" class="st0" d="M15.8,7.7c-4.5,0-8.1,3.6-8.1,8.1s3.6,8.1,8.1,8.1s8.1-3.6,8.1-8.1l0,0
	C23.8,11.3,20.2,7.7,15.8,7.7z M15.8,21c-2.9,0-5.2-2.4-5.2-5.3s2.4-5.2,5.3-5.2s5.2,2.4,5.2,5.3c0,0,0,0,0,0
	C21,18.6,18.6,21,15.8,21L15.8,21L15.8,21z M26,7.3c0,1-0.8,1.9-1.9,1.9c-1,0-1.9-0.8-1.9-1.9c0-1,0.8-1.9,1.8-1.9c0,0,0,0,0,0l0,0
	C25.1,5.5,26,6.3,26,7.3C26,7.3,26,7.3,26,7.3z M31.4,9.2c0.1-2.4-0.9-4.8-2.5-6.6C27,1,24.7,0.1,22.2,0.1C19.6,0,11.9,0,9.2,0.1
	C6.8,0.1,4.4,1,2.7,2.6C1,4.4,0.1,6.8,0.1,9.2c-0.2,2.6-0.2,10.4,0,13c-0.1,2.4,0.9,4.8,2.5,6.6c1.8,1.7,4.2,2.6,6.6,2.5
	c2.6,0.1,10.4,0.1,13,0c2.4,0,4.8-0.9,6.6-2.5c1.7-1.8,2.6-4.2,2.5-6.6C31.5,19.6,31.5,11.9,31.4,9.2L31.4,9.2z M28,25
	c-0.5,1.4-1.6,2.5-3,3c-2.1,0.8-7,0.6-9.3,0.6S8.5,28.8,6.4,28c-1.4-0.5-2.5-1.6-3-3c-0.8-2.1-0.6-7-0.6-9.3S2.6,8.5,3.4,6.4
	c0.5-1.4,1.6-2.5,3-3c2.1-0.8,7-0.6,9.3-0.6S23,2.7,25,3.5c1.4,0.5,2.5,1.6,3,3c0.8,2.1,0.6,7,0.6,9.3S28.9,23,28,25z"/>
</svg>
