<?xml version="1.0" encoding="utf-8"?>
<!-- Generator: Adobe Illustrator 26.3.1, SVG Export Plug-In . SVG Version: 6.00 Build 0)  -->
<svg version="1.1" id="Capa_1" xmlns="http://www.w3.org/2000/svg" xmlns:xlink="http://www.w3.org/1999/xlink" x="0px" y="0px"
	 viewBox="0 0 25.5 30.9" style="enable-background:new 0 0 25.5 30.9;" xml:space="preserve">
<style type="text/css">
	.st0{fill:#FFFFFF;}
</style>
<path id="Icon_metro-youtube2" class="st0" d="M16.3,21.4V25c0,0.8-0.2,1.1-0.7,1.1c-0.3,0-0.6-0.1-0.8-0.4v-5.2
	c0.2-0.2,0.5-0.4,0.8-0.4C16,20.3,16.3,20.6,16.3,21.4z M22.1,21.4v0.8h-1.5v-0.8c0-0.8,0.3-1.2,0.8-1.2S22.1,20.6,22.1,21.4
	L22.1,21.4z M5.4,17.7h1.8v-1.6H1.9v1.6h1.8v9.8h1.7V17.7z M10.4,27.5H12V19h-1.6v6.5c-0.3,0.5-0.7,0.7-1,0.7s-0.3-0.1-0.4-0.4
	c0-0.2,0-0.4,0-0.6V19H7.5v6.7c0,0.4,0,0.9,0.1,1.3c0.1,0.4,0.6,0.7,1,0.6c0.7-0.1,1.3-0.5,1.8-1L10.4,27.5L10.4,27.5z M17.8,24.9
	v-3.4c0-0.6,0-1.1-0.2-1.7c-0.1-0.6-0.6-1-1.2-1c-0.6,0-1.2,0.4-1.6,0.9v-3.7h-1.6v11.4h1.5v-0.8c0.3,0.6,0.9,0.9,1.6,1
	c0.6,0,1.1-0.4,1.2-1C17.8,26.1,17.8,25.5,17.8,24.9L17.8,24.9z M23.6,24.8v-0.2H22c0,0.3,0,0.7,0,1c0,0.4-0.3,0.6-0.7,0.6
	c0,0,0,0,0,0c-0.5,0-0.8-0.4-0.8-1.2v-1.5h3.1v-1.8c0.1-0.7-0.1-1.4-0.5-2c-0.8-1-2.3-1.2-3.3-0.4c0,0,0,0,0,0
	c-0.1,0.1-0.3,0.2-0.4,0.4c-0.4,0.6-0.5,1.3-0.5,2v3c-0.1,0.7,0.1,1.4,0.5,2c0.4,0.6,1.1,0.9,1.9,0.9c1.1,0.1,2.1-0.7,2.2-1.8
	C23.6,25.4,23.6,25.1,23.6,24.8L23.6,24.8z M13.1,9V5.4c0-0.8-0.2-1.2-0.7-1.2s-0.7,0.4-0.7,1.2V9c0,0.8,0.2,1.2,0.7,1.2
	S13.1,9.8,13.1,9z M25.5,22c0,2-0.1,4-0.5,6c-0.1,0.7-0.5,1.3-1,1.7c-0.5,0.4-1.1,0.7-1.8,0.8c-3.2,0.3-6.4,0.4-9.6,0.4
	c-3.2,0-6.4-0.1-9.6-0.4c-0.7-0.1-1.3-0.3-1.8-0.8c-0.5-0.4-0.9-1-1-1.7c-0.4-2-0.5-4-0.4-6c0-2,0.1-4,0.4-6c0.1-0.7,0.5-1.3,1-1.7
	c0.5-0.5,1.1-0.7,1.8-0.8c2.1-0.2,5.3-0.3,9.5-0.3c4.3,0,7.4,0.1,9.6,0.3c1.4,0.2,2.5,1.2,2.8,2.5C25.4,18,25.6,20,25.5,22L25.5,22z
	 M8.4,0h1.8L8,6.9v4.7H6.3V6.9C6,5.6,5.7,4.4,5.3,3.2C4.8,2,4.4,1,4.1,0H6l1.2,4.5L8.4,0z M14.7,5.7v3c0.1,0.7-0.1,1.4-0.5,2
	c-0.4,0.6-1.1,0.9-1.8,0.9c-0.7,0-1.4-0.3-1.8-0.9c-0.4-0.6-0.5-1.3-0.5-2v-3c-0.1-0.7,0.1-1.4,0.5-2c0.4-0.6,1.1-0.9,1.8-0.9
	c0.7,0,1.4,0.3,1.8,0.9C14.6,4.3,14.8,5,14.7,5.7z M20.5,3v8.6h-1.6v-0.9c-0.4,0.6-1.1,1-1.8,1.1c-0.4,0-0.8-0.2-1-0.6
	C16,10.6,16,10.2,16,9.7V3h1.6v6.3c0,0.2,0,0.4,0,0.6s0.2,0.4,0.4,0.4s0.6-0.2,1-0.7V3H20.5z"/>
</svg>
