<svg id="Capa_1" data-name="Capa 1" xmlns="http://www.w3.org/2000/svg" viewBox="0 0 792 612"><defs><style>.cls-1{fill:#fff;}.cls-2,.cls-3{fill:#343434;}.cls-2{fill-rule:evenodd;}</style></defs><path class="cls-1" d="M82.79,337a2.81,2.81,0,1,0,2.81,2.81h0A2.8,2.8,0,0,0,82.8,337Z"/><path class="cls-1" d="M83.87,307.06a6.3,6.3,0,0,0-3.88-.92l-.35,0,.42,2.3h.25a5.44,5.44,0,0,1,2.08.38,3,3,0,0,1,1.83,2.39,3.37,3.37,0,0,1-.77,3.1,5.88,5.88,0,0,1-3.32,1.61,6.07,6.07,0,0,1-4.11-.37A3.53,3.53,0,0,1,74.28,313a3,3,0,0,1,1.88-3.67l.23-.1L76,307l-.33.09a4.91,4.91,0,0,0-2.83,2.14,5.59,5.59,0,0,0-.66,4.22,5.85,5.85,0,0,0,2.95,4.32,7.15,7.15,0,0,0,3.42.84,10.26,10.26,0,0,0,1.74-.17,7.61,7.61,0,0,0,5.41-3.14,5.79,5.79,0,0,0,.73-4.2A5.69,5.69,0,0,0,83.87,307.06Z"/><path class="cls-1" d="M84.89,300.47l-5.63-.09.06-3.62a3.57,3.57,0,0,1,.23-1.41,1.57,1.57,0,0,1,1.48-.73l2.18-.07a9.81,9.81,0,0,0,1.08-.08,1.93,1.93,0,0,0,.53-.17l.17-.08,0-2.68h-.81l-.08.18a.84.84,0,0,1-.61.39,5.33,5.33,0,0,1-1,.1l-1.76,0a3.21,3.21,0,0,0-1.84.47,2.68,2.68,0,0,0-.67.75,3.62,3.62,0,0,0-1-1,3.76,3.76,0,0,0-2.09-.57H75a3.37,3.37,0,0,0-3.32,1.94,6.25,6.25,0,0,0-.51,2.55l-.1,6.28,13.74.22Zm-11.58-.19.06-3.9a2.92,2.92,0,0,1,.26-1.27,1.61,1.61,0,0,1,1.58-.8h.07a1.77,1.77,0,0,1,1.53.6,3,3,0,0,1,.42,1.75l-.06,3.68Z"/><polygon class="cls-1" points="83.69 286.48 79.94 285.73 81.36 278.67 79.27 278.25 77.85 285.31 74.55 284.64 76.09 277.01 73.9 276.57 71.9 286.51 85.37 289.22 87.4 279.15 85.26 278.72 83.69 286.48"/><polygon class="cls-1" points="86.98 273.86 83.43 272.44 86.09 265.75 84.11 264.96 81.44 271.65 78.32 270.4 81.2 263.17 79.13 262.34 75.38 271.76 88.14 276.85 91.94 267.31 89.92 266.5 86.98 273.86"/><path class="cls-1" d="M98.29,255.26a.79.79,0,0,1-.72,0,5.36,5.36,0,0,1-.93-.46l-1.52-.89a3.37,3.37,0,0,0-1.81-.57,2.73,2.73,0,0,0-1,.29,3.44,3.44,0,0,0-1.81-2.95,3.4,3.4,0,0,0-3.92-.13,6.33,6.33,0,0,0-1.77,1.91l-3.35,5.3,11.59,7.37,1.29-2-4.75-3,1.93-3.05a3.6,3.6,0,0,1,.93-1.09,1.55,1.55,0,0,1,1.64.15l1.9,1.08a7.42,7.42,0,0,0,1,.5,1.67,1.67,0,0,0,.53.14h.19l1.43-2.25-.67-.44Zm-8.48.6-2,3.11-3.26-2.07,2.1-3.3a2.86,2.86,0,0,1,.88-.95,1.66,1.66,0,0,1,1.82.18,1.77,1.77,0,0,1,1,1.32A3,3,0,0,1,89.81,255.86Z"/><g id="g4007"><g id="g3945"><path id="path3941" class="cls-2" d="M66.28,318a4,4,0,0,1,0-4.72c.61-.91.15-2.47.36-3.69.31-1.72.8-3.4,1.22-5.1.06-.22.27-.41.28-.62.14-2.38,1.76-4.36,1.63-6.89a17.17,17.17,0,0,1,.91-5.55c1.5-5.05.57-10.25,1.1-15.35.16-1.62.86-3.18,1-4.79.3-4.27.61-8.55.53-12.82,0-3-2.38-4.44-5.31-4a39.41,39.41,0,0,0-10.24,3.56c-3.44,1.57-6.48,3.69-9.78,5.4a6.37,6.37,0,0,1-7.28-1.08c1.17-1.06,2.25-2.23,3.52-3.17,4.69-3.45,9.37-6.93,14.19-10.2,4.4-3,8.92-5.77,13.5-8.46a9.21,9.21,0,0,1,4.21-1c2.27-.09,4.55.14,6.82.27.37,0,1,.14,1.06.37,1,2.77,3.8,4.62,3.76,8a17.52,17.52,0,0,1-1.1,6.74c-.63,1.55-.26,3.49-.42,5.25-.21,2.32-.56,4.63-.76,7s0,4.5-.46,6.63c-.77,3.29-2,6.47-3,9.72-.12.42.36,1,.33,1.49-.08,1.37-.31,2.72-.41,4.1-.07,1,0,2,0,3.27-2,.56-1.25,2.62-1.52,4.26s-.55,3.49-.8,5.23c-.58,3.94-.92,7.94-1.79,11.81-1.46,6.45-.8,12.88.14,19.23a12.25,12.25,0,0,0,7.67,10c1.14.47,2.64.06,4,.05,1,0,1.93,0,2.89-.07a2.27,2.27,0,0,0,1-.41,33.62,33.62,0,0,0,11.82-13.69,13,13,0,0,1,1.26-2.25c3.62-4.82,5.38-10.53,7.79-15.94,1.87-4.2,4.48-8.07,6.63-12.15a12.56,12.56,0,0,0,1.58-4.46c.38-4.3,2.75-7.78,4.6-11.39,3-5.86,3.69-12.35,5.74-18.45-1.11-3.57,1.57-6.23,2.24-9.36s1.41-6.33,2.08-9.51c.24-1.14.91-1.4,2-1.6,2.62-.49,5.17-1.3,7.77-1.91,2-.48,4.11-.86,6.64-1.38-.24,3.18-.45,6.06-.68,8.94,0,.57-.19,1.13-.2,1.69,0,2.73,0,5.45-.07,8.18-.11,4.85-1.29,9.73.54,14.53a4.9,4.9,0,0,1,.11,2c-.18,3.74-.5,7.49-.55,11.24,0,3.14.24,6.27.38,9.42a4.43,4.43,0,0,1,.06.51c-.12,1.89-1,3.6.07,5.71.93,1.89.79,4.33,1.07,6.53.34,2.67.33,5.41,1,8,.85,3.31.36,6.92,2.63,9.93,3.9,5.18,5.22,11.73,8.77,17.11a11.08,11.08,0,0,0,3,2.91,10.24,10.24,0,0,0,9.4,1.56c1.19-.41,2.6-.88,3.55.87-1.2,1.59-2.25,3.33-4.57,3.89-2.82.68-5.52,1.93-8.36,2.37a14,14,0,0,1-6-.72,13.2,13.2,0,0,1-6.39-4c-1.65-1.86-4.45-2.69-6.68-4.08a4,4,0,0,1-1.58-1.68,38,38,0,0,0-7.58-11.14,10.49,10.49,0,0,1-1.3-2.49c-.07-.14-.05-.34-.12-.49-1.95-4.32-3-9-4.6-13.42-.56-1.53.09-3.52.19-5.29a5.26,5.26,0,0,0,.11-1.1q-1.17-8.44-2.38-16.89l0-.44c-2.38,3.6-4.84,7.28-7.24,11a5.91,5.91,0,0,0-.42,1.63c-.1.36-.19,1-.4,1-1.73.46-1.4,1.79-1.42,3a3.17,3.17,0,0,1-.34,1.46c-1.22,2.25-2.55,4.45-3.75,6.7a39.29,39.29,0,0,0-2.49,5.25c-1.68,4.72-4.6,8.72-7.58,12.59s-6.67,7.52-10,11.25a1.42,1.42,0,0,1-.25.24c-4.86,2.57-9,6.77-15,6.75a4.83,4.83,0,0,0-1.84.36,2.72,2.72,0,0,1-3.11-.64c-.34-.32-1-.27-1.57-.36a7.06,7.06,0,0,1-1.16-.15,64.42,64.42,0,0,1-6-2.39,6.57,6.57,0,0,1-3.91-4.68c-.1-.49-.19-1.17-.54-1.41-2.69-1.84-2.24-4.85-2.82-7.45-.28-1.28-.21-2.66-.6-3.89a12.92,12.92,0,0,1,.25-8.22c0-.16,0-.38.16-.48,1.71-1.4.89-3,.49-4.65a1.91,1.91,0,0,1,.44-1.44,15,15,0,0,1,2-1.67Z"/><path id="path3943" class="cls-2" d="M202.81,317.7a16,16,0,1,1,.15-32.05,16.23,16.23,0,0,1,16.27,16.05,16.06,16.06,0,0,1-16.42,16Z"/></g><g id="g4005"><path id="path3947" class="cls-3" d="M272.47,278.77V259.48h3.75v19c0,7.16,3.79,11.2,10.15,11.2,6.11,0,10-3.7,10-11v-19.3h3.75v19c0,9.68-5.55,14.7-13.85,14.7S272.47,288.16,272.47,278.77Z"/><path id="path3949" class="cls-3" d="M308.34,268.16H312v4.26a9.27,9.27,0,0,1,8.4-4.79c5.92,0,9.38,4,9.38,9.82v15.21h-3.65V278.35c0-4.56-2.46-7.4-6.77-7.4S312,274,312,278.63v14h-3.65v-24.5Z"/><path id="path3951" class="cls-3" d="M337.61,258.76h4.17v4h-4.17Zm.24,9.4h3.65v24.5h-3.65Z"/><path id="path3953" class="cls-3" d="M347.56,268.16h4l8.25,20.33,8.3-20.33h3.93l-10.66,24.69h-3.23Z"/><path id="path3955" class="cls-3" d="M388.6,290.05a10.14,10.14,0,0,0,7.73-3.46l2.27,2a12.64,12.64,0,0,1-10.09,4.6c-6.74,0-12.24-5.16-12.24-12.8,0-7.12,5-12.81,11.76-12.81,7.25,0,11.43,5.79,11.43,13,0,.33,0,.71,0,1.28H380C380.49,287.07,384.28,290.05,388.6,290.05ZM395.76,279c-.43-4.46-3-8.25-7.82-8.25-4.22,0-7.45,3.51-8,8.25Z"/><path id="path3957" class="cls-3" d="M405.83,268.16h3.65v6.39c1.81-4.08,5.37-7,10-6.82v3.93h-.28c-5.36,0-9.72,3.83-9.72,11.23v9.76h-3.65V268.16Z"/><path id="path3959" class="cls-3" d="M423,289.53l1.84-2.61a14.28,14.28,0,0,0,8.49,3.13c2.94,0,5.07-1.52,5.07-3.89v-.09c0-2.47-2.89-3.42-6.12-4.31-3.84-1.09-8.11-2.42-8.11-6.93v-.09c0-4.22,3.52-7,8.35-7a16.73,16.73,0,0,1,8.81,2.7l-1.65,2.75a13.89,13.89,0,0,0-7.26-2.37c-2.9,0-4.73,1.52-4.73,3.55v.1c0,2.32,3,3.23,6.3,4.22,3.79,1.13,7.87,2.61,7.87,7v.1c0,4.64-3.84,7.35-8.72,7.35A16.81,16.81,0,0,1,423,289.53Z"/><path id="path3961" class="cls-3" d="M448.7,258.76h4.17v4H448.7Zm.24,9.4h3.65v24.5h-3.65Z"/><path id="path3963" class="cls-3" d="M459.64,280.48v-.1c0-8,5.83-12.75,11.71-12.75a11.09,11.09,0,0,1,9.4,5.21V258.05h3.65v34.61h-3.65v-4.93c-2,2.94-4.89,5.46-9.4,5.46C465.48,293.18,459.64,288.53,459.64,280.48Zm21.25-.05v-.1A9.1,9.1,0,0,0,472,270.9c-4.75,0-8.63,3.51-8.63,9.43v.1c0,5.78,4,9.48,8.63,9.48A9.15,9.15,0,0,0,480.89,280.43Z"/><path id="path3965" class="cls-3" d="M490.68,285.55v-.1c0-5.26,4.26-8,10.47-8a25.89,25.89,0,0,1,7.49,1v-.75c0-4.36-2.66-6.64-7.25-6.64a17.06,17.06,0,0,0-7.44,1.75l-1.09-3a20.11,20.11,0,0,1,8.91-2.08c3.46,0,6.16.94,7.91,2.7s2.57,4.07,2.57,7.2v15h-3.6V289a10.76,10.76,0,0,1-8.82,4.17C495.23,293.18,490.68,290.58,490.68,285.55Zm18-1.9v-2.27a25.2,25.2,0,0,0-7.16-1.05c-4.55,0-7.16,2-7.16,4.94v.09c0,3.09,2.85,4.88,6.17,4.88,4.5,0,8.15-2.7,8.15-6.59Z"/><path id="path3967" class="cls-3" d="M518.54,280.48v-.1c0-8,5.82-12.75,11.7-12.75a11.07,11.07,0,0,1,9.39,5.21V258.05h3.65v34.61h-3.65v-4.93c-2,2.94-4.88,5.46-9.39,5.46C524.37,293.18,518.54,288.53,518.54,280.48Zm21.23-.05v-.1a9.1,9.1,0,0,0-8.86-9.43c-4.74,0-8.64,3.51-8.64,9.43v.1c0,5.78,4,9.48,8.64,9.48A9.15,9.15,0,0,0,539.77,280.43Z"/><path id="path3969" class="cls-3" d="M566.23,259.48h3.52l20.9,26.59V259.48h3.65v33.18h-3l-21.43-27.21v27.21h-3.65V259.48Z"/><path id="path3971" class="cls-3" d="M601.2,285.55v-.1c0-5.26,4.27-8,10.48-8a25.84,25.84,0,0,1,7.49,1v-.75c0-4.36-2.65-6.64-7.25-6.64a17,17,0,0,0-7.44,1.75l-1.1-3a20.15,20.15,0,0,1,8.91-2.08c3.47,0,6.17.94,7.92,2.7s2.57,4.07,2.57,7.2v15h-3.6V289a10.76,10.76,0,0,1-8.82,4.17c-4.61,0-9.16-2.6-9.16-7.63Zm18-1.9v-2.27a25.2,25.2,0,0,0-7.16-1.05c-4.56,0-7.16,2-7.16,4.94v.09c0,3.09,2.85,4.88,6.17,4.88C615.57,290.24,619.22,287.54,619.22,283.65Z"/><path id="path3973" class="cls-3" d="M629,280.52v-.09A12.76,12.76,0,0,1,651.34,272l-2.42,2.56c-1.94-2-4.12-3.7-7.44-3.7-5,0-8.77,4.22-8.77,9.48v.1c0,5.31,3.89,9.53,9,9.53a10.12,10.12,0,0,0,7.49-3.65l2.32,2.18c-2.46,2.75-5.4,4.75-10,4.75A12.6,12.6,0,0,1,629,280.52Z"/><path id="path3975" class="cls-3" d="M657.62,258.76h4.18v4h-4.18Zm.24,9.4h3.65v24.5h-3.65Z"/><path id="path3977" class="cls-3" d="M668.47,280.52v-.09a12.78,12.78,0,0,1,25.56-.1v.1a12.73,12.73,0,0,1-12.85,12.8,12.56,12.56,0,0,1-12.71-12.71Zm21.81,0v-.09a9.28,9.28,0,0,0-9.1-9.58c-5.32,0-9,4.31-9,9.48v.1a9.21,9.21,0,0,0,9.06,9.53C686.58,290,690.28,285.69,690.28,280.52Z"/><path id="path3979" class="cls-3" d="M700.59,268.16h3.65v4.26a9.27,9.27,0,0,1,8.4-4.79c5.92,0,9.39,4,9.39,9.82v15.21h-3.65V278.35c0-4.56-2.47-7.4-6.78-7.4s-7.35,3.08-7.35,7.68v14H700.6Z"/><path id="path3981" class="cls-3" d="M727.92,285.55v-.1c0-5.26,4.28-8,10.48-8a25.84,25.84,0,0,1,7.49,1v-.75c0-4.36-2.65-6.64-7.25-6.64a17.18,17.18,0,0,0-7.45,1.75l-1.08-3a20.11,20.11,0,0,1,8.91-2.08c3.46,0,6.17.94,7.92,2.7s2.56,4.07,2.56,7.2v15h-3.6V289a10.76,10.76,0,0,1-8.82,4.17c-4.61,0-9.16-2.6-9.16-7.63Zm18-1.9v-2.27a25.19,25.19,0,0,0-7.15-1.05c-4.56,0-7.16,2-7.16,4.94v.09c0,3.09,2.84,4.88,6.16,4.88C742.29,290.24,745.94,287.54,745.94,283.65Z"/><path id="path3983" class="cls-3" d="M757.54,258.05h3.65v34.61h-3.65Z"/><path id="path3985" class="cls-3" d="M271,338.44v-.1c0-8,5.83-12.75,11.71-12.75a11.07,11.07,0,0,1,9.39,5.22V316h3.65v34.61h-3.65V345.7c-2,2.94-4.88,5.45-9.39,5.45-5.87,0-11.71-4.65-11.71-12.71Zm21.23-.05v-.09a9.11,9.11,0,0,0-8.87-9.44c-4.74,0-8.62,3.51-8.62,9.44v.09c0,5.79,4,9.48,8.62,9.48a9.14,9.14,0,0,0,8.87-9.48Z"/><path id="path3987" class="cls-3" d="M314.64,348a10.12,10.12,0,0,0,7.73-3.47l2.28,2a12.61,12.61,0,0,1-10.1,4.6c-6.74,0-12.23-5.16-12.23-12.8,0-7.11,5-12.8,11.75-12.8,7.25,0,11.43,5.78,11.43,13,0,.32,0,.71,0,1.28H306C306.54,345,310.33,348,314.64,348Zm7.16-11.09c-.42-4.46-3-8.26-7.81-8.26-4.22,0-7.45,3.51-8,8.26Z"/><path id="path3989" class="cls-3" d="M346,317.44h15.17c4.22,0,7.49,1.18,9.67,3.36a10.43,10.43,0,0,1,2.85,7.59v.09a10.32,10.32,0,0,1-7.12,10.29l8.11,11.85h-8.54L359,340H353.3v10.62H346Zm14.7,16.12c3.55,0,5.59-1.91,5.59-4.7v-.09c0-3.14-2.18-4.75-5.74-4.75H353.3v9.54Z"/><path id="path3991" class="cls-3" d="M379.82,325.21H387v25.41h-7.2Zm6-11.19,6.21,2.71-6.16,5.69h-5.31Z"/><path id="path3993" class="cls-3" d="M392.57,338.06V338c0-7.29,5.88-13.22,13.79-13.22s13.7,5.83,13.7,13.13V338c0,7.31-5.89,13.24-13.81,13.24S392.57,345.36,392.57,338.06Zm20.38,0V338a6.75,6.75,0,0,0-6.69-7c-4.12,0-6.58,3.18-6.58,6.92V338a6.75,6.75,0,0,0,6.68,7c4.13,0,6.59-3.19,6.59-6.93Z"/><path id="path3995" class="cls-3" d="M440.23,317.44H447l15.54,20.43V317.44h7.21v33.18h-6.21l-16.07-21.09v21.09h-7.21V317.44Z"/><path id="path3997" class="cls-3" d="M475.66,338.06V338c0-7.25,5.16-13.22,12.56-13.22,8.49,0,12.37,6.59,12.37,13.8,0,.56,0,1.23-.09,1.89H482.81a5.91,5.91,0,0,0,6.21,5,8.34,8.34,0,0,0,6.17-2.61l4.12,3.64a12.71,12.71,0,0,1-10.38,4.75c-7.63,0-13.27-5.36-13.27-13.14Zm17.92-2.13c-.43-3.23-2.33-5.4-5.36-5.4s-4.93,2.12-5.5,5.4Z"/><path id="path3999" class="cls-3" d="M506.08,355.66l2.46-5.42a16.52,16.52,0,0,0,8.59,2.33c4.93,0,7.25-2.37,7.25-6.92v-1.23c-2.13,2.56-4.46,4.12-8.3,4.12-5.92,0-11.28-4.31-11.28-11.85v-.1c0-7.58,5.45-11.85,11.28-11.85a10.28,10.28,0,0,1,8.2,3.79v-3.31h7.2v19.67c0,4.56-1.09,7.87-3.22,10-2.37,2.36-6,3.41-11,3.41a24.16,24.16,0,0,1-11.22-2.65Zm18.3-19v-.1a6.2,6.2,0,0,0-12.38,0v.1c0,3.5,2.65,5.87,6.17,5.87A5.87,5.87,0,0,0,524.38,336.69Z"/><path id="path4001" class="cls-3" d="M537.92,325.21h7.19v5.12c1.48-3.5,3.84-5.78,8.12-5.6v7.54h-.38c-4.79,0-7.74,2.9-7.74,9v9.39h-7.19Z"/><path id="path4003" class="cls-3" d="M556.48,338.06V338c0-7.29,5.88-13.22,13.8-13.22s13.7,5.83,13.7,13.13V338c0,7.31-5.88,13.24-13.8,13.24S556.48,345.36,556.48,338.06Zm20.38,0V338a6.74,6.74,0,0,0-6.68-7c-4.13,0-6.58,3.18-6.58,6.92V338a6.75,6.75,0,0,0,6.68,7C574.4,345,576.86,341.8,576.86,338.06Z"/></g></g></svg>